<?xml version="1.0" encoding="UTF-8" standalone="no"?>
<!DOCTYPE svg PUBLIC "-//W3C//DTD SVG 1.1//EN"
 "http://www.w3.org/Graphics/SVG/1.1/DTD/svg11.dtd">
<!-- Generated by graphviz version 12.2.1 (20241206.2353)
 -->
<!-- Pages: 1 -->
<svg width="919pt" height="653pt"
 viewBox="0.00 0.00 919.00 653.00" xmlns="http://www.w3.org/2000/svg" xmlns:xlink="http://www.w3.org/1999/xlink">
<g id="graph0" class="graph" transform="scale(1 1) rotate(0) translate(4 649)">
<polygon fill="white" stroke="none" points="-4,4 -4,-649 915,-649 915,4 -4,4"/>
<g id="clust1" class="cluster">
<title>cluster~</title>
<path fill="none" stroke="lightgray" stroke-width="2.6" d="M20,-8C20,-8 891,-8 891,-8 897,-8 903,-14 903,-20 903,-20 903,-625 903,-625 903,-631 897,-637 891,-637 891,-637 20,-637 20,-637 14,-637 8,-631 8,-625 8,-625 8,-20 8,-20 8,-14 14,-8 20,-8"/>
<text text-anchor="middle" x="455.5" y="-620.65" font-family="Arial Black" font-size="13.00">textify</text>
</g>
<g id="clust2" class="cluster">
<title>cluster~/test</title>
<path fill="none" stroke="lightgray" stroke-width="2.6" d="M28,-531C28,-531 883,-531 883,-531 889,-531 895,-537 895,-543 895,-543 895,-594 895,-594 895,-600 889,-606 883,-606 883,-606 28,-606 28,-606 22,-606 16,-600 16,-594 16,-594 16,-543 16,-543 16,-537 22,-531 28,-531"/>
<text text-anchor="middle" x="455.5" y="-589.65" font-family="Arial Black" font-size="13.00">test</text>
</g>
<g id="clust3" class="cluster">
<title>cluster~/lib</title>
<path fill="none" stroke="lightgray" stroke-width="2.6" d="M229,-16C229,-16 689,-16 689,-16 695,-16 701,-22 701,-28 701,-28 701,-511 701,-511 701,-517 695,-523 689,-523 689,-523 229,-523 229,-523 223,-523 217,-517 217,-511 217,-511 217,-28 217,-28 217,-22 223,-16 229,-16"/>
<text text-anchor="middle" x="459" y="-506.65" font-family="Arial Black" font-size="13.00">lib</text>
</g>
<!-- /test/textify_test.dart -->
<g id="node1" class="node">
<title>/test/textify_test.dart</title>
<path fill="Lavender" stroke="black" stroke-width="1.3" d="M746.38,-575C746.38,-575 681.62,-575 681.62,-575 675.62,-575 669.62,-569 669.62,-563 669.62,-563 669.62,-551 669.62,-551 669.62,-545 675.62,-539 681.62,-539 681.62,-539 746.38,-539 746.38,-539 752.38,-539 758.38,-545 758.38,-551 758.38,-551 758.38,-563 758.38,-563 758.38,-569 752.38,-575 746.38,-575"/>
<text text-anchor="middle" x="714" y="-551.75" font-family="Arial" font-size="15.00">textify_test</text>
</g>
<!-- /lib/band.dart -->
<g id="node8" class="node">
<title>/lib/band.dart</title>
<path fill="Lavender" stroke="black" stroke-width="1.3" d="M271,-348C271,-348 241,-348 241,-348 235,-348 229,-342 229,-336 229,-336 229,-324 229,-324 229,-318 235,-312 241,-312 241,-312 271,-312 271,-312 277,-312 283,-318 283,-324 283,-324 283,-336 283,-336 283,-342 277,-348 271,-348"/>
<text text-anchor="middle" x="256" y="-324.75" font-family="Arial" font-size="15.00">band</text>
</g>
<!-- /test/textify_test.dart&#45;&gt;/lib/band.dart -->
<g id="edge1" class="edge">
<title>/test/textify_test.dart&#45;&gt;/lib/band.dart</title>
<path fill="none" stroke="#aabbaa" stroke-width="1.3" stroke-opacity="0.533333" d="M681.91,-538.59C675.17,-535.59 667.98,-532.84 661,-531 615.32,-518.94 601.44,-531.7 555,-523 400.22,-494.01 309.78,-546.5 216,-420 201.76,-400.79 215.38,-375.71 230.47,-357.07"/>
<polygon fill="#aabbaa" fill-opacity="0.533333" stroke="#aabbaa" stroke-width="1.3" stroke-opacity="0.533333" points="232.94,-359.57 236.83,-349.72 227.64,-354.99 232.94,-359.57"/>
</g>
<!-- /lib/character_definition.dart -->
<g id="node11" class="node">
<title>/lib/character_definition.dart</title>
<path fill="Lavender" stroke="black" stroke-width="1.3" d="M479.25,-348C479.25,-348 356.75,-348 356.75,-348 350.75,-348 344.75,-342 344.75,-336 344.75,-336 344.75,-324 344.75,-324 344.75,-318 350.75,-312 356.75,-312 356.75,-312 479.25,-312 479.25,-312 485.25,-312 491.25,-318 491.25,-324 491.25,-324 491.25,-336 491.25,-336 491.25,-342 485.25,-348 479.25,-348"/>
<text text-anchor="middle" x="418" y="-324.75" font-family="Arial" font-size="15.00">character_definition</text>
</g>
<!-- /test/textify_test.dart&#45;&gt;/lib/character_definition.dart -->
<g id="edge2" class="edge">
<title>/test/textify_test.dart&#45;&gt;/lib/character_definition.dart</title>
<path fill="none" stroke="#aabbaa" stroke-width="1.3" stroke-opacity="0.533333" d="M718.96,-538.51C727.54,-504.17 740.74,-427.46 702,-384 688.7,-369.08 581.84,-352.19 503.1,-341.57"/>
<polygon fill="#aabbaa" fill-opacity="0.533333" stroke="#aabbaa" stroke-width="1.3" stroke-opacity="0.533333" points="504.03,-338.16 493.65,-340.31 503.1,-345.1 504.03,-338.16"/>
</g>
<!-- /lib/textify.dart -->
<g id="node13" class="node">
<title>/lib/textify.dart</title>
<path fill="Lavender" stroke="black" stroke-width="1.3" d="M607.88,-492C607.88,-492 576.12,-492 576.12,-492 570.12,-492 564.12,-486 564.12,-480 564.12,-480 564.12,-468 564.12,-468 564.12,-462 570.12,-456 576.12,-456 576.12,-456 607.88,-456 607.88,-456 613.88,-456 619.88,-462 619.88,-468 619.88,-468 619.88,-480 619.88,-480 619.88,-486 613.88,-492 607.88,-492"/>
<text text-anchor="middle" x="592" y="-468.75" font-family="Arial" font-size="15.00">textify</text>
</g>
<!-- /test/textify_test.dart&#45;&gt;/lib/textify.dart -->
<g id="edge4" class="edge">
<title>/test/textify_test.dart&#45;&gt;/lib/textify.dart</title>
<path fill="none" stroke="#aabbaa" stroke-width="1.3" stroke-opacity="0.533333" d="M687.83,-538.62C670.38,-527.04 647.21,-511.66 628.03,-498.92"/>
<polygon fill="#aabbaa" fill-opacity="0.533333" stroke="#aabbaa" stroke-width="1.3" stroke-opacity="0.533333" points="630.03,-496.05 619.77,-493.44 626.16,-501.88 630.03,-496.05"/>
</g>
<!-- /lib/utilities.dart -->
<g id="node14" class="node">
<title>/lib/utilities.dart</title>
<path fill="Lavender" stroke="black" stroke-width="1.3" d="M582.5,-204C582.5,-204 545.5,-204 545.5,-204 539.5,-204 533.5,-198 533.5,-192 533.5,-192 533.5,-180 533.5,-180 533.5,-174 539.5,-168 545.5,-168 545.5,-168 582.5,-168 582.5,-168 588.5,-168 594.5,-174 594.5,-180 594.5,-180 594.5,-192 594.5,-192 594.5,-198 588.5,-204 582.5,-204"/>
<text text-anchor="middle" x="564" y="-180.75" font-family="Arial" font-size="15.00">utilities</text>
</g>
<!-- /test/textify_test.dart&#45;&gt;/lib/utilities.dart -->
<g id="edge5" class="edge">
<title>/test/textify_test.dart&#45;&gt;/lib/utilities.dart</title>
<path fill="none" stroke="#aabbaa" stroke-width="1.3" stroke-opacity="0.533333" d="M734.78,-538.57C763.55,-512.35 812,-459.78 812,-403 812,-403 812,-403 812,-329 812,-235.43 677.41,-202.66 606.53,-191.89"/>
<polygon fill="#aabbaa" fill-opacity="0.533333" stroke="#aabbaa" stroke-width="1.3" stroke-opacity="0.533333" points="607.25,-188.46 596.86,-190.51 606.26,-195.39 607.25,-188.46"/>
</g>
<!-- /lib/correction.dart -->
<g id="node16" class="node">
<title>/lib/correction.dart</title>
<path fill="Lavender" stroke="black" stroke-width="1.3" d="M681,-420C681,-420 623,-420 623,-420 617,-420 611,-414 611,-408 611,-408 611,-396 611,-396 611,-390 617,-384 623,-384 623,-384 681,-384 681,-384 687,-384 693,-390 693,-396 693,-396 693,-408 693,-408 693,-414 687,-420 681,-420"/>
<text text-anchor="middle" x="652" y="-396.75" font-family="Arial" font-size="15.00">correction</text>
</g>
<!-- /test/textify_test.dart&#45;&gt;/lib/correction.dart -->
<g id="edge3" class="edge">
<title>/test/textify_test.dart&#45;&gt;/lib/correction.dart</title>
<path fill="none" stroke="#aabbaa" stroke-width="1.3" stroke-opacity="0.533333" d="M707.01,-538.75C696.45,-512.69 676.32,-463.01 663.56,-431.52"/>
<polygon fill="#aabbaa" fill-opacity="0.533333" stroke="#aabbaa" stroke-width="1.3" stroke-opacity="0.533333" points="666.8,-430.2 659.8,-422.25 660.31,-432.83 666.8,-430.2"/>
</g>
<!-- /test/bands_test.dart -->
<g id="node2" class="node">
<title>/test/bands_test.dart</title>
<path fill="Lavender" stroke="black" stroke-width="1.3" d="M101.75,-575C101.75,-575 36.25,-575 36.25,-575 30.25,-575 24.25,-569 24.25,-563 24.25,-563 24.25,-551 24.25,-551 24.25,-545 30.25,-539 36.25,-539 36.25,-539 101.75,-539 101.75,-539 107.75,-539 113.75,-545 113.75,-551 113.75,-551 113.75,-563 113.75,-563 113.75,-569 107.75,-575 101.75,-575"/>
<text text-anchor="middle" x="69" y="-551.75" font-family="Arial" font-size="15.00">bands_test</text>
</g>
<!-- /lib/int_offset.dart -->
<g id="node18" class="node">
<title>/lib/int_offset.dart</title>
<path fill="Lavender" stroke="black" stroke-width="1.3" d="M590.38,-60C590.38,-60 537.62,-60 537.62,-60 531.62,-60 525.62,-54 525.62,-48 525.62,-48 525.62,-36 525.62,-36 525.62,-30 531.62,-24 537.62,-24 537.62,-24 590.38,-24 590.38,-24 596.38,-24 602.38,-30 602.38,-36 602.38,-36 602.38,-48 602.38,-48 602.38,-54 596.38,-60 590.38,-60"/>
<text text-anchor="middle" x="564" y="-36.75" font-family="Arial" font-size="15.00">int_offset</text>
</g>
<!-- /test/bands_test.dart&#45;&gt;/lib/int_offset.dart -->
<g id="edge7" class="edge">
<title>/test/bands_test.dart&#45;&gt;/lib/int_offset.dart</title>
<path fill="none" stroke="#aabbaa" stroke-width="1.3" stroke-opacity="0.533333" d="M71.82,-538.62C76.17,-510.29 84,-452.38 84,-403 84,-403 84,-403 84,-185 84,-96.17 390.13,-58.66 513.43,-47.15"/>
<polygon fill="#aabbaa" fill-opacity="0.533333" stroke="#aabbaa" stroke-width="1.3" stroke-opacity="0.533333" points="513.52,-50.66 523.17,-46.26 512.89,-43.68 513.52,-50.66"/>
</g>
<!-- /lib/bands.dart -->
<g id="node19" class="node">
<title>/lib/bands.dart</title>
<path fill="Lavender" stroke="black" stroke-width="1.3" d="M269.25,-420C269.25,-420 236.75,-420 236.75,-420 230.75,-420 224.75,-414 224.75,-408 224.75,-408 224.75,-396 224.75,-396 224.75,-390 230.75,-384 236.75,-384 236.75,-384 269.25,-384 269.25,-384 275.25,-384 281.25,-390 281.25,-396 281.25,-396 281.25,-408 281.25,-408 281.25,-414 275.25,-420 269.25,-420"/>
<text text-anchor="middle" x="253" y="-396.75" font-family="Arial" font-size="15.00">bands</text>
</g>
<!-- /test/bands_test.dart&#45;&gt;/lib/bands.dart -->
<g id="edge6" class="edge">
<title>/test/bands_test.dart&#45;&gt;/lib/bands.dart</title>
<path fill="none" stroke="#aabbaa" stroke-width="1.3" stroke-opacity="0.533333" d="M89.75,-538.75C122.33,-511.66 185.62,-459.03 223.1,-427.86"/>
<polygon fill="#aabbaa" fill-opacity="0.533333" stroke="#aabbaa" stroke-width="1.3" stroke-opacity="0.533333" points="225.08,-430.77 230.53,-421.68 220.6,-425.39 225.08,-430.77"/>
</g>
<!-- /test/rectangle_test.dart -->
<g id="node3" class="node">
<title>/test/rectangle_test.dart</title>
<path fill="Lavender" stroke="black" stroke-width="1.3" d="M875.25,-575C875.25,-575 788.75,-575 788.75,-575 782.75,-575 776.75,-569 776.75,-563 776.75,-563 776.75,-551 776.75,-551 776.75,-545 782.75,-539 788.75,-539 788.75,-539 875.25,-539 875.25,-539 881.25,-539 887.25,-545 887.25,-551 887.25,-551 887.25,-563 887.25,-563 887.25,-569 881.25,-575 875.25,-575"/>
<text text-anchor="middle" x="832" y="-551.75" font-family="Arial" font-size="15.00">rectangle_test</text>
</g>
<!-- /lib/int_rect.dart -->
<g id="node12" class="node">
<title>/lib/int_rect.dart</title>
<path fill="Lavender" stroke="black" stroke-width="1.3" d="M584.75,-132C584.75,-132 543.25,-132 543.25,-132 537.25,-132 531.25,-126 531.25,-120 531.25,-120 531.25,-108 531.25,-108 531.25,-102 537.25,-96 543.25,-96 543.25,-96 584.75,-96 584.75,-96 590.75,-96 596.75,-102 596.75,-108 596.75,-108 596.75,-120 596.75,-120 596.75,-126 590.75,-132 584.75,-132"/>
<text text-anchor="middle" x="564" y="-108.75" font-family="Arial" font-size="15.00">int_rect</text>
</g>
<!-- /test/rectangle_test.dart&#45;&gt;/lib/int_rect.dart -->
<g id="edge8" class="edge">
<title>/test/rectangle_test.dart&#45;&gt;/lib/int_rect.dart</title>
<path fill="none" stroke="#aabbaa" stroke-width="1.3" stroke-opacity="0.533333" d="M832,-538.56C832,-510.16 832,-452.14 832,-403 832,-403 832,-403 832,-257 832,-157.16 684.99,-127.32 608.73,-118.55"/>
<polygon fill="#aabbaa" fill-opacity="0.533333" stroke="#aabbaa" stroke-width="1.3" stroke-opacity="0.533333" points="609.4,-115.11 599.09,-117.53 608.66,-122.07 609.4,-115.11"/>
</g>
<!-- /test/artifact_test.dart -->
<g id="node4" class="node">
<title>/test/artifact_test.dart</title>
<path fill="Lavender" stroke="black" stroke-width="1.3" d="M536.38,-575C536.38,-575 465.62,-575 465.62,-575 459.62,-575 453.62,-569 453.62,-563 453.62,-563 453.62,-551 453.62,-551 453.62,-545 459.62,-539 465.62,-539 465.62,-539 536.38,-539 536.38,-539 542.38,-539 548.38,-545 548.38,-551 548.38,-551 548.38,-563 548.38,-563 548.38,-569 542.38,-575 536.38,-575"/>
<text text-anchor="middle" x="501" y="-551.75" font-family="Arial" font-size="15.00">artifact_test</text>
</g>
<!-- /test/artifact_test.dart&#45;&gt;/lib/utilities.dart -->
<g id="edge10" class="edge">
<title>/test/artifact_test.dart&#45;&gt;/lib/utilities.dart</title>
<path fill="none" stroke="#aabbaa" stroke-width="1.3" stroke-opacity="0.533333" d="M535.27,-538.59C542.61,-535.55 550.43,-532.79 558,-531 575.22,-526.94 704.04,-535.04 717,-523 736.69,-504.71 732,-429.87 732,-403 732,-403 732,-403 732,-329 732,-288.89 742.91,-270.62 717,-240 689.72,-207.75 641.74,-195.1 606.77,-190.15"/>
<polygon fill="#aabbaa" fill-opacity="0.533333" stroke="#aabbaa" stroke-width="1.3" stroke-opacity="0.533333" points="607.3,-186.69 596.95,-188.94 606.45,-193.64 607.3,-186.69"/>
</g>
<!-- /test/artifact_test.dart&#45;&gt;/lib/bands.dart -->
<g id="edge9" class="edge">
<title>/test/artifact_test.dart&#45;&gt;/lib/bands.dart</title>
<path fill="none" stroke="#aabbaa" stroke-width="1.3" stroke-opacity="0.533333" d="M466.74,-538.53C459.41,-535.5 451.58,-532.75 444,-531 433.38,-528.55 255.55,-530.86 248,-523 225.11,-499.15 232.49,-458.82 241.42,-431.57"/>
<polygon fill="#aabbaa" fill-opacity="0.533333" stroke="#aabbaa" stroke-width="1.3" stroke-opacity="0.533333" points="244.67,-432.87 244.74,-422.27 238.08,-430.52 244.67,-432.87"/>
</g>
<!-- /test/utilitites_test.dart -->
<g id="node5" class="node">
<title>/test/utilitites_test.dart</title>
<path fill="Lavender" stroke="black" stroke-width="1.3" d="M423.25,-575C423.25,-575 348.75,-575 348.75,-575 342.75,-575 336.75,-569 336.75,-563 336.75,-563 336.75,-551 336.75,-551 336.75,-545 342.75,-539 348.75,-539 348.75,-539 423.25,-539 423.25,-539 429.25,-539 435.25,-545 435.25,-551 435.25,-551 435.25,-563 435.25,-563 435.25,-569 429.25,-575 423.25,-575"/>
<text text-anchor="middle" x="386" y="-551.75" font-family="Arial" font-size="15.00">utilitites_test</text>
</g>
<!-- /lib/artifact.dart -->
<g id="node9" class="node">
<title>/lib/artifact.dart</title>
<path fill="Lavender" stroke="black" stroke-width="1.3" d="M274.88,-276C274.88,-276 237.12,-276 237.12,-276 231.12,-276 225.12,-270 225.12,-264 225.12,-264 225.12,-252 225.12,-252 225.12,-246 231.12,-240 237.12,-240 237.12,-240 274.88,-240 274.88,-240 280.88,-240 286.88,-246 286.88,-252 286.88,-252 286.88,-264 286.88,-264 286.88,-270 280.88,-276 274.88,-276"/>
<text text-anchor="middle" x="256" y="-252.75" font-family="Arial" font-size="15.00">artifact</text>
</g>
<!-- /test/utilitites_test.dart&#45;&gt;/lib/artifact.dart -->
<g id="edge11" class="edge">
<title>/test/utilitites_test.dart&#45;&gt;/lib/artifact.dart</title>
<path fill="none" stroke="#aabbaa" stroke-width="1.3" stroke-opacity="0.533333" d="M350.43,-538.52C343.16,-535.56 335.45,-532.85 328,-531 306.58,-525.67 245.65,-537.49 229,-523 205.38,-502.45 203,-415.16 206,-384 209.13,-351.55 207.47,-342.1 220,-312 223.79,-302.9 229.26,-293.75 234.81,-285.68"/>
<polygon fill="#aabbaa" fill-opacity="0.533333" stroke="#aabbaa" stroke-width="1.3" stroke-opacity="0.533333" points="237.55,-287.85 240.59,-277.7 231.89,-283.75 237.55,-287.85"/>
</g>
<!-- /test/utilitites_test.dart&#45;&gt;/lib/utilities.dart -->
<g id="edge12" class="edge">
<title>/test/utilitites_test.dart&#45;&gt;/lib/utilities.dart</title>
<path fill="none" stroke="#aabbaa" stroke-width="1.3" stroke-opacity="0.533333" d="M421.52,-538.55C429.1,-535.51 437.19,-532.76 445,-531 464.96,-526.49 611.03,-532.79 629,-523 685.95,-491.98 712,-467.85 712,-403 712,-403 712,-403 712,-329 712,-269.58 649.12,-227.3 605.34,-205.05"/>
<polygon fill="#aabbaa" fill-opacity="0.533333" stroke="#aabbaa" stroke-width="1.3" stroke-opacity="0.533333" points="606.95,-201.94 596.43,-200.69 603.88,-208.23 606.95,-201.94"/>
</g>
<!-- /test/character_definitions_test.dart -->
<g id="node6" class="node">
<title>/test/character_definitions_test.dart</title>
<path fill="Lavender" stroke="black" stroke-width="1.3" d="M306.5,-575C306.5,-575 143.5,-575 143.5,-575 137.5,-575 131.5,-569 131.5,-563 131.5,-563 131.5,-551 131.5,-551 131.5,-545 137.5,-539 143.5,-539 143.5,-539 306.5,-539 306.5,-539 312.5,-539 318.5,-545 318.5,-551 318.5,-551 318.5,-563 318.5,-563 318.5,-569 312.5,-575 306.5,-575"/>
<text text-anchor="middle" x="225" y="-551.75" font-family="Arial" font-size="15.00">character_definitions_test</text>
</g>
<!-- /test/character_definitions_test.dart&#45;&gt;/lib/artifact.dart -->
<g id="edge13" class="edge">
<title>/test/character_definitions_test.dart&#45;&gt;/lib/artifact.dart</title>
<path fill="none" stroke="#aabbaa" stroke-width="1.3" stroke-opacity="0.533333" d="M214.79,-538.63C191.78,-497.02 140.92,-389.4 181,-312 188.36,-297.78 201.49,-286.57 214.72,-278.18"/>
<polygon fill="#aabbaa" fill-opacity="0.533333" stroke="#aabbaa" stroke-width="1.3" stroke-opacity="0.533333" points="216.19,-281.37 223.07,-273.31 212.67,-275.33 216.19,-281.37"/>
</g>
<!-- /lib/character_definitions.dart -->
<g id="node15" class="node">
<title>/lib/character_definitions.dart</title>
<path fill="Lavender" stroke="black" stroke-width="1.3" d="M441,-420C441,-420 311,-420 311,-420 305,-420 299,-414 299,-408 299,-408 299,-396 299,-396 299,-390 305,-384 311,-384 311,-384 441,-384 441,-384 447,-384 453,-390 453,-396 453,-396 453,-408 453,-408 453,-414 447,-420 441,-420"/>
<text text-anchor="middle" x="376" y="-396.75" font-family="Arial" font-size="15.00">character_definitions</text>
</g>
<!-- /test/character_definitions_test.dart&#45;&gt;/lib/character_definitions.dart -->
<g id="edge14" class="edge">
<title>/test/character_definitions_test.dart&#45;&gt;/lib/character_definitions.dart</title>
<path fill="none" stroke="#aabbaa" stroke-width="1.3" stroke-opacity="0.533333" d="M242.03,-538.75C268.54,-511.89 319.82,-459.92 350.68,-428.66"/>
<polygon fill="#aabbaa" fill-opacity="0.533333" stroke="#aabbaa" stroke-width="1.3" stroke-opacity="0.533333" points="352.89,-431.4 357.42,-421.83 347.9,-426.48 352.89,-431.4"/>
</g>
<!-- /test/steps_test.dart -->
<g id="node7" class="node">
<title>/test/steps_test.dart</title>
<path fill="Lavender" stroke="black" stroke-width="1.3" d="M639.5,-575C639.5,-575 578.5,-575 578.5,-575 572.5,-575 566.5,-569 566.5,-563 566.5,-563 566.5,-551 566.5,-551 566.5,-545 572.5,-539 578.5,-539 578.5,-539 639.5,-539 639.5,-539 645.5,-539 651.5,-545 651.5,-551 651.5,-551 651.5,-563 651.5,-563 651.5,-569 645.5,-575 639.5,-575"/>
<text text-anchor="middle" x="609" y="-551.75" font-family="Arial" font-size="15.00">steps_test</text>
</g>
<!-- /test/steps_test.dart&#45;&gt;/lib/textify.dart -->
<g id="edge16" class="edge">
<title>/test/steps_test.dart&#45;&gt;/lib/textify.dart</title>
<path fill="none" stroke="#aabbaa" stroke-width="1.3" stroke-opacity="0.533333" d="M605.39,-538.82C603.27,-528.69 600.52,-515.6 598.07,-503.92"/>
<polygon fill="#aabbaa" fill-opacity="0.533333" stroke="#aabbaa" stroke-width="1.3" stroke-opacity="0.533333" points="601.54,-503.43 596.06,-494.36 594.69,-504.86 601.54,-503.43"/>
</g>
<!-- /test/steps_test.dart&#45;&gt;/lib/utilities.dart -->
<g id="edge17" class="edge">
<title>/test/steps_test.dart&#45;&gt;/lib/utilities.dart</title>
<path fill="none" stroke="#aabbaa" stroke-width="1.3" stroke-opacity="0.533333" d="M640.78,-538.62C647.31,-535.65 654.25,-532.91 661,-531 677.34,-526.36 724.88,-534.89 737,-523 775.37,-485.37 752,-456.75 752,-403 752,-403 752,-403 752,-329 752,-288.89 763.46,-270.15 737,-240 704.33,-202.77 646.27,-191.29 606.49,-187.97"/>
<polygon fill="#aabbaa" fill-opacity="0.533333" stroke="#aabbaa" stroke-width="1.3" stroke-opacity="0.533333" points="606.96,-184.5 596.75,-187.32 606.49,-191.48 606.96,-184.5"/>
</g>
<!-- /test/steps_test.dart&#45;&gt;/lib/bands.dart -->
<g id="edge15" class="edge">
<title>/test/steps_test.dart&#45;&gt;/lib/bands.dart</title>
<path fill="none" stroke="#aabbaa" stroke-width="1.3" stroke-opacity="0.533333" d="M573.31,-538.53C567.87,-535.96 562.3,-533.37 557,-531 443.15,-480.01 409.69,-471.95 292.48,-421.01"/>
<polygon fill="#aabbaa" fill-opacity="0.533333" stroke="#aabbaa" stroke-width="1.3" stroke-opacity="0.533333" points="294.01,-417.86 283.44,-417.07 291.21,-424.28 294.01,-417.86"/>
</g>
<!-- /lib/band.dart&#45;&gt;/lib/artifact.dart -->
<g id="edge18" class="edge">
<title>/lib/band.dart&#45;&gt;/lib/artifact.dart</title>
<path fill="none" stroke="#aabbaa" stroke-width="1.3" stroke-opacity="0.533333" d="M250.08,-311.7C249.34,-304.49 249.09,-295.93 249.34,-287.82"/>
<polygon fill="#aabbaa" fill-opacity="0.533333" stroke="#aabbaa" stroke-width="1.3" stroke-opacity="0.533333" points="252.82,-288.27 249.98,-278.07 245.84,-287.82 252.82,-288.27"/>
</g>
<!-- /lib/band.dart&#45;&gt;/lib/artifact.dart -->
<g id="edge20" class="edge">
<title>/lib/band.dart&#45;&gt;/lib/artifact.dart</title>
<path fill="none" stroke="#aabbaa" stroke-width="1.3" stroke-dasharray="5,2" stroke-opacity="0.533333" d="M261.92,-311.7C262.66,-304.49 262.91,-295.93 262.66,-287.82"/>
<polygon fill="#aabbaa" fill-opacity="0.533333" stroke="#aabbaa" stroke-width="1.3" stroke-opacity="0.533333" points="266.16,-287.82 262.02,-278.07 259.18,-288.27 266.16,-287.82"/>
</g>
<!-- /lib/band.dart&#45;&gt;/lib/utilities.dart -->
<g id="edge19" class="edge">
<title>/lib/band.dart&#45;&gt;/lib/utilities.dart</title>
<path fill="none" stroke="#aabbaa" stroke-width="1.3" stroke-opacity="0.533333" d="M261.32,-311.94C268.03,-301.62 278.21,-288.14 287,-276 298.43,-260.22 295.81,-250.83 312,-240 375.77,-197.37 468.07,-188.38 521.59,-186.87"/>
<polygon fill="#aabbaa" fill-opacity="0.533333" stroke="#aabbaa" stroke-width="1.3" stroke-opacity="0.533333" points="521.46,-190.38 531.39,-186.68 521.32,-183.38 521.46,-190.38"/>
</g>
<!-- /lib/artifact.dart&#45;&gt;/lib/utilities.dart -->
<g id="edge21" class="edge">
<title>/lib/artifact.dart&#45;&gt;/lib/utilities.dart</title>
<path fill="none" stroke="#aabbaa" stroke-width="1.3" stroke-opacity="0.533333" d="M287.25,-244.45C291.82,-242.83 296.51,-241.29 301,-240 377.62,-217.97 469.36,-201.7 521.74,-193.34"/>
<polygon fill="#aabbaa" fill-opacity="0.533333" stroke="#aabbaa" stroke-width="1.3" stroke-opacity="0.533333" points="521.96,-196.85 531.3,-191.84 520.87,-189.94 521.96,-196.85"/>
</g>
<!-- /lib/score_match.dart -->
<g id="node10" class="node">
<title>/lib/score_match.dart</title>
<path fill="Lavender" stroke="black" stroke-width="1.3" d="M561.12,-420C561.12,-420 482.88,-420 482.88,-420 476.88,-420 470.88,-414 470.88,-408 470.88,-408 470.88,-396 470.88,-396 470.88,-390 476.88,-384 482.88,-384 482.88,-384 561.12,-384 561.12,-384 567.12,-384 573.12,-390 573.12,-396 573.12,-396 573.12,-408 573.12,-408 573.12,-414 567.12,-420 561.12,-420"/>
<text text-anchor="middle" x="522" y="-396.75" font-family="Arial" font-size="15.00">score_match</text>
</g>
<!-- /lib/character_definition.dart&#45;&gt;/lib/artifact.dart -->
<g id="edge22" class="edge">
<title>/lib/character_definition.dart&#45;&gt;/lib/artifact.dart</title>
<path fill="none" stroke="#aabbaa" stroke-width="1.3" stroke-opacity="0.533333" d="M377.54,-311.52C353.32,-301.05 322.59,-287.77 298.08,-277.18"/>
<polygon fill="#aabbaa" fill-opacity="0.533333" stroke="#aabbaa" stroke-width="1.3" stroke-opacity="0.533333" points="299.69,-274.06 289.12,-273.31 296.91,-280.49 299.69,-274.06"/>
</g>
<!-- /lib/int_rect.dart&#45;&gt;/lib/int_offset.dart -->
<g id="edge23" class="edge">
<title>/lib/int_rect.dart&#45;&gt;/lib/int_offset.dart</title>
<path fill="none" stroke="#aabbaa" stroke-width="1.3" stroke-opacity="0.533333" d="M558.08,-95.7C557.34,-88.49 557.09,-79.93 557.34,-71.82"/>
<polygon fill="#aabbaa" fill-opacity="0.533333" stroke="#aabbaa" stroke-width="1.3" stroke-opacity="0.533333" points="560.82,-72.27 557.98,-62.07 553.84,-71.82 560.82,-72.27"/>
</g>
<!-- /lib/int_rect.dart&#45;&gt;/lib/int_offset.dart -->
<g id="edge24" class="edge">
<title>/lib/int_rect.dart&#45;&gt;/lib/int_offset.dart</title>
<path fill="none" stroke="#aabbaa" stroke-width="1.3" stroke-dasharray="5,2" stroke-opacity="0.533333" d="M569.92,-95.7C570.66,-88.49 570.91,-79.93 570.66,-71.82"/>
<polygon fill="#aabbaa" fill-opacity="0.533333" stroke="#aabbaa" stroke-width="1.3" stroke-opacity="0.533333" points="574.16,-71.82 570.02,-62.07 567.18,-72.27 574.16,-71.82"/>
</g>
<!-- /lib/textify.dart&#45;&gt;/lib/score_match.dart -->
<g id="edge28" class="edge">
<title>/lib/textify.dart&#45;&gt;/lib/score_match.dart</title>
<path fill="none" stroke="#aabbaa" stroke-width="1.3" stroke-opacity="0.533333" d="M574.7,-455.7C566.47,-447.47 556.48,-437.48 547.42,-428.42"/>
<polygon fill="#aabbaa" fill-opacity="0.533333" stroke="#aabbaa" stroke-width="1.3" stroke-opacity="0.533333" points="550.04,-426.09 540.5,-421.5 545.09,-431.04 550.04,-426.09"/>
</g>
<!-- /lib/textify.dart&#45;&gt;/lib/utilities.dart -->
<g id="edge29" class="edge">
<title>/lib/textify.dart&#45;&gt;/lib/utilities.dart</title>
<path fill="none" stroke="#aabbaa" stroke-width="1.3" stroke-opacity="0.533333" d="M590.59,-455.53C589.01,-437.53 586.12,-408.69 582,-384 579.3,-367.83 576.29,-364.23 574,-348 567.53,-302.22 565.25,-248.53 564.44,-216.17"/>
<polygon fill="#aabbaa" fill-opacity="0.533333" stroke="#aabbaa" stroke-width="1.3" stroke-opacity="0.533333" points="567.95,-216.37 564.23,-206.45 560.95,-216.52 567.95,-216.37"/>
</g>
<!-- /lib/textify.dart&#45;&gt;/lib/character_definitions.dart -->
<g id="edge26" class="edge">
<title>/lib/textify.dart&#45;&gt;/lib/character_definitions.dart</title>
<path fill="none" stroke="#aabbaa" stroke-width="1.3" stroke-opacity="0.533333" d="M563.76,-463.85C532.82,-453.82 482.15,-437.4 441.24,-424.14"/>
<polygon fill="#aabbaa" fill-opacity="0.533333" stroke="#aabbaa" stroke-width="1.3" stroke-opacity="0.533333" points="442.45,-420.85 431.86,-421.1 440.29,-427.51 442.45,-420.85"/>
</g>
<!-- /lib/textify.dart&#45;&gt;/lib/correction.dart -->
<g id="edge27" class="edge">
<title>/lib/textify.dart&#45;&gt;/lib/correction.dart</title>
<path fill="none" stroke="#aabbaa" stroke-width="1.3" stroke-opacity="0.533333" d="M606.83,-455.7C613.73,-447.64 622.09,-437.89 629.73,-428.98"/>
<polygon fill="#aabbaa" fill-opacity="0.533333" stroke="#aabbaa" stroke-width="1.3" stroke-opacity="0.533333" points="632.21,-431.47 636.06,-421.6 626.89,-426.91 632.21,-431.47"/>
</g>
<!-- /lib/textify.dart&#45;&gt;/lib/bands.dart -->
<g id="edge25" class="edge">
<title>/lib/textify.dart&#45;&gt;/lib/bands.dart</title>
<path fill="none" stroke="#aabbaa" stroke-width="1.3" stroke-opacity="0.533333" d="M563.95,-470.51C511.82,-465.36 396.56,-451.59 292.7,-420.4"/>
<polygon fill="#aabbaa" fill-opacity="0.533333" stroke="#aabbaa" stroke-width="1.3" stroke-opacity="0.533333" points="293.86,-417.1 283.28,-417.5 291.81,-423.79 293.86,-417.1"/>
</g>
<!-- /lib/utilities.dart&#45;&gt;/lib/band.dart -->
<g id="edge30" class="edge">
<title>/lib/utilities.dart&#45;&gt;/lib/band.dart</title>
<path fill="none" stroke="#aabbaa" stroke-width="1.3" stroke-opacity="0.533333" d="M533.04,-186.89C485.38,-188.45 393.54,-197.52 330,-240 313.81,-250.83 316.43,-260.22 305,-276 298.61,-284.82 291.49,-294.35 284.6,-302.86"/>
<polygon fill="#aabbaa" fill-opacity="0.533333" stroke="#aabbaa" stroke-width="1.3" stroke-opacity="0.533333" points="281.99,-300.53 278.23,-310.44 287.34,-305.03 281.99,-300.53"/>
</g>
<!-- /lib/utilities.dart&#45;&gt;/lib/int_rect.dart -->
<g id="edge31" class="edge">
<title>/lib/utilities.dart&#45;&gt;/lib/int_rect.dart</title>
<path fill="none" stroke="#aabbaa" stroke-width="1.3" stroke-opacity="0.533333" d="M558.08,-167.7C557.34,-160.49 557.09,-151.93 557.34,-143.82"/>
<polygon fill="#aabbaa" fill-opacity="0.533333" stroke="#aabbaa" stroke-width="1.3" stroke-opacity="0.533333" points="560.82,-144.27 557.98,-134.07 553.84,-143.82 560.82,-144.27"/>
</g>
<!-- /lib/utilities.dart&#45;&gt;/lib/int_rect.dart -->
<g id="edge32" class="edge">
<title>/lib/utilities.dart&#45;&gt;/lib/int_rect.dart</title>
<path fill="none" stroke="#aabbaa" stroke-width="1.3" stroke-dasharray="5,2" stroke-opacity="0.533333" d="M569.92,-167.7C570.66,-160.49 570.91,-151.93 570.66,-143.82"/>
<polygon fill="#aabbaa" fill-opacity="0.533333" stroke="#aabbaa" stroke-width="1.3" stroke-opacity="0.533333" points="574.16,-143.82 570.02,-134.07 567.18,-144.27 574.16,-143.82"/>
</g>
<!-- /lib/character_definitions.dart&#45;&gt;/lib/artifact.dart -->
<g id="edge33" class="edge">
<title>/lib/character_definitions.dart&#45;&gt;/lib/artifact.dart</title>
<path fill="none" stroke="#aabbaa" stroke-width="1.3" stroke-opacity="0.533333" d="M361.29,-383.59C340.48,-358.97 302.31,-313.8 278.09,-285.14"/>
<polygon fill="#aabbaa" fill-opacity="0.533333" stroke="#aabbaa" stroke-width="1.3" stroke-opacity="0.533333" points="280.86,-282.99 271.73,-277.61 275.51,-287.51 280.86,-282.99"/>
</g>
<!-- /lib/character_definitions.dart&#45;&gt;/lib/character_definition.dart -->
<g id="edge34" class="edge">
<title>/lib/character_definitions.dart&#45;&gt;/lib/character_definition.dart</title>
<path fill="none" stroke="#aabbaa" stroke-width="1.3" stroke-opacity="0.533333" d="M380.47,-383.7C384.34,-375.9 389.75,-366.51 395.32,-357.83"/>
<polygon fill="#aabbaa" fill-opacity="0.533333" stroke="#aabbaa" stroke-width="1.3" stroke-opacity="0.533333" points="398.08,-359.99 400.75,-349.74 392.27,-356.09 398.08,-359.99"/>
</g>
<!-- /lib/character_definitions.dart&#45;&gt;/lib/character_definition.dart -->
<g id="edge35" class="edge">
<title>/lib/character_definitions.dart&#45;&gt;/lib/character_definition.dart</title>
<path fill="none" stroke="#aabbaa" stroke-width="1.3" stroke-dasharray="5,2" stroke-opacity="0.533333" d="M392.3,-383.7C397.66,-376.07 403.38,-366.92 408.17,-358.4"/>
<polygon fill="#aabbaa" fill-opacity="0.533333" stroke="#aabbaa" stroke-width="1.3" stroke-opacity="0.533333" points="411.11,-360.32 412.71,-349.84 404.93,-357.03 411.11,-360.32"/>
</g>
<!-- /lib/english_words.dart -->
<g id="node17" class="node">
<title>/lib/english_words.dart</title>
<path fill="Lavender" stroke="black" stroke-width="1.3" d="M681.25,-348C681.25,-348 594.75,-348 594.75,-348 588.75,-348 582.75,-342 582.75,-336 582.75,-336 582.75,-324 582.75,-324 582.75,-318 588.75,-312 594.75,-312 594.75,-312 681.25,-312 681.25,-312 687.25,-312 693.25,-318 693.25,-324 693.25,-324 693.25,-336 693.25,-336 693.25,-342 687.25,-348 681.25,-348"/>
<text text-anchor="middle" x="638" y="-324.75" font-family="Arial" font-size="15.00">english_words</text>
</g>
<!-- /lib/correction.dart&#45;&gt;/lib/english_words.dart -->
<g id="edge36" class="edge">
<title>/lib/correction.dart&#45;&gt;/lib/english_words.dart</title>
<path fill="none" stroke="#aabbaa" stroke-width="1.3" stroke-opacity="0.533333" d="M648.54,-383.7C647.1,-376.49 645.39,-367.93 643.76,-359.82"/>
<polygon fill="#aabbaa" fill-opacity="0.533333" stroke="#aabbaa" stroke-width="1.3" stroke-opacity="0.533333" points="647.2,-359.15 641.81,-350.03 640.34,-360.53 647.2,-359.15"/>
</g>
<!-- /lib/bands.dart&#45;&gt;/lib/band.dart -->
<g id="edge37" class="edge">
<title>/lib/bands.dart&#45;&gt;/lib/band.dart</title>
<path fill="none" stroke="#aabbaa" stroke-width="1.3" stroke-opacity="0.533333" d="M247.83,-383.7C247.39,-376.49 247.51,-367.93 248.11,-359.82"/>
<polygon fill="#aabbaa" fill-opacity="0.533333" stroke="#aabbaa" stroke-width="1.3" stroke-opacity="0.533333" points="251.57,-360.38 249.16,-350.06 244.61,-359.63 251.57,-360.38"/>
</g>
<!-- /lib/bands.dart&#45;&gt;/lib/band.dart -->
<g id="edge39" class="edge">
<title>/lib/bands.dart&#45;&gt;/lib/band.dart</title>
<path fill="none" stroke="#aabbaa" stroke-width="1.3" stroke-dasharray="5,2" stroke-opacity="0.533333" d="M259.66,-383.7C260.71,-376.49 261.32,-367.93 261.42,-359.82"/>
<polygon fill="#aabbaa" fill-opacity="0.533333" stroke="#aabbaa" stroke-width="1.3" stroke-opacity="0.533333" points="264.93,-359.99 261.21,-350.07 257.93,-360.15 264.93,-359.99"/>
</g>
<!-- /lib/bands.dart&#45;&gt;/lib/utilities.dart -->
<g id="edge38" class="edge">
<title>/lib/bands.dart&#45;&gt;/lib/utilities.dart</title>
<path fill="none" stroke="#aabbaa" stroke-width="1.3" stroke-opacity="0.533333" d="M266.3,-383.72C281.63,-364.56 308.31,-333.53 336,-312 395.72,-265.57 474.94,-226.37 522.55,-204.82"/>
<polygon fill="#aabbaa" fill-opacity="0.533333" stroke="#aabbaa" stroke-width="1.3" stroke-opacity="0.533333" points="523.87,-208.07 531.57,-200.79 521.01,-201.68 523.87,-208.07"/>
</g>
</g>
</svg>
