<?xml version="1.0" encoding="UTF-8" standalone="no"?>
<!DOCTYPE svg PUBLIC "-//W3C//DTD SVG 1.1//EN"
 "http://www.w3.org/Graphics/SVG/1.1/DTD/svg11.dtd">
<!-- Generated by graphviz version 12.1.0 (20240811.2233)
 -->
<!-- Pages: 1 -->
<svg width="590pt" height="332pt"
 viewBox="0.00 0.00 590.28 332.00" xmlns="http://www.w3.org/2000/svg" xmlns:xlink="http://www.w3.org/1999/xlink">
<g id="graph0" class="graph" transform="scale(1 1) rotate(0) translate(4 328)">
<polygon fill="white" stroke="none" points="-4,4 -4,-328 586.28,-328 586.28,4 -4,4"/>
<!-- /test/textify_test.dart -->
<g id="node1" class="node">
<title>/test/textify_test.dart</title>
<path fill="Lavender" stroke="black" stroke-width="1.3" d="M457.88,-324C457.88,-324 393.12,-324 393.12,-324 387.12,-324 381.12,-318 381.12,-312 381.12,-312 381.12,-300 381.12,-300 381.12,-294 387.12,-288 393.12,-288 393.12,-288 457.88,-288 457.88,-288 463.88,-288 469.88,-294 469.88,-300 469.88,-300 469.88,-312 469.88,-312 469.88,-318 463.88,-324 457.88,-324"/>
<text text-anchor="middle" x="425.5" y="-300.75" font-family="Arial" font-size="15.00">textify_test</text>
</g>
<!-- /lib/character_definition.dart -->
<g id="node6" class="node">
<title>/lib/character_definition.dart</title>
<path fill="Lavender" stroke="black" stroke-width="1.3" d="M460.75,-108C460.75,-108 338.25,-108 338.25,-108 332.25,-108 326.25,-102 326.25,-96 326.25,-96 326.25,-84 326.25,-84 326.25,-78 332.25,-72 338.25,-72 338.25,-72 460.75,-72 460.75,-72 466.75,-72 472.75,-78 472.75,-84 472.75,-84 472.75,-96 472.75,-96 472.75,-102 466.75,-108 460.75,-108"/>
<text text-anchor="middle" x="399.5" y="-84.75" font-family="Arial" font-size="15.00">character_definition</text>
</g>
<!-- /test/textify_test.dart&#45;&gt;/lib/character_definition.dart -->
<g id="edge1" class="edge">
<title>/test/textify_test.dart&#45;&gt;/lib/character_definition.dart</title>
<path fill="none" stroke="#aabbaa" stroke-width="1.3" stroke-opacity="0.533333" d="M462.53,-287.68C518.25,-259.23 612.96,-200.16 571.5,-144 551.25,-116.57 517,-102.89 484.38,-96.23"/>
<polygon fill="#aabbaa" fill-opacity="0.533333" stroke="#aabbaa" stroke-width="1.3" stroke-opacity="0.533333" points="485.33,-92.84 474.87,-94.5 484.08,-99.73 485.33,-92.84"/>
</g>
<!-- /lib/textify.dart -->
<g id="node7" class="node">
<title>/lib/textify.dart</title>
<path fill="Lavender" stroke="black" stroke-width="1.3" d="M276.38,-252C276.38,-252 244.62,-252 244.62,-252 238.62,-252 232.62,-246 232.62,-240 232.62,-240 232.62,-228 232.62,-228 232.62,-222 238.62,-216 244.62,-216 244.62,-216 276.38,-216 276.38,-216 282.38,-216 288.38,-222 288.38,-228 288.38,-228 288.38,-240 288.38,-240 288.38,-246 282.38,-252 276.38,-252"/>
<text text-anchor="middle" x="260.5" y="-228.75" font-family="Arial" font-size="15.00">textify</text>
</g>
<!-- /test/textify_test.dart&#45;&gt;/lib/textify.dart -->
<g id="edge2" class="edge">
<title>/test/textify_test.dart&#45;&gt;/lib/textify.dart</title>
<path fill="none" stroke="#aabbaa" stroke-width="1.3" stroke-opacity="0.533333" d="M384.29,-287.52C358.35,-276.51 325.07,-262.39 299.55,-251.57"/>
<polygon fill="#aabbaa" fill-opacity="0.533333" stroke="#aabbaa" stroke-width="1.3" stroke-opacity="0.533333" points="301.16,-248.45 290.59,-247.76 298.43,-254.89 301.16,-248.45"/>
</g>
<!-- /lib/band.dart -->
<g id="node2" class="node">
<title>/lib/band.dart</title>
<path fill="Lavender" stroke="black" stroke-width="1.3" d="M220.5,-180C220.5,-180 190.5,-180 190.5,-180 184.5,-180 178.5,-174 178.5,-168 178.5,-168 178.5,-156 178.5,-156 178.5,-150 184.5,-144 190.5,-144 190.5,-144 220.5,-144 220.5,-144 226.5,-144 232.5,-150 232.5,-156 232.5,-156 232.5,-168 232.5,-168 232.5,-174 226.5,-180 220.5,-180"/>
<text text-anchor="middle" x="205.5" y="-156.75" font-family="Arial" font-size="15.00">band</text>
</g>
<!-- /lib/artifact.dart -->
<g id="node4" class="node">
<title>/lib/artifact.dart</title>
<path fill="Lavender" stroke="black" stroke-width="1.3" d="M182.38,-108C182.38,-108 144.62,-108 144.62,-108 138.62,-108 132.62,-102 132.62,-96 132.62,-96 132.62,-84 132.62,-84 132.62,-78 138.62,-72 144.62,-72 144.62,-72 182.38,-72 182.38,-72 188.38,-72 194.38,-78 194.38,-84 194.38,-84 194.38,-96 194.38,-96 194.38,-102 188.38,-108 182.38,-108"/>
<text text-anchor="middle" x="163.5" y="-84.75" font-family="Arial" font-size="15.00">artifact</text>
</g>
<!-- /lib/band.dart&#45;&gt;/lib/artifact.dart -->
<g id="edge3" class="edge">
<title>/lib/band.dart&#45;&gt;/lib/artifact.dart</title>
<path fill="none" stroke="#aabbaa" stroke-width="1.3" stroke-opacity="0.533333" d="M195.12,-143.7C190.49,-135.98 184.93,-126.71 179.77,-118.11"/>
<polygon fill="#aabbaa" fill-opacity="0.533333" stroke="#aabbaa" stroke-width="1.3" stroke-opacity="0.533333" points="182.92,-116.57 174.77,-109.79 176.92,-120.17 182.92,-116.57"/>
</g>
<!-- /lib/matrix.dart -->
<g id="node8" class="node">
<title>/lib/matrix.dart</title>
<path fill="Lavender" stroke="black" stroke-width="1.3" d="M258.12,-36C258.12,-36 224.88,-36 224.88,-36 218.88,-36 212.88,-30 212.88,-24 212.88,-24 212.88,-12 212.88,-12 212.88,-6 218.88,0 224.88,0 224.88,0 258.12,0 258.12,0 264.12,0 270.12,-6 270.12,-12 270.12,-12 270.12,-24 270.12,-24 270.12,-30 264.12,-36 258.12,-36"/>
<text text-anchor="middle" x="241.5" y="-12.75" font-family="Arial" font-size="15.00">matrix</text>
</g>
<!-- /lib/band.dart&#45;&gt;/lib/matrix.dart -->
<g id="edge4" class="edge">
<title>/lib/band.dart&#45;&gt;/lib/matrix.dart</title>
<path fill="none" stroke="#aabbaa" stroke-width="1.3" stroke-opacity="0.533333" d="M209.91,-143.59C215.99,-119.61 227.01,-76.14 234.3,-47.42"/>
<polygon fill="#aabbaa" fill-opacity="0.533333" stroke="#aabbaa" stroke-width="1.3" stroke-opacity="0.533333" points="237.61,-48.57 236.68,-38.02 230.83,-46.85 237.61,-48.57"/>
</g>
<!-- /lib/image_pipeline.dart -->
<g id="node3" class="node">
<title>/lib/image_pipeline.dart</title>
<path fill="Lavender" stroke="black" stroke-width="1.3" d="M103,-108C103,-108 12,-108 12,-108 6,-108 0,-102 0,-96 0,-96 0,-84 0,-84 0,-78 6,-72 12,-72 12,-72 103,-72 103,-72 109,-72 115,-78 115,-84 115,-84 115,-96 115,-96 115,-102 109,-108 103,-108"/>
<text text-anchor="middle" x="57.5" y="-84.75" font-family="Arial" font-size="15.00">image_pipeline</text>
</g>
<!-- /lib/image_pipeline.dart&#45;&gt;/lib/matrix.dart -->
<g id="edge5" class="edge">
<title>/lib/image_pipeline.dart&#45;&gt;/lib/matrix.dart</title>
<path fill="none" stroke="#aabbaa" stroke-width="1.3" stroke-opacity="0.533333" d="M103.46,-71.52C133.62,-60.04 172.68,-45.18 201.55,-34.2"/>
<polygon fill="#aabbaa" fill-opacity="0.533333" stroke="#aabbaa" stroke-width="1.3" stroke-opacity="0.533333" points="202.53,-37.57 210.63,-30.75 200.04,-31.03 202.53,-37.57"/>
</g>
<!-- /lib/artifact.dart&#45;&gt;/lib/matrix.dart -->
<g id="edge6" class="edge">
<title>/lib/artifact.dart&#45;&gt;/lib/matrix.dart</title>
<path fill="none" stroke="#aabbaa" stroke-width="1.3" stroke-opacity="0.533333" d="M182.78,-71.7C192.06,-63.37 203.37,-53.22 213.57,-44.07"/>
<polygon fill="#aabbaa" fill-opacity="0.533333" stroke="#aabbaa" stroke-width="1.3" stroke-opacity="0.533333" points="215.6,-46.95 220.71,-37.66 210.93,-41.74 215.6,-46.95"/>
</g>
<!-- /lib/score_match.dart -->
<g id="node5" class="node">
<title>/lib/score_match.dart</title>
<path fill="Lavender" stroke="black" stroke-width="1.3" d="M550.62,-180C550.62,-180 472.38,-180 472.38,-180 466.38,-180 460.38,-174 460.38,-168 460.38,-168 460.38,-156 460.38,-156 460.38,-150 466.38,-144 472.38,-144 472.38,-144 550.62,-144 550.62,-144 556.62,-144 562.62,-150 562.62,-156 562.62,-156 562.62,-168 562.62,-168 562.62,-174 556.62,-180 550.62,-180"/>
<text text-anchor="middle" x="511.5" y="-156.75" font-family="Arial" font-size="15.00">score_match</text>
</g>
<!-- /lib/character_definition.dart&#45;&gt;/lib/matrix.dart -->
<g id="edge7" class="edge">
<title>/lib/character_definition.dart&#45;&gt;/lib/matrix.dart</title>
<path fill="none" stroke="#aabbaa" stroke-width="1.3" stroke-opacity="0.533333" d="M360.04,-71.52C336.05,-60.89 305.51,-47.36 281.44,-36.69"/>
<polygon fill="#aabbaa" fill-opacity="0.533333" stroke="#aabbaa" stroke-width="1.3" stroke-opacity="0.533333" points="282.9,-33.51 272.34,-32.66 280.06,-39.91 282.9,-33.51"/>
</g>
<!-- /lib/textify.dart&#45;&gt;/lib/band.dart -->
<g id="edge9" class="edge">
<title>/lib/textify.dart&#45;&gt;/lib/band.dart</title>
<path fill="none" stroke="#aabbaa" stroke-width="1.3" stroke-opacity="0.533333" d="M246.9,-215.7C240.64,-207.73 233.08,-198.1 226.14,-189.26"/>
<polygon fill="#aabbaa" fill-opacity="0.533333" stroke="#aabbaa" stroke-width="1.3" stroke-opacity="0.533333" points="229.09,-187.35 220.15,-181.65 223.58,-191.68 229.09,-187.35"/>
</g>
<!-- /lib/textify.dart&#45;&gt;/lib/image_pipeline.dart -->
<g id="edge11" class="edge">
<title>/lib/textify.dart&#45;&gt;/lib/image_pipeline.dart</title>
<path fill="none" stroke="#aabbaa" stroke-width="1.3" stroke-opacity="0.533333" d="M232.31,-221.49C210.24,-211.88 179.24,-197.04 154.5,-180 127.52,-161.43 100.35,-135.76 81.66,-116.76"/>
<polygon fill="#aabbaa" fill-opacity="0.533333" stroke="#aabbaa" stroke-width="1.3" stroke-opacity="0.533333" points="84.29,-114.45 74.82,-109.7 79.27,-119.32 84.29,-114.45"/>
</g>
<!-- /lib/textify.dart&#45;&gt;/lib/artifact.dart -->
<g id="edge8" class="edge">
<title>/lib/textify.dart&#45;&gt;/lib/artifact.dart</title>
<path fill="none" stroke="#aabbaa" stroke-width="1.3" stroke-opacity="0.533333" d="M232.33,-224.62C211.19,-216.73 183.57,-202.68 169.5,-180 158.49,-162.25 157.41,-138.5 158.86,-120"/>
<polygon fill="#aabbaa" fill-opacity="0.533333" stroke="#aabbaa" stroke-width="1.3" stroke-opacity="0.533333" points="162.33,-120.45 159.96,-110.12 155.38,-119.67 162.33,-120.45"/>
</g>
<!-- /lib/textify.dart&#45;&gt;/lib/score_match.dart -->
<g id="edge13" class="edge">
<title>/lib/textify.dart&#45;&gt;/lib/score_match.dart</title>
<path fill="none" stroke="#aabbaa" stroke-width="1.3" stroke-opacity="0.533333" d="M288.67,-225.23C323.83,-215.53 386.1,-198.31 448.82,-180.74"/>
<polygon fill="#aabbaa" fill-opacity="0.533333" stroke="#aabbaa" stroke-width="1.3" stroke-opacity="0.533333" points="449.54,-184.18 458.22,-178.11 447.65,-177.44 449.54,-184.18"/>
</g>
<!-- /lib/textify.dart&#45;&gt;/lib/matrix.dart -->
<g id="edge12" class="edge">
<title>/lib/textify.dart&#45;&gt;/lib/matrix.dart</title>
<path fill="none" stroke="#aabbaa" stroke-width="1.3" stroke-opacity="0.533333" d="M258.98,-215.85C255.73,-179.3 248.11,-93.4 244.08,-48.11"/>
<polygon fill="#aabbaa" fill-opacity="0.533333" stroke="#aabbaa" stroke-width="1.3" stroke-opacity="0.533333" points="247.57,-47.84 243.2,-38.19 240.6,-48.46 247.57,-47.84"/>
</g>
<!-- /lib/character_definitions.dart -->
<g id="node9" class="node">
<title>/lib/character_definitions.dart</title>
<path fill="Lavender" stroke="black" stroke-width="1.3" d="M430.5,-180C430.5,-180 300.5,-180 300.5,-180 294.5,-180 288.5,-174 288.5,-168 288.5,-168 288.5,-156 288.5,-156 288.5,-150 294.5,-144 300.5,-144 300.5,-144 430.5,-144 430.5,-144 436.5,-144 442.5,-150 442.5,-156 442.5,-156 442.5,-168 442.5,-168 442.5,-174 436.5,-180 430.5,-180"/>
<text text-anchor="middle" x="365.5" y="-156.75" font-family="Arial" font-size="15.00">character_definitions</text>
</g>
<!-- /lib/textify.dart&#45;&gt;/lib/character_definitions.dart -->
<g id="edge10" class="edge">
<title>/lib/textify.dart&#45;&gt;/lib/character_definitions.dart</title>
<path fill="none" stroke="#aabbaa" stroke-width="1.3" stroke-opacity="0.533333" d="M286.73,-215.52C299.73,-206.85 315.63,-196.25 329.73,-186.85"/>
<polygon fill="#aabbaa" fill-opacity="0.533333" stroke="#aabbaa" stroke-width="1.3" stroke-opacity="0.533333" points="331.59,-189.81 337.97,-181.35 327.71,-183.99 331.59,-189.81"/>
</g>
<!-- /lib/character_definitions.dart&#45;&gt;/lib/character_definition.dart -->
<g id="edge14" class="edge">
<title>/lib/character_definitions.dart&#45;&gt;/lib/character_definition.dart</title>
<path fill="none" stroke="#aabbaa" stroke-width="1.3" stroke-opacity="0.533333" d="M367.99,-143.7C370.91,-136.07 375.12,-126.92 379.59,-118.4"/>
<polygon fill="#aabbaa" fill-opacity="0.533333" stroke="#aabbaa" stroke-width="1.3" stroke-opacity="0.533333" points="382.55,-120.27 384.34,-109.82 376.43,-116.87 382.55,-120.27"/>
</g>
<!-- /lib/character_definitions.dart&#45;&gt;/lib/character_definition.dart -->
<g id="edge16" class="edge">
<title>/lib/character_definitions.dart&#45;&gt;/lib/character_definition.dart</title>
<path fill="none" stroke="#aabbaa" stroke-width="1.3" stroke-dasharray="5,2" stroke-opacity="0.533333" d="M379.82,-143.7C384.21,-136.24 388.78,-127.32 392.54,-118.97"/>
<polygon fill="#aabbaa" fill-opacity="0.533333" stroke="#aabbaa" stroke-width="1.3" stroke-opacity="0.533333" points="395.7,-120.5 396.33,-109.92 389.24,-117.79 395.7,-120.5"/>
</g>
<!-- /lib/character_definitions.dart&#45;&gt;/lib/matrix.dart -->
<g id="edge15" class="edge">
<title>/lib/character_definitions.dart&#45;&gt;/lib/matrix.dart</title>
<path fill="none" stroke="#aabbaa" stroke-width="1.3" stroke-opacity="0.533333" d="M349.81,-143.93C340.37,-133.6 328.16,-120.12 317.5,-108 298.99,-86.95 278.36,-62.74 263.27,-44.89"/>
<polygon fill="#aabbaa" fill-opacity="0.533333" stroke="#aabbaa" stroke-width="1.3" stroke-opacity="0.533333" points="266.32,-43.08 257.19,-37.69 260.97,-47.59 266.32,-43.08"/>
</g>
</g>
</svg>
