<?xml version="1.0" encoding="UTF-8" standalone="no"?>
<!DOCTYPE svg PUBLIC "-//W3C//DTD SVG 1.1//EN"
 "http://www.w3.org/Graphics/SVG/1.1/DTD/svg11.dtd">
<!-- Generated by graphviz version 12.2.1 (20241206.2353)
 -->
<!-- Pages: 1 -->
<svg width="950pt" height="476pt"
 viewBox="0.00 0.00 950.36 476.00" xmlns="http://www.w3.org/2000/svg" xmlns:xlink="http://www.w3.org/1999/xlink">
<g id="graph0" class="graph" transform="scale(1 1) rotate(0) translate(4 472)">
<polygon fill="white" stroke="none" points="-4,4 -4,-472 946.36,-472 946.36,4 -4,4"/>
<!-- /test/int_offset_test.dart -->
<g id="node1" class="node">
<title>/test/int_offset_test.dart</title>
<path fill="Lavender" stroke="black" stroke-width="1.3" d="M97.75,-108C97.75,-108 12,-108 12,-108 6,-108 0,-102 0,-96 0,-96 0,-84 0,-84 0,-78 6,-72 12,-72 12,-72 97.75,-72 97.75,-72 103.75,-72 109.75,-78 109.75,-84 109.75,-84 109.75,-96 109.75,-96 109.75,-102 103.75,-108 97.75,-108"/>
<text text-anchor="middle" x="54.88" y="-84.75" font-family="Arial" font-size="15.00">int_offset_test</text>
</g>
<!-- /lib/int_offset.dart -->
<g id="node18" class="node">
<title>/lib/int_offset.dart</title>
<path fill="Lavender" stroke="black" stroke-width="1.3" d="M202.25,-36C202.25,-36 149.5,-36 149.5,-36 143.5,-36 137.5,-30 137.5,-24 137.5,-24 137.5,-12 137.5,-12 137.5,-6 143.5,0 149.5,0 149.5,0 202.25,0 202.25,0 208.25,0 214.25,-6 214.25,-12 214.25,-12 214.25,-24 214.25,-24 214.25,-30 208.25,-36 202.25,-36"/>
<text text-anchor="middle" x="175.88" y="-12.75" font-family="Arial" font-size="15.00">int_offset</text>
</g>
<!-- /test/int_offset_test.dart&#45;&gt;/lib/int_offset.dart -->
<g id="edge1" class="edge">
<title>/test/int_offset_test.dart&#45;&gt;/lib/int_offset.dart</title>
<path fill="none" stroke="#aabbaa" stroke-width="1.3" stroke-opacity="0.533333" d="M85.1,-71.52C100.52,-62.6 119.47,-51.63 136.06,-42.03"/>
<polygon fill="#aabbaa" fill-opacity="0.533333" stroke="#aabbaa" stroke-width="1.3" stroke-opacity="0.533333" points="137.43,-45.28 144.34,-37.25 133.93,-39.22 137.43,-45.28"/>
</g>
<!-- /test/int_rect_test.dart -->
<g id="node2" class="node">
<title>/test/int_rect_test.dart</title>
<path fill="Lavender" stroke="black" stroke-width="1.3" d="M890.12,-180C890.12,-180 815.62,-180 815.62,-180 809.62,-180 803.62,-174 803.62,-168 803.62,-168 803.62,-156 803.62,-156 803.62,-150 809.62,-144 815.62,-144 815.62,-144 890.12,-144 890.12,-144 896.12,-144 902.12,-150 902.12,-156 902.12,-156 902.12,-168 902.12,-168 902.12,-174 896.12,-180 890.12,-180"/>
<text text-anchor="middle" x="852.88" y="-156.75" font-family="Arial" font-size="15.00">int_rect_test</text>
</g>
<!-- /lib/int_rect.dart -->
<g id="node13" class="node">
<title>/lib/int_rect.dart</title>
<path fill="Lavender" stroke="black" stroke-width="1.3" d="M234.62,-108C234.62,-108 193.12,-108 193.12,-108 187.12,-108 181.12,-102 181.12,-96 181.12,-96 181.12,-84 181.12,-84 181.12,-78 187.12,-72 193.12,-72 193.12,-72 234.62,-72 234.62,-72 240.62,-72 246.62,-78 246.62,-84 246.62,-84 246.62,-96 246.62,-96 246.62,-102 240.62,-108 234.62,-108"/>
<text text-anchor="middle" x="213.88" y="-84.75" font-family="Arial" font-size="15.00">int_rect</text>
</g>
<!-- /test/int_rect_test.dart&#45;&gt;/lib/int_rect.dart -->
<g id="edge2" class="edge">
<title>/test/int_rect_test.dart&#45;&gt;/lib/int_rect.dart</title>
<path fill="none" stroke="#aabbaa" stroke-width="1.3" stroke-opacity="0.533333" d="M803.19,-146.75C798.71,-145.72 794.22,-144.78 789.88,-144 593.9,-108.81 355.98,-96.34 258.64,-92.5"/>
<polygon fill="#aabbaa" fill-opacity="0.533333" stroke="#aabbaa" stroke-width="1.3" stroke-opacity="0.533333" points="259.03,-89.01 248.9,-92.13 258.76,-96.01 259.03,-89.01"/>
</g>
<!-- /test/textify_test.dart -->
<g id="node3" class="node">
<title>/test/textify_test.dart</title>
<path fill="Lavender" stroke="black" stroke-width="1.3" d="M856.25,-468C856.25,-468 791.5,-468 791.5,-468 785.5,-468 779.5,-462 779.5,-456 779.5,-456 779.5,-444 779.5,-444 779.5,-438 785.5,-432 791.5,-432 791.5,-432 856.25,-432 856.25,-432 862.25,-432 868.25,-438 868.25,-444 868.25,-444 868.25,-456 868.25,-456 868.25,-462 862.25,-468 856.25,-468"/>
<text text-anchor="middle" x="823.88" y="-444.75" font-family="Arial" font-size="15.00">textify_test</text>
</g>
<!-- /lib/artifact.dart -->
<g id="node10" class="node">
<title>/lib/artifact.dart</title>
<path fill="Lavender" stroke="black" stroke-width="1.3" d="M385.75,-180C385.75,-180 348,-180 348,-180 342,-180 336,-174 336,-168 336,-168 336,-156 336,-156 336,-150 342,-144 348,-144 348,-144 385.75,-144 385.75,-144 391.75,-144 397.75,-150 397.75,-156 397.75,-156 397.75,-168 397.75,-168 397.75,-174 391.75,-180 385.75,-180"/>
<text text-anchor="middle" x="366.88" y="-156.75" font-family="Arial" font-size="15.00">artifact</text>
</g>
<!-- /test/textify_test.dart&#45;&gt;/lib/artifact.dart -->
<g id="edge3" class="edge">
<title>/test/textify_test.dart&#45;&gt;/lib/artifact.dart</title>
<path fill="none" stroke="#aabbaa" stroke-width="1.3" stroke-opacity="0.533333" d="M842.57,-431.66C885.48,-389.84 982.9,-282.01 922.88,-216 888.51,-178.2 533.97,-166.72 409.66,-163.84"/>
<polygon fill="#aabbaa" fill-opacity="0.533333" stroke="#aabbaa" stroke-width="1.3" stroke-opacity="0.533333" points="410.07,-160.35 399.99,-163.62 409.91,-167.35 410.07,-160.35"/>
</g>
<!-- /lib/character_definition.dart -->
<g id="node12" class="node">
<title>/lib/character_definition.dart</title>
<path fill="Lavender" stroke="black" stroke-width="1.3" d="M620.12,-252C620.12,-252 497.62,-252 497.62,-252 491.62,-252 485.62,-246 485.62,-240 485.62,-240 485.62,-228 485.62,-228 485.62,-222 491.62,-216 497.62,-216 497.62,-216 620.12,-216 620.12,-216 626.12,-216 632.12,-222 632.12,-228 632.12,-228 632.12,-240 632.12,-240 632.12,-246 626.12,-252 620.12,-252"/>
<text text-anchor="middle" x="558.88" y="-228.75" font-family="Arial" font-size="15.00">character_definition</text>
</g>
<!-- /test/textify_test.dart&#45;&gt;/lib/character_definition.dart -->
<g id="edge4" class="edge">
<title>/test/textify_test.dart&#45;&gt;/lib/character_definition.dart</title>
<path fill="none" stroke="#aabbaa" stroke-width="1.3" stroke-opacity="0.533333" d="M807,-431.9C776.26,-401.22 708.46,-335.58 644.88,-288 630.86,-277.52 614.71,-267.15 600.21,-258.41"/>
<polygon fill="#aabbaa" fill-opacity="0.533333" stroke="#aabbaa" stroke-width="1.3" stroke-opacity="0.533333" points="602.08,-255.45 591.69,-253.35 598.51,-261.47 602.08,-255.45"/>
</g>
<!-- /lib/textify.dart -->
<g id="node14" class="node">
<title>/lib/textify.dart</title>
<path fill="Lavender" stroke="black" stroke-width="1.3" d="M574.75,-396C574.75,-396 543,-396 543,-396 537,-396 531,-390 531,-384 531,-384 531,-372 531,-372 531,-366 537,-360 543,-360 543,-360 574.75,-360 574.75,-360 580.75,-360 586.75,-366 586.75,-372 586.75,-372 586.75,-384 586.75,-384 586.75,-390 580.75,-396 574.75,-396"/>
<text text-anchor="middle" x="558.88" y="-372.75" font-family="Arial" font-size="15.00">textify</text>
</g>
<!-- /test/textify_test.dart&#45;&gt;/lib/textify.dart -->
<g id="edge6" class="edge">
<title>/test/textify_test.dart&#45;&gt;/lib/textify.dart</title>
<path fill="none" stroke="#aabbaa" stroke-width="1.3" stroke-opacity="0.533333" d="M779.22,-437.2C728.64,-423.84 646.96,-402.27 598.54,-389.48"/>
<polygon fill="#aabbaa" fill-opacity="0.533333" stroke="#aabbaa" stroke-width="1.3" stroke-opacity="0.533333" points="599.45,-386.1 588.88,-386.93 597.66,-392.86 599.45,-386.1"/>
</g>
<!-- /lib/correction.dart -->
<g id="node16" class="node">
<title>/lib/correction.dart</title>
<path fill="Lavender" stroke="black" stroke-width="1.3" d="M894.88,-324C894.88,-324 836.88,-324 836.88,-324 830.88,-324 824.88,-318 824.88,-312 824.88,-312 824.88,-300 824.88,-300 824.88,-294 830.88,-288 836.88,-288 836.88,-288 894.88,-288 894.88,-288 900.88,-288 906.88,-294 906.88,-300 906.88,-300 906.88,-312 906.88,-312 906.88,-318 900.88,-324 894.88,-324"/>
<text text-anchor="middle" x="865.88" y="-300.75" font-family="Arial" font-size="15.00">correction</text>
</g>
<!-- /test/textify_test.dart&#45;&gt;/lib/correction.dart -->
<g id="edge5" class="edge">
<title>/test/textify_test.dart&#45;&gt;/lib/correction.dart</title>
<path fill="none" stroke="#aabbaa" stroke-width="1.3" stroke-opacity="0.533333" d="M829.03,-431.59C836.12,-407.61 848.97,-364.14 857.47,-335.42"/>
<polygon fill="#aabbaa" fill-opacity="0.533333" stroke="#aabbaa" stroke-width="1.3" stroke-opacity="0.533333" points="860.78,-336.58 860.26,-326 854.06,-334.59 860.78,-336.58"/>
</g>
<!-- /test/bands_test.dart -->
<g id="node4" class="node">
<title>/test/bands_test.dart</title>
<path fill="Lavender" stroke="black" stroke-width="1.3" d="M191.62,-396C191.62,-396 126.12,-396 126.12,-396 120.12,-396 114.12,-390 114.12,-384 114.12,-384 114.12,-372 114.12,-372 114.12,-366 120.12,-360 126.12,-360 126.12,-360 191.62,-360 191.62,-360 197.62,-360 203.62,-366 203.62,-372 203.62,-372 203.62,-384 203.62,-384 203.62,-390 197.62,-396 191.62,-396"/>
<text text-anchor="middle" x="158.88" y="-372.75" font-family="Arial" font-size="15.00">bands_test</text>
</g>
<!-- /test/bands_test.dart&#45;&gt;/lib/int_offset.dart -->
<g id="edge8" class="edge">
<title>/test/bands_test.dart&#45;&gt;/lib/int_offset.dart</title>
<path fill="none" stroke="#aabbaa" stroke-width="1.3" stroke-opacity="0.533333" d="M154.63,-359.63C148.49,-332.99 137.88,-280.36 137.88,-235 137.88,-235 137.88,-235 137.88,-161 137.88,-120.36 152.58,-75.33 163.69,-47.1"/>
<polygon fill="#aabbaa" fill-opacity="0.533333" stroke="#aabbaa" stroke-width="1.3" stroke-opacity="0.533333" points="166.91,-48.5 167.44,-37.91 160.42,-45.85 166.91,-48.5"/>
</g>
<!-- /lib/bands.dart -->
<g id="node19" class="node">
<title>/lib/bands.dart</title>
<path fill="Lavender" stroke="black" stroke-width="1.3" d="M285.12,-324C285.12,-324 252.62,-324 252.62,-324 246.62,-324 240.62,-318 240.62,-312 240.62,-312 240.62,-300 240.62,-300 240.62,-294 246.62,-288 252.62,-288 252.62,-288 285.12,-288 285.12,-288 291.12,-288 297.12,-294 297.12,-300 297.12,-300 297.12,-312 297.12,-312 297.12,-318 291.12,-324 285.12,-324"/>
<text text-anchor="middle" x="268.88" y="-300.75" font-family="Arial" font-size="15.00">bands</text>
</g>
<!-- /test/bands_test.dart&#45;&gt;/lib/bands.dart -->
<g id="edge7" class="edge">
<title>/test/bands_test.dart&#45;&gt;/lib/bands.dart</title>
<path fill="none" stroke="#aabbaa" stroke-width="1.3" stroke-opacity="0.533333" d="M186.35,-359.52C200.1,-350.76 216.95,-340.04 231.83,-330.58"/>
<polygon fill="#aabbaa" fill-opacity="0.533333" stroke="#aabbaa" stroke-width="1.3" stroke-opacity="0.533333" points="233.53,-333.64 240.09,-325.32 229.78,-327.73 233.53,-333.64"/>
</g>
<!-- /test/artifact_test.dart -->
<g id="node5" class="node">
<title>/test/artifact_test.dart</title>
<path fill="Lavender" stroke="black" stroke-width="1.3" d="M304.25,-396C304.25,-396 233.5,-396 233.5,-396 227.5,-396 221.5,-390 221.5,-384 221.5,-384 221.5,-372 221.5,-372 221.5,-366 227.5,-360 233.5,-360 233.5,-360 304.25,-360 304.25,-360 310.25,-360 316.25,-366 316.25,-372 316.25,-372 316.25,-384 316.25,-384 316.25,-390 310.25,-396 304.25,-396"/>
<text text-anchor="middle" x="268.88" y="-372.75" font-family="Arial" font-size="15.00">artifact_test</text>
</g>
<!-- /test/artifact_test.dart&#45;&gt;/lib/int_rect.dart -->
<g id="edge10" class="edge">
<title>/test/artifact_test.dart&#45;&gt;/lib/int_rect.dart</title>
<path fill="none" stroke="#aabbaa" stroke-width="1.3" stroke-opacity="0.533333" d="M253.77,-359.51C246.07,-349.68 237.22,-336.85 231.88,-324 203.32,-255.32 206.43,-165.51 210.5,-120.06"/>
<polygon fill="#aabbaa" fill-opacity="0.533333" stroke="#aabbaa" stroke-width="1.3" stroke-opacity="0.533333" points="213.98,-120.47 211.48,-110.17 207.01,-119.78 213.98,-120.47"/>
</g>
<!-- /test/artifact_test.dart&#45;&gt;/lib/bands.dart -->
<g id="edge9" class="edge">
<title>/test/artifact_test.dart&#45;&gt;/lib/bands.dart</title>
<path fill="none" stroke="#aabbaa" stroke-width="1.3" stroke-opacity="0.533333" d="M268.88,-359.7C268.88,-352.49 268.88,-343.93 268.88,-335.82"/>
<polygon fill="#aabbaa" fill-opacity="0.533333" stroke="#aabbaa" stroke-width="1.3" stroke-opacity="0.533333" points="272.38,-336.07 268.88,-326.07 265.38,-336.07 272.38,-336.07"/>
</g>
<!-- /test/histogram_test.dart -->
<g id="node6" class="node">
<title>/test/histogram_test.dart</title>
<path fill="Lavender" stroke="black" stroke-width="1.3" d="M455.38,-252C455.38,-252 364.38,-252 364.38,-252 358.38,-252 352.38,-246 352.38,-240 352.38,-240 352.38,-228 352.38,-228 352.38,-222 358.38,-216 364.38,-216 364.38,-216 455.38,-216 455.38,-216 461.38,-216 467.38,-222 467.38,-228 467.38,-228 467.38,-240 467.38,-240 467.38,-246 461.38,-252 455.38,-252"/>
<text text-anchor="middle" x="409.88" y="-228.75" font-family="Arial" font-size="15.00">histogram_test</text>
</g>
<!-- /test/histogram_test.dart&#45;&gt;/lib/artifact.dart -->
<g id="edge11" class="edge">
<title>/test/histogram_test.dart&#45;&gt;/lib/artifact.dart</title>
<path fill="none" stroke="#aabbaa" stroke-width="1.3" stroke-opacity="0.533333" d="M399.25,-215.7C394.51,-207.98 388.81,-198.71 383.53,-190.11"/>
<polygon fill="#aabbaa" fill-opacity="0.533333" stroke="#aabbaa" stroke-width="1.3" stroke-opacity="0.533333" points="386.63,-188.47 378.41,-181.78 380.66,-192.13 386.63,-188.47"/>
</g>
<!-- /test/regions_test.dart -->
<g id="node7" class="node">
<title>/test/regions_test.dart</title>
<path fill="Lavender" stroke="black" stroke-width="1.3" d="M735.75,-252C735.75,-252 662,-252 662,-252 656,-252 650,-246 650,-240 650,-240 650,-228 650,-228 650,-222 656,-216 662,-216 662,-216 735.75,-216 735.75,-216 741.75,-216 747.75,-222 747.75,-228 747.75,-228 747.75,-240 747.75,-240 747.75,-246 741.75,-252 735.75,-252"/>
<text text-anchor="middle" x="698.88" y="-228.75" font-family="Arial" font-size="15.00">regions_test</text>
</g>
<!-- /test/regions_test.dart&#45;&gt;/lib/artifact.dart -->
<g id="edge12" class="edge">
<title>/test/regions_test.dart&#45;&gt;/lib/artifact.dart</title>
<path fill="none" stroke="#aabbaa" stroke-width="1.3" stroke-opacity="0.533333" d="M649.6,-218.21C646.65,-217.44 643.73,-216.69 640.88,-216 559.67,-196.29 463.53,-179.09 409.43,-169.95"/>
<polygon fill="#aabbaa" fill-opacity="0.533333" stroke="#aabbaa" stroke-width="1.3" stroke-opacity="0.533333" points="410.28,-166.55 399.84,-168.35 409.12,-173.45 410.28,-166.55"/>
</g>
<!-- /test/steps_test.dart -->
<g id="node8" class="node">
<title>/test/steps_test.dart</title>
<path fill="Lavender" stroke="black" stroke-width="1.3" d="M374.38,-468C374.38,-468 313.38,-468 313.38,-468 307.38,-468 301.38,-462 301.38,-456 301.38,-456 301.38,-444 301.38,-444 301.38,-438 307.38,-432 313.38,-432 313.38,-432 374.38,-432 374.38,-432 380.38,-432 386.38,-438 386.38,-444 386.38,-444 386.38,-456 386.38,-456 386.38,-462 380.38,-468 374.38,-468"/>
<text text-anchor="middle" x="343.88" y="-444.75" font-family="Arial" font-size="15.00">steps_test</text>
</g>
<!-- /test/steps_test.dart&#45;&gt;/lib/int_rect.dart -->
<g id="edge14" class="edge">
<title>/test/steps_test.dart&#45;&gt;/lib/int_rect.dart</title>
<path fill="none" stroke="#aabbaa" stroke-width="1.3" stroke-opacity="0.533333" d="M301.08,-445.02C239.92,-438.45 131.93,-423.27 104.88,-396 76.39,-367.29 85.88,-347.45 85.88,-307 85.88,-307 85.88,-307 85.88,-233 85.88,-180.6 134.57,-138.82 171.89,-114.49"/>
<polygon fill="#aabbaa" fill-opacity="0.533333" stroke="#aabbaa" stroke-width="1.3" stroke-opacity="0.533333" points="173.31,-117.73 179.91,-109.44 169.58,-111.81 173.31,-117.73"/>
</g>
<!-- /test/steps_test.dart&#45;&gt;/lib/textify.dart -->
<g id="edge15" class="edge">
<title>/test/steps_test.dart&#45;&gt;/lib/textify.dart</title>
<path fill="none" stroke="#aabbaa" stroke-width="1.3" stroke-opacity="0.533333" d="M386.87,-435C425.63,-422.38 482.14,-403.98 519.68,-391.76"/>
<polygon fill="#aabbaa" fill-opacity="0.533333" stroke="#aabbaa" stroke-width="1.3" stroke-opacity="0.533333" points="520.38,-395.21 528.81,-388.79 518.22,-388.56 520.38,-395.21"/>
</g>
<!-- /test/steps_test.dart&#45;&gt;/lib/bands.dart -->
<g id="edge13" class="edge">
<title>/test/steps_test.dart&#45;&gt;/lib/bands.dart</title>
<path fill="none" stroke="#aabbaa" stroke-width="1.3" stroke-opacity="0.533333" d="M343.19,-431.53C341.79,-412.76 337.56,-382.59 324.88,-360 319.09,-349.69 310.63,-340.19 302.03,-332.16"/>
<polygon fill="#aabbaa" fill-opacity="0.533333" stroke="#aabbaa" stroke-width="1.3" stroke-opacity="0.533333" points="304.43,-329.61 294.6,-325.65 299.82,-334.88 304.43,-329.61"/>
</g>
<!-- /lib/band.dart -->
<g id="node9" class="node">
<title>/lib/band.dart</title>
<path fill="Lavender" stroke="black" stroke-width="1.3" d="M283.88,-252C283.88,-252 253.88,-252 253.88,-252 247.88,-252 241.88,-246 241.88,-240 241.88,-240 241.88,-228 241.88,-228 241.88,-222 247.88,-216 253.88,-216 253.88,-216 283.88,-216 283.88,-216 289.88,-216 295.88,-222 295.88,-228 295.88,-228 295.88,-240 295.88,-240 295.88,-246 289.88,-252 283.88,-252"/>
<text text-anchor="middle" x="268.88" y="-228.75" font-family="Arial" font-size="15.00">band</text>
</g>
<!-- /lib/band.dart&#45;&gt;/lib/artifact.dart -->
<g id="edge16" class="edge">
<title>/lib/band.dart&#45;&gt;/lib/artifact.dart</title>
<path fill="none" stroke="#aabbaa" stroke-width="1.3" stroke-opacity="0.533333" d="M287.18,-215.7C298.42,-207.03 313.13,-196.4 326.88,-186.96"/>
<polygon fill="#aabbaa" fill-opacity="0.533333" stroke="#aabbaa" stroke-width="1.3" stroke-opacity="0.533333" points="328.72,-189.95 335.04,-181.45 324.79,-184.15 328.72,-189.95"/>
</g>
<!-- /lib/band.dart&#45;&gt;/lib/artifact.dart -->
<g id="edge18" class="edge">
<title>/lib/band.dart&#45;&gt;/lib/artifact.dart</title>
<path fill="none" stroke="#aabbaa" stroke-width="1.3" stroke-dasharray="5,2" stroke-opacity="0.533333" d="M296.34,-217.46C309.73,-208.65 325.71,-197.42 339.12,-187.45"/>
<polygon fill="#aabbaa" fill-opacity="0.533333" stroke="#aabbaa" stroke-width="1.3" stroke-opacity="0.533333" points="340.92,-190.47 346.79,-181.65 336.7,-184.88 340.92,-190.47"/>
</g>
<!-- /lib/band.dart&#45;&gt;/lib/int_rect.dart -->
<g id="edge17" class="edge">
<title>/lib/band.dart&#45;&gt;/lib/int_rect.dart</title>
<path fill="none" stroke="#aabbaa" stroke-width="1.3" stroke-opacity="0.533333" d="M262.13,-215.59C252.8,-191.5 235.86,-147.75 224.73,-119.03"/>
<polygon fill="#aabbaa" fill-opacity="0.533333" stroke="#aabbaa" stroke-width="1.3" stroke-opacity="0.533333" points="228.09,-118.01 221.21,-109.95 221.56,-120.53 228.09,-118.01"/>
</g>
<!-- /lib/artifact.dart&#45;&gt;/lib/int_rect.dart -->
<g id="edge19" class="edge">
<title>/lib/artifact.dart&#45;&gt;/lib/int_rect.dart</title>
<path fill="none" stroke="#aabbaa" stroke-width="1.3" stroke-opacity="0.533333" d="M335.54,-146.67C313.08,-136.39 282.51,-122.4 257.64,-111.02"/>
<polygon fill="#aabbaa" fill-opacity="0.533333" stroke="#aabbaa" stroke-width="1.3" stroke-opacity="0.533333" points="259.36,-107.96 248.81,-106.98 256.44,-114.32 259.36,-107.96"/>
</g>
<!-- /lib/score_match.dart -->
<g id="node11" class="node">
<title>/lib/score_match.dart</title>
<path fill="Lavender" stroke="black" stroke-width="1.3" d="M452,-324C452,-324 373.75,-324 373.75,-324 367.75,-324 361.75,-318 361.75,-312 361.75,-312 361.75,-300 361.75,-300 361.75,-294 367.75,-288 373.75,-288 373.75,-288 452,-288 452,-288 458,-288 464,-294 464,-300 464,-300 464,-312 464,-312 464,-318 458,-324 452,-324"/>
<text text-anchor="middle" x="412.88" y="-300.75" font-family="Arial" font-size="15.00">score_match</text>
</g>
<!-- /lib/character_definition.dart&#45;&gt;/lib/artifact.dart -->
<g id="edge20" class="edge">
<title>/lib/character_definition.dart&#45;&gt;/lib/artifact.dart</title>
<path fill="none" stroke="#aabbaa" stroke-width="1.3" stroke-opacity="0.533333" d="M510.92,-215.52C479.6,-204.1 439.09,-189.33 409.01,-178.36"/>
<polygon fill="#aabbaa" fill-opacity="0.533333" stroke="#aabbaa" stroke-width="1.3" stroke-opacity="0.533333" points="410.47,-175.17 399.88,-175.03 408.08,-181.75 410.47,-175.17"/>
</g>
<!-- /lib/int_rect.dart&#45;&gt;/lib/int_offset.dart -->
<g id="edge21" class="edge">
<title>/lib/int_rect.dart&#45;&gt;/lib/int_offset.dart</title>
<path fill="none" stroke="#aabbaa" stroke-width="1.3" stroke-opacity="0.533333" d="M198.57,-71.7C193.69,-64.15 188.55,-55.12 184.28,-46.68"/>
<polygon fill="#aabbaa" fill-opacity="0.533333" stroke="#aabbaa" stroke-width="1.3" stroke-opacity="0.533333" points="187.56,-45.42 180.11,-37.88 181.23,-48.42 187.56,-45.42"/>
</g>
<!-- /lib/int_rect.dart&#45;&gt;/lib/int_offset.dart -->
<g id="edge22" class="edge">
<title>/lib/int_rect.dart&#45;&gt;/lib/int_offset.dart</title>
<path fill="none" stroke="#aabbaa" stroke-width="1.3" stroke-dasharray="5,2" stroke-opacity="0.533333" d="M210.4,-71.7C207.01,-63.98 202.2,-54.71 197.19,-46.11"/>
<polygon fill="#aabbaa" fill-opacity="0.533333" stroke="#aabbaa" stroke-width="1.3" stroke-opacity="0.533333" points="200.29,-44.48 192.08,-37.78 194.32,-48.14 200.29,-44.48"/>
</g>
<!-- /lib/textify.dart&#45;&gt;/lib/score_match.dart -->
<g id="edge27" class="edge">
<title>/lib/textify.dart&#45;&gt;/lib/score_match.dart</title>
<path fill="none" stroke="#aabbaa" stroke-width="1.3" stroke-opacity="0.533333" d="M530.72,-363.5C510.7,-353.9 483.31,-340.77 459.98,-329.58"/>
<polygon fill="#aabbaa" fill-opacity="0.533333" stroke="#aabbaa" stroke-width="1.3" stroke-opacity="0.533333" points="461.55,-326.46 451.02,-325.29 458.52,-332.77 461.55,-326.46"/>
</g>
<!-- /lib/textify.dart&#45;&gt;/lib/int_rect.dart -->
<g id="edge26" class="edge">
<title>/lib/textify.dart&#45;&gt;/lib/int_rect.dart</title>
<path fill="none" stroke="#aabbaa" stroke-width="1.3" stroke-opacity="0.533333" d="M587.03,-368.52C654.01,-346.96 813.16,-286.72 756.88,-216 694.47,-137.6 377.46,-104.23 258.8,-94.35"/>
<polygon fill="#aabbaa" fill-opacity="0.533333" stroke="#aabbaa" stroke-width="1.3" stroke-opacity="0.533333" points="259.18,-90.87 248.92,-93.55 258.61,-97.85 259.18,-90.87"/>
</g>
<!-- /lib/character_definitions.dart -->
<g id="node15" class="node">
<title>/lib/character_definitions.dart</title>
<path fill="Lavender" stroke="black" stroke-width="1.3" d="M623.88,-324C623.88,-324 493.88,-324 493.88,-324 487.88,-324 481.88,-318 481.88,-312 481.88,-312 481.88,-300 481.88,-300 481.88,-294 487.88,-288 493.88,-288 493.88,-288 623.88,-288 623.88,-288 629.88,-288 635.88,-294 635.88,-300 635.88,-300 635.88,-312 635.88,-312 635.88,-318 629.88,-324 623.88,-324"/>
<text text-anchor="middle" x="558.88" y="-300.75" font-family="Arial" font-size="15.00">character_definitions</text>
</g>
<!-- /lib/textify.dart&#45;&gt;/lib/character_definitions.dart -->
<g id="edge24" class="edge">
<title>/lib/textify.dart&#45;&gt;/lib/character_definitions.dart</title>
<path fill="none" stroke="#aabbaa" stroke-width="1.3" stroke-opacity="0.533333" d="M558.88,-359.7C558.88,-352.49 558.88,-343.93 558.88,-335.82"/>
<polygon fill="#aabbaa" fill-opacity="0.533333" stroke="#aabbaa" stroke-width="1.3" stroke-opacity="0.533333" points="562.38,-336.07 558.88,-326.07 555.38,-336.07 562.38,-336.07"/>
</g>
<!-- /lib/textify.dart&#45;&gt;/lib/correction.dart -->
<g id="edge25" class="edge">
<title>/lib/textify.dart&#45;&gt;/lib/correction.dart</title>
<path fill="none" stroke="#aabbaa" stroke-width="1.3" stroke-opacity="0.533333" d="M587.21,-370.54C638.6,-358.82 747.91,-333.9 813.31,-318.99"/>
<polygon fill="#aabbaa" fill-opacity="0.533333" stroke="#aabbaa" stroke-width="1.3" stroke-opacity="0.533333" points="813.7,-322.49 822.67,-316.85 812.14,-315.66 813.7,-322.49"/>
</g>
<!-- /lib/textify.dart&#45;&gt;/lib/bands.dart -->
<g id="edge23" class="edge">
<title>/lib/textify.dart&#45;&gt;/lib/bands.dart</title>
<path fill="none" stroke="#aabbaa" stroke-width="1.3" stroke-opacity="0.533333" d="M530.54,-370.16C478.67,-357.64 368.34,-331.01 308.86,-316.65"/>
<polygon fill="#aabbaa" fill-opacity="0.533333" stroke="#aabbaa" stroke-width="1.3" stroke-opacity="0.533333" points="309.78,-313.27 299.24,-314.33 308.14,-320.08 309.78,-313.27"/>
</g>
<!-- /lib/character_definitions.dart&#45;&gt;/lib/artifact.dart -->
<g id="edge28" class="edge">
<title>/lib/character_definitions.dart&#45;&gt;/lib/artifact.dart</title>
<path fill="none" stroke="#aabbaa" stroke-width="1.3" stroke-opacity="0.533333" d="M481.4,-288.25C421.61,-274.95 348.33,-257.68 343.88,-252 330.07,-234.38 338.3,-209.35 348.56,-190.32"/>
<polygon fill="#aabbaa" fill-opacity="0.533333" stroke="#aabbaa" stroke-width="1.3" stroke-opacity="0.533333" points="351.47,-192.28 353.51,-181.88 345.43,-188.73 351.47,-192.28"/>
</g>
<!-- /lib/character_definitions.dart&#45;&gt;/lib/character_definition.dart -->
<g id="edge29" class="edge">
<title>/lib/character_definitions.dart&#45;&gt;/lib/character_definition.dart</title>
<path fill="none" stroke="#aabbaa" stroke-width="1.3" stroke-opacity="0.533333" d="M552.96,-287.7C552.22,-280.49 551.97,-271.93 552.22,-263.82"/>
<polygon fill="#aabbaa" fill-opacity="0.533333" stroke="#aabbaa" stroke-width="1.3" stroke-opacity="0.533333" points="555.7,-264.27 552.85,-254.07 548.71,-263.82 555.7,-264.27"/>
</g>
<!-- /lib/character_definitions.dart&#45;&gt;/lib/character_definition.dart -->
<g id="edge30" class="edge">
<title>/lib/character_definitions.dart&#45;&gt;/lib/character_definition.dart</title>
<path fill="none" stroke="#aabbaa" stroke-width="1.3" stroke-dasharray="5,2" stroke-opacity="0.533333" d="M564.79,-287.7C565.53,-280.49 565.78,-271.93 565.53,-263.82"/>
<polygon fill="#aabbaa" fill-opacity="0.533333" stroke="#aabbaa" stroke-width="1.3" stroke-opacity="0.533333" points="569.04,-263.82 564.9,-254.07 562.05,-264.27 569.04,-263.82"/>
</g>
<!-- /lib/english_words.dart -->
<g id="node17" class="node">
<title>/lib/english_words.dart</title>
<path fill="Lavender" stroke="black" stroke-width="1.3" d="M902.12,-252C902.12,-252 815.62,-252 815.62,-252 809.62,-252 803.62,-246 803.62,-240 803.62,-240 803.62,-228 803.62,-228 803.62,-222 809.62,-216 815.62,-216 815.62,-216 902.12,-216 902.12,-216 908.12,-216 914.12,-222 914.12,-228 914.12,-228 914.12,-240 914.12,-240 914.12,-246 908.12,-252 902.12,-252"/>
<text text-anchor="middle" x="858.88" y="-228.75" font-family="Arial" font-size="15.00">english_words</text>
</g>
<!-- /lib/correction.dart&#45;&gt;/lib/english_words.dart -->
<g id="edge31" class="edge">
<title>/lib/correction.dart&#45;&gt;/lib/english_words.dart</title>
<path fill="none" stroke="#aabbaa" stroke-width="1.3" stroke-opacity="0.533333" d="M864.14,-287.7C863.42,-280.49 862.57,-271.93 861.76,-263.82"/>
<polygon fill="#aabbaa" fill-opacity="0.533333" stroke="#aabbaa" stroke-width="1.3" stroke-opacity="0.533333" points="865.26,-263.66 860.78,-254.06 858.29,-264.36 865.26,-263.66"/>
</g>
<!-- /lib/bands.dart&#45;&gt;/lib/band.dart -->
<g id="edge32" class="edge">
<title>/lib/bands.dart&#45;&gt;/lib/band.dart</title>
<path fill="none" stroke="#aabbaa" stroke-width="1.3" stroke-opacity="0.533333" d="M262.96,-287.7C262.22,-280.49 261.97,-271.93 262.22,-263.82"/>
<polygon fill="#aabbaa" fill-opacity="0.533333" stroke="#aabbaa" stroke-width="1.3" stroke-opacity="0.533333" points="265.7,-264.27 262.85,-254.07 258.71,-263.82 265.7,-264.27"/>
</g>
<!-- /lib/bands.dart&#45;&gt;/lib/band.dart -->
<g id="edge34" class="edge">
<title>/lib/bands.dart&#45;&gt;/lib/band.dart</title>
<path fill="none" stroke="#aabbaa" stroke-width="1.3" stroke-dasharray="5,2" stroke-opacity="0.533333" d="M274.79,-287.7C275.53,-280.49 275.78,-271.93 275.53,-263.82"/>
<polygon fill="#aabbaa" fill-opacity="0.533333" stroke="#aabbaa" stroke-width="1.3" stroke-opacity="0.533333" points="279.04,-263.82 274.9,-254.07 272.05,-264.27 279.04,-263.82"/>
</g>
<!-- /lib/bands.dart&#45;&gt;/lib/int_rect.dart -->
<g id="edge33" class="edge">
<title>/lib/bands.dart&#45;&gt;/lib/int_rect.dart</title>
<path fill="none" stroke="#aabbaa" stroke-width="1.3" stroke-opacity="0.533333" d="M253.88,-287.57C246.29,-277.76 237.7,-264.92 232.88,-252 216.46,-208 213.37,-152.96 213.21,-119.97"/>
<polygon fill="#aabbaa" fill-opacity="0.533333" stroke="#aabbaa" stroke-width="1.3" stroke-opacity="0.533333" points="216.71,-120.06 213.27,-110.04 209.71,-120.02 216.71,-120.06"/>
</g>
</g>
</svg>
