<?xml version="1.0" encoding="UTF-8" standalone="no"?>
<!DOCTYPE svg PUBLIC "-//W3C//DTD SVG 1.1//EN"
 "http://www.w3.org/Graphics/SVG/1.1/DTD/svg11.dtd">
<!-- Generated by graphviz version 12.2.1 (20241206.2353)
 -->
<!-- Pages: 1 -->
<svg width="583pt" height="332pt"
 viewBox="0.00 0.00 582.68 332.00" xmlns="http://www.w3.org/2000/svg" xmlns:xlink="http://www.w3.org/1999/xlink">
<g id="graph0" class="graph" transform="scale(1 1) rotate(0) translate(4 328)">
<polygon fill="white" stroke="none" points="-4,4 -4,-328 578.68,-328 578.68,4 -4,4"/>
<!-- /test/textify_test.dart -->
<g id="node1" class="node">
<title>/test/textify_test.dart</title>
<path fill="Lavender" stroke="black" stroke-width="1.3" d="M369.81,-324C369.81,-324 305.06,-324 305.06,-324 299.06,-324 293.06,-318 293.06,-312 293.06,-312 293.06,-300 293.06,-300 293.06,-294 299.06,-288 305.06,-288 305.06,-288 369.81,-288 369.81,-288 375.81,-288 381.81,-294 381.81,-300 381.81,-300 381.81,-312 381.81,-312 381.81,-318 375.81,-324 369.81,-324"/>
<text text-anchor="middle" x="337.43" y="-300.75" font-family="Arial" font-size="15.00">textify_test</text>
</g>
<!-- /lib/character_definition.dart -->
<g id="node5" class="node">
<title>/lib/character_definition.dart</title>
<path fill="Lavender" stroke="black" stroke-width="1.3" d="M240.68,-108C240.68,-108 118.18,-108 118.18,-108 112.18,-108 106.18,-102 106.18,-96 106.18,-96 106.18,-84 106.18,-84 106.18,-78 112.18,-72 118.18,-72 118.18,-72 240.68,-72 240.68,-72 246.68,-72 252.68,-78 252.68,-84 252.68,-84 252.68,-96 252.68,-96 252.68,-102 246.68,-108 240.68,-108"/>
<text text-anchor="middle" x="179.43" y="-84.75" font-family="Arial" font-size="15.00">character_definition</text>
</g>
<!-- /test/textify_test.dart&#45;&gt;/lib/character_definition.dart -->
<g id="edge1" class="edge">
<title>/test/textify_test.dart&#45;&gt;/lib/character_definition.dart</title>
<path fill="none" stroke="#aabbaa" stroke-width="1.3" stroke-opacity="0.533333" d="M292.62,-303.2C218.61,-297.52 72.53,-274.27 7.43,-180 -20.18,-140.01 38.22,-116.81 94.31,-104.18"/>
<polygon fill="#aabbaa" fill-opacity="0.533333" stroke="#aabbaa" stroke-width="1.3" stroke-opacity="0.533333" points="94.86,-107.64 103.91,-102.13 93.4,-100.79 94.86,-107.64"/>
</g>
<!-- /lib/textify.dart -->
<g id="node6" class="node">
<title>/lib/textify.dart</title>
<path fill="Lavender" stroke="black" stroke-width="1.3" d="M353.31,-252C353.31,-252 321.56,-252 321.56,-252 315.56,-252 309.56,-246 309.56,-240 309.56,-240 309.56,-228 309.56,-228 309.56,-222 315.56,-216 321.56,-216 321.56,-216 353.31,-216 353.31,-216 359.31,-216 365.31,-222 365.31,-228 365.31,-228 365.31,-240 365.31,-240 365.31,-246 359.31,-252 353.31,-252"/>
<text text-anchor="middle" x="337.43" y="-228.75" font-family="Arial" font-size="15.00">textify</text>
</g>
<!-- /test/textify_test.dart&#45;&gt;/lib/textify.dart -->
<g id="edge3" class="edge">
<title>/test/textify_test.dart&#45;&gt;/lib/textify.dart</title>
<path fill="none" stroke="#aabbaa" stroke-width="1.3" stroke-opacity="0.533333" d="M337.43,-287.7C337.43,-280.49 337.43,-271.93 337.43,-263.82"/>
<polygon fill="#aabbaa" fill-opacity="0.533333" stroke="#aabbaa" stroke-width="1.3" stroke-opacity="0.533333" points="340.93,-264.07 337.43,-254.07 333.93,-264.07 340.93,-264.07"/>
</g>
<!-- /lib/correction.dart -->
<g id="node9" class="node">
<title>/lib/correction.dart</title>
<path fill="Lavender" stroke="black" stroke-width="1.3" d="M526.43,-180C526.43,-180 468.43,-180 468.43,-180 462.43,-180 456.43,-174 456.43,-168 456.43,-168 456.43,-156 456.43,-156 456.43,-150 462.43,-144 468.43,-144 468.43,-144 526.43,-144 526.43,-144 532.43,-144 538.43,-150 538.43,-156 538.43,-156 538.43,-168 538.43,-168 538.43,-174 532.43,-180 526.43,-180"/>
<text text-anchor="middle" x="497.43" y="-156.75" font-family="Arial" font-size="15.00">correction</text>
</g>
<!-- /test/textify_test.dart&#45;&gt;/lib/correction.dart -->
<g id="edge2" class="edge">
<title>/test/textify_test.dart&#45;&gt;/lib/correction.dart</title>
<path fill="none" stroke="#aabbaa" stroke-width="1.3" stroke-opacity="0.533333" d="M357.05,-287.59C385.15,-262.65 437.02,-216.62 469.23,-188.03"/>
<polygon fill="#aabbaa" fill-opacity="0.533333" stroke="#aabbaa" stroke-width="1.3" stroke-opacity="0.533333" points="471.52,-190.67 476.68,-181.42 466.88,-185.44 471.52,-190.67"/>
</g>
<!-- /lib/band.dart -->
<g id="node2" class="node">
<title>/lib/band.dart</title>
<path fill="Lavender" stroke="black" stroke-width="1.3" d="M426.43,-180C426.43,-180 396.43,-180 396.43,-180 390.43,-180 384.43,-174 384.43,-168 384.43,-168 384.43,-156 384.43,-156 384.43,-150 390.43,-144 396.43,-144 396.43,-144 426.43,-144 426.43,-144 432.43,-144 438.43,-150 438.43,-156 438.43,-156 438.43,-168 438.43,-168 438.43,-174 432.43,-180 426.43,-180"/>
<text text-anchor="middle" x="411.43" y="-156.75" font-family="Arial" font-size="15.00">band</text>
</g>
<!-- /lib/artifact.dart -->
<g id="node3" class="node">
<title>/lib/artifact.dart</title>
<path fill="Lavender" stroke="black" stroke-width="1.3" d="M396.31,-108C396.31,-108 358.56,-108 358.56,-108 352.56,-108 346.56,-102 346.56,-96 346.56,-96 346.56,-84 346.56,-84 346.56,-78 352.56,-72 358.56,-72 358.56,-72 396.31,-72 396.31,-72 402.31,-72 408.31,-78 408.31,-84 408.31,-84 408.31,-96 408.31,-96 408.31,-102 402.31,-108 396.31,-108"/>
<text text-anchor="middle" x="377.43" y="-84.75" font-family="Arial" font-size="15.00">artifact</text>
</g>
<!-- /lib/band.dart&#45;&gt;/lib/artifact.dart -->
<g id="edge4" class="edge">
<title>/lib/band.dart&#45;&gt;/lib/artifact.dart</title>
<path fill="none" stroke="#aabbaa" stroke-width="1.3" stroke-opacity="0.533333" d="M403.03,-143.7C399.36,-136.15 394.98,-127.12 390.88,-118.68"/>
<polygon fill="#aabbaa" fill-opacity="0.533333" stroke="#aabbaa" stroke-width="1.3" stroke-opacity="0.533333" points="394.12,-117.34 386.6,-109.87 387.82,-120.4 394.12,-117.34"/>
</g>
<!-- /lib/matrix.dart -->
<g id="node7" class="node">
<title>/lib/matrix.dart</title>
<path fill="Lavender" stroke="black" stroke-width="1.3" d="M335.06,-36C335.06,-36 301.81,-36 301.81,-36 295.81,-36 289.81,-30 289.81,-24 289.81,-24 289.81,-12 289.81,-12 289.81,-6 295.81,0 301.81,0 301.81,0 335.06,0 335.06,0 341.06,0 347.06,-6 347.06,-12 347.06,-12 347.06,-24 347.06,-24 347.06,-30 341.06,-36 335.06,-36"/>
<text text-anchor="middle" x="318.43" y="-12.75" font-family="Arial" font-size="15.00">matrix</text>
</g>
<!-- /lib/band.dart&#45;&gt;/lib/matrix.dart -->
<g id="edge5" class="edge">
<title>/lib/band.dart&#45;&gt;/lib/matrix.dart</title>
<path fill="none" stroke="#aabbaa" stroke-width="1.3" stroke-opacity="0.533333" d="M418.14,-143.57C424.27,-124.56 430.56,-93.92 417.43,-72 404.61,-50.59 379.86,-37.34 358.32,-29.44"/>
<polygon fill="#aabbaa" fill-opacity="0.533333" stroke="#aabbaa" stroke-width="1.3" stroke-opacity="0.533333" points="359.56,-26.17 348.97,-26.31 357.34,-32.81 359.56,-26.17"/>
</g>
<!-- /lib/artifact.dart&#45;&gt;/lib/matrix.dart -->
<g id="edge6" class="edge">
<title>/lib/artifact.dart&#45;&gt;/lib/matrix.dart</title>
<path fill="none" stroke="#aabbaa" stroke-width="1.3" stroke-opacity="0.533333" d="M362.85,-71.7C356.06,-63.64 347.84,-53.89 340.33,-44.98"/>
<polygon fill="#aabbaa" fill-opacity="0.533333" stroke="#aabbaa" stroke-width="1.3" stroke-opacity="0.533333" points="343.24,-43 334.12,-37.61 337.89,-47.51 343.24,-43"/>
</g>
<!-- /lib/score_match.dart -->
<g id="node4" class="node">
<title>/lib/score_match.dart</title>
<path fill="Lavender" stroke="black" stroke-width="1.3" d="M106.56,-180C106.56,-180 28.31,-180 28.31,-180 22.31,-180 16.31,-174 16.31,-168 16.31,-168 16.31,-156 16.31,-156 16.31,-150 22.31,-144 28.31,-144 28.31,-144 106.56,-144 106.56,-144 112.56,-144 118.56,-150 118.56,-156 118.56,-156 118.56,-168 118.56,-168 118.56,-174 112.56,-180 106.56,-180"/>
<text text-anchor="middle" x="67.43" y="-156.75" font-family="Arial" font-size="15.00">score_match</text>
</g>
<!-- /lib/character_definition.dart&#45;&gt;/lib/matrix.dart -->
<g id="edge7" class="edge">
<title>/lib/character_definition.dart&#45;&gt;/lib/matrix.dart</title>
<path fill="none" stroke="#aabbaa" stroke-width="1.3" stroke-opacity="0.533333" d="M214.15,-71.52C233.78,-61.63 258.4,-49.23 278.79,-38.97"/>
<polygon fill="#aabbaa" fill-opacity="0.533333" stroke="#aabbaa" stroke-width="1.3" stroke-opacity="0.533333" points="280.2,-42.17 287.56,-34.55 277.05,-35.92 280.2,-42.17"/>
</g>
<!-- /lib/textify.dart&#45;&gt;/lib/band.dart -->
<g id="edge9" class="edge">
<title>/lib/textify.dart&#45;&gt;/lib/band.dart</title>
<path fill="none" stroke="#aabbaa" stroke-width="1.3" stroke-opacity="0.533333" d="M355.72,-215.7C364.44,-207.45 375.04,-197.43 384.64,-188.35"/>
<polygon fill="#aabbaa" fill-opacity="0.533333" stroke="#aabbaa" stroke-width="1.3" stroke-opacity="0.533333" points="386.81,-191.11 391.66,-181.7 381.99,-186.03 386.81,-191.11"/>
</g>
<!-- /lib/textify.dart&#45;&gt;/lib/artifact.dart -->
<g id="edge8" class="edge">
<title>/lib/textify.dart&#45;&gt;/lib/artifact.dart</title>
<path fill="none" stroke="#aabbaa" stroke-width="1.3" stroke-opacity="0.533333" d="M342.34,-215.59C349.09,-191.61 361.34,-148.14 369.43,-119.42"/>
<polygon fill="#aabbaa" fill-opacity="0.533333" stroke="#aabbaa" stroke-width="1.3" stroke-opacity="0.533333" points="372.74,-120.58 372.08,-110 366,-118.68 372.74,-120.58"/>
</g>
<!-- /lib/textify.dart&#45;&gt;/lib/score_match.dart -->
<g id="edge13" class="edge">
<title>/lib/textify.dart&#45;&gt;/lib/score_match.dart</title>
<path fill="none" stroke="#aabbaa" stroke-width="1.3" stroke-opacity="0.533333" d="M309.17,-226.14C270.84,-216.78 199.94,-199.26 130,-180.65"/>
<polygon fill="#aabbaa" fill-opacity="0.533333" stroke="#aabbaa" stroke-width="1.3" stroke-opacity="0.533333" points="131.26,-177.36 120.69,-178.17 129.45,-184.13 131.26,-177.36"/>
</g>
<!-- /lib/textify.dart&#45;&gt;/lib/matrix.dart -->
<g id="edge12" class="edge">
<title>/lib/textify.dart&#45;&gt;/lib/matrix.dart</title>
<path fill="none" stroke="#aabbaa" stroke-width="1.3" stroke-opacity="0.533333" d="M335.91,-215.85C332.66,-179.3 325.04,-93.4 321.02,-48.11"/>
<polygon fill="#aabbaa" fill-opacity="0.533333" stroke="#aabbaa" stroke-width="1.3" stroke-opacity="0.533333" points="324.51,-47.84 320.14,-38.19 317.53,-48.46 324.51,-47.84"/>
</g>
<!-- /lib/character_definitions.dart -->
<g id="node8" class="node">
<title>/lib/character_definitions.dart</title>
<path fill="Lavender" stroke="black" stroke-width="1.3" d="M278.43,-180C278.43,-180 148.43,-180 148.43,-180 142.43,-180 136.43,-174 136.43,-168 136.43,-168 136.43,-156 136.43,-156 136.43,-150 142.43,-144 148.43,-144 148.43,-144 278.43,-144 278.43,-144 284.43,-144 290.43,-150 290.43,-156 290.43,-156 290.43,-168 290.43,-168 290.43,-174 284.43,-180 278.43,-180"/>
<text text-anchor="middle" x="213.43" y="-156.75" font-family="Arial" font-size="15.00">character_definitions</text>
</g>
<!-- /lib/textify.dart&#45;&gt;/lib/character_definitions.dart -->
<g id="edge10" class="edge">
<title>/lib/textify.dart&#45;&gt;/lib/character_definitions.dart</title>
<path fill="none" stroke="#aabbaa" stroke-width="1.3" stroke-opacity="0.533333" d="M309.29,-217.12C293.05,-207.94 272.33,-196.25 254.31,-186.07"/>
<polygon fill="#aabbaa" fill-opacity="0.533333" stroke="#aabbaa" stroke-width="1.3" stroke-opacity="0.533333" points="256.21,-183.13 245.78,-181.26 252.77,-189.22 256.21,-183.13"/>
</g>
<!-- /lib/textify.dart&#45;&gt;/lib/correction.dart -->
<g id="edge11" class="edge">
<title>/lib/textify.dart&#45;&gt;/lib/correction.dart</title>
<path fill="none" stroke="#aabbaa" stroke-width="1.3" stroke-opacity="0.533333" d="M365.67,-220.65C388.06,-210.85 419.94,-196.9 446.73,-185.18"/>
<polygon fill="#aabbaa" fill-opacity="0.533333" stroke="#aabbaa" stroke-width="1.3" stroke-opacity="0.533333" points="447.91,-188.49 455.67,-181.27 445.11,-182.07 447.91,-188.49"/>
</g>
<!-- /lib/character_definitions.dart&#45;&gt;/lib/character_definition.dart -->
<g id="edge14" class="edge">
<title>/lib/character_definitions.dart&#45;&gt;/lib/character_definition.dart</title>
<path fill="none" stroke="#aabbaa" stroke-width="1.3" stroke-opacity="0.533333" d="M199.11,-143.7C194.72,-136.24 190.15,-127.32 186.39,-118.97"/>
<polygon fill="#aabbaa" fill-opacity="0.533333" stroke="#aabbaa" stroke-width="1.3" stroke-opacity="0.533333" points="189.69,-117.79 182.6,-109.92 183.23,-120.5 189.69,-117.79"/>
</g>
<!-- /lib/character_definitions.dart&#45;&gt;/lib/character_definition.dart -->
<g id="edge16" class="edge">
<title>/lib/character_definitions.dart&#45;&gt;/lib/character_definition.dart</title>
<path fill="none" stroke="#aabbaa" stroke-width="1.3" stroke-dasharray="5,2" stroke-opacity="0.533333" d="M210.94,-143.7C208.03,-136.07 203.81,-126.92 199.35,-118.4"/>
<polygon fill="#aabbaa" fill-opacity="0.533333" stroke="#aabbaa" stroke-width="1.3" stroke-opacity="0.533333" points="202.5,-116.87 194.59,-109.82 196.38,-120.27 202.5,-116.87"/>
</g>
<!-- /lib/character_definitions.dart&#45;&gt;/lib/matrix.dart -->
<g id="edge15" class="edge">
<title>/lib/character_definitions.dart&#45;&gt;/lib/matrix.dart</title>
<path fill="none" stroke="#aabbaa" stroke-width="1.3" stroke-opacity="0.533333" d="M230.19,-143.97C239.78,-133.87 251.78,-120.62 261.43,-108 276.55,-88.23 291.64,-64.43 302.5,-46.42"/>
<polygon fill="#aabbaa" fill-opacity="0.533333" stroke="#aabbaa" stroke-width="1.3" stroke-opacity="0.533333" points="305.41,-48.37 307.52,-37.99 299.4,-44.79 305.41,-48.37"/>
</g>
<!-- /lib/english_words.dart -->
<g id="node10" class="node">
<title>/lib/english_words.dart</title>
<path fill="Lavender" stroke="black" stroke-width="1.3" d="M562.68,-108C562.68,-108 476.18,-108 476.18,-108 470.18,-108 464.18,-102 464.18,-96 464.18,-96 464.18,-84 464.18,-84 464.18,-78 470.18,-72 476.18,-72 476.18,-72 562.68,-72 562.68,-72 568.68,-72 574.68,-78 574.68,-84 574.68,-84 574.68,-96 574.68,-96 574.68,-102 568.68,-108 562.68,-108"/>
<text text-anchor="middle" x="519.43" y="-84.75" font-family="Arial" font-size="15.00">english_words</text>
</g>
<!-- /lib/correction.dart&#45;&gt;/lib/english_words.dart -->
<g id="edge17" class="edge">
<title>/lib/correction.dart&#45;&gt;/lib/english_words.dart</title>
<path fill="none" stroke="#aabbaa" stroke-width="1.3" stroke-opacity="0.533333" d="M502.87,-143.7C505.19,-136.32 507.95,-127.52 510.55,-119.25"/>
<polygon fill="#aabbaa" fill-opacity="0.533333" stroke="#aabbaa" stroke-width="1.3" stroke-opacity="0.533333" points="513.81,-120.57 513.47,-109.98 507.13,-118.47 513.81,-120.57"/>
</g>
</g>
</svg>
