<?xml version="1.0" encoding="UTF-8" standalone="no"?>
<!DOCTYPE svg PUBLIC "-//W3C//DTD SVG 1.1//EN"
 "http://www.w3.org/Graphics/SVG/1.1/DTD/svg11.dtd">
<!-- Generated by graphviz version 12.2.1 (20241206.2353)
 -->
<!-- Pages: 1 -->
<svg width="1238pt" height="476pt"
 viewBox="0.00 0.00 1237.62 476.00" xmlns="http://www.w3.org/2000/svg" xmlns:xlink="http://www.w3.org/1999/xlink">
<g id="graph0" class="graph" transform="scale(1 1) rotate(0) translate(4 472)">
<polygon fill="white" stroke="none" points="-4,4 -4,-472 1233.62,-472 1233.62,4 -4,4"/>
<!-- /test/int_offset_test.dart -->
<g id="node1" class="node">
<title>/test/int_offset_test.dart</title>
<path fill="Lavender" stroke="black" stroke-width="1.3" d="M97.75,-108C97.75,-108 12,-108 12,-108 6,-108 0,-102 0,-96 0,-96 0,-84 0,-84 0,-78 6,-72 12,-72 12,-72 97.75,-72 97.75,-72 103.75,-72 109.75,-78 109.75,-84 109.75,-84 109.75,-96 109.75,-96 109.75,-102 103.75,-108 97.75,-108"/>
<text text-anchor="middle" x="54.88" y="-84.75" font-family="Arial" font-size="15.00">int_offset_test</text>
</g>
<!-- /lib/int_offset.dart -->
<g id="node20" class="node">
<title>/lib/int_offset.dart</title>
<path fill="Lavender" stroke="black" stroke-width="1.3" d="M260.25,-36C260.25,-36 207.5,-36 207.5,-36 201.5,-36 195.5,-30 195.5,-24 195.5,-24 195.5,-12 195.5,-12 195.5,-6 201.5,0 207.5,0 207.5,0 260.25,0 260.25,0 266.25,0 272.25,-6 272.25,-12 272.25,-12 272.25,-24 272.25,-24 272.25,-30 266.25,-36 260.25,-36"/>
<text text-anchor="middle" x="233.88" y="-12.75" font-family="Arial" font-size="15.00">int_offset</text>
</g>
<!-- /test/int_offset_test.dart&#45;&gt;/lib/int_offset.dart -->
<g id="edge1" class="edge">
<title>/test/int_offset_test.dart&#45;&gt;/lib/int_offset.dart</title>
<path fill="none" stroke="#aabbaa" stroke-width="1.3" stroke-opacity="0.533333" d="M99.58,-71.52C125.32,-61.45 157.7,-48.79 184.23,-38.42"/>
<polygon fill="#aabbaa" fill-opacity="0.533333" stroke="#aabbaa" stroke-width="1.3" stroke-opacity="0.533333" points="185.33,-41.74 193.36,-34.84 182.78,-35.22 185.33,-41.74"/>
</g>
<!-- /test/int_rect_test.dart -->
<g id="node2" class="node">
<title>/test/int_rect_test.dart</title>
<path fill="Lavender" stroke="black" stroke-width="1.3" d="M290.12,-180C290.12,-180 215.62,-180 215.62,-180 209.62,-180 203.62,-174 203.62,-168 203.62,-168 203.62,-156 203.62,-156 203.62,-150 209.62,-144 215.62,-144 215.62,-144 290.12,-144 290.12,-144 296.12,-144 302.12,-150 302.12,-156 302.12,-156 302.12,-168 302.12,-168 302.12,-174 296.12,-180 290.12,-180"/>
<text text-anchor="middle" x="252.88" y="-156.75" font-family="Arial" font-size="15.00">int_rect_test</text>
</g>
<!-- /lib/int_rect.dart -->
<g id="node15" class="node">
<title>/lib/int_rect.dart</title>
<path fill="Lavender" stroke="black" stroke-width="1.3" d="M350.62,-108C350.62,-108 309.12,-108 309.12,-108 303.12,-108 297.12,-102 297.12,-96 297.12,-96 297.12,-84 297.12,-84 297.12,-78 303.12,-72 309.12,-72 309.12,-72 350.62,-72 350.62,-72 356.62,-72 362.62,-78 362.62,-84 362.62,-84 362.62,-96 362.62,-96 362.62,-102 356.62,-108 350.62,-108"/>
<text text-anchor="middle" x="329.88" y="-84.75" font-family="Arial" font-size="15.00">int_rect</text>
</g>
<!-- /test/int_rect_test.dart&#45;&gt;/lib/int_rect.dart -->
<g id="edge2" class="edge">
<title>/test/int_rect_test.dart&#45;&gt;/lib/int_rect.dart</title>
<path fill="none" stroke="#aabbaa" stroke-width="1.3" stroke-opacity="0.533333" d="M271.91,-143.7C280.98,-135.45 292,-125.43 302,-116.35"/>
<polygon fill="#aabbaa" fill-opacity="0.533333" stroke="#aabbaa" stroke-width="1.3" stroke-opacity="0.533333" points="304.29,-118.99 309.34,-109.67 299.58,-113.81 304.29,-118.99"/>
</g>
<!-- /test/textify_test.dart -->
<g id="node3" class="node">
<title>/test/textify_test.dart</title>
<path fill="Lavender" stroke="black" stroke-width="1.3" d="M632.25,-468C632.25,-468 567.5,-468 567.5,-468 561.5,-468 555.5,-462 555.5,-456 555.5,-456 555.5,-444 555.5,-444 555.5,-438 561.5,-432 567.5,-432 567.5,-432 632.25,-432 632.25,-432 638.25,-432 644.25,-438 644.25,-444 644.25,-444 644.25,-456 644.25,-456 644.25,-462 638.25,-468 632.25,-468"/>
<text text-anchor="middle" x="599.88" y="-444.75" font-family="Arial" font-size="15.00">textify_test</text>
</g>
<!-- /lib/band.dart -->
<g id="node11" class="node">
<title>/lib/band.dart</title>
<path fill="Lavender" stroke="black" stroke-width="1.3" d="M513.88,-252C513.88,-252 483.88,-252 483.88,-252 477.88,-252 471.88,-246 471.88,-240 471.88,-240 471.88,-228 471.88,-228 471.88,-222 477.88,-216 483.88,-216 483.88,-216 513.88,-216 513.88,-216 519.88,-216 525.88,-222 525.88,-228 525.88,-228 525.88,-240 525.88,-240 525.88,-246 519.88,-252 513.88,-252"/>
<text text-anchor="middle" x="498.88" y="-228.75" font-family="Arial" font-size="15.00">band</text>
</g>
<!-- /test/textify_test.dart&#45;&gt;/lib/band.dart -->
<g id="edge3" class="edge">
<title>/test/textify_test.dart&#45;&gt;/lib/band.dart</title>
<path fill="none" stroke="#aabbaa" stroke-width="1.3" stroke-opacity="0.533333" d="M597.95,-431.85C593.88,-401.1 582.32,-335.34 553.88,-288 547.79,-277.88 539.28,-268.38 530.78,-260.31"/>
<polygon fill="#aabbaa" fill-opacity="0.533333" stroke="#aabbaa" stroke-width="1.3" stroke-opacity="0.533333" points="533.25,-257.83 523.47,-253.75 528.58,-263.03 533.25,-257.83"/>
</g>
<!-- /lib/character_definition.dart -->
<g id="node14" class="node">
<title>/lib/character_definition.dart</title>
<path fill="Lavender" stroke="black" stroke-width="1.3" d="M1151.12,-252C1151.12,-252 1028.62,-252 1028.62,-252 1022.62,-252 1016.62,-246 1016.62,-240 1016.62,-240 1016.62,-228 1016.62,-228 1016.62,-222 1022.62,-216 1028.62,-216 1028.62,-216 1151.12,-216 1151.12,-216 1157.12,-216 1163.12,-222 1163.12,-228 1163.12,-228 1163.12,-240 1163.12,-240 1163.12,-246 1157.12,-252 1151.12,-252"/>
<text text-anchor="middle" x="1089.88" y="-228.75" font-family="Arial" font-size="15.00">character_definition</text>
</g>
<!-- /test/textify_test.dart&#45;&gt;/lib/character_definition.dart -->
<g id="edge4" class="edge">
<title>/test/textify_test.dart&#45;&gt;/lib/character_definition.dart</title>
<path fill="none" stroke="#aabbaa" stroke-width="1.3" stroke-opacity="0.533333" d="M644.62,-446.98C701.73,-442.98 802.5,-431.13 880.88,-396 955.94,-362.35 1028.55,-296.67 1065.2,-260.47"/>
<polygon fill="#aabbaa" fill-opacity="0.533333" stroke="#aabbaa" stroke-width="1.3" stroke-opacity="0.533333" points="1067.32,-263.3 1071.91,-253.75 1062.37,-258.35 1067.32,-263.3"/>
</g>
<!-- /lib/textify.dart -->
<g id="node16" class="node">
<title>/lib/textify.dart</title>
<path fill="Lavender" stroke="black" stroke-width="1.3" d="M509.75,-396C509.75,-396 478,-396 478,-396 472,-396 466,-390 466,-384 466,-384 466,-372 466,-372 466,-366 472,-360 478,-360 478,-360 509.75,-360 509.75,-360 515.75,-360 521.75,-366 521.75,-372 521.75,-372 521.75,-384 521.75,-384 521.75,-390 515.75,-396 509.75,-396"/>
<text text-anchor="middle" x="493.88" y="-372.75" font-family="Arial" font-size="15.00">textify</text>
</g>
<!-- /test/textify_test.dart&#45;&gt;/lib/textify.dart -->
<g id="edge6" class="edge">
<title>/test/textify_test.dart&#45;&gt;/lib/textify.dart</title>
<path fill="none" stroke="#aabbaa" stroke-width="1.3" stroke-opacity="0.533333" d="M573.4,-431.52C560.27,-422.85 544.22,-412.25 529.99,-402.85"/>
<polygon fill="#aabbaa" fill-opacity="0.533333" stroke="#aabbaa" stroke-width="1.3" stroke-opacity="0.533333" points="531.93,-399.93 521.65,-397.34 528.07,-405.78 531.93,-399.93"/>
</g>
<!-- /lib/correction.dart -->
<g id="node18" class="node">
<title>/lib/correction.dart</title>
<path fill="Lavender" stroke="black" stroke-width="1.3" d="M670.88,-324C670.88,-324 612.88,-324 612.88,-324 606.88,-324 600.88,-318 600.88,-312 600.88,-312 600.88,-300 600.88,-300 600.88,-294 606.88,-288 612.88,-288 612.88,-288 670.88,-288 670.88,-288 676.88,-288 682.88,-294 682.88,-300 682.88,-300 682.88,-312 682.88,-312 682.88,-318 676.88,-324 670.88,-324"/>
<text text-anchor="middle" x="641.88" y="-300.75" font-family="Arial" font-size="15.00">correction</text>
</g>
<!-- /test/textify_test.dart&#45;&gt;/lib/correction.dart -->
<g id="edge5" class="edge">
<title>/test/textify_test.dart&#45;&gt;/lib/correction.dart</title>
<path fill="none" stroke="#aabbaa" stroke-width="1.3" stroke-opacity="0.533333" d="M605.03,-431.59C612.12,-407.61 624.97,-364.14 633.47,-335.42"/>
<polygon fill="#aabbaa" fill-opacity="0.533333" stroke="#aabbaa" stroke-width="1.3" stroke-opacity="0.533333" points="636.78,-336.58 636.26,-326 630.06,-334.59 636.78,-336.58"/>
</g>
<!-- /test/bands_test.dart -->
<g id="node4" class="node">
<title>/test/bands_test.dart</title>
<path fill="Lavender" stroke="black" stroke-width="1.3" d="M135.62,-396C135.62,-396 70.12,-396 70.12,-396 64.12,-396 58.12,-390 58.12,-384 58.12,-384 58.12,-372 58.12,-372 58.12,-366 64.12,-360 70.12,-360 70.12,-360 135.62,-360 135.62,-360 141.62,-360 147.62,-366 147.62,-372 147.62,-372 147.62,-384 147.62,-384 147.62,-390 141.62,-396 135.62,-396"/>
<text text-anchor="middle" x="102.88" y="-372.75" font-family="Arial" font-size="15.00">bands_test</text>
</g>
<!-- /test/bands_test.dart&#45;&gt;/lib/int_offset.dart -->
<g id="edge8" class="edge">
<title>/test/bands_test.dart&#45;&gt;/lib/int_offset.dart</title>
<path fill="none" stroke="#aabbaa" stroke-width="1.3" stroke-opacity="0.533333" d="M109.96,-359.85C120.18,-333.49 137.88,-281.21 137.88,-235 137.88,-235 137.88,-235 137.88,-161 137.88,-113.47 175.24,-69.98 203.35,-43.98"/>
<polygon fill="#aabbaa" fill-opacity="0.533333" stroke="#aabbaa" stroke-width="1.3" stroke-opacity="0.533333" points="205.5,-46.76 210.62,-37.48 200.83,-41.54 205.5,-46.76"/>
</g>
<!-- /lib/bands.dart -->
<g id="node21" class="node">
<title>/lib/bands.dart</title>
<path fill="Lavender" stroke="black" stroke-width="1.3" d="M375.12,-324C375.12,-324 342.62,-324 342.62,-324 336.62,-324 330.62,-318 330.62,-312 330.62,-312 330.62,-300 330.62,-300 330.62,-294 336.62,-288 342.62,-288 342.62,-288 375.12,-288 375.12,-288 381.12,-288 387.12,-294 387.12,-300 387.12,-300 387.12,-312 387.12,-312 387.12,-318 381.12,-324 375.12,-324"/>
<text text-anchor="middle" x="358.88" y="-300.75" font-family="Arial" font-size="15.00">bands</text>
</g>
<!-- /test/bands_test.dart&#45;&gt;/lib/bands.dart -->
<g id="edge7" class="edge">
<title>/test/bands_test.dart&#45;&gt;/lib/bands.dart</title>
<path fill="none" stroke="#aabbaa" stroke-width="1.3" stroke-opacity="0.533333" d="M148.05,-364.65C196.51,-351.4 272.73,-330.55 319.03,-317.9"/>
<polygon fill="#aabbaa" fill-opacity="0.533333" stroke="#aabbaa" stroke-width="1.3" stroke-opacity="0.533333" points="319.78,-321.32 328.5,-315.3 317.93,-314.57 319.78,-321.32"/>
</g>
<!-- /test/character_definition_test.dart -->
<g id="node5" class="node">
<title>/test/character_definition_test.dart</title>
<path fill="Lavender" stroke="black" stroke-width="1.3" d="M1217.62,-324C1217.62,-324 1062.12,-324 1062.12,-324 1056.12,-324 1050.12,-318 1050.12,-312 1050.12,-312 1050.12,-300 1050.12,-300 1050.12,-294 1056.12,-288 1062.12,-288 1062.12,-288 1217.62,-288 1217.62,-288 1223.62,-288 1229.62,-294 1229.62,-300 1229.62,-300 1229.62,-312 1229.62,-312 1229.62,-318 1223.62,-324 1217.62,-324"/>
<text text-anchor="middle" x="1139.88" y="-300.75" font-family="Arial" font-size="15.00">character_definition_test</text>
</g>
<!-- /lib/artifact.dart -->
<g id="node12" class="node">
<title>/lib/artifact.dart</title>
<path fill="Lavender" stroke="black" stroke-width="1.3" d="M752.75,-180C752.75,-180 715,-180 715,-180 709,-180 703,-174 703,-168 703,-168 703,-156 703,-156 703,-150 709,-144 715,-144 715,-144 752.75,-144 752.75,-144 758.75,-144 764.75,-150 764.75,-156 764.75,-156 764.75,-168 764.75,-168 764.75,-174 758.75,-180 752.75,-180"/>
<text text-anchor="middle" x="733.88" y="-156.75" font-family="Arial" font-size="15.00">artifact</text>
</g>
<!-- /test/character_definition_test.dart&#45;&gt;/lib/artifact.dart -->
<g id="edge9" class="edge">
<title>/test/character_definition_test.dart&#45;&gt;/lib/artifact.dart</title>
<path fill="none" stroke="#aabbaa" stroke-width="1.3" stroke-opacity="0.533333" d="M1155.38,-287.65C1170.9,-268.14 1190.06,-236.52 1171.88,-216 1145.91,-186.71 882.17,-170.4 776.91,-165.02"/>
<polygon fill="#aabbaa" fill-opacity="0.533333" stroke="#aabbaa" stroke-width="1.3" stroke-opacity="0.533333" points="777.31,-161.54 767.14,-164.53 776.96,-168.53 777.31,-161.54"/>
</g>
<!-- /test/character_definition_test.dart&#45;&gt;/lib/character_definition.dart -->
<g id="edge10" class="edge">
<title>/test/character_definition_test.dart&#45;&gt;/lib/character_definition.dart</title>
<path fill="none" stroke="#aabbaa" stroke-width="1.3" stroke-opacity="0.533333" d="M1127.52,-287.7C1121.94,-279.9 1115.24,-270.51 1109.04,-261.83"/>
<polygon fill="#aabbaa" fill-opacity="0.533333" stroke="#aabbaa" stroke-width="1.3" stroke-opacity="0.533333" points="1111.9,-259.81 1103.24,-253.71 1106.2,-263.88 1111.9,-259.81"/>
</g>
<!-- /test/flood_fill_test.dart -->
<g id="node6" class="node">
<title>/test/flood_fill_test.dart</title>
<path fill="Lavender" stroke="black" stroke-width="1.3" d="M853.38,-252C853.38,-252 774.38,-252 774.38,-252 768.38,-252 762.38,-246 762.38,-240 762.38,-240 762.38,-228 762.38,-228 762.38,-222 768.38,-216 774.38,-216 774.38,-216 853.38,-216 853.38,-216 859.38,-216 865.38,-222 865.38,-228 865.38,-228 865.38,-240 865.38,-240 865.38,-246 859.38,-252 853.38,-252"/>
<text text-anchor="middle" x="813.88" y="-228.75" font-family="Arial" font-size="15.00">flood_fill_test</text>
</g>
<!-- /test/flood_fill_test.dart&#45;&gt;/lib/artifact.dart -->
<g id="edge11" class="edge">
<title>/test/flood_fill_test.dart&#45;&gt;/lib/artifact.dart</title>
<path fill="none" stroke="#aabbaa" stroke-width="1.3" stroke-opacity="0.533333" d="M794.1,-215.7C784.58,-207.37 772.99,-197.22 762.52,-188.07"/>
<polygon fill="#aabbaa" fill-opacity="0.533333" stroke="#aabbaa" stroke-width="1.3" stroke-opacity="0.533333" points="765.01,-185.59 755.18,-181.64 760.4,-190.86 765.01,-185.59"/>
</g>
<!-- /test/artifact_test.dart -->
<g id="node7" class="node">
<title>/test/artifact_test.dart</title>
<path fill="Lavender" stroke="black" stroke-width="1.3" d="M338.25,-396C338.25,-396 267.5,-396 267.5,-396 261.5,-396 255.5,-390 255.5,-384 255.5,-384 255.5,-372 255.5,-372 255.5,-366 261.5,-360 267.5,-360 267.5,-360 338.25,-360 338.25,-360 344.25,-360 350.25,-366 350.25,-372 350.25,-372 350.25,-384 350.25,-384 350.25,-390 344.25,-396 338.25,-396"/>
<text text-anchor="middle" x="302.88" y="-372.75" font-family="Arial" font-size="15.00">artifact_test</text>
</g>
<!-- /test/artifact_test.dart&#45;&gt;/lib/int_rect.dart -->
<g id="edge13" class="edge">
<title>/test/artifact_test.dart&#45;&gt;/lib/int_rect.dart</title>
<path fill="none" stroke="#aabbaa" stroke-width="1.3" stroke-opacity="0.533333" d="M304.52,-359.54C309.02,-311.86 321.56,-179.06 327.14,-119.98"/>
<polygon fill="#aabbaa" fill-opacity="0.533333" stroke="#aabbaa" stroke-width="1.3" stroke-opacity="0.533333" points="330.61,-120.48 328.06,-110.19 323.64,-119.82 330.61,-120.48"/>
</g>
<!-- /test/artifact_test.dart&#45;&gt;/lib/bands.dart -->
<g id="edge12" class="edge">
<title>/test/artifact_test.dart&#45;&gt;/lib/bands.dart</title>
<path fill="none" stroke="#aabbaa" stroke-width="1.3" stroke-opacity="0.533333" d="M316.72,-359.7C323.09,-351.73 330.8,-342.1 337.86,-333.26"/>
<polygon fill="#aabbaa" fill-opacity="0.533333" stroke="#aabbaa" stroke-width="1.3" stroke-opacity="0.533333" points="340.45,-335.64 343.96,-325.64 334.98,-331.26 340.45,-335.64"/>
</g>
<!-- /test/histogram_test.dart -->
<g id="node8" class="node">
<title>/test/histogram_test.dart</title>
<path fill="Lavender" stroke="black" stroke-width="1.3" d="M986.38,-252C986.38,-252 895.38,-252 895.38,-252 889.38,-252 883.38,-246 883.38,-240 883.38,-240 883.38,-228 883.38,-228 883.38,-222 889.38,-216 895.38,-216 895.38,-216 986.38,-216 986.38,-216 992.38,-216 998.38,-222 998.38,-228 998.38,-228 998.38,-240 998.38,-240 998.38,-246 992.38,-252 986.38,-252"/>
<text text-anchor="middle" x="940.88" y="-228.75" font-family="Arial" font-size="15.00">histogram_test</text>
</g>
<!-- /test/histogram_test.dart&#45;&gt;/lib/artifact.dart -->
<g id="edge14" class="edge">
<title>/test/histogram_test.dart&#45;&gt;/lib/artifact.dart</title>
<path fill="none" stroke="#aabbaa" stroke-width="1.3" stroke-opacity="0.533333" d="M889.17,-215.52C854.25,-203.71 808.73,-188.31 776.01,-177.25"/>
<polygon fill="#aabbaa" fill-opacity="0.533333" stroke="#aabbaa" stroke-width="1.3" stroke-opacity="0.533333" points="777.47,-174.05 766.88,-174.16 775.23,-180.68 777.47,-174.05"/>
</g>
<!-- /test/character_definitions_test.dart -->
<g id="node9" class="node">
<title>/test/character_definitions_test.dart</title>
<path fill="Lavender" stroke="black" stroke-width="1.3" d="M859.38,-396C859.38,-396 696.38,-396 696.38,-396 690.38,-396 684.38,-390 684.38,-384 684.38,-384 684.38,-372 684.38,-372 684.38,-366 690.38,-360 696.38,-360 696.38,-360 859.38,-360 859.38,-360 865.38,-360 871.38,-366 871.38,-372 871.38,-372 871.38,-384 871.38,-384 871.38,-390 865.38,-396 859.38,-396"/>
<text text-anchor="middle" x="777.88" y="-372.75" font-family="Arial" font-size="15.00">character_definitions_test</text>
</g>
<!-- /test/character_definitions_test.dart&#45;&gt;/lib/artifact.dart -->
<g id="edge15" class="edge">
<title>/test/character_definitions_test.dart&#45;&gt;/lib/artifact.dart</title>
<path fill="none" stroke="#aabbaa" stroke-width="1.3" stroke-opacity="0.533333" d="M755.91,-359.55C745.93,-350.21 735.19,-337.78 729.88,-324 713.02,-280.28 719.95,-224.8 726.74,-191.7"/>
<polygon fill="#aabbaa" fill-opacity="0.533333" stroke="#aabbaa" stroke-width="1.3" stroke-opacity="0.533333" points="730.12,-192.62 728.87,-182.1 723.29,-191.11 730.12,-192.62"/>
</g>
<!-- /lib/character_definitions.dart -->
<g id="node17" class="node">
<title>/lib/character_definitions.dart</title>
<path fill="Lavender" stroke="black" stroke-width="1.3" d="M880.88,-324C880.88,-324 750.88,-324 750.88,-324 744.88,-324 738.88,-318 738.88,-312 738.88,-312 738.88,-300 738.88,-300 738.88,-294 744.88,-288 750.88,-288 750.88,-288 880.88,-288 880.88,-288 886.88,-288 892.88,-294 892.88,-300 892.88,-300 892.88,-312 892.88,-312 892.88,-318 886.88,-324 880.88,-324"/>
<text text-anchor="middle" x="815.88" y="-300.75" font-family="Arial" font-size="15.00">character_definitions</text>
</g>
<!-- /test/character_definitions_test.dart&#45;&gt;/lib/character_definitions.dart -->
<g id="edge16" class="edge">
<title>/test/character_definitions_test.dart&#45;&gt;/lib/character_definitions.dart</title>
<path fill="none" stroke="#aabbaa" stroke-width="1.3" stroke-opacity="0.533333" d="M787.27,-359.7C791.41,-352.07 796.38,-342.92 801,-334.4"/>
<polygon fill="#aabbaa" fill-opacity="0.533333" stroke="#aabbaa" stroke-width="1.3" stroke-opacity="0.533333" points="803.96,-336.29 805.65,-325.83 797.8,-332.95 803.96,-336.29"/>
</g>
<!-- /test/steps_test.dart -->
<g id="node10" class="node">
<title>/test/steps_test.dart</title>
<path fill="Lavender" stroke="black" stroke-width="1.3" d="M408.38,-468C408.38,-468 347.38,-468 347.38,-468 341.38,-468 335.38,-462 335.38,-456 335.38,-456 335.38,-444 335.38,-444 335.38,-438 341.38,-432 347.38,-432 347.38,-432 408.38,-432 408.38,-432 414.38,-432 420.38,-438 420.38,-444 420.38,-444 420.38,-456 420.38,-456 420.38,-462 414.38,-468 408.38,-468"/>
<text text-anchor="middle" x="377.88" y="-444.75" font-family="Arial" font-size="15.00">steps_test</text>
</g>
<!-- /test/steps_test.dart&#45;&gt;/lib/int_rect.dart -->
<g id="edge18" class="edge">
<title>/test/steps_test.dart&#45;&gt;/lib/int_rect.dart</title>
<path fill="none" stroke="#aabbaa" stroke-width="1.3" stroke-opacity="0.533333" d="M335.04,-439.29C275.74,-423.02 175.88,-384.16 175.88,-307 175.88,-307 175.88,-307 175.88,-233 175.88,-192.55 168.71,-174.84 194.88,-144 217.52,-117.3 255.39,-103.97 285.27,-97.36"/>
<polygon fill="#aabbaa" fill-opacity="0.533333" stroke="#aabbaa" stroke-width="1.3" stroke-opacity="0.533333" points="285.65,-100.86 294.76,-95.46 284.27,-93.99 285.65,-100.86"/>
</g>
<!-- /test/steps_test.dart&#45;&gt;/lib/textify.dart -->
<g id="edge19" class="edge">
<title>/test/steps_test.dart&#45;&gt;/lib/textify.dart</title>
<path fill="none" stroke="#aabbaa" stroke-width="1.3" stroke-opacity="0.533333" d="M406.85,-431.52C421.6,-422.61 439.73,-411.67 455.61,-402.09"/>
<polygon fill="#aabbaa" fill-opacity="0.533333" stroke="#aabbaa" stroke-width="1.3" stroke-opacity="0.533333" points="457.23,-405.2 463.99,-397.04 453.62,-399.21 457.23,-405.2"/>
</g>
<!-- /test/steps_test.dart&#45;&gt;/lib/bands.dart -->
<g id="edge17" class="edge">
<title>/test/steps_test.dart&#45;&gt;/lib/bands.dart</title>
<path fill="none" stroke="#aabbaa" stroke-width="1.3" stroke-opacity="0.533333" d="M375.55,-431.59C372.35,-407.72 366.57,-364.53 362.73,-335.8"/>
<polygon fill="#aabbaa" fill-opacity="0.533333" stroke="#aabbaa" stroke-width="1.3" stroke-opacity="0.533333" points="366.22,-335.51 361.43,-326.06 359.28,-336.44 366.22,-335.51"/>
</g>
<!-- /lib/band.dart&#45;&gt;/lib/artifact.dart -->
<g id="edge20" class="edge">
<title>/lib/band.dart&#45;&gt;/lib/artifact.dart</title>
<path fill="none" stroke="#aabbaa" stroke-width="1.3" stroke-opacity="0.533333" d="M526.2,-220.44C530.74,-218.91 535.41,-217.4 539.88,-216 591.42,-199.86 651.64,-182.97 691.29,-172.71"/>
<polygon fill="#aabbaa" fill-opacity="0.533333" stroke="#aabbaa" stroke-width="1.3" stroke-opacity="0.533333" points="691.92,-176.17 700.74,-170.3 690.19,-169.38 691.92,-176.17"/>
</g>
<!-- /lib/band.dart&#45;&gt;/lib/artifact.dart -->
<g id="edge22" class="edge">
<title>/lib/band.dart&#45;&gt;/lib/artifact.dart</title>
<path fill="none" stroke="#aabbaa" stroke-width="1.3" stroke-dasharray="5,2" stroke-opacity="0.533333" d="M526.18,-226.24C536.31,-223.03 547.64,-219.2 557.88,-216 603.28,-201.79 655.41,-186.99 691.19,-176.65"/>
<polygon fill="#aabbaa" fill-opacity="0.533333" stroke="#aabbaa" stroke-width="1.3" stroke-opacity="0.533333" points="692.15,-180.02 700.78,-173.87 690.2,-173.29 692.15,-180.02"/>
</g>
<!-- /lib/band.dart&#45;&gt;/lib/int_rect.dart -->
<g id="edge21" class="edge">
<title>/lib/band.dart&#45;&gt;/lib/int_rect.dart</title>
<path fill="none" stroke="#aabbaa" stroke-width="1.3" stroke-opacity="0.533333" d="M488.27,-215.51C475.89,-196.17 453.88,-164.97 428.88,-144 412.35,-130.14 391.61,-118.35 373.39,-109.45"/>
<polygon fill="#aabbaa" fill-opacity="0.533333" stroke="#aabbaa" stroke-width="1.3" stroke-opacity="0.533333" points="375.03,-106.35 364.5,-105.25 372.05,-112.68 375.03,-106.35"/>
</g>
<!-- /lib/artifact.dart&#45;&gt;/lib/int_rect.dart -->
<g id="edge23" class="edge">
<title>/lib/artifact.dart&#45;&gt;/lib/int_rect.dart</title>
<path fill="none" stroke="#aabbaa" stroke-width="1.3" stroke-opacity="0.533333" d="M702.51,-155.57C631.28,-143.22 457.13,-113.05 374.63,-98.75"/>
<polygon fill="#aabbaa" fill-opacity="0.533333" stroke="#aabbaa" stroke-width="1.3" stroke-opacity="0.533333" points="375.3,-95.32 364.85,-97.06 374.1,-102.22 375.3,-95.32"/>
</g>
<!-- /lib/score_match.dart -->
<g id="node13" class="node">
<title>/lib/score_match.dart</title>
<path fill="Lavender" stroke="black" stroke-width="1.3" d="M533,-324C533,-324 454.75,-324 454.75,-324 448.75,-324 442.75,-318 442.75,-312 442.75,-312 442.75,-300 442.75,-300 442.75,-294 448.75,-288 454.75,-288 454.75,-288 533,-288 533,-288 539,-288 545,-294 545,-300 545,-300 545,-312 545,-312 545,-318 539,-324 533,-324"/>
<text text-anchor="middle" x="493.88" y="-300.75" font-family="Arial" font-size="15.00">score_match</text>
</g>
<!-- /lib/character_definition.dart&#45;&gt;/lib/artifact.dart -->
<g id="edge24" class="edge">
<title>/lib/character_definition.dart&#45;&gt;/lib/artifact.dart</title>
<path fill="none" stroke="#aabbaa" stroke-width="1.3" stroke-opacity="0.533333" d="M1016.13,-217.66C1013.34,-217.1 1010.58,-216.54 1007.88,-216 926.17,-199.63 830.57,-181.33 776.63,-171.09"/>
<polygon fill="#aabbaa" fill-opacity="0.533333" stroke="#aabbaa" stroke-width="1.3" stroke-opacity="0.533333" points="777.54,-167.7 767.06,-169.27 776.24,-174.58 777.54,-167.7"/>
</g>
<!-- /lib/int_rect.dart&#45;&gt;/lib/int_offset.dart -->
<g id="edge25" class="edge">
<title>/lib/int_rect.dart&#45;&gt;/lib/int_offset.dart</title>
<path fill="none" stroke="#aabbaa" stroke-width="1.3" stroke-opacity="0.533333" d="M299.96,-71.52C287.44,-63.02 273.06,-52.66 260.87,-43.4"/>
<polygon fill="#aabbaa" fill-opacity="0.533333" stroke="#aabbaa" stroke-width="1.3" stroke-opacity="0.533333" points="263.24,-40.81 253.19,-37.46 258.96,-46.35 263.24,-40.81"/>
</g>
<!-- /lib/int_rect.dart&#45;&gt;/lib/int_offset.dart -->
<g id="edge26" class="edge">
<title>/lib/int_rect.dart&#45;&gt;/lib/int_offset.dart</title>
<path fill="none" stroke="#aabbaa" stroke-width="1.3" stroke-dasharray="5,2" stroke-opacity="0.533333" d="M312.06,-71.7C301.07,-63.03 286.67,-52.4 273.18,-42.96"/>
<polygon fill="#aabbaa" fill-opacity="0.533333" stroke="#aabbaa" stroke-width="1.3" stroke-opacity="0.533333" points="275.42,-40.26 265.21,-37.46 271.45,-46.02 275.42,-40.26"/>
</g>
<!-- /lib/textify.dart&#45;&gt;/lib/score_match.dart -->
<g id="edge31" class="edge">
<title>/lib/textify.dart&#45;&gt;/lib/score_match.dart</title>
<path fill="none" stroke="#aabbaa" stroke-width="1.3" stroke-opacity="0.533333" d="M493.88,-359.7C493.88,-352.49 493.88,-343.93 493.88,-335.82"/>
<polygon fill="#aabbaa" fill-opacity="0.533333" stroke="#aabbaa" stroke-width="1.3" stroke-opacity="0.533333" points="497.38,-336.07 493.88,-326.07 490.38,-336.07 497.38,-336.07"/>
</g>
<!-- /lib/textify.dart&#45;&gt;/lib/int_rect.dart -->
<g id="edge30" class="edge">
<title>/lib/textify.dart&#45;&gt;/lib/int_rect.dart</title>
<path fill="none" stroke="#aabbaa" stroke-width="1.3" stroke-opacity="0.533333" d="M469.23,-359.54C457.3,-350.11 443.52,-337.61 433.88,-324 383.98,-253.55 398.99,-221.46 360.88,-144 356.69,-135.49 351.66,-126.49 346.89,-118.37"/>
<polygon fill="#aabbaa" fill-opacity="0.533333" stroke="#aabbaa" stroke-width="1.3" stroke-opacity="0.533333" points="350.02,-116.78 341.87,-110 344.02,-120.38 350.02,-116.78"/>
</g>
<!-- /lib/textify.dart&#45;&gt;/lib/character_definitions.dart -->
<g id="edge28" class="edge">
<title>/lib/textify.dart&#45;&gt;/lib/character_definitions.dart</title>
<path fill="none" stroke="#aabbaa" stroke-width="1.3" stroke-opacity="0.533333" d="M522.17,-370.85C567.5,-360.99 658.3,-341.26 727,-326.32"/>
<polygon fill="#aabbaa" fill-opacity="0.533333" stroke="#aabbaa" stroke-width="1.3" stroke-opacity="0.533333" points="727.74,-329.74 736.77,-324.2 726.25,-322.9 727.74,-329.74"/>
</g>
<!-- /lib/textify.dart&#45;&gt;/lib/correction.dart -->
<g id="edge29" class="edge">
<title>/lib/textify.dart&#45;&gt;/lib/correction.dart</title>
<path fill="none" stroke="#aabbaa" stroke-width="1.3" stroke-opacity="0.533333" d="M522.06,-363.67C542.5,-354 570.62,-340.7 594.49,-329.41"/>
<polygon fill="#aabbaa" fill-opacity="0.533333" stroke="#aabbaa" stroke-width="1.3" stroke-opacity="0.533333" points="595.79,-332.67 603.33,-325.23 592.79,-326.34 595.79,-332.67"/>
</g>
<!-- /lib/textify.dart&#45;&gt;/lib/bands.dart -->
<g id="edge27" class="edge">
<title>/lib/textify.dart&#45;&gt;/lib/bands.dart</title>
<path fill="none" stroke="#aabbaa" stroke-width="1.3" stroke-opacity="0.533333" d="M465.57,-362.33C446,-352.17 419.69,-338.53 398.09,-327.33"/>
<polygon fill="#aabbaa" fill-opacity="0.533333" stroke="#aabbaa" stroke-width="1.3" stroke-opacity="0.533333" points="399.84,-324.3 389.35,-322.8 396.62,-330.51 399.84,-324.3"/>
</g>
<!-- /lib/character_definitions.dart&#45;&gt;/lib/artifact.dart -->
<g id="edge32" class="edge">
<title>/lib/character_definitions.dart&#45;&gt;/lib/artifact.dart</title>
<path fill="none" stroke="#aabbaa" stroke-width="1.3" stroke-opacity="0.533333" d="M788.45,-287.64C776.11,-278.48 762.43,-266.19 753.88,-252 742.92,-233.81 737.95,-210.27 735.71,-191.96"/>
<polygon fill="#aabbaa" fill-opacity="0.533333" stroke="#aabbaa" stroke-width="1.3" stroke-opacity="0.533333" points="739.21,-191.82 734.74,-182.22 732.24,-192.51 739.21,-191.82"/>
</g>
<!-- /lib/character_definitions.dart&#45;&gt;/lib/character_definition.dart -->
<g id="edge33" class="edge">
<title>/lib/character_definitions.dart&#45;&gt;/lib/character_definition.dart</title>
<path fill="none" stroke="#aabbaa" stroke-width="1.3" stroke-opacity="0.533333" d="M878.38,-287.52C915.83,-277.69 963.92,-265.39 1004.8,-255.16"/>
<polygon fill="#aabbaa" fill-opacity="0.533333" stroke="#aabbaa" stroke-width="1.3" stroke-opacity="0.533333" points="1005.64,-258.55 1014.49,-252.74 1003.94,-251.76 1005.64,-258.55"/>
</g>
<!-- /lib/character_definitions.dart&#45;&gt;/lib/character_definition.dart -->
<g id="edge34" class="edge">
<title>/lib/character_definitions.dart&#45;&gt;/lib/character_definition.dart</title>
<path fill="none" stroke="#aabbaa" stroke-width="1.3" stroke-dasharray="5,2" stroke-opacity="0.533333" d="M890.24,-287.52C929.38,-277.77 977.18,-265.58 1016.21,-255.4"/>
<polygon fill="#aabbaa" fill-opacity="0.533333" stroke="#aabbaa" stroke-width="1.3" stroke-opacity="0.533333" points="1017.07,-258.8 1025.86,-252.88 1015.3,-252.02 1017.07,-258.8"/>
</g>
<!-- /lib/english_words.dart -->
<g id="node19" class="node">
<title>/lib/english_words.dart</title>
<path fill="Lavender" stroke="black" stroke-width="1.3" d="M656.12,-252C656.12,-252 569.62,-252 569.62,-252 563.62,-252 557.62,-246 557.62,-240 557.62,-240 557.62,-228 557.62,-228 557.62,-222 563.62,-216 569.62,-216 569.62,-216 656.12,-216 656.12,-216 662.12,-216 668.12,-222 668.12,-228 668.12,-228 668.12,-240 668.12,-240 668.12,-246 662.12,-252 656.12,-252"/>
<text text-anchor="middle" x="612.88" y="-228.75" font-family="Arial" font-size="15.00">english_words</text>
</g>
<!-- /lib/correction.dart&#45;&gt;/lib/english_words.dart -->
<g id="edge35" class="edge">
<title>/lib/correction.dart&#45;&gt;/lib/english_words.dart</title>
<path fill="none" stroke="#aabbaa" stroke-width="1.3" stroke-opacity="0.533333" d="M634.71,-287.7C631.62,-280.24 627.92,-271.32 624.46,-262.97"/>
<polygon fill="#aabbaa" fill-opacity="0.533333" stroke="#aabbaa" stroke-width="1.3" stroke-opacity="0.533333" points="627.78,-261.82 620.71,-253.92 621.31,-264.5 627.78,-261.82"/>
</g>
<!-- /lib/bands.dart&#45;&gt;/lib/band.dart -->
<g id="edge36" class="edge">
<title>/lib/bands.dart&#45;&gt;/lib/band.dart</title>
<path fill="none" stroke="#aabbaa" stroke-width="1.3" stroke-opacity="0.533333" d="M387.57,-287.7C408.82,-276.49 437.83,-262.01 460.98,-251.06"/>
<polygon fill="#aabbaa" fill-opacity="0.533333" stroke="#aabbaa" stroke-width="1.3" stroke-opacity="0.533333" points="462.44,-254.24 470.02,-246.83 459.48,-247.89 462.44,-254.24"/>
</g>
<!-- /lib/bands.dart&#45;&gt;/lib/band.dart -->
<g id="edge38" class="edge">
<title>/lib/bands.dart&#45;&gt;/lib/band.dart</title>
<path fill="none" stroke="#aabbaa" stroke-width="1.3" stroke-dasharray="5,2" stroke-opacity="0.533333" d="M387.5,-293.28C408.84,-283.41 438.03,-269 461.23,-256.98"/>
<polygon fill="#aabbaa" fill-opacity="0.533333" stroke="#aabbaa" stroke-width="1.3" stroke-opacity="0.533333" points="462.77,-260.13 470,-252.39 459.52,-253.92 462.77,-260.13"/>
</g>
<!-- /lib/bands.dart&#45;&gt;/lib/int_rect.dart -->
<g id="edge37" class="edge">
<title>/lib/bands.dart&#45;&gt;/lib/int_rect.dart</title>
<path fill="none" stroke="#aabbaa" stroke-width="1.3" stroke-opacity="0.533333" d="M358.21,-287.96C356.86,-258.43 353.09,-195.96 343.88,-144 342.44,-135.91 340.38,-127.25 338.28,-119.32"/>
<polygon fill="#aabbaa" fill-opacity="0.533333" stroke="#aabbaa" stroke-width="1.3" stroke-opacity="0.533333" points="341.72,-118.62 335.67,-109.92 334.97,-120.49 341.72,-118.62"/>
</g>
</g>
</svg>
