<?xml version="1.0" encoding="UTF-8" standalone="no"?>
<!DOCTYPE svg PUBLIC "-//W3C//DTD SVG 1.1//EN"
 "http://www.w3.org/Graphics/SVG/1.1/DTD/svg11.dtd">
<!-- Generated by graphviz version 13.1.1 (20250719.2154)
 -->
<!-- Pages: 1 -->
<svg width="1052pt" height="653pt"
 viewBox="0.00 0.00 1052.00 653.00" xmlns="http://www.w3.org/2000/svg" xmlns:xlink="http://www.w3.org/1999/xlink">
<g id="graph0" class="graph" transform="scale(1 1) rotate(0) translate(4 649)">
<polygon fill="white" stroke="none" points="-4,4 -4,-649 1048,-649 1048,4 -4,4"/>
<g id="clust1" class="cluster">
<title>cluster~</title>
<path fill="none" stroke="lightgray" stroke-width="2.6" d="M20,-8C20,-8 1024,-8 1024,-8 1030,-8 1036,-14 1036,-20 1036,-20 1036,-625 1036,-625 1036,-631 1030,-637 1024,-637 1024,-637 20,-637 20,-637 14,-637 8,-631 8,-625 8,-625 8,-20 8,-20 8,-14 14,-8 20,-8"/>
<text xml:space="preserve" text-anchor="middle" x="522" y="-620.65" font-family="Arial Black" font-size="13.00">textify</text>
</g>
<g id="clust2" class="cluster">
<title>cluster~/test</title>
<path fill="none" stroke="lightgray" stroke-width="2.6" d="M28,-531C28,-531 1016,-531 1016,-531 1022,-531 1028,-537 1028,-543 1028,-543 1028,-594 1028,-594 1028,-600 1022,-606 1016,-606 1016,-606 28,-606 28,-606 22,-606 16,-600 16,-594 16,-594 16,-543 16,-543 16,-537 22,-531 28,-531"/>
<text xml:space="preserve" text-anchor="middle" x="522" y="-589.65" font-family="Arial Black" font-size="13.00">test</text>
</g>
<g id="clust3" class="cluster">
<title>cluster~/lib</title>
<path fill="none" stroke="lightgray" stroke-width="2.6" d="M287,-16C287,-16 667,-16 667,-16 673,-16 679,-22 679,-28 679,-28 679,-511 679,-511 679,-517 673,-523 667,-523 667,-523 287,-523 287,-523 281,-523 275,-517 275,-511 275,-511 275,-28 275,-28 275,-22 281,-16 287,-16"/>
<text xml:space="preserve" text-anchor="middle" x="477" y="-506.65" font-family="Arial Black" font-size="13.00">lib</text>
</g>
<!-- /test/textify_test.dart -->
<g id="node1" class="node">
<title>/test/textify_test.dart</title>
<path fill="Lavender" stroke="black" stroke-width="1.3" d="M341.38,-575C341.38,-575 276.62,-575 276.62,-575 270.62,-575 264.62,-569 264.62,-563 264.62,-563 264.62,-551 264.62,-551 264.62,-545 270.62,-539 276.62,-539 276.62,-539 341.38,-539 341.38,-539 347.38,-539 353.38,-545 353.38,-551 353.38,-551 353.38,-563 353.38,-563 353.38,-569 347.38,-575 341.38,-575"/>
<text xml:space="preserve" text-anchor="middle" x="309" y="-551.75" font-family="Arial" font-size="15.00">textify_test</text>
</g>
<!-- /lib/band.dart -->
<g id="node9" class="node">
<title>/lib/band.dart</title>
<path fill="Lavender" stroke="black" stroke-width="1.3" d="M435,-348C435,-348 405,-348 405,-348 399,-348 393,-342 393,-336 393,-336 393,-324 393,-324 393,-318 399,-312 405,-312 405,-312 435,-312 435,-312 441,-312 447,-318 447,-324 447,-324 447,-336 447,-336 447,-342 441,-348 435,-348"/>
<text xml:space="preserve" text-anchor="middle" x="420" y="-324.75" font-family="Arial" font-size="15.00">band</text>
</g>
<!-- /test/textify_test.dart&#45;&gt;/lib/band.dart -->
<g id="edge1" class="edge">
<title>/test/textify_test.dart&#45;&gt;/lib/band.dart</title>
<path fill="none" stroke="#aabbaa" stroke-width="1.3" stroke-opacity="0.533333" d="M272.63,-538.44C267.15,-534.17 262.25,-529.04 259,-523 229.72,-468.6 222.78,-434.05 259,-384 286.63,-345.82 342.71,-334.67 380.82,-331.67"/>
<polygon fill="#aabbaa" fill-opacity="0.533333" stroke="#aabbaa" stroke-width="1.3" stroke-opacity="0.533333" points="380.77,-335.18 390.54,-331.08 380.35,-328.19 380.77,-335.18"/>
</g>
<!-- /lib/score_match.dart -->
<g id="node11" class="node">
<title>/lib/score_match.dart</title>
<path fill="Lavender" stroke="black" stroke-width="1.3" d="M373.12,-420C373.12,-420 294.88,-420 294.88,-420 288.88,-420 282.88,-414 282.88,-408 282.88,-408 282.88,-396 282.88,-396 282.88,-390 288.88,-384 294.88,-384 294.88,-384 373.12,-384 373.12,-384 379.12,-384 385.12,-390 385.12,-396 385.12,-396 385.12,-408 385.12,-408 385.12,-414 379.12,-420 373.12,-420"/>
<text xml:space="preserve" text-anchor="middle" x="334" y="-396.75" font-family="Arial" font-size="15.00">score_match</text>
</g>
<!-- /test/textify_test.dart&#45;&gt;/lib/score_match.dart -->
<g id="edge4" class="edge">
<title>/test/textify_test.dart&#45;&gt;/lib/score_match.dart</title>
<path fill="none" stroke="#aabbaa" stroke-width="1.3" stroke-opacity="0.533333" d="M311.87,-538.45C316.13,-512.39 324.16,-463.19 329.29,-431.81"/>
<polygon fill="#aabbaa" fill-opacity="0.533333" stroke="#aabbaa" stroke-width="1.3" stroke-opacity="0.533333" points="332.69,-432.72 330.85,-422.29 325.78,-431.59 332.69,-432.72"/>
</g>
<!-- /lib/character_definition.dart -->
<g id="node12" class="node">
<title>/lib/character_definition.dart</title>
<path fill="Lavender" stroke="black" stroke-width="1.3" d="M619.25,-348C619.25,-348 496.75,-348 496.75,-348 490.75,-348 484.75,-342 484.75,-336 484.75,-336 484.75,-324 484.75,-324 484.75,-318 490.75,-312 496.75,-312 496.75,-312 619.25,-312 619.25,-312 625.25,-312 631.25,-318 631.25,-324 631.25,-324 631.25,-336 631.25,-336 631.25,-342 625.25,-348 619.25,-348"/>
<text xml:space="preserve" text-anchor="middle" x="558" y="-324.75" font-family="Arial" font-size="15.00">character_definition</text>
</g>
<!-- /test/textify_test.dart&#45;&gt;/lib/character_definition.dart -->
<g id="edge2" class="edge">
<title>/test/textify_test.dart&#45;&gt;/lib/character_definition.dart</title>
<path fill="none" stroke="#aabbaa" stroke-width="1.3" stroke-opacity="0.533333" d="M297.02,-538.36C275.6,-504.42 236.32,-429.36 274,-384 277.24,-380.09 390.05,-359.92 472.5,-345.62"/>
<polygon fill="#aabbaa" fill-opacity="0.533333" stroke="#aabbaa" stroke-width="1.3" stroke-opacity="0.533333" points="472.97,-349.09 482.23,-343.94 471.78,-342.19 472.97,-349.09"/>
</g>
<!-- /lib/textify.dart -->
<g id="node14" class="node">
<title>/lib/textify.dart</title>
<path fill="Lavender" stroke="black" stroke-width="1.3" d="M429.88,-492C429.88,-492 398.12,-492 398.12,-492 392.12,-492 386.12,-486 386.12,-480 386.12,-480 386.12,-468 386.12,-468 386.12,-462 392.12,-456 398.12,-456 398.12,-456 429.88,-456 429.88,-456 435.88,-456 441.88,-462 441.88,-468 441.88,-468 441.88,-480 441.88,-480 441.88,-486 435.88,-492 429.88,-492"/>
<text xml:space="preserve" text-anchor="middle" x="414" y="-468.75" font-family="Arial" font-size="15.00">textify</text>
</g>
<!-- /test/textify_test.dart&#45;&gt;/lib/textify.dart -->
<g id="edge5" class="edge">
<title>/test/textify_test.dart&#45;&gt;/lib/textify.dart</title>
<path fill="none" stroke="#aabbaa" stroke-width="1.3" stroke-opacity="0.533333" d="M331.78,-538.42C346.51,-527.07 365.88,-512.12 382.12,-499.59"/>
<polygon fill="#aabbaa" fill-opacity="0.533333" stroke="#aabbaa" stroke-width="1.3" stroke-opacity="0.533333" points="383.92,-502.62 389.7,-493.74 379.65,-497.08 383.92,-502.62"/>
</g>
<!-- /lib/utilities.dart -->
<g id="node15" class="node">
<title>/lib/utilities.dart</title>
<path fill="Lavender" stroke="black" stroke-width="1.3" d="M576.5,-204C576.5,-204 539.5,-204 539.5,-204 533.5,-204 527.5,-198 527.5,-192 527.5,-192 527.5,-180 527.5,-180 527.5,-174 533.5,-168 539.5,-168 539.5,-168 576.5,-168 576.5,-168 582.5,-168 588.5,-174 588.5,-180 588.5,-180 588.5,-192 588.5,-192 588.5,-198 582.5,-204 576.5,-204"/>
<text xml:space="preserve" text-anchor="middle" x="558" y="-180.75" font-family="Arial" font-size="15.00">utilities</text>
</g>
<!-- /test/textify_test.dart&#45;&gt;/lib/utilities.dart -->
<g id="edge6" class="edge">
<title>/test/textify_test.dart&#45;&gt;/lib/utilities.dart</title>
<path fill="none" stroke="#aabbaa" stroke-width="1.3" stroke-opacity="0.533333" d="M273.36,-538.41C267.61,-535.8 261.68,-533.24 256,-531 245.15,-526.72 238.15,-532.22 231,-523 198.26,-480.78 224,-456.42 224,-403 224,-403 224,-403 224,-329 224,-266.43 425.05,-215.47 515.18,-195.77"/>
<polygon fill="#aabbaa" fill-opacity="0.533333" stroke="#aabbaa" stroke-width="1.3" stroke-opacity="0.533333" points="515.91,-199.2 524.95,-193.67 514.44,-192.35 515.91,-199.2"/>
</g>
<!-- /lib/correction.dart -->
<g id="node17" class="node">
<title>/lib/correction.dart</title>
<path fill="Lavender" stroke="black" stroke-width="1.3" d="M442,-204C442,-204 384,-204 384,-204 378,-204 372,-198 372,-192 372,-192 372,-180 372,-180 372,-174 378,-168 384,-168 384,-168 442,-168 442,-168 448,-168 454,-174 454,-180 454,-180 454,-192 454,-192 454,-198 448,-204 442,-204"/>
<text xml:space="preserve" text-anchor="middle" x="413" y="-180.75" font-family="Arial" font-size="15.00">correction</text>
</g>
<!-- /test/textify_test.dart&#45;&gt;/lib/correction.dart -->
<g id="edge3" class="edge">
<title>/test/textify_test.dart&#45;&gt;/lib/correction.dart</title>
<path fill="none" stroke="#aabbaa" stroke-width="1.3" stroke-opacity="0.533333" d="M342.31,-538.36C349,-535.46 356.1,-532.81 363,-531 406.56,-519.58 420.58,-534.94 464,-523 563.85,-495.53 618.3,-507.93 673,-420 718.78,-346.41 668.47,-290.46 598,-240 558.98,-212.06 505.51,-198.79 466.08,-192.52"/>
<polygon fill="#aabbaa" fill-opacity="0.533333" stroke="#aabbaa" stroke-width="1.3" stroke-opacity="0.533333" points="466.68,-189.07 456.27,-191.08 465.66,-196 466.68,-189.07"/>
</g>
<!-- /test/bands_test.dart -->
<g id="node2" class="node">
<title>/test/bands_test.dart</title>
<path fill="Lavender" stroke="black" stroke-width="1.3" d="M234.75,-575C234.75,-575 169.25,-575 169.25,-575 163.25,-575 157.25,-569 157.25,-563 157.25,-563 157.25,-551 157.25,-551 157.25,-545 163.25,-539 169.25,-539 169.25,-539 234.75,-539 234.75,-539 240.75,-539 246.75,-545 246.75,-551 246.75,-551 246.75,-563 246.75,-563 246.75,-569 240.75,-575 234.75,-575"/>
<text xml:space="preserve" text-anchor="middle" x="202" y="-551.75" font-family="Arial" font-size="15.00">bands_test</text>
</g>
<!-- /lib/int_offset.dart -->
<g id="node19" class="node">
<title>/lib/int_offset.dart</title>
<path fill="Lavender" stroke="black" stroke-width="1.3" d="M584.38,-60C584.38,-60 531.62,-60 531.62,-60 525.62,-60 519.62,-54 519.62,-48 519.62,-48 519.62,-36 519.62,-36 519.62,-30 525.62,-24 531.62,-24 531.62,-24 584.38,-24 584.38,-24 590.38,-24 596.38,-30 596.38,-36 596.38,-36 596.38,-48 596.38,-48 596.38,-54 590.38,-60 584.38,-60"/>
<text xml:space="preserve" text-anchor="middle" x="558" y="-36.75" font-family="Arial" font-size="15.00">int_offset</text>
</g>
<!-- /test/bands_test.dart&#45;&gt;/lib/int_offset.dart -->
<g id="edge8" class="edge">
<title>/test/bands_test.dart&#45;&gt;/lib/int_offset.dart</title>
<path fill="none" stroke="#aabbaa" stroke-width="1.3" stroke-opacity="0.533333" d="M198.61,-538.64C193.4,-510.35 184,-452.48 184,-403 184,-403 184,-403 184,-185 184,-116.61 405.37,-69.4 507.49,-51.26"/>
<polygon fill="#aabbaa" fill-opacity="0.533333" stroke="#aabbaa" stroke-width="1.3" stroke-opacity="0.533333" points="507.85,-54.75 517.1,-49.58 506.64,-47.86 507.85,-54.75"/>
</g>
<!-- /lib/bands.dart -->
<g id="node20" class="node">
<title>/lib/bands.dart</title>
<path fill="Lavender" stroke="black" stroke-width="1.3" d="M467.25,-420C467.25,-420 434.75,-420 434.75,-420 428.75,-420 422.75,-414 422.75,-408 422.75,-408 422.75,-396 422.75,-396 422.75,-390 428.75,-384 434.75,-384 434.75,-384 467.25,-384 467.25,-384 473.25,-384 479.25,-390 479.25,-396 479.25,-396 479.25,-408 479.25,-408 479.25,-414 473.25,-420 467.25,-420"/>
<text xml:space="preserve" text-anchor="middle" x="451" y="-396.75" font-family="Arial" font-size="15.00">bands</text>
</g>
<!-- /test/bands_test.dart&#45;&gt;/lib/bands.dart -->
<g id="edge7" class="edge">
<title>/test/bands_test.dart&#45;&gt;/lib/bands.dart</title>
<path fill="none" stroke="#aabbaa" stroke-width="1.3" stroke-opacity="0.533333" d="M234.67,-538.4C241.54,-535.42 248.87,-532.72 256,-531 266.54,-528.45 443.49,-530.82 451,-523 473.87,-499.17 468.41,-458.83 460.94,-431.57"/>
<polygon fill="#aabbaa" fill-opacity="0.533333" stroke="#aabbaa" stroke-width="1.3" stroke-opacity="0.533333" points="464.39,-430.87 458.15,-422.31 457.69,-432.9 464.39,-430.87"/>
</g>
<!-- /test/correction_test.dart -->
<g id="node3" class="node">
<title>/test/correction_test.dart</title>
<path fill="Lavender" stroke="black" stroke-width="1.3" d="M127.5,-575C127.5,-575 36.5,-575 36.5,-575 30.5,-575 24.5,-569 24.5,-563 24.5,-563 24.5,-551 24.5,-551 24.5,-545 30.5,-539 36.5,-539 36.5,-539 127.5,-539 127.5,-539 133.5,-539 139.5,-545 139.5,-551 139.5,-551 139.5,-563 139.5,-563 139.5,-569 133.5,-575 127.5,-575"/>
<text xml:space="preserve" text-anchor="middle" x="82" y="-551.75" font-family="Arial" font-size="15.00">correction_test</text>
</g>
<!-- /test/correction_test.dart&#45;&gt;/lib/correction.dart -->
<g id="edge9" class="edge">
<title>/test/correction_test.dart&#45;&gt;/lib/correction.dart</title>
<path fill="none" stroke="#aabbaa" stroke-width="1.3" stroke-opacity="0.533333" d="M109.68,-538.46C145.68,-513.25 204,-463.13 204,-403 204,-403 204,-403 204,-329 204,-253.69 298,-215.52 359.92,-198.55"/>
<polygon fill="#aabbaa" fill-opacity="0.533333" stroke="#aabbaa" stroke-width="1.3" stroke-opacity="0.533333" points="360.77,-201.95 369.55,-196.03 358.99,-195.18 360.77,-201.95"/>
</g>
<!-- /test/rectangle_test.dart -->
<g id="node4" class="node">
<title>/test/rectangle_test.dart</title>
<path fill="Lavender" stroke="black" stroke-width="1.3" d="M1008.25,-575C1008.25,-575 921.75,-575 921.75,-575 915.75,-575 909.75,-569 909.75,-563 909.75,-563 909.75,-551 909.75,-551 909.75,-545 915.75,-539 921.75,-539 921.75,-539 1008.25,-539 1008.25,-539 1014.25,-539 1020.25,-545 1020.25,-551 1020.25,-551 1020.25,-563 1020.25,-563 1020.25,-569 1014.25,-575 1008.25,-575"/>
<text xml:space="preserve" text-anchor="middle" x="965" y="-551.75" font-family="Arial" font-size="15.00">rectangle_test</text>
</g>
<!-- /lib/int_rect.dart -->
<g id="node13" class="node">
<title>/lib/int_rect.dart</title>
<path fill="Lavender" stroke="black" stroke-width="1.3" d="M578.75,-132C578.75,-132 537.25,-132 537.25,-132 531.25,-132 525.25,-126 525.25,-120 525.25,-120 525.25,-108 525.25,-108 525.25,-102 531.25,-96 537.25,-96 537.25,-96 578.75,-96 578.75,-96 584.75,-96 590.75,-102 590.75,-108 590.75,-108 590.75,-120 590.75,-120 590.75,-126 584.75,-132 578.75,-132"/>
<text xml:space="preserve" text-anchor="middle" x="558" y="-108.75" font-family="Arial" font-size="15.00">int_rect</text>
</g>
<!-- /test/rectangle_test.dart&#45;&gt;/lib/int_rect.dart -->
<g id="edge10" class="edge">
<title>/test/rectangle_test.dart&#45;&gt;/lib/int_rect.dart</title>
<path fill="none" stroke="#aabbaa" stroke-width="1.3" stroke-opacity="0.533333" d="M953.54,-538.45C936.64,-510.83 907,-454.98 907,-403 907,-403 907,-403 907,-257 907,-192.06 697.07,-142.44 602.84,-123.43"/>
<polygon fill="#aabbaa" fill-opacity="0.533333" stroke="#aabbaa" stroke-width="1.3" stroke-opacity="0.533333" points="603.57,-120.01 593.08,-121.5 602.21,-126.88 603.57,-120.01"/>
</g>
<!-- /test/artifact_test.dart -->
<g id="node5" class="node">
<title>/test/artifact_test.dart</title>
<path fill="Lavender" stroke="black" stroke-width="1.3" d="M557.38,-575C557.38,-575 486.62,-575 486.62,-575 480.62,-575 474.62,-569 474.62,-563 474.62,-563 474.62,-551 474.62,-551 474.62,-545 480.62,-539 486.62,-539 486.62,-539 557.38,-539 557.38,-539 563.38,-539 569.38,-545 569.38,-551 569.38,-551 569.38,-563 569.38,-563 569.38,-569 563.38,-575 557.38,-575"/>
<text xml:space="preserve" text-anchor="middle" x="522" y="-551.75" font-family="Arial" font-size="15.00">artifact_test</text>
</g>
<!-- /test/artifact_test.dart&#45;&gt;/lib/utilities.dart -->
<g id="edge12" class="edge">
<title>/test/artifact_test.dart&#45;&gt;/lib/utilities.dart</title>
<path fill="none" stroke="#aabbaa" stroke-width="1.3" stroke-opacity="0.533333" d="M556.57,-538.44C563.82,-535.44 571.53,-532.74 579,-531 598.06,-526.55 740.62,-536.29 755,-523 794.48,-486.52 770,-456.75 770,-403 770,-403 770,-403 770,-329 770,-288.89 781.97,-269.69 755,-240 734.44,-217.37 652,-201.16 600.51,-193"/>
<polygon fill="#aabbaa" fill-opacity="0.533333" stroke="#aabbaa" stroke-width="1.3" stroke-opacity="0.533333" points="601.13,-189.55 590.71,-191.49 600.06,-196.47 601.13,-189.55"/>
</g>
<!-- /test/artifact_test.dart&#45;&gt;/lib/bands.dart -->
<g id="edge11" class="edge">
<title>/test/artifact_test.dart&#45;&gt;/lib/bands.dart</title>
<path fill="none" stroke="#aabbaa" stroke-width="1.3" stroke-opacity="0.533333" d="M513.86,-538.45C501.66,-512.16 478.53,-462.32 463.98,-430.98"/>
<polygon fill="#aabbaa" fill-opacity="0.533333" stroke="#aabbaa" stroke-width="1.3" stroke-opacity="0.533333" points="467.26,-429.73 459.88,-422.13 460.91,-432.68 467.26,-429.73"/>
</g>
<!-- /test/utilitites_test.dart -->
<g id="node6" class="node">
<title>/test/utilitites_test.dart</title>
<path fill="Lavender" stroke="black" stroke-width="1.3" d="M879.25,-575C879.25,-575 804.75,-575 804.75,-575 798.75,-575 792.75,-569 792.75,-563 792.75,-563 792.75,-551 792.75,-551 792.75,-545 798.75,-539 804.75,-539 804.75,-539 879.25,-539 879.25,-539 885.25,-539 891.25,-545 891.25,-551 891.25,-551 891.25,-563 891.25,-563 891.25,-569 885.25,-575 879.25,-575"/>
<text xml:space="preserve" text-anchor="middle" x="842" y="-551.75" font-family="Arial" font-size="15.00">utilitites_test</text>
</g>
<!-- /lib/artifact.dart -->
<g id="node10" class="node">
<title>/lib/artifact.dart</title>
<path fill="Lavender" stroke="black" stroke-width="1.3" d="M576.88,-276C576.88,-276 539.12,-276 539.12,-276 533.12,-276 527.12,-270 527.12,-264 527.12,-264 527.12,-252 527.12,-252 527.12,-246 533.12,-240 539.12,-240 539.12,-240 576.88,-240 576.88,-240 582.88,-240 588.88,-246 588.88,-252 588.88,-252 588.88,-264 588.88,-264 588.88,-270 582.88,-276 576.88,-276"/>
<text xml:space="preserve" text-anchor="middle" x="558" y="-252.75" font-family="Arial" font-size="15.00">artifact</text>
</g>
<!-- /test/utilitites_test.dart&#45;&gt;/lib/artifact.dart -->
<g id="edge13" class="edge">
<title>/test/utilitites_test.dart&#45;&gt;/lib/artifact.dart</title>
<path fill="none" stroke="#aabbaa" stroke-width="1.3" stroke-opacity="0.533333" d="M827.52,-538.68C823.41,-533.67 818.98,-528.16 815,-523 744.29,-431.25 750.05,-387.27 662,-312 643.81,-296.44 620.26,-283.96 600.17,-275.02"/>
<polygon fill="#aabbaa" fill-opacity="0.533333" stroke="#aabbaa" stroke-width="1.3" stroke-opacity="0.533333" points="601.81,-271.92 591.24,-271.2 599.05,-278.35 601.81,-271.92"/>
</g>
<!-- /test/utilitites_test.dart&#45;&gt;/lib/utilities.dart -->
<g id="edge14" class="edge">
<title>/test/utilitites_test.dart&#45;&gt;/lib/utilities.dart</title>
<path fill="none" stroke="#aabbaa" stroke-width="1.3" stroke-opacity="0.533333" d="M837.86,-538.68C831.49,-510.44 820,-452.65 820,-403 820,-403 820,-403 820,-329 820,-283.41 805.34,-267.53 769,-240 719.5,-202.5 646.54,-191.31 600.68,-188.1"/>
<polygon fill="#aabbaa" fill-opacity="0.533333" stroke="#aabbaa" stroke-width="1.3" stroke-opacity="0.533333" points="600.94,-184.61 590.75,-187.52 600.53,-191.6 600.94,-184.61"/>
</g>
<!-- /test/character_definitions_test.dart -->
<g id="node7" class="node">
<title>/test/character_definitions_test.dart</title>
<path fill="Lavender" stroke="black" stroke-width="1.3" d="M762.5,-575C762.5,-575 599.5,-575 599.5,-575 593.5,-575 587.5,-569 587.5,-563 587.5,-563 587.5,-551 587.5,-551 587.5,-545 593.5,-539 599.5,-539 599.5,-539 762.5,-539 762.5,-539 768.5,-539 774.5,-545 774.5,-551 774.5,-551 774.5,-563 774.5,-563 774.5,-569 768.5,-575 762.5,-575"/>
<text xml:space="preserve" text-anchor="middle" x="681" y="-551.75" font-family="Arial" font-size="15.00">character_definitions_test</text>
</g>
<!-- /test/character_definitions_test.dart&#45;&gt;/lib/artifact.dart -->
<g id="edge15" class="edge">
<title>/test/character_definitions_test.dart&#45;&gt;/lib/artifact.dart</title>
<path fill="none" stroke="#aabbaa" stroke-width="1.3" stroke-opacity="0.533333" d="M683.62,-538.47C689.05,-495.59 697.25,-383.7 648,-312 636.35,-295.04 617.35,-282.71 599.8,-274.22"/>
<polygon fill="#aabbaa" fill-opacity="0.533333" stroke="#aabbaa" stroke-width="1.3" stroke-opacity="0.533333" points="601.49,-271.15 590.94,-270.24 598.63,-277.53 601.49,-271.15"/>
</g>
<!-- /lib/character_definitions.dart -->
<g id="node16" class="node">
<title>/lib/character_definitions.dart</title>
<path fill="Lavender" stroke="black" stroke-width="1.3" d="M639,-420C639,-420 509,-420 509,-420 503,-420 497,-414 497,-408 497,-408 497,-396 497,-396 497,-390 503,-384 509,-384 509,-384 639,-384 639,-384 645,-384 651,-390 651,-396 651,-396 651,-408 651,-408 651,-414 645,-420 639,-420"/>
<text xml:space="preserve" text-anchor="middle" x="574" y="-396.75" font-family="Arial" font-size="15.00">character_definitions</text>
</g>
<!-- /test/character_definitions_test.dart&#45;&gt;/lib/character_definitions.dart -->
<g id="edge16" class="edge">
<title>/test/character_definitions_test.dart&#45;&gt;/lib/character_definitions.dart</title>
<path fill="none" stroke="#aabbaa" stroke-width="1.3" stroke-opacity="0.533333" d="M668.73,-538.45C650.1,-511.82 614.56,-461 592.71,-429.75"/>
<polygon fill="#aabbaa" fill-opacity="0.533333" stroke="#aabbaa" stroke-width="1.3" stroke-opacity="0.533333" points="595.86,-428.15 587.26,-421.96 590.12,-432.16 595.86,-428.15"/>
</g>
<!-- /test/steps_test.dart -->
<g id="node8" class="node">
<title>/test/steps_test.dart</title>
<path fill="Lavender" stroke="black" stroke-width="1.3" d="M444.5,-575C444.5,-575 383.5,-575 383.5,-575 377.5,-575 371.5,-569 371.5,-563 371.5,-563 371.5,-551 371.5,-551 371.5,-545 377.5,-539 383.5,-539 383.5,-539 444.5,-539 444.5,-539 450.5,-539 456.5,-545 456.5,-551 456.5,-551 456.5,-563 456.5,-563 456.5,-569 450.5,-575 444.5,-575"/>
<text xml:space="preserve" text-anchor="middle" x="414" y="-551.75" font-family="Arial" font-size="15.00">steps_test</text>
</g>
<!-- /test/steps_test.dart&#45;&gt;/lib/textify.dart -->
<g id="edge18" class="edge">
<title>/test/steps_test.dart&#45;&gt;/lib/textify.dart</title>
<path fill="none" stroke="#aabbaa" stroke-width="1.3" stroke-opacity="0.533333" d="M414,-538.42C414,-528.45 414,-515.7 414,-504.26"/>
<polygon fill="#aabbaa" fill-opacity="0.533333" stroke="#aabbaa" stroke-width="1.3" stroke-opacity="0.533333" points="417.5,-504.51 414,-494.51 410.5,-504.51 417.5,-504.51"/>
</g>
<!-- /test/steps_test.dart&#45;&gt;/lib/utilities.dart -->
<g id="edge19" class="edge">
<title>/test/steps_test.dart&#45;&gt;/lib/utilities.dart</title>
<path fill="none" stroke="#aabbaa" stroke-width="1.3" stroke-opacity="0.533333" d="M446.03,-538.39C452.48,-535.48 459.33,-532.82 466,-531 506.02,-520.06 519.66,-536.18 559,-523 654.06,-491.14 750,-503.25 750,-403 750,-403 750,-403 750,-329 750,-255.07 656.85,-215.24 600.31,-197.87"/>
<polygon fill="#aabbaa" fill-opacity="0.533333" stroke="#aabbaa" stroke-width="1.3" stroke-opacity="0.533333" points="601.32,-194.52 590.74,-195.05 599.34,-201.23 601.32,-194.52"/>
</g>
<!-- /test/steps_test.dart&#45;&gt;/lib/bands.dart -->
<g id="edge17" class="edge">
<title>/test/steps_test.dart&#45;&gt;/lib/bands.dart</title>
<path fill="none" stroke="#aabbaa" stroke-width="1.3" stroke-opacity="0.533333" d="M388.44,-538.49C383.79,-534.02 379.6,-528.81 377,-523 364.82,-495.83 363.39,-482.49 377,-456 384.6,-441.22 398.44,-429.63 412.12,-421.12"/>
<polygon fill="#aabbaa" fill-opacity="0.533333" stroke="#aabbaa" stroke-width="1.3" stroke-opacity="0.533333" points="413.8,-424.19 420.74,-416.18 410.32,-418.11 413.8,-424.19"/>
</g>
<!-- /lib/band.dart&#45;&gt;/lib/artifact.dart -->
<g id="edge20" class="edge">
<title>/lib/band.dart&#45;&gt;/lib/artifact.dart</title>
<path fill="none" stroke="#aabbaa" stroke-width="1.3" stroke-opacity="0.533333" d="M447.53,-312.05C467.25,-301.48 494.01,-287.89 516.31,-277.11"/>
<polygon fill="#aabbaa" fill-opacity="0.533333" stroke="#aabbaa" stroke-width="1.3" stroke-opacity="0.533333" points="517.56,-280.39 525.07,-272.91 514.54,-274.07 517.56,-280.39"/>
</g>
<!-- /lib/band.dart&#45;&gt;/lib/artifact.dart -->
<g id="edge22" class="edge">
<title>/lib/band.dart&#45;&gt;/lib/artifact.dart</title>
<path fill="none" stroke="#aabbaa" stroke-width="1.3" stroke-dasharray="5,2" stroke-opacity="0.533333" d="M447.62,-317.6C468.13,-308 496.2,-293.97 518.96,-282.04"/>
<polygon fill="#aabbaa" fill-opacity="0.533333" stroke="#aabbaa" stroke-width="1.3" stroke-opacity="0.533333" points="520.38,-285.25 527.58,-277.48 517.11,-279.06 520.38,-285.25"/>
</g>
<!-- /lib/band.dart&#45;&gt;/lib/utilities.dart -->
<g id="edge21" class="edge">
<title>/lib/band.dart&#45;&gt;/lib/utilities.dart</title>
<path fill="none" stroke="#aabbaa" stroke-width="1.3" stroke-opacity="0.533333" d="M417.95,-311.39C421.21,-291.93 432.73,-260.64 452,-240 469.29,-221.49 494.54,-207.98 516.17,-199.23"/>
<polygon fill="#aabbaa" fill-opacity="0.533333" stroke="#aabbaa" stroke-width="1.3" stroke-opacity="0.533333" points="517.15,-202.6 525.26,-195.79 514.66,-196.06 517.15,-202.6"/>
</g>
<!-- /lib/artifact.dart&#45;&gt;/lib/utilities.dart -->
<g id="edge24" class="edge">
<title>/lib/artifact.dart&#45;&gt;/lib/utilities.dart</title>
<path fill="none" stroke="#aabbaa" stroke-width="1.3" stroke-opacity="0.533333" d="M558,-239.7C558,-232.68 558,-224.38 558,-216.47"/>
<polygon fill="#aabbaa" fill-opacity="0.533333" stroke="#aabbaa" stroke-width="1.3" stroke-opacity="0.533333" points="561.5,-216.56 558,-206.56 554.5,-216.56 561.5,-216.56"/>
</g>
<!-- /lib/artifact.dart&#45;&gt;/lib/correction.dart -->
<g id="edge23" class="edge">
<title>/lib/artifact.dart&#45;&gt;/lib/correction.dart</title>
<path fill="none" stroke="#aabbaa" stroke-width="1.3" stroke-opacity="0.533333" d="M526.54,-241.81C507.16,-232.45 481.94,-220.28 460.2,-209.79"/>
<polygon fill="#aabbaa" fill-opacity="0.533333" stroke="#aabbaa" stroke-width="1.3" stroke-opacity="0.533333" points="461.82,-206.68 451.29,-205.49 458.78,-212.98 461.82,-206.68"/>
</g>
<!-- /lib/character_definition.dart&#45;&gt;/lib/artifact.dart -->
<g id="edge25" class="edge">
<title>/lib/character_definition.dart&#45;&gt;/lib/artifact.dart</title>
<path fill="none" stroke="#aabbaa" stroke-width="1.3" stroke-opacity="0.533333" d="M558,-311.7C558,-304.68 558,-296.38 558,-288.47"/>
<polygon fill="#aabbaa" fill-opacity="0.533333" stroke="#aabbaa" stroke-width="1.3" stroke-opacity="0.533333" points="561.5,-288.56 558,-278.56 554.5,-288.56 561.5,-288.56"/>
</g>
<!-- /lib/int_rect.dart&#45;&gt;/lib/int_offset.dart -->
<g id="edge26" class="edge">
<title>/lib/int_rect.dart&#45;&gt;/lib/int_offset.dart</title>
<path fill="none" stroke="#aabbaa" stroke-width="1.3" stroke-opacity="0.533333" d="M552.08,-95.7C551.36,-88.68 551.11,-80.38 551.33,-72.47"/>
<polygon fill="#aabbaa" fill-opacity="0.533333" stroke="#aabbaa" stroke-width="1.3" stroke-opacity="0.533333" points="554.81,-72.75 551.93,-62.55 547.83,-72.32 554.81,-72.75"/>
</g>
<!-- /lib/int_rect.dart&#45;&gt;/lib/int_offset.dart -->
<g id="edge27" class="edge">
<title>/lib/int_rect.dart&#45;&gt;/lib/int_offset.dart</title>
<path fill="none" stroke="#aabbaa" stroke-width="1.3" stroke-dasharray="5,2" stroke-opacity="0.533333" d="M563.92,-95.7C564.64,-88.68 564.89,-80.38 564.67,-72.47"/>
<polygon fill="#aabbaa" fill-opacity="0.533333" stroke="#aabbaa" stroke-width="1.3" stroke-opacity="0.533333" points="568.17,-72.32 564.07,-62.55 561.19,-72.75 568.17,-72.32"/>
</g>
<!-- /lib/textify.dart&#45;&gt;/lib/score_match.dart -->
<g id="edge31" class="edge">
<title>/lib/textify.dart&#45;&gt;/lib/score_match.dart</title>
<path fill="none" stroke="#aabbaa" stroke-width="1.3" stroke-opacity="0.533333" d="M394.22,-455.7C384.78,-447.43 373.29,-437.38 362.88,-428.27"/>
<polygon fill="#aabbaa" fill-opacity="0.533333" stroke="#aabbaa" stroke-width="1.3" stroke-opacity="0.533333" points="365.41,-425.84 355.58,-421.89 360.81,-431.11 365.41,-425.84"/>
</g>
<!-- /lib/textify.dart&#45;&gt;/lib/utilities.dart -->
<g id="edge32" class="edge">
<title>/lib/textify.dart&#45;&gt;/lib/utilities.dart</title>
<path fill="none" stroke="#aabbaa" stroke-width="1.3" stroke-opacity="0.533333" d="M442.42,-471.22C501.2,-466.89 632.9,-453.57 660,-420 712.65,-354.8 631.19,-258.23 585.52,-212.63"/>
<polygon fill="#aabbaa" fill-opacity="0.533333" stroke="#aabbaa" stroke-width="1.3" stroke-opacity="0.533333" points="588.18,-210.33 578.59,-205.84 583.29,-215.34 588.18,-210.33"/>
</g>
<!-- /lib/textify.dart&#45;&gt;/lib/character_definitions.dart -->
<g id="edge29" class="edge">
<title>/lib/textify.dart&#45;&gt;/lib/character_definitions.dart</title>
<path fill="none" stroke="#aabbaa" stroke-width="1.3" stroke-opacity="0.533333" d="M442.24,-460.65C464.55,-450.88 496.28,-437 523.01,-425.31"/>
<polygon fill="#aabbaa" fill-opacity="0.533333" stroke="#aabbaa" stroke-width="1.3" stroke-opacity="0.533333" points="524.18,-428.62 531.94,-421.4 521.37,-422.2 524.18,-428.62"/>
</g>
<!-- /lib/textify.dart&#45;&gt;/lib/correction.dart -->
<g id="edge30" class="edge">
<title>/lib/textify.dart&#45;&gt;/lib/correction.dart</title>
<path fill="none" stroke="#aabbaa" stroke-width="1.3" stroke-opacity="0.533333" d="M410.35,-455.54C406.52,-437.56 400.21,-408.73 394,-384 389.96,-367.89 386.24,-364.45 384,-348 377.64,-301.34 391.69,-247.58 402.37,-215.49"/>
<polygon fill="#aabbaa" fill-opacity="0.533333" stroke="#aabbaa" stroke-width="1.3" stroke-opacity="0.533333" points="405.63,-216.77 405.61,-206.17 399.02,-214.47 405.63,-216.77"/>
</g>
<!-- /lib/textify.dart&#45;&gt;/lib/bands.dart -->
<g id="edge28" class="edge">
<title>/lib/textify.dart&#45;&gt;/lib/bands.dart</title>
<path fill="none" stroke="#aabbaa" stroke-width="1.3" stroke-opacity="0.533333" d="M423.15,-455.7C427.07,-448.26 431.77,-439.39 436.17,-431.06"/>
<polygon fill="#aabbaa" fill-opacity="0.533333" stroke="#aabbaa" stroke-width="1.3" stroke-opacity="0.533333" points="439.2,-432.81 440.78,-422.33 433.02,-429.54 439.2,-432.81"/>
</g>
<!-- /lib/utilities.dart&#45;&gt;/lib/band.dart -->
<g id="edge33" class="edge">
<title>/lib/utilities.dart&#45;&gt;/lib/band.dart</title>
<path fill="none" stroke="#aabbaa" stroke-width="1.3" stroke-opacity="0.533333" d="M527.25,-201.3C508.76,-210.05 485.98,-222.89 470,-240 454.04,-257.09 443.4,-281.49 435.57,-300.42"/>
<polygon fill="#aabbaa" fill-opacity="0.533333" stroke="#aabbaa" stroke-width="1.3" stroke-opacity="0.533333" points="432.37,-298.99 431.79,-309.57 438.84,-301.66 432.37,-298.99"/>
</g>
<!-- /lib/utilities.dart&#45;&gt;/lib/int_rect.dart -->
<g id="edge34" class="edge">
<title>/lib/utilities.dart&#45;&gt;/lib/int_rect.dart</title>
<path fill="none" stroke="#aabbaa" stroke-width="1.3" stroke-opacity="0.533333" d="M552.08,-167.7C551.36,-160.68 551.11,-152.38 551.33,-144.47"/>
<polygon fill="#aabbaa" fill-opacity="0.533333" stroke="#aabbaa" stroke-width="1.3" stroke-opacity="0.533333" points="554.81,-144.75 551.93,-134.55 547.83,-144.32 554.81,-144.75"/>
</g>
<!-- /lib/utilities.dart&#45;&gt;/lib/int_rect.dart -->
<g id="edge35" class="edge">
<title>/lib/utilities.dart&#45;&gt;/lib/int_rect.dart</title>
<path fill="none" stroke="#aabbaa" stroke-width="1.3" stroke-dasharray="5,2" stroke-opacity="0.533333" d="M563.92,-167.7C564.64,-160.68 564.89,-152.38 564.67,-144.47"/>
<polygon fill="#aabbaa" fill-opacity="0.533333" stroke="#aabbaa" stroke-width="1.3" stroke-opacity="0.533333" points="568.17,-144.32 564.07,-134.55 561.19,-144.75 568.17,-144.32"/>
</g>
<!-- /lib/character_definitions.dart&#45;&gt;/lib/artifact.dart -->
<g id="edge36" class="edge">
<title>/lib/character_definitions.dart&#45;&gt;/lib/artifact.dart</title>
<path fill="none" stroke="#aabbaa" stroke-width="1.3" stroke-opacity="0.533333" d="M606.75,-383.41C619.6,-374.63 632.95,-362.71 640,-348 646.92,-333.57 647.65,-326.05 640,-312 631.24,-295.91 615.27,-283.96 599.73,-275.52"/>
<polygon fill="#aabbaa" fill-opacity="0.533333" stroke="#aabbaa" stroke-width="1.3" stroke-opacity="0.533333" points="601.4,-272.45 590.89,-271.11 598.28,-278.71 601.4,-272.45"/>
</g>
<!-- /lib/character_definitions.dart&#45;&gt;/lib/character_definition.dart -->
<g id="edge37" class="edge">
<title>/lib/character_definitions.dart&#45;&gt;/lib/character_definition.dart</title>
<path fill="none" stroke="#aabbaa" stroke-width="1.3" stroke-opacity="0.533333" d="M564.13,-383.7C561.77,-376.6 559.6,-368.18 558,-360.18"/>
<polygon fill="#aabbaa" fill-opacity="0.533333" stroke="#aabbaa" stroke-width="1.3" stroke-opacity="0.533333" points="561.49,-359.82 556.4,-350.53 554.59,-360.97 561.49,-359.82"/>
</g>
<!-- /lib/character_definitions.dart&#45;&gt;/lib/character_definition.dart -->
<g id="edge38" class="edge">
<title>/lib/character_definitions.dart&#45;&gt;/lib/character_definition.dart</title>
<path fill="none" stroke="#aabbaa" stroke-width="1.3" stroke-dasharray="5,2" stroke-opacity="0.533333" d="M575.96,-383.7C575.06,-376.52 573.36,-367.99 571.26,-359.9"/>
<polygon fill="#aabbaa" fill-opacity="0.533333" stroke="#aabbaa" stroke-width="1.3" stroke-opacity="0.533333" points="574.68,-359.1 568.52,-350.48 567.96,-361.06 574.68,-359.1"/>
</g>
<!-- /lib/english_words.dart -->
<g id="node18" class="node">
<title>/lib/english_words.dart</title>
<path fill="Lavender" stroke="black" stroke-width="1.3" d="M456.25,-132C456.25,-132 369.75,-132 369.75,-132 363.75,-132 357.75,-126 357.75,-120 357.75,-120 357.75,-108 357.75,-108 357.75,-102 363.75,-96 369.75,-96 369.75,-96 456.25,-96 456.25,-96 462.25,-96 468.25,-102 468.25,-108 468.25,-108 468.25,-120 468.25,-120 468.25,-126 462.25,-132 456.25,-132"/>
<text xml:space="preserve" text-anchor="middle" x="413" y="-108.75" font-family="Arial" font-size="15.00">english_words</text>
</g>
<!-- /lib/correction.dart&#45;&gt;/lib/english_words.dart -->
<g id="edge39" class="edge">
<title>/lib/correction.dart&#45;&gt;/lib/english_words.dart</title>
<path fill="none" stroke="#aabbaa" stroke-width="1.3" stroke-opacity="0.533333" d="M413,-167.7C413,-160.68 413,-152.38 413,-144.47"/>
<polygon fill="#aabbaa" fill-opacity="0.533333" stroke="#aabbaa" stroke-width="1.3" stroke-opacity="0.533333" points="416.5,-144.56 413,-134.56 409.5,-144.56 416.5,-144.56"/>
</g>
<!-- /lib/bands.dart&#45;&gt;/lib/band.dart -->
<g id="edge40" class="edge">
<title>/lib/bands.dart&#45;&gt;/lib/band.dart</title>
<path fill="none" stroke="#aabbaa" stroke-width="1.3" stroke-opacity="0.533333" d="M437.42,-383.7C433.45,-376.43 429.38,-367.79 426.03,-359.62"/>
<polygon fill="#aabbaa" fill-opacity="0.533333" stroke="#aabbaa" stroke-width="1.3" stroke-opacity="0.533333" points="429.36,-358.54 422.54,-350.43 422.81,-361.02 429.36,-358.54"/>
</g>
<!-- /lib/bands.dart&#45;&gt;/lib/band.dart -->
<g id="edge42" class="edge">
<title>/lib/bands.dart&#45;&gt;/lib/band.dart</title>
<path fill="none" stroke="#aabbaa" stroke-width="1.3" stroke-dasharray="5,2" stroke-opacity="0.533333" d="M449.25,-383.7C446.73,-376.26 443.04,-367.39 439.06,-359.06"/>
<polygon fill="#aabbaa" fill-opacity="0.533333" stroke="#aabbaa" stroke-width="1.3" stroke-opacity="0.533333" points="442.28,-357.67 434.63,-350.34 436.04,-360.84 442.28,-357.67"/>
</g>
<!-- /lib/bands.dart&#45;&gt;/lib/utilities.dart -->
<g id="edge41" class="edge">
<title>/lib/bands.dart&#45;&gt;/lib/utilities.dart</title>
<path fill="none" stroke="#aabbaa" stroke-width="1.3" stroke-opacity="0.533333" d="M454.53,-383.5C458.54,-365.22 465.85,-335.94 476,-312 490.46,-277.89 497.47,-270.84 518,-240 523.88,-231.17 530.7,-221.84 537.02,-213.52"/>
<polygon fill="#aabbaa" fill-opacity="0.533333" stroke="#aabbaa" stroke-width="1.3" stroke-opacity="0.533333" points="539.6,-215.9 542.93,-205.85 534.05,-211.63 539.6,-215.9"/>
</g>
</g>
</svg>
