<?xml version="1.0" encoding="UTF-8" standalone="no"?>
<!DOCTYPE svg PUBLIC "-//W3C//DTD SVG 1.1//EN"
 "http://www.w3.org/Graphics/SVG/1.1/DTD/svg11.dtd">
<!-- Generated by graphviz version 12.2.0 (20241103.1931)
 -->
<!-- Pages: 1 -->
<svg width="460pt" height="332pt"
 viewBox="0.00 0.00 460.25 332.00" xmlns="http://www.w3.org/2000/svg" xmlns:xlink="http://www.w3.org/1999/xlink">
<g id="graph0" class="graph" transform="scale(1 1) rotate(0) translate(4 328)">
<polygon fill="white" stroke="none" points="-4,4 -4,-328 456.25,-328 456.25,4 -4,4"/>
<!-- /test/textify_test.dart -->
<g id="node1" class="node">
<title>/test/textify_test.dart</title>
<path fill="Lavender" stroke="black" stroke-width="1.3" d="M139.62,-324C139.62,-324 74.88,-324 74.88,-324 68.88,-324 62.88,-318 62.88,-312 62.88,-312 62.88,-300 62.88,-300 62.88,-294 68.88,-288 74.88,-288 74.88,-288 139.62,-288 139.62,-288 145.62,-288 151.62,-294 151.62,-300 151.62,-300 151.62,-312 151.62,-312 151.62,-318 145.62,-324 139.62,-324"/>
<text text-anchor="middle" x="107.25" y="-300.75" font-family="Arial" font-size="15.00">textify_test</text>
</g>
<!-- /lib/character_definition.dart -->
<g id="node5" class="node">
<title>/lib/character_definition.dart</title>
<path fill="Lavender" stroke="black" stroke-width="1.3" d="M134.5,-108C134.5,-108 12,-108 12,-108 6,-108 0,-102 0,-96 0,-96 0,-84 0,-84 0,-78 6,-72 12,-72 12,-72 134.5,-72 134.5,-72 140.5,-72 146.5,-78 146.5,-84 146.5,-84 146.5,-96 146.5,-96 146.5,-102 140.5,-108 134.5,-108"/>
<text text-anchor="middle" x="73.25" y="-84.75" font-family="Arial" font-size="15.00">character_definition</text>
</g>
<!-- /test/textify_test.dart&#45;&gt;/lib/character_definition.dart -->
<g id="edge1" class="edge">
<title>/test/textify_test.dart&#45;&gt;/lib/character_definition.dart</title>
<path fill="none" stroke="#aabbaa" stroke-width="1.3" stroke-opacity="0.533333" d="M90.26,-287.82C69.29,-265.3 34.77,-223.52 21.25,-180 16.5,-164.72 15.2,-158.81 21.25,-144 25.48,-133.66 32.8,-124.25 40.64,-116.32"/>
<polygon fill="#aabbaa" fill-opacity="0.533333" stroke="#aabbaa" stroke-width="1.3" stroke-opacity="0.533333" points="42.85,-119.04 47.79,-109.66 38.08,-113.92 42.85,-119.04"/>
</g>
<!-- /lib/textify.dart -->
<g id="node6" class="node">
<title>/lib/textify.dart</title>
<path fill="Lavender" stroke="black" stroke-width="1.3" d="M247.12,-252C247.12,-252 215.38,-252 215.38,-252 209.38,-252 203.38,-246 203.38,-240 203.38,-240 203.38,-228 203.38,-228 203.38,-222 209.38,-216 215.38,-216 215.38,-216 247.12,-216 247.12,-216 253.12,-216 259.12,-222 259.12,-228 259.12,-228 259.12,-240 259.12,-240 259.12,-246 253.12,-252 247.12,-252"/>
<text text-anchor="middle" x="231.25" y="-228.75" font-family="Arial" font-size="15.00">textify</text>
</g>
<!-- /test/textify_test.dart&#45;&gt;/lib/textify.dart -->
<g id="edge2" class="edge">
<title>/test/textify_test.dart&#45;&gt;/lib/textify.dart</title>
<path fill="none" stroke="#aabbaa" stroke-width="1.3" stroke-opacity="0.533333" d="M138.22,-287.52C154.89,-278.11 175.59,-266.42 193.23,-256.46"/>
<polygon fill="#aabbaa" fill-opacity="0.533333" stroke="#aabbaa" stroke-width="1.3" stroke-opacity="0.533333" points="194.51,-259.76 201.5,-251.79 191.07,-253.66 194.51,-259.76"/>
</g>
<!-- /lib/band.dart -->
<g id="node2" class="node">
<title>/lib/band.dart</title>
<path fill="Lavender" stroke="black" stroke-width="1.3" d="M440.25,-180C440.25,-180 410.25,-180 410.25,-180 404.25,-180 398.25,-174 398.25,-168 398.25,-168 398.25,-156 398.25,-156 398.25,-150 404.25,-144 410.25,-144 410.25,-144 440.25,-144 440.25,-144 446.25,-144 452.25,-150 452.25,-156 452.25,-156 452.25,-168 452.25,-168 452.25,-174 446.25,-180 440.25,-180"/>
<text text-anchor="middle" x="425.25" y="-156.75" font-family="Arial" font-size="15.00">band</text>
</g>
<!-- /lib/artifact.dart -->
<g id="node3" class="node">
<title>/lib/artifact.dart</title>
<path fill="Lavender" stroke="black" stroke-width="1.3" d="M290.12,-108C290.12,-108 252.38,-108 252.38,-108 246.38,-108 240.38,-102 240.38,-96 240.38,-96 240.38,-84 240.38,-84 240.38,-78 246.38,-72 252.38,-72 252.38,-72 290.12,-72 290.12,-72 296.12,-72 302.12,-78 302.12,-84 302.12,-84 302.12,-96 302.12,-96 302.12,-102 296.12,-108 290.12,-108"/>
<text text-anchor="middle" x="271.25" y="-84.75" font-family="Arial" font-size="15.00">artifact</text>
</g>
<!-- /lib/band.dart&#45;&gt;/lib/artifact.dart -->
<g id="edge3" class="edge">
<title>/lib/band.dart&#45;&gt;/lib/artifact.dart</title>
<path fill="none" stroke="#aabbaa" stroke-width="1.3" stroke-opacity="0.533333" d="M397.76,-147.95C394.89,-146.61 392.01,-145.27 389.25,-144 364.12,-132.43 335.85,-119.72 313.29,-109.65"/>
<polygon fill="#aabbaa" fill-opacity="0.533333" stroke="#aabbaa" stroke-width="1.3" stroke-opacity="0.533333" points="314.73,-106.46 304.18,-105.59 311.89,-112.86 314.73,-106.46"/>
</g>
<!-- /lib/matrix.dart -->
<g id="node7" class="node">
<title>/lib/matrix.dart</title>
<path fill="Lavender" stroke="black" stroke-width="1.3" d="M228.88,-36C228.88,-36 195.62,-36 195.62,-36 189.62,-36 183.62,-30 183.62,-24 183.62,-24 183.62,-12 183.62,-12 183.62,-6 189.62,0 195.62,0 195.62,0 228.88,0 228.88,0 234.88,0 240.88,-6 240.88,-12 240.88,-12 240.88,-24 240.88,-24 240.88,-30 234.88,-36 228.88,-36"/>
<text text-anchor="middle" x="212.25" y="-12.75" font-family="Arial" font-size="15.00">matrix</text>
</g>
<!-- /lib/band.dart&#45;&gt;/lib/matrix.dart -->
<g id="edge4" class="edge">
<title>/lib/band.dart&#45;&gt;/lib/matrix.dart</title>
<path fill="none" stroke="#aabbaa" stroke-width="1.3" stroke-opacity="0.533333" d="M405.44,-143.83C383.29,-125.04 345.97,-94.61 311.25,-72 292.27,-59.64 270.12,-47.58 251.59,-38.1"/>
<polygon fill="#aabbaa" fill-opacity="0.533333" stroke="#aabbaa" stroke-width="1.3" stroke-opacity="0.533333" points="253.42,-35.09 242.91,-33.71 250.26,-41.34 253.42,-35.09"/>
</g>
<!-- /lib/artifact.dart&#45;&gt;/lib/matrix.dart -->
<g id="edge5" class="edge">
<title>/lib/artifact.dart&#45;&gt;/lib/matrix.dart</title>
<path fill="none" stroke="#aabbaa" stroke-width="1.3" stroke-opacity="0.533333" d="M256.67,-71.7C249.88,-63.64 241.66,-53.89 234.15,-44.98"/>
<polygon fill="#aabbaa" fill-opacity="0.533333" stroke="#aabbaa" stroke-width="1.3" stroke-opacity="0.533333" points="237.06,-43 227.93,-37.61 231.7,-47.51 237.06,-43"/>
</g>
<!-- /lib/score_match.dart -->
<g id="node4" class="node">
<title>/lib/score_match.dart</title>
<path fill="Lavender" stroke="black" stroke-width="1.3" d="M368.38,-180C368.38,-180 290.12,-180 290.12,-180 284.12,-180 278.12,-174 278.12,-168 278.12,-168 278.12,-156 278.12,-156 278.12,-150 284.12,-144 290.12,-144 290.12,-144 368.38,-144 368.38,-144 374.38,-144 380.38,-150 380.38,-156 380.38,-156 380.38,-168 380.38,-168 380.38,-174 374.38,-180 368.38,-180"/>
<text text-anchor="middle" x="329.25" y="-156.75" font-family="Arial" font-size="15.00">score_match</text>
</g>
<!-- /lib/character_definition.dart&#45;&gt;/lib/matrix.dart -->
<g id="edge6" class="edge">
<title>/lib/character_definition.dart&#45;&gt;/lib/matrix.dart</title>
<path fill="none" stroke="#aabbaa" stroke-width="1.3" stroke-opacity="0.533333" d="M107.97,-71.52C127.6,-61.63 152.22,-49.23 172.6,-38.97"/>
<polygon fill="#aabbaa" fill-opacity="0.533333" stroke="#aabbaa" stroke-width="1.3" stroke-opacity="0.533333" points="174.02,-42.17 181.37,-34.55 170.87,-35.92 174.02,-42.17"/>
</g>
<!-- /lib/textify.dart&#45;&gt;/lib/band.dart -->
<g id="edge8" class="edge">
<title>/lib/textify.dart&#45;&gt;/lib/band.dart</title>
<path fill="none" stroke="#aabbaa" stroke-width="1.3" stroke-opacity="0.533333" d="M259.58,-224.6C289.3,-215.55 337.52,-200.21 386.98,-180.69"/>
<polygon fill="#aabbaa" fill-opacity="0.533333" stroke="#aabbaa" stroke-width="1.3" stroke-opacity="0.533333" points="388.07,-184.03 396.05,-177.06 385.47,-177.53 388.07,-184.03"/>
</g>
<!-- /lib/textify.dart&#45;&gt;/lib/artifact.dart -->
<g id="edge7" class="edge">
<title>/lib/textify.dart&#45;&gt;/lib/artifact.dart</title>
<path fill="none" stroke="#aabbaa" stroke-width="1.3" stroke-opacity="0.533333" d="M236.15,-215.59C242.91,-191.61 255.15,-148.14 263.24,-119.42"/>
<polygon fill="#aabbaa" fill-opacity="0.533333" stroke="#aabbaa" stroke-width="1.3" stroke-opacity="0.533333" points="266.55,-120.58 265.9,-110 259.82,-118.68 266.55,-120.58"/>
</g>
<!-- /lib/textify.dart&#45;&gt;/lib/score_match.dart -->
<g id="edge11" class="edge">
<title>/lib/textify.dart&#45;&gt;/lib/score_match.dart</title>
<path fill="none" stroke="#aabbaa" stroke-width="1.3" stroke-opacity="0.533333" d="M255.73,-215.52C267.74,-206.93 282.41,-196.46 295.48,-187.12"/>
<polygon fill="#aabbaa" fill-opacity="0.533333" stroke="#aabbaa" stroke-width="1.3" stroke-opacity="0.533333" points="297.38,-190.06 303.48,-181.4 293.31,-184.37 297.38,-190.06"/>
</g>
<!-- /lib/textify.dart&#45;&gt;/lib/matrix.dart -->
<g id="edge10" class="edge">
<title>/lib/textify.dart&#45;&gt;/lib/matrix.dart</title>
<path fill="none" stroke="#aabbaa" stroke-width="1.3" stroke-opacity="0.533333" d="M229.73,-215.85C226.48,-179.3 218.86,-93.4 214.83,-48.11"/>
<polygon fill="#aabbaa" fill-opacity="0.533333" stroke="#aabbaa" stroke-width="1.3" stroke-opacity="0.533333" points="218.32,-47.84 213.95,-38.19 211.35,-48.46 218.32,-47.84"/>
</g>
<!-- /lib/character_definitions.dart -->
<g id="node8" class="node">
<title>/lib/character_definitions.dart</title>
<path fill="Lavender" stroke="black" stroke-width="1.3" d="M172.25,-180C172.25,-180 42.25,-180 42.25,-180 36.25,-180 30.25,-174 30.25,-168 30.25,-168 30.25,-156 30.25,-156 30.25,-150 36.25,-144 42.25,-144 42.25,-144 172.25,-144 172.25,-144 178.25,-144 184.25,-150 184.25,-156 184.25,-156 184.25,-168 184.25,-168 184.25,-174 178.25,-180 172.25,-180"/>
<text text-anchor="middle" x="107.25" y="-156.75" font-family="Arial" font-size="15.00">character_definitions</text>
</g>
<!-- /lib/textify.dart&#45;&gt;/lib/character_definitions.dart -->
<g id="edge9" class="edge">
<title>/lib/textify.dart&#45;&gt;/lib/character_definitions.dart</title>
<path fill="none" stroke="#aabbaa" stroke-width="1.3" stroke-opacity="0.533333" d="M203.11,-217.12C186.87,-207.94 166.14,-196.25 148.12,-186.07"/>
<polygon fill="#aabbaa" fill-opacity="0.533333" stroke="#aabbaa" stroke-width="1.3" stroke-opacity="0.533333" points="150.02,-183.13 139.6,-181.26 146.58,-189.22 150.02,-183.13"/>
</g>
<!-- /lib/character_definitions.dart&#45;&gt;/lib/character_definition.dart -->
<g id="edge12" class="edge">
<title>/lib/character_definitions.dart&#45;&gt;/lib/character_definition.dart</title>
<path fill="none" stroke="#aabbaa" stroke-width="1.3" stroke-opacity="0.533333" d="M92.93,-143.7C88.54,-136.24 83.97,-127.32 80.21,-118.97"/>
<polygon fill="#aabbaa" fill-opacity="0.533333" stroke="#aabbaa" stroke-width="1.3" stroke-opacity="0.533333" points="83.51,-117.79 76.42,-109.92 77.05,-120.5 83.51,-117.79"/>
</g>
<!-- /lib/character_definitions.dart&#45;&gt;/lib/character_definition.dart -->
<g id="edge14" class="edge">
<title>/lib/character_definitions.dart&#45;&gt;/lib/character_definition.dart</title>
<path fill="none" stroke="#aabbaa" stroke-width="1.3" stroke-dasharray="5,2" stroke-opacity="0.533333" d="M104.76,-143.7C101.84,-136.07 97.63,-126.92 93.16,-118.4"/>
<polygon fill="#aabbaa" fill-opacity="0.533333" stroke="#aabbaa" stroke-width="1.3" stroke-opacity="0.533333" points="96.32,-116.87 88.41,-109.82 90.2,-120.27 96.32,-116.87"/>
</g>
<!-- /lib/character_definitions.dart&#45;&gt;/lib/matrix.dart -->
<g id="edge13" class="edge">
<title>/lib/character_definitions.dart&#45;&gt;/lib/matrix.dart</title>
<path fill="none" stroke="#aabbaa" stroke-width="1.3" stroke-opacity="0.533333" d="M124.01,-143.97C133.6,-133.87 145.6,-120.62 155.25,-108 170.36,-88.23 185.46,-64.43 196.32,-46.42"/>
<polygon fill="#aabbaa" fill-opacity="0.533333" stroke="#aabbaa" stroke-width="1.3" stroke-opacity="0.533333" points="199.23,-48.37 201.33,-37.99 193.21,-44.79 199.23,-48.37"/>
</g>
</g>
</svg>
