<?xml version="1.0" encoding="UTF-8" standalone="no"?>
<!DOCTYPE svg PUBLIC "-//W3C//DTD SVG 1.1//EN"
 "http://www.w3.org/Graphics/SVG/1.1/DTD/svg11.dtd">
<!-- Generated by graphviz version 12.2.1 (20241206.2353)
 -->
<!-- Pages: 1 -->
<svg width="623pt" height="404pt"
 viewBox="0.00 0.00 622.50 404.00" xmlns="http://www.w3.org/2000/svg" xmlns:xlink="http://www.w3.org/1999/xlink">
<g id="graph0" class="graph" transform="scale(1 1) rotate(0) translate(4 400)">
<polygon fill="white" stroke="none" points="-4,4 -4,-400 618.5,-400 618.5,4 -4,4"/>
<!-- /test/textify_test.dart -->
<g id="node1" class="node">
<title>/test/textify_test.dart</title>
<path fill="Lavender" stroke="black" stroke-width="1.3" d="M522.62,-396C522.62,-396 457.88,-396 457.88,-396 451.88,-396 445.88,-390 445.88,-384 445.88,-384 445.88,-372 445.88,-372 445.88,-366 451.88,-360 457.88,-360 457.88,-360 522.62,-360 522.62,-360 528.62,-360 534.62,-366 534.62,-372 534.62,-372 534.62,-384 534.62,-384 534.62,-390 528.62,-396 522.62,-396"/>
<text text-anchor="middle" x="490.25" y="-372.75" font-family="Arial" font-size="15.00">textify_test</text>
</g>
<!-- /lib/character_definition.dart -->
<g id="node6" class="node">
<title>/lib/character_definition.dart</title>
<path fill="Lavender" stroke="black" stroke-width="1.3" d="M446.5,-180C446.5,-180 324,-180 324,-180 318,-180 312,-174 312,-168 312,-168 312,-156 312,-156 312,-150 318,-144 324,-144 324,-144 446.5,-144 446.5,-144 452.5,-144 458.5,-150 458.5,-156 458.5,-156 458.5,-168 458.5,-168 458.5,-174 452.5,-180 446.5,-180"/>
<text text-anchor="middle" x="385.25" y="-156.75" font-family="Arial" font-size="15.00">character_definition</text>
</g>
<!-- /test/textify_test.dart&#45;&gt;/lib/character_definition.dart -->
<g id="edge1" class="edge">
<title>/test/textify_test.dart&#45;&gt;/lib/character_definition.dart</title>
<path fill="none" stroke="#aabbaa" stroke-width="1.3" stroke-opacity="0.533333" d="M492.79,-359.9C496.51,-328.63 500.17,-261.32 471.25,-216 463.51,-203.87 451.9,-194.07 439.7,-186.36"/>
<polygon fill="#aabbaa" fill-opacity="0.533333" stroke="#aabbaa" stroke-width="1.3" stroke-opacity="0.533333" points="441.48,-183.35 431.08,-181.35 437.97,-189.4 441.48,-183.35"/>
</g>
<!-- /lib/textify.dart -->
<g id="node7" class="node">
<title>/lib/textify.dart</title>
<path fill="Lavender" stroke="black" stroke-width="1.3" d="M255.12,-324C255.12,-324 223.38,-324 223.38,-324 217.38,-324 211.38,-318 211.38,-312 211.38,-312 211.38,-300 211.38,-300 211.38,-294 217.38,-288 223.38,-288 223.38,-288 255.12,-288 255.12,-288 261.12,-288 267.12,-294 267.12,-300 267.12,-300 267.12,-312 267.12,-312 267.12,-318 261.12,-324 255.12,-324"/>
<text text-anchor="middle" x="239.25" y="-300.75" font-family="Arial" font-size="15.00">textify</text>
</g>
<!-- /test/textify_test.dart&#45;&gt;/lib/textify.dart -->
<g id="edge3" class="edge">
<title>/test/textify_test.dart&#45;&gt;/lib/textify.dart</title>
<path fill="none" stroke="#aabbaa" stroke-width="1.3" stroke-opacity="0.533333" d="M445.38,-364.49C398,-351.27 324.04,-330.65 278.79,-318.03"/>
<polygon fill="#aabbaa" fill-opacity="0.533333" stroke="#aabbaa" stroke-width="1.3" stroke-opacity="0.533333" points="279.85,-314.69 269.28,-315.37 277.97,-321.43 279.85,-314.69"/>
</g>
<!-- /lib/correction.dart -->
<g id="node10" class="node">
<title>/lib/correction.dart</title>
<path fill="Lavender" stroke="black" stroke-width="1.3" d="M588.25,-252C588.25,-252 530.25,-252 530.25,-252 524.25,-252 518.25,-246 518.25,-240 518.25,-240 518.25,-228 518.25,-228 518.25,-222 524.25,-216 530.25,-216 530.25,-216 588.25,-216 588.25,-216 594.25,-216 600.25,-222 600.25,-228 600.25,-228 600.25,-240 600.25,-240 600.25,-246 594.25,-252 588.25,-252"/>
<text text-anchor="middle" x="559.25" y="-228.75" font-family="Arial" font-size="15.00">correction</text>
</g>
<!-- /test/textify_test.dart&#45;&gt;/lib/correction.dart -->
<g id="edge2" class="edge">
<title>/test/textify_test.dart&#45;&gt;/lib/correction.dart</title>
<path fill="none" stroke="#aabbaa" stroke-width="1.3" stroke-opacity="0.533333" d="M498.71,-359.59C510.47,-335.4 531.86,-291.36 545.81,-262.65"/>
<polygon fill="#aabbaa" fill-opacity="0.533333" stroke="#aabbaa" stroke-width="1.3" stroke-opacity="0.533333" points="548.85,-264.4 550.08,-253.88 542.56,-261.35 548.85,-264.4"/>
</g>
<!-- /test/bands_test.dart -->
<g id="node2" class="node">
<title>/test/bands_test.dart</title>
<path fill="Lavender" stroke="black" stroke-width="1.3" d="M89,-324C89,-324 23.5,-324 23.5,-324 17.5,-324 11.5,-318 11.5,-312 11.5,-312 11.5,-300 11.5,-300 11.5,-294 17.5,-288 23.5,-288 23.5,-288 89,-288 89,-288 95,-288 101,-294 101,-300 101,-300 101,-312 101,-312 101,-318 95,-324 89,-324"/>
<text text-anchor="middle" x="56.25" y="-300.75" font-family="Arial" font-size="15.00">bands_test</text>
</g>
<!-- /lib/artifact.dart -->
<g id="node4" class="node">
<title>/lib/artifact.dart</title>
<path fill="Lavender" stroke="black" stroke-width="1.3" d="M117.12,-108C117.12,-108 79.38,-108 79.38,-108 73.38,-108 67.38,-102 67.38,-96 67.38,-96 67.38,-84 67.38,-84 67.38,-78 73.38,-72 79.38,-72 79.38,-72 117.12,-72 117.12,-72 123.12,-72 129.12,-78 129.12,-84 129.12,-84 129.12,-96 129.12,-96 129.12,-102 123.12,-108 117.12,-108"/>
<text text-anchor="middle" x="98.25" y="-84.75" font-family="Arial" font-size="15.00">artifact</text>
</g>
<!-- /test/bands_test.dart&#45;&gt;/lib/artifact.dart -->
<g id="edge4" class="edge">
<title>/test/bands_test.dart&#45;&gt;/lib/artifact.dart</title>
<path fill="none" stroke="#aabbaa" stroke-width="1.3" stroke-opacity="0.533333" d="M59.62,-287.85C66.8,-251.22 83.72,-165.03 92.59,-119.82"/>
<polygon fill="#aabbaa" fill-opacity="0.533333" stroke="#aabbaa" stroke-width="1.3" stroke-opacity="0.533333" points="96,-120.65 94.49,-110.16 89.13,-119.3 96,-120.65"/>
</g>
<!-- /lib/bands.dart -->
<g id="node12" class="node">
<title>/lib/bands.dart</title>
<path fill="Lavender" stroke="black" stroke-width="1.3" d="M44.5,-252C44.5,-252 12,-252 12,-252 6,-252 0,-246 0,-240 0,-240 0,-228 0,-228 0,-222 6,-216 12,-216 12,-216 44.5,-216 44.5,-216 50.5,-216 56.5,-222 56.5,-228 56.5,-228 56.5,-240 56.5,-240 56.5,-246 50.5,-252 44.5,-252"/>
<text text-anchor="middle" x="28.25" y="-228.75" font-family="Arial" font-size="15.00">bands</text>
</g>
<!-- /test/bands_test.dart&#45;&gt;/lib/bands.dart -->
<g id="edge5" class="edge">
<title>/test/bands_test.dart&#45;&gt;/lib/bands.dart</title>
<path fill="none" stroke="#aabbaa" stroke-width="1.3" stroke-opacity="0.533333" d="M49.33,-287.7C46.34,-280.24 42.78,-271.32 39.44,-262.97"/>
<polygon fill="#aabbaa" fill-opacity="0.533333" stroke="#aabbaa" stroke-width="1.3" stroke-opacity="0.533333" points="42.79,-261.92 35.82,-253.93 36.29,-264.52 42.79,-261.92"/>
</g>
<!-- /lib/band.dart -->
<g id="node3" class="node">
<title>/lib/band.dart</title>
<path fill="Lavender" stroke="black" stroke-width="1.3" d="M44.25,-180C44.25,-180 14.25,-180 14.25,-180 8.25,-180 2.25,-174 2.25,-168 2.25,-168 2.25,-156 2.25,-156 2.25,-150 8.25,-144 14.25,-144 14.25,-144 44.25,-144 44.25,-144 50.25,-144 56.25,-150 56.25,-156 56.25,-156 56.25,-168 56.25,-168 56.25,-174 50.25,-180 44.25,-180"/>
<text text-anchor="middle" x="29.25" y="-156.75" font-family="Arial" font-size="15.00">band</text>
</g>
<!-- /lib/band.dart&#45;&gt;/lib/artifact.dart -->
<g id="edge6" class="edge">
<title>/lib/band.dart&#45;&gt;/lib/artifact.dart</title>
<path fill="none" stroke="#aabbaa" stroke-width="1.3" stroke-opacity="0.533333" d="M46.31,-143.7C54.41,-135.47 64.26,-125.48 73.19,-116.42"/>
<polygon fill="#aabbaa" fill-opacity="0.533333" stroke="#aabbaa" stroke-width="1.3" stroke-opacity="0.533333" points="75.48,-119.08 80.01,-109.51 70.5,-114.17 75.48,-119.08"/>
</g>
<!-- /lib/matrix.dart -->
<g id="node8" class="node">
<title>/lib/matrix.dart</title>
<path fill="Lavender" stroke="black" stroke-width="1.3" d="M176.88,-36C176.88,-36 143.62,-36 143.62,-36 137.62,-36 131.62,-30 131.62,-24 131.62,-24 131.62,-12 131.62,-12 131.62,-6 137.62,0 143.62,0 143.62,0 176.88,0 176.88,0 182.88,0 188.88,-6 188.88,-12 188.88,-12 188.88,-24 188.88,-24 188.88,-30 182.88,-36 176.88,-36"/>
<text text-anchor="middle" x="160.25" y="-12.75" font-family="Arial" font-size="15.00">matrix</text>
</g>
<!-- /lib/band.dart&#45;&gt;/lib/matrix.dart -->
<g id="edge7" class="edge">
<title>/lib/band.dart&#45;&gt;/lib/matrix.dart</title>
<path fill="none" stroke="#aabbaa" stroke-width="1.3" stroke-opacity="0.533333" d="M30.96,-143.71C33.71,-124.27 40.7,-92.7 58.25,-72 74.44,-52.9 99.26,-39.8 120.36,-31.39"/>
<polygon fill="#aabbaa" fill-opacity="0.533333" stroke="#aabbaa" stroke-width="1.3" stroke-opacity="0.533333" points="121.31,-34.77 129.46,-28 118.87,-28.21 121.31,-34.77"/>
</g>
<!-- /lib/artifact.dart&#45;&gt;/lib/matrix.dart -->
<g id="edge8" class="edge">
<title>/lib/artifact.dart&#45;&gt;/lib/matrix.dart</title>
<path fill="none" stroke="#aabbaa" stroke-width="1.3" stroke-opacity="0.533333" d="M113.58,-71.7C120.71,-63.64 129.34,-53.89 137.24,-44.98"/>
<polygon fill="#aabbaa" fill-opacity="0.533333" stroke="#aabbaa" stroke-width="1.3" stroke-opacity="0.533333" points="139.79,-47.38 143.8,-37.58 134.55,-42.74 139.79,-47.38"/>
</g>
<!-- /lib/score_match.dart -->
<g id="node5" class="node">
<title>/lib/score_match.dart</title>
<path fill="Lavender" stroke="black" stroke-width="1.3" d="M278.38,-252C278.38,-252 200.12,-252 200.12,-252 194.12,-252 188.12,-246 188.12,-240 188.12,-240 188.12,-228 188.12,-228 188.12,-222 194.12,-216 200.12,-216 200.12,-216 278.38,-216 278.38,-216 284.38,-216 290.38,-222 290.38,-228 290.38,-228 290.38,-240 290.38,-240 290.38,-246 284.38,-252 278.38,-252"/>
<text text-anchor="middle" x="239.25" y="-228.75" font-family="Arial" font-size="15.00">score_match</text>
</g>
<!-- /lib/character_definition.dart&#45;&gt;/lib/matrix.dart -->
<g id="edge9" class="edge">
<title>/lib/character_definition.dart&#45;&gt;/lib/matrix.dart</title>
<path fill="none" stroke="#aabbaa" stroke-width="1.3" stroke-opacity="0.533333" d="M361.25,-143.59C335.49,-125.14 293.15,-95.48 255.25,-72 237.3,-60.88 216.91,-49.37 199.64,-39.92"/>
<polygon fill="#aabbaa" fill-opacity="0.533333" stroke="#aabbaa" stroke-width="1.3" stroke-opacity="0.533333" points="201.52,-36.96 191.06,-35.27 198.18,-43.11 201.52,-36.96"/>
</g>
<!-- /lib/textify.dart&#45;&gt;/lib/artifact.dart -->
<g id="edge10" class="edge">
<title>/lib/textify.dart&#45;&gt;/lib/artifact.dart</title>
<path fill="none" stroke="#aabbaa" stroke-width="1.3" stroke-opacity="0.533333" d="M210.98,-295.48C190.24,-287.1 162.89,-272.95 146.25,-252 115.39,-213.15 104.35,-154.84 100.41,-120.09"/>
<polygon fill="#aabbaa" fill-opacity="0.533333" stroke="#aabbaa" stroke-width="1.3" stroke-opacity="0.533333" points="103.92,-120 99.45,-110.39 96.95,-120.68 103.92,-120"/>
</g>
<!-- /lib/textify.dart&#45;&gt;/lib/score_match.dart -->
<g id="edge15" class="edge">
<title>/lib/textify.dart&#45;&gt;/lib/score_match.dart</title>
<path fill="none" stroke="#aabbaa" stroke-width="1.3" stroke-opacity="0.533333" d="M239.25,-287.7C239.25,-280.49 239.25,-271.93 239.25,-263.82"/>
<polygon fill="#aabbaa" fill-opacity="0.533333" stroke="#aabbaa" stroke-width="1.3" stroke-opacity="0.533333" points="242.75,-264.07 239.25,-254.07 235.75,-264.07 242.75,-264.07"/>
</g>
<!-- /lib/textify.dart&#45;&gt;/lib/matrix.dart -->
<g id="edge14" class="edge">
<title>/lib/textify.dart&#45;&gt;/lib/matrix.dart</title>
<path fill="none" stroke="#aabbaa" stroke-width="1.3" stroke-opacity="0.533333" d="M211.52,-287.72C199.47,-278.65 186.47,-266.42 179.25,-252 145.78,-185.16 150.63,-93.89 155.99,-47.94"/>
<polygon fill="#aabbaa" fill-opacity="0.533333" stroke="#aabbaa" stroke-width="1.3" stroke-opacity="0.533333" points="159.44,-48.56 157.24,-38.19 152.5,-47.67 159.44,-48.56"/>
</g>
<!-- /lib/character_definitions.dart -->
<g id="node9" class="node">
<title>/lib/character_definitions.dart</title>
<path fill="Lavender" stroke="black" stroke-width="1.3" d="M450.25,-252C450.25,-252 320.25,-252 320.25,-252 314.25,-252 308.25,-246 308.25,-240 308.25,-240 308.25,-228 308.25,-228 308.25,-222 314.25,-216 320.25,-216 320.25,-216 450.25,-216 450.25,-216 456.25,-216 462.25,-222 462.25,-228 462.25,-228 462.25,-240 462.25,-240 462.25,-246 456.25,-252 450.25,-252"/>
<text text-anchor="middle" x="385.25" y="-228.75" font-family="Arial" font-size="15.00">character_definitions</text>
</g>
<!-- /lib/textify.dart&#45;&gt;/lib/character_definitions.dart -->
<g id="edge12" class="edge">
<title>/lib/textify.dart&#45;&gt;/lib/character_definitions.dart</title>
<path fill="none" stroke="#aabbaa" stroke-width="1.3" stroke-opacity="0.533333" d="M267.4,-291.5C287.43,-281.9 314.81,-268.77 338.14,-257.58"/>
<polygon fill="#aabbaa" fill-opacity="0.533333" stroke="#aabbaa" stroke-width="1.3" stroke-opacity="0.533333" points="339.6,-260.77 347.1,-253.29 336.57,-254.46 339.6,-260.77"/>
</g>
<!-- /lib/textify.dart&#45;&gt;/lib/correction.dart -->
<g id="edge13" class="edge">
<title>/lib/textify.dart&#45;&gt;/lib/correction.dart</title>
<path fill="none" stroke="#aabbaa" stroke-width="1.3" stroke-opacity="0.533333" d="M267.37,-298.85C320.85,-287.15 438.02,-261.52 506.53,-246.53"/>
<polygon fill="#aabbaa" fill-opacity="0.533333" stroke="#aabbaa" stroke-width="1.3" stroke-opacity="0.533333" points="506.96,-250.02 515.98,-244.46 505.47,-243.18 506.96,-250.02"/>
</g>
<!-- /lib/textify.dart&#45;&gt;/lib/bands.dart -->
<g id="edge11" class="edge">
<title>/lib/textify.dart&#45;&gt;/lib/bands.dart</title>
<path fill="none" stroke="#aabbaa" stroke-width="1.3" stroke-opacity="0.533333" d="M211.23,-295.7C174.44,-283.5 109.65,-262 67.86,-248.14"/>
<polygon fill="#aabbaa" fill-opacity="0.533333" stroke="#aabbaa" stroke-width="1.3" stroke-opacity="0.533333" points="69.18,-244.89 58.59,-245.07 66.98,-251.54 69.18,-244.89"/>
</g>
<!-- /lib/character_definitions.dart&#45;&gt;/lib/character_definition.dart -->
<g id="edge16" class="edge">
<title>/lib/character_definitions.dart&#45;&gt;/lib/character_definition.dart</title>
<path fill="none" stroke="#aabbaa" stroke-width="1.3" stroke-opacity="0.533333" d="M379.33,-215.7C378.59,-208.49 378.34,-199.93 378.59,-191.82"/>
<polygon fill="#aabbaa" fill-opacity="0.533333" stroke="#aabbaa" stroke-width="1.3" stroke-opacity="0.533333" points="382.07,-192.27 379.23,-182.07 375.09,-191.82 382.07,-192.27"/>
</g>
<!-- /lib/character_definitions.dart&#45;&gt;/lib/character_definition.dart -->
<g id="edge18" class="edge">
<title>/lib/character_definitions.dart&#45;&gt;/lib/character_definition.dart</title>
<path fill="none" stroke="#aabbaa" stroke-width="1.3" stroke-dasharray="5,2" stroke-opacity="0.533333" d="M391.17,-215.7C391.91,-208.49 392.16,-199.93 391.91,-191.82"/>
<polygon fill="#aabbaa" fill-opacity="0.533333" stroke="#aabbaa" stroke-width="1.3" stroke-opacity="0.533333" points="395.41,-191.82 391.27,-182.07 388.43,-192.27 395.41,-191.82"/>
</g>
<!-- /lib/character_definitions.dart&#45;&gt;/lib/matrix.dart -->
<g id="edge17" class="edge">
<title>/lib/character_definitions.dart&#45;&gt;/lib/matrix.dart</title>
<path fill="none" stroke="#aabbaa" stroke-width="1.3" stroke-opacity="0.533333" d="M354.27,-215.71C338.3,-206.14 318.94,-193.47 303.25,-180 254.19,-137.9 206.16,-79.21 180.15,-45.56"/>
<polygon fill="#aabbaa" fill-opacity="0.533333" stroke="#aabbaa" stroke-width="1.3" stroke-opacity="0.533333" points="183.17,-43.74 174.31,-37.92 177.61,-47.99 183.17,-43.74"/>
</g>
<!-- /lib/english_words.dart -->
<g id="node11" class="node">
<title>/lib/english_words.dart</title>
<path fill="Lavender" stroke="black" stroke-width="1.3" d="M602.5,-180C602.5,-180 516,-180 516,-180 510,-180 504,-174 504,-168 504,-168 504,-156 504,-156 504,-150 510,-144 516,-144 516,-144 602.5,-144 602.5,-144 608.5,-144 614.5,-150 614.5,-156 614.5,-156 614.5,-168 614.5,-168 614.5,-174 608.5,-180 602.5,-180"/>
<text text-anchor="middle" x="559.25" y="-156.75" font-family="Arial" font-size="15.00">english_words</text>
</g>
<!-- /lib/correction.dart&#45;&gt;/lib/english_words.dart -->
<g id="edge19" class="edge">
<title>/lib/correction.dart&#45;&gt;/lib/english_words.dart</title>
<path fill="none" stroke="#aabbaa" stroke-width="1.3" stroke-opacity="0.533333" d="M559.25,-215.7C559.25,-208.49 559.25,-199.93 559.25,-191.82"/>
<polygon fill="#aabbaa" fill-opacity="0.533333" stroke="#aabbaa" stroke-width="1.3" stroke-opacity="0.533333" points="562.75,-192.07 559.25,-182.07 555.75,-192.07 562.75,-192.07"/>
</g>
<!-- /lib/bands.dart&#45;&gt;/lib/band.dart -->
<g id="edge20" class="edge">
<title>/lib/bands.dart&#45;&gt;/lib/band.dart</title>
<path fill="none" stroke="#aabbaa" stroke-width="1.3" stroke-opacity="0.533333" d="M22.58,-215.7C21.94,-208.49 21.82,-199.93 22.18,-191.82"/>
<polygon fill="#aabbaa" fill-opacity="0.533333" stroke="#aabbaa" stroke-width="1.3" stroke-opacity="0.533333" points="25.65,-192.31 22.96,-182.07 18.68,-191.76 25.65,-192.31"/>
</g>
<!-- /lib/bands.dart&#45;&gt;/lib/band.dart -->
<g id="edge21" class="edge">
<title>/lib/bands.dart&#45;&gt;/lib/band.dart</title>
<path fill="none" stroke="#aabbaa" stroke-width="1.3" stroke-dasharray="5,2" stroke-opacity="0.533333" d="M34.41,-215.7C35.26,-208.49 35.63,-199.93 35.49,-191.82"/>
<polygon fill="#aabbaa" fill-opacity="0.533333" stroke="#aabbaa" stroke-width="1.3" stroke-opacity="0.533333" points="39,-191.88 35,-182.07 32.01,-192.23 39,-191.88"/>
</g>
</g>
</svg>
