<?xml version="1.0" encoding="UTF-8" standalone="no"?>
<!DOCTYPE svg PUBLIC "-//W3C//DTD SVG 1.1//EN"
 "http://www.w3.org/Graphics/SVG/1.1/DTD/svg11.dtd">
<!-- Generated by graphviz version 12.1.2 (20240928.0832)
 -->
<!-- Pages: 1 -->
<svg width="464pt" height="332pt"
 viewBox="0.00 0.00 464.30 332.00" xmlns="http://www.w3.org/2000/svg" xmlns:xlink="http://www.w3.org/1999/xlink">
<g id="graph0" class="graph" transform="scale(1 1) rotate(0) translate(4 328)">
<polygon fill="white" stroke="none" points="-4,4 -4,-328 460.3,-328 460.3,4 -4,4"/>
<!-- /lib/artifact.dart -->
<g id="node1" class="node">
<title>/lib/artifact.dart</title>
<path fill="Lavender" stroke="black" stroke-width="1.3" d="M252.12,-108C252.12,-108 214.38,-108 214.38,-108 208.38,-108 202.38,-102 202.38,-96 202.38,-96 202.38,-84 202.38,-84 202.38,-78 208.38,-72 214.38,-72 214.38,-72 252.12,-72 252.12,-72 258.12,-72 264.12,-78 264.12,-84 264.12,-84 264.12,-96 264.12,-96 264.12,-102 258.12,-108 252.12,-108"/>
<text text-anchor="middle" x="233.25" y="-84.75" font-family="Arial" font-size="15.00">artifact</text>
</g>
<!-- /lib/matrix.dart -->
<g id="node6" class="node">
<title>/lib/matrix.dart</title>
<path fill="Lavender" stroke="black" stroke-width="1.3" d="M278.88,-36C278.88,-36 245.62,-36 245.62,-36 239.62,-36 233.62,-30 233.62,-24 233.62,-24 233.62,-12 233.62,-12 233.62,-6 239.62,0 245.62,0 245.62,0 278.88,0 278.88,0 284.88,0 290.88,-6 290.88,-12 290.88,-12 290.88,-24 290.88,-24 290.88,-30 284.88,-36 278.88,-36"/>
<text text-anchor="middle" x="262.25" y="-12.75" font-family="Arial" font-size="15.00">matrix</text>
</g>
<!-- /lib/artifact.dart&#45;&gt;/lib/matrix.dart -->
<g id="edge1" class="edge">
<title>/lib/artifact.dart&#45;&gt;/lib/matrix.dart</title>
<path fill="none" stroke="#aabbaa" stroke-width="1.3" stroke-opacity="0.533333" d="M240.42,-71.7C243.51,-64.24 247.2,-55.32 250.66,-46.97"/>
<polygon fill="#aabbaa" fill-opacity="0.533333" stroke="#aabbaa" stroke-width="1.3" stroke-opacity="0.533333" points="253.82,-48.5 254.41,-37.92 247.35,-45.82 253.82,-48.5"/>
</g>
<!-- /lib/band.dart -->
<g id="node2" class="node">
<title>/lib/band.dart</title>
<path fill="Lavender" stroke="black" stroke-width="1.3" d="M307.25,-180C307.25,-180 277.25,-180 277.25,-180 271.25,-180 265.25,-174 265.25,-168 265.25,-168 265.25,-156 265.25,-156 265.25,-150 271.25,-144 277.25,-144 277.25,-144 307.25,-144 307.25,-144 313.25,-144 319.25,-150 319.25,-156 319.25,-156 319.25,-168 319.25,-168 319.25,-174 313.25,-180 307.25,-180"/>
<text text-anchor="middle" x="292.25" y="-156.75" font-family="Arial" font-size="15.00">band</text>
</g>
<!-- /lib/band.dart&#45;&gt;/lib/artifact.dart -->
<g id="edge2" class="edge">
<title>/lib/band.dart&#45;&gt;/lib/artifact.dart</title>
<path fill="none" stroke="#aabbaa" stroke-width="1.3" stroke-opacity="0.533333" d="M277.67,-143.7C270.88,-135.64 262.66,-125.89 255.15,-116.98"/>
<polygon fill="#aabbaa" fill-opacity="0.533333" stroke="#aabbaa" stroke-width="1.3" stroke-opacity="0.533333" points="258.06,-115 248.93,-109.61 252.7,-119.51 258.06,-115"/>
</g>
<!-- /lib/band.dart&#45;&gt;/lib/matrix.dart -->
<g id="edge3" class="edge">
<title>/lib/band.dart&#45;&gt;/lib/matrix.dart</title>
<path fill="none" stroke="#aabbaa" stroke-width="1.3" stroke-opacity="0.533333" d="M288.57,-143.59C283.53,-119.72 274.4,-76.53 268.34,-47.8"/>
<polygon fill="#aabbaa" fill-opacity="0.533333" stroke="#aabbaa" stroke-width="1.3" stroke-opacity="0.533333" points="271.76,-47.1 266.27,-38.04 264.91,-48.54 271.76,-47.1"/>
</g>
<!-- /lib/character_definition.dart -->
<g id="node3" class="node">
<title>/lib/character_definition.dart</title>
<path fill="Lavender" stroke="black" stroke-width="1.3" d="M134.5,-108C134.5,-108 12,-108 12,-108 6,-108 0,-102 0,-96 0,-96 0,-84 0,-84 0,-78 6,-72 12,-72 12,-72 134.5,-72 134.5,-72 140.5,-72 146.5,-78 146.5,-84 146.5,-84 146.5,-96 146.5,-96 146.5,-102 140.5,-108 134.5,-108"/>
<text text-anchor="middle" x="73.25" y="-84.75" font-family="Arial" font-size="15.00">character_definition</text>
</g>
<!-- /lib/character_definition.dart&#45;&gt;/lib/matrix.dart -->
<g id="edge4" class="edge">
<title>/lib/character_definition.dart&#45;&gt;/lib/matrix.dart</title>
<path fill="none" stroke="#aabbaa" stroke-width="1.3" stroke-opacity="0.533333" d="M120.46,-71.52C151.73,-59.93 192.31,-44.9 222.05,-33.89"/>
<polygon fill="#aabbaa" fill-opacity="0.533333" stroke="#aabbaa" stroke-width="1.3" stroke-opacity="0.533333" points="223.26,-37.17 231.42,-30.42 220.83,-30.61 223.26,-37.17"/>
</g>
<!-- /lib/character_definitions.dart -->
<g id="node4" class="node">
<title>/lib/character_definitions.dart</title>
<path fill="Lavender" stroke="black" stroke-width="1.3" d="M197.25,-180C197.25,-180 67.25,-180 67.25,-180 61.25,-180 55.25,-174 55.25,-168 55.25,-168 55.25,-156 55.25,-156 55.25,-150 61.25,-144 67.25,-144 67.25,-144 197.25,-144 197.25,-144 203.25,-144 209.25,-150 209.25,-156 209.25,-156 209.25,-168 209.25,-168 209.25,-174 203.25,-180 197.25,-180"/>
<text text-anchor="middle" x="132.25" y="-156.75" font-family="Arial" font-size="15.00">character_definitions</text>
</g>
<!-- /lib/character_definitions.dart&#45;&gt;/lib/character_definition.dart -->
<g id="edge5" class="edge">
<title>/lib/character_definitions.dart&#45;&gt;/lib/character_definition.dart</title>
<path fill="none" stroke="#aabbaa" stroke-width="1.3" stroke-opacity="0.533333" d="M111.75,-143.7C104.29,-135.81 96.06,-126.3 89.05,-117.55"/>
<polygon fill="#aabbaa" fill-opacity="0.533333" stroke="#aabbaa" stroke-width="1.3" stroke-opacity="0.533333" points="91.85,-115.44 82.97,-109.66 86.31,-119.72 91.85,-115.44"/>
</g>
<!-- /lib/character_definitions.dart&#45;&gt;/lib/character_definition.dart -->
<g id="edge7" class="edge">
<title>/lib/character_definitions.dart&#45;&gt;/lib/character_definition.dart</title>
<path fill="none" stroke="#aabbaa" stroke-width="1.3" stroke-dasharray="5,2" stroke-opacity="0.533333" d="M123.58,-143.7C117.56,-135.56 109.45,-125.69 101.45,-116.7"/>
<polygon fill="#aabbaa" fill-opacity="0.533333" stroke="#aabbaa" stroke-width="1.3" stroke-opacity="0.533333" points="104.23,-114.56 94.89,-109.55 99.07,-119.29 104.23,-114.56"/>
</g>
<!-- /lib/character_definitions.dart&#45;&gt;/lib/matrix.dart -->
<g id="edge6" class="edge">
<title>/lib/character_definitions.dart&#45;&gt;/lib/matrix.dart</title>
<path fill="none" stroke="#aabbaa" stroke-width="1.3" stroke-opacity="0.533333" d="M141.84,-143.76C152.8,-124.93 171.99,-94.44 193.25,-72 203.05,-61.65 215,-51.73 226.19,-43.33"/>
<polygon fill="#aabbaa" fill-opacity="0.533333" stroke="#aabbaa" stroke-width="1.3" stroke-opacity="0.533333" points="228.13,-46.24 234.15,-37.52 224.01,-40.59 228.13,-46.24"/>
</g>
<!-- /lib/image_pipeline.dart -->
<g id="node5" class="node">
<title>/lib/image_pipeline.dart</title>
<path fill="Lavender" stroke="black" stroke-width="1.3" d="M423.75,-108C423.75,-108 332.75,-108 332.75,-108 326.75,-108 320.75,-102 320.75,-96 320.75,-96 320.75,-84 320.75,-84 320.75,-78 326.75,-72 332.75,-72 332.75,-72 423.75,-72 423.75,-72 429.75,-72 435.75,-78 435.75,-84 435.75,-84 435.75,-96 435.75,-96 435.75,-102 429.75,-108 423.75,-108"/>
<text text-anchor="middle" x="378.25" y="-84.75" font-family="Arial" font-size="15.00">image_pipeline</text>
</g>
<!-- /lib/image_pipeline.dart&#45;&gt;/lib/matrix.dart -->
<g id="edge8" class="edge">
<title>/lib/image_pipeline.dart&#45;&gt;/lib/matrix.dart</title>
<path fill="none" stroke="#aabbaa" stroke-width="1.3" stroke-opacity="0.533333" d="M349.28,-71.52C334.63,-62.68 316.67,-51.84 300.87,-42.3"/>
<polygon fill="#aabbaa" fill-opacity="0.533333" stroke="#aabbaa" stroke-width="1.3" stroke-opacity="0.533333" points="302.91,-39.45 292.54,-37.28 299.29,-45.44 302.91,-39.45"/>
</g>
<!-- /lib/textify.dart -->
<g id="node7" class="node">
<title>/lib/textify.dart</title>
<path fill="Lavender" stroke="black" stroke-width="1.3" d="M280.12,-252C280.12,-252 248.38,-252 248.38,-252 242.38,-252 236.38,-246 236.38,-240 236.38,-240 236.38,-228 236.38,-228 236.38,-222 242.38,-216 248.38,-216 248.38,-216 280.12,-216 280.12,-216 286.12,-216 292.12,-222 292.12,-228 292.12,-228 292.12,-240 292.12,-240 292.12,-246 286.12,-252 280.12,-252"/>
<text text-anchor="middle" x="264.25" y="-228.75" font-family="Arial" font-size="15.00">textify</text>
</g>
<!-- /lib/textify.dart&#45;&gt;/lib/artifact.dart -->
<g id="edge9" class="edge">
<title>/lib/textify.dart&#45;&gt;/lib/artifact.dart</title>
<path fill="none" stroke="#aabbaa" stroke-width="1.3" stroke-opacity="0.533333" d="M260.45,-215.59C255.21,-191.61 245.72,-148.14 239.45,-119.42"/>
<polygon fill="#aabbaa" fill-opacity="0.533333" stroke="#aabbaa" stroke-width="1.3" stroke-opacity="0.533333" points="242.96,-119.06 237.41,-110.03 236.12,-120.55 242.96,-119.06"/>
</g>
<!-- /lib/textify.dart&#45;&gt;/lib/band.dart -->
<g id="edge10" class="edge">
<title>/lib/textify.dart&#45;&gt;/lib/band.dart</title>
<path fill="none" stroke="#aabbaa" stroke-width="1.3" stroke-opacity="0.533333" d="M271.17,-215.7C274.16,-208.24 277.72,-199.32 281.06,-190.97"/>
<polygon fill="#aabbaa" fill-opacity="0.533333" stroke="#aabbaa" stroke-width="1.3" stroke-opacity="0.533333" points="284.21,-192.52 284.68,-181.93 277.71,-189.92 284.21,-192.52"/>
</g>
<!-- /lib/textify.dart&#45;&gt;/lib/character_definitions.dart -->
<g id="edge11" class="edge">
<title>/lib/textify.dart&#45;&gt;/lib/character_definitions.dart</title>
<path fill="none" stroke="#aabbaa" stroke-width="1.3" stroke-opacity="0.533333" d="M235.93,-217.98C218.34,-208.65 195.37,-196.47 175.53,-185.95"/>
<polygon fill="#aabbaa" fill-opacity="0.533333" stroke="#aabbaa" stroke-width="1.3" stroke-opacity="0.533333" points="177.39,-182.98 166.92,-181.38 174.11,-189.16 177.39,-182.98"/>
</g>
<!-- /lib/textify.dart&#45;&gt;/lib/image_pipeline.dart -->
<g id="edge12" class="edge">
<title>/lib/textify.dart&#45;&gt;/lib/image_pipeline.dart</title>
<path fill="none" stroke="#aabbaa" stroke-width="1.3" stroke-opacity="0.533333" d="M289.54,-215.51C302.16,-205.97 317.06,-193.4 328.25,-180 343.77,-161.41 356.96,-137.31 365.9,-118.88"/>
<polygon fill="#aabbaa" fill-opacity="0.533333" stroke="#aabbaa" stroke-width="1.3" stroke-opacity="0.533333" points="368.98,-120.55 370.06,-110.01 362.64,-117.58 368.98,-120.55"/>
</g>
<!-- /lib/textify.dart&#45;&gt;/lib/matrix.dart -->
<g id="edge13" class="edge">
<title>/lib/textify.dart&#45;&gt;/lib/matrix.dart</title>
<path fill="none" stroke="#aabbaa" stroke-width="1.3" stroke-opacity="0.533333" d="M292.29,-223.43C354.79,-200.59 496.16,-139.75 445.25,-72 428.17,-49.27 351.49,-33.16 302.97,-25.04"/>
<polygon fill="#aabbaa" fill-opacity="0.533333" stroke="#aabbaa" stroke-width="1.3" stroke-opacity="0.533333" points="303.67,-21.61 293.24,-23.46 302.55,-28.52 303.67,-21.61"/>
</g>
<!-- /test/textify_test.dart -->
<g id="node8" class="node">
<title>/test/textify_test.dart</title>
<path fill="Lavender" stroke="black" stroke-width="1.3" d="M164.62,-324C164.62,-324 99.88,-324 99.88,-324 93.88,-324 87.88,-318 87.88,-312 87.88,-312 87.88,-300 87.88,-300 87.88,-294 93.88,-288 99.88,-288 99.88,-288 164.62,-288 164.62,-288 170.62,-288 176.62,-294 176.62,-300 176.62,-300 176.62,-312 176.62,-312 176.62,-318 170.62,-324 164.62,-324"/>
<text text-anchor="middle" x="132.25" y="-300.75" font-family="Arial" font-size="15.00">textify_test</text>
</g>
<!-- /test/textify_test.dart&#45;&gt;/lib/character_definition.dart -->
<g id="edge14" class="edge">
<title>/test/textify_test.dart&#45;&gt;/lib/character_definition.dart</title>
<path fill="none" stroke="#aabbaa" stroke-width="1.3" stroke-opacity="0.533333" d="M115.26,-287.82C94.29,-265.3 59.77,-223.52 46.25,-180 41.5,-164.72 42.52,-159.56 46.25,-144 48.31,-135.4 52.02,-126.62 56.04,-118.75"/>
<polygon fill="#aabbaa" fill-opacity="0.533333" stroke="#aabbaa" stroke-width="1.3" stroke-opacity="0.533333" points="59.07,-120.5 60.83,-110.06 52.94,-117.12 59.07,-120.5"/>
</g>
<!-- /test/textify_test.dart&#45;&gt;/lib/textify.dart -->
<g id="edge15" class="edge">
<title>/test/textify_test.dart&#45;&gt;/lib/textify.dart</title>
<path fill="none" stroke="#aabbaa" stroke-width="1.3" stroke-opacity="0.533333" d="M165.22,-287.52C183.56,-277.79 206.49,-265.63 225.66,-255.46"/>
<polygon fill="#aabbaa" fill-opacity="0.533333" stroke="#aabbaa" stroke-width="1.3" stroke-opacity="0.533333" points="227.23,-258.59 234.43,-250.82 223.95,-252.41 227.23,-258.59"/>
</g>
</g>
</svg>
