<?xml version="1.0" encoding="UTF-8" standalone="no"?>
<!DOCTYPE svg PUBLIC "-//W3C//DTD SVG 1.1//EN"
 "http://www.w3.org/Graphics/SVG/1.1/DTD/svg11.dtd">
<!-- Generated by graphviz version 12.2.1 (20241206.2353)
 -->
<!-- Pages: 1 -->
<svg width="921pt" height="404pt"
 viewBox="0.00 0.00 920.62 404.00" xmlns="http://www.w3.org/2000/svg" xmlns:xlink="http://www.w3.org/1999/xlink">
<g id="graph0" class="graph" transform="scale(1 1) rotate(0) translate(4 400)">
<polygon fill="white" stroke="none" points="-4,4 -4,-400 916.62,-400 916.62,4 -4,4"/>
<!-- /test/textify_test.dart -->
<g id="node1" class="node">
<title>/test/textify_test.dart</title>
<path fill="Lavender" stroke="black" stroke-width="1.3" d="M143.38,-396C143.38,-396 78.62,-396 78.62,-396 72.62,-396 66.62,-390 66.62,-384 66.62,-384 66.62,-372 66.62,-372 66.62,-366 72.62,-360 78.62,-360 78.62,-360 143.38,-360 143.38,-360 149.38,-360 155.38,-366 155.38,-372 155.38,-372 155.38,-384 155.38,-384 155.38,-390 149.38,-396 143.38,-396"/>
<text text-anchor="middle" x="111" y="-372.75" font-family="Arial" font-size="15.00">textify_test</text>
</g>
<!-- /lib/character_definition.dart -->
<g id="node9" class="node">
<title>/lib/character_definition.dart</title>
<path fill="Lavender" stroke="black" stroke-width="1.3" d="M389.25,-180C389.25,-180 266.75,-180 266.75,-180 260.75,-180 254.75,-174 254.75,-168 254.75,-168 254.75,-156 254.75,-156 254.75,-150 260.75,-144 266.75,-144 266.75,-144 389.25,-144 389.25,-144 395.25,-144 401.25,-150 401.25,-156 401.25,-156 401.25,-168 401.25,-168 401.25,-174 395.25,-180 389.25,-180"/>
<text text-anchor="middle" x="328" y="-156.75" font-family="Arial" font-size="15.00">character_definition</text>
</g>
<!-- /test/textify_test.dart&#45;&gt;/lib/character_definition.dart -->
<g id="edge1" class="edge">
<title>/test/textify_test.dart&#45;&gt;/lib/character_definition.dart</title>
<path fill="none" stroke="#aabbaa" stroke-width="1.3" stroke-opacity="0.533333" d="M110.86,-359.58C111.58,-326.88 117.87,-256.01 157,-216 179.64,-192.85 212.18,-179.76 242.8,-172.38"/>
<polygon fill="#aabbaa" fill-opacity="0.533333" stroke="#aabbaa" stroke-width="1.3" stroke-opacity="0.533333" points="243.49,-175.82 252.5,-170.25 241.98,-168.98 243.49,-175.82"/>
</g>
<!-- /lib/textify.dart -->
<g id="node10" class="node">
<title>/lib/textify.dart</title>
<path fill="Lavender" stroke="black" stroke-width="1.3" d="M430.88,-324C430.88,-324 399.12,-324 399.12,-324 393.12,-324 387.12,-318 387.12,-312 387.12,-312 387.12,-300 387.12,-300 387.12,-294 393.12,-288 399.12,-288 399.12,-288 430.88,-288 430.88,-288 436.88,-288 442.88,-294 442.88,-300 442.88,-300 442.88,-312 442.88,-312 442.88,-318 436.88,-324 430.88,-324"/>
<text text-anchor="middle" x="415" y="-300.75" font-family="Arial" font-size="15.00">textify</text>
</g>
<!-- /test/textify_test.dart&#45;&gt;/lib/textify.dart -->
<g id="edge4" class="edge">
<title>/test/textify_test.dart&#45;&gt;/lib/textify.dart</title>
<path fill="none" stroke="#aabbaa" stroke-width="1.3" stroke-opacity="0.533333" d="M155.86,-366.67C215.22,-353 318.95,-329.12 375.5,-316.1"/>
<polygon fill="#aabbaa" fill-opacity="0.533333" stroke="#aabbaa" stroke-width="1.3" stroke-opacity="0.533333" points="375.94,-319.59 384.9,-313.93 374.37,-312.77 375.94,-319.59"/>
</g>
<!-- /lib/matrix.dart -->
<g id="node11" class="node">
<title>/lib/matrix.dart</title>
<path fill="Lavender" stroke="black" stroke-width="1.3" d="M550.62,-36C550.62,-36 517.38,-36 517.38,-36 511.38,-36 505.38,-30 505.38,-24 505.38,-24 505.38,-12 505.38,-12 505.38,-6 511.38,0 517.38,0 517.38,0 550.62,0 550.62,0 556.62,0 562.62,-6 562.62,-12 562.62,-12 562.62,-24 562.62,-24 562.62,-30 556.62,-36 550.62,-36"/>
<text text-anchor="middle" x="534" y="-12.75" font-family="Arial" font-size="15.00">matrix</text>
</g>
<!-- /test/textify_test.dart&#45;&gt;/lib/matrix.dart -->
<g id="edge3" class="edge">
<title>/test/textify_test.dart&#45;&gt;/lib/matrix.dart</title>
<path fill="none" stroke="#aabbaa" stroke-width="1.3" stroke-opacity="0.533333" d="M84.41,-359.59C51.57,-335.74 0,-289.6 0,-235 0,-235 0,-235 0,-161 0,-58.99 368.52,-28.47 493.28,-21.06"/>
<polygon fill="#aabbaa" fill-opacity="0.533333" stroke="#aabbaa" stroke-width="1.3" stroke-opacity="0.533333" points="493.16,-24.57 502.95,-20.51 492.76,-17.58 493.16,-24.57"/>
</g>
<!-- /lib/correction.dart -->
<g id="node13" class="node">
<title>/lib/correction.dart</title>
<path fill="Lavender" stroke="black" stroke-width="1.3" d="M98,-252C98,-252 40,-252 40,-252 34,-252 28,-246 28,-240 28,-240 28,-228 28,-228 28,-222 34,-216 40,-216 40,-216 98,-216 98,-216 104,-216 110,-222 110,-228 110,-228 110,-240 110,-240 110,-246 104,-252 98,-252"/>
<text text-anchor="middle" x="69" y="-228.75" font-family="Arial" font-size="15.00">correction</text>
</g>
<!-- /test/textify_test.dart&#45;&gt;/lib/correction.dart -->
<g id="edge2" class="edge">
<title>/test/textify_test.dart&#45;&gt;/lib/correction.dart</title>
<path fill="none" stroke="#aabbaa" stroke-width="1.3" stroke-opacity="0.533333" d="M105.85,-359.59C98.76,-335.61 85.9,-292.14 77.41,-263.42"/>
<polygon fill="#aabbaa" fill-opacity="0.533333" stroke="#aabbaa" stroke-width="1.3" stroke-opacity="0.533333" points="80.81,-262.59 74.62,-254 74.1,-264.58 80.81,-262.59"/>
</g>
<!-- /test/bands_test.dart -->
<g id="node2" class="node">
<title>/test/bands_test.dart</title>
<path fill="Lavender" stroke="black" stroke-width="1.3" d="M681.75,-324C681.75,-324 616.25,-324 616.25,-324 610.25,-324 604.25,-318 604.25,-312 604.25,-312 604.25,-300 604.25,-300 604.25,-294 610.25,-288 616.25,-288 616.25,-288 681.75,-288 681.75,-288 687.75,-288 693.75,-294 693.75,-300 693.75,-300 693.75,-312 693.75,-312 693.75,-318 687.75,-324 681.75,-324"/>
<text text-anchor="middle" x="649" y="-300.75" font-family="Arial" font-size="15.00">bands_test</text>
</g>
<!-- /lib/artifact.dart -->
<g id="node7" class="node">
<title>/lib/artifact.dart</title>
<path fill="Lavender" stroke="black" stroke-width="1.3" d="M582.88,-108C582.88,-108 545.12,-108 545.12,-108 539.12,-108 533.12,-102 533.12,-96 533.12,-96 533.12,-84 533.12,-84 533.12,-78 539.12,-72 545.12,-72 545.12,-72 582.88,-72 582.88,-72 588.88,-72 594.88,-78 594.88,-84 594.88,-84 594.88,-96 594.88,-96 594.88,-102 588.88,-108 582.88,-108"/>
<text text-anchor="middle" x="564" y="-84.75" font-family="Arial" font-size="15.00">artifact</text>
</g>
<!-- /test/bands_test.dart&#45;&gt;/lib/artifact.dart -->
<g id="edge5" class="edge">
<title>/test/bands_test.dart&#45;&gt;/lib/artifact.dart</title>
<path fill="none" stroke="#aabbaa" stroke-width="1.3" stroke-opacity="0.533333" d="M645.58,-287.93C639.18,-257.83 623.82,-193.82 600,-144 595.75,-135.11 590.13,-126.03 584.6,-117.95"/>
<polygon fill="#aabbaa" fill-opacity="0.533333" stroke="#aabbaa" stroke-width="1.3" stroke-opacity="0.533333" points="587.54,-116.05 578.89,-109.94 581.84,-120.12 587.54,-116.05"/>
</g>
<!-- /lib/bands.dart -->
<g id="node15" class="node">
<title>/lib/bands.dart</title>
<path fill="Lavender" stroke="black" stroke-width="1.3" d="M580.25,-252C580.25,-252 547.75,-252 547.75,-252 541.75,-252 535.75,-246 535.75,-240 535.75,-240 535.75,-228 535.75,-228 535.75,-222 541.75,-216 547.75,-216 547.75,-216 580.25,-216 580.25,-216 586.25,-216 592.25,-222 592.25,-228 592.25,-228 592.25,-240 592.25,-240 592.25,-246 586.25,-252 580.25,-252"/>
<text text-anchor="middle" x="564" y="-228.75" font-family="Arial" font-size="15.00">bands</text>
</g>
<!-- /test/bands_test.dart&#45;&gt;/lib/bands.dart -->
<g id="edge6" class="edge">
<title>/test/bands_test.dart&#45;&gt;/lib/bands.dart</title>
<path fill="none" stroke="#aabbaa" stroke-width="1.3" stroke-opacity="0.533333" d="M627.99,-287.7C617.77,-279.28 605.31,-269.02 594.1,-259.79"/>
<polygon fill="#aabbaa" fill-opacity="0.533333" stroke="#aabbaa" stroke-width="1.3" stroke-opacity="0.533333" points="596.53,-257.25 586.58,-253.6 592.08,-262.66 596.53,-257.25"/>
</g>
<!-- /test/histogram_test.dart -->
<g id="node3" class="node">
<title>/test/histogram_test.dart</title>
<path fill="Lavender" stroke="black" stroke-width="1.3" d="M754.5,-108C754.5,-108 663.5,-108 663.5,-108 657.5,-108 651.5,-102 651.5,-96 651.5,-96 651.5,-84 651.5,-84 651.5,-78 657.5,-72 663.5,-72 663.5,-72 754.5,-72 754.5,-72 760.5,-72 766.5,-78 766.5,-84 766.5,-84 766.5,-96 766.5,-96 766.5,-102 760.5,-108 754.5,-108"/>
<text text-anchor="middle" x="709" y="-84.75" font-family="Arial" font-size="15.00">histogram_test</text>
</g>
<!-- /test/histogram_test.dart&#45;&gt;/lib/matrix.dart -->
<g id="edge7" class="edge">
<title>/test/histogram_test.dart&#45;&gt;/lib/matrix.dart</title>
<path fill="none" stroke="#aabbaa" stroke-width="1.3" stroke-opacity="0.533333" d="M665.29,-71.52C637.3,-60.32 601.25,-45.9 574.01,-35"/>
<polygon fill="#aabbaa" fill-opacity="0.533333" stroke="#aabbaa" stroke-width="1.3" stroke-opacity="0.533333" points="575.34,-31.77 564.75,-31.3 572.74,-38.26 575.34,-31.77"/>
</g>
<!-- /test/regions_test.dart -->
<g id="node4" class="node">
<title>/test/regions_test.dart</title>
<path fill="Lavender" stroke="black" stroke-width="1.3" d="M869.88,-108C869.88,-108 796.12,-108 796.12,-108 790.12,-108 784.12,-102 784.12,-96 784.12,-96 784.12,-84 784.12,-84 784.12,-78 790.12,-72 796.12,-72 796.12,-72 869.88,-72 869.88,-72 875.88,-72 881.88,-78 881.88,-84 881.88,-84 881.88,-96 881.88,-96 881.88,-102 875.88,-108 869.88,-108"/>
<text text-anchor="middle" x="833" y="-84.75" font-family="Arial" font-size="15.00">regions_test</text>
</g>
<!-- /test/regions_test.dart&#45;&gt;/lib/matrix.dart -->
<g id="edge8" class="edge">
<title>/test/regions_test.dart&#45;&gt;/lib/matrix.dart</title>
<path fill="none" stroke="#aabbaa" stroke-width="1.3" stroke-opacity="0.533333" d="M783.63,-74.03C781.05,-73.33 778.5,-72.65 776,-72 705.55,-53.81 622.54,-36.52 574.33,-26.88"/>
<polygon fill="#aabbaa" fill-opacity="0.533333" stroke="#aabbaa" stroke-width="1.3" stroke-opacity="0.533333" points="575.27,-23.5 564.78,-24.98 573.9,-30.36 575.27,-23.5"/>
</g>
<!-- /test/steps_test.dart -->
<g id="node5" class="node">
<title>/test/steps_test.dart</title>
<path fill="Lavender" stroke="black" stroke-width="1.3" d="M594.5,-396C594.5,-396 533.5,-396 533.5,-396 527.5,-396 521.5,-390 521.5,-384 521.5,-384 521.5,-372 521.5,-372 521.5,-366 527.5,-360 533.5,-360 533.5,-360 594.5,-360 594.5,-360 600.5,-360 606.5,-366 606.5,-372 606.5,-372 606.5,-384 606.5,-384 606.5,-390 600.5,-396 594.5,-396"/>
<text text-anchor="middle" x="564" y="-372.75" font-family="Arial" font-size="15.00">steps_test</text>
</g>
<!-- /test/steps_test.dart&#45;&gt;/lib/textify.dart -->
<g id="edge11" class="edge">
<title>/test/steps_test.dart&#45;&gt;/lib/textify.dart</title>
<path fill="none" stroke="#aabbaa" stroke-width="1.3" stroke-opacity="0.533333" d="M526.79,-359.52C504.56,-349.08 476.38,-335.83 453.87,-325.26"/>
<polygon fill="#aabbaa" fill-opacity="0.533333" stroke="#aabbaa" stroke-width="1.3" stroke-opacity="0.533333" points="455.64,-322.23 445.11,-321.14 452.67,-328.56 455.64,-322.23"/>
</g>
<!-- /test/steps_test.dart&#45;&gt;/lib/matrix.dart -->
<g id="edge10" class="edge">
<title>/test/steps_test.dart&#45;&gt;/lib/matrix.dart</title>
<path fill="none" stroke="#aabbaa" stroke-width="1.3" stroke-opacity="0.533333" d="M606.77,-368.84C699.35,-349.95 910,-299.85 910,-235 910,-235 910,-235 910,-161 910,-120.55 920.49,-99.69 891,-72 845.99,-29.73 658.67,-21.13 574.86,-19.41"/>
<polygon fill="#aabbaa" fill-opacity="0.533333" stroke="#aabbaa" stroke-width="1.3" stroke-opacity="0.533333" points="575.06,-15.92 565,-19.24 574.94,-22.92 575.06,-15.92"/>
</g>
<!-- /test/steps_test.dart&#45;&gt;/lib/bands.dart -->
<g id="edge9" class="edge">
<title>/test/steps_test.dart&#45;&gt;/lib/bands.dart</title>
<path fill="none" stroke="#aabbaa" stroke-width="1.3" stroke-opacity="0.533333" d="M564,-359.59C564,-335.72 564,-292.53 564,-263.8"/>
<polygon fill="#aabbaa" fill-opacity="0.533333" stroke="#aabbaa" stroke-width="1.3" stroke-opacity="0.533333" points="567.5,-264.08 564,-254.08 560.5,-264.08 567.5,-264.08"/>
</g>
<!-- /lib/band.dart -->
<g id="node6" class="node">
<title>/lib/band.dart</title>
<path fill="Lavender" stroke="black" stroke-width="1.3" d="M579,-180C579,-180 549,-180 549,-180 543,-180 537,-174 537,-168 537,-168 537,-156 537,-156 537,-150 543,-144 549,-144 549,-144 579,-144 579,-144 585,-144 591,-150 591,-156 591,-156 591,-168 591,-168 591,-174 585,-180 579,-180"/>
<text text-anchor="middle" x="564" y="-156.75" font-family="Arial" font-size="15.00">band</text>
</g>
<!-- /lib/band.dart&#45;&gt;/lib/artifact.dart -->
<g id="edge12" class="edge">
<title>/lib/band.dart&#45;&gt;/lib/artifact.dart</title>
<path fill="none" stroke="#aabbaa" stroke-width="1.3" stroke-opacity="0.533333" d="M564,-143.7C564,-136.49 564,-127.93 564,-119.82"/>
<polygon fill="#aabbaa" fill-opacity="0.533333" stroke="#aabbaa" stroke-width="1.3" stroke-opacity="0.533333" points="567.5,-120.07 564,-110.07 560.5,-120.07 567.5,-120.07"/>
</g>
<!-- /lib/band.dart&#45;&gt;/lib/matrix.dart -->
<g id="edge13" class="edge">
<title>/lib/band.dart&#45;&gt;/lib/matrix.dart</title>
<path fill="none" stroke="#aabbaa" stroke-width="1.3" stroke-opacity="0.533333" d="M546.27,-143.6C537.76,-134 528.47,-121.34 524,-108 517.46,-88.47 520.36,-65.33 524.69,-47.54"/>
<polygon fill="#aabbaa" fill-opacity="0.533333" stroke="#aabbaa" stroke-width="1.3" stroke-opacity="0.533333" points="528.01,-48.66 527.29,-38.09 521.26,-46.8 528.01,-48.66"/>
</g>
<!-- /lib/artifact.dart&#45;&gt;/lib/matrix.dart -->
<g id="edge14" class="edge">
<title>/lib/artifact.dart&#45;&gt;/lib/matrix.dart</title>
<path fill="none" stroke="#aabbaa" stroke-width="1.3" stroke-opacity="0.533333" d="M556.58,-71.7C553.39,-64.24 549.57,-55.32 545.99,-46.97"/>
<polygon fill="#aabbaa" fill-opacity="0.533333" stroke="#aabbaa" stroke-width="1.3" stroke-opacity="0.533333" points="549.26,-45.73 542.11,-37.91 542.83,-48.48 549.26,-45.73"/>
</g>
<!-- /lib/score_match.dart -->
<g id="node8" class="node">
<title>/lib/score_match.dart</title>
<path fill="Lavender" stroke="black" stroke-width="1.3" d="M256.12,-252C256.12,-252 177.88,-252 177.88,-252 171.88,-252 165.88,-246 165.88,-240 165.88,-240 165.88,-228 165.88,-228 165.88,-222 171.88,-216 177.88,-216 177.88,-216 256.12,-216 256.12,-216 262.12,-216 268.12,-222 268.12,-228 268.12,-228 268.12,-240 268.12,-240 268.12,-246 262.12,-252 256.12,-252"/>
<text text-anchor="middle" x="217" y="-228.75" font-family="Arial" font-size="15.00">score_match</text>
</g>
<!-- /lib/character_definition.dart&#45;&gt;/lib/matrix.dart -->
<g id="edge15" class="edge">
<title>/lib/character_definition.dart&#45;&gt;/lib/matrix.dart</title>
<path fill="none" stroke="#aabbaa" stroke-width="1.3" stroke-opacity="0.533333" d="M341.49,-143.68C357.38,-124.2 385.38,-92.61 415,-72 439.25,-55.13 469.74,-41.67 493.78,-32.54"/>
<polygon fill="#aabbaa" fill-opacity="0.533333" stroke="#aabbaa" stroke-width="1.3" stroke-opacity="0.533333" points="494.99,-35.83 503.16,-29.09 492.57,-29.26 494.99,-35.83"/>
</g>
<!-- /lib/textify.dart&#45;&gt;/lib/artifact.dart -->
<g id="edge16" class="edge">
<title>/lib/textify.dart&#45;&gt;/lib/artifact.dart</title>
<path fill="none" stroke="#aabbaa" stroke-width="1.3" stroke-opacity="0.533333" d="M443.16,-287.53C456.31,-278.26 471.38,-265.91 482,-252 513.66,-210.53 503,-189.79 528,-144 532.8,-135.21 538.67,-126.05 544.27,-117.87"/>
<polygon fill="#aabbaa" fill-opacity="0.533333" stroke="#aabbaa" stroke-width="1.3" stroke-opacity="0.533333" points="547.1,-119.93 549.99,-109.74 541.37,-115.91 547.1,-119.93"/>
</g>
<!-- /lib/textify.dart&#45;&gt;/lib/score_match.dart -->
<g id="edge21" class="edge">
<title>/lib/textify.dart&#45;&gt;/lib/score_match.dart</title>
<path fill="none" stroke="#aabbaa" stroke-width="1.3" stroke-opacity="0.533333" d="M386.63,-294.97C358.24,-284.93 313.67,-269.18 277.34,-256.33"/>
<polygon fill="#aabbaa" fill-opacity="0.533333" stroke="#aabbaa" stroke-width="1.3" stroke-opacity="0.533333" points="278.81,-253.14 268.21,-253.11 276.48,-259.74 278.81,-253.14"/>
</g>
<!-- /lib/textify.dart&#45;&gt;/lib/matrix.dart -->
<g id="edge20" class="edge">
<title>/lib/textify.dart&#45;&gt;/lib/matrix.dart</title>
<path fill="none" stroke="#aabbaa" stroke-width="1.3" stroke-opacity="0.533333" d="M427.34,-287.9C434.29,-277.79 442.79,-264.54 449,-252 458.42,-233 503.67,-105.28 524.03,-47.41"/>
<polygon fill="#aabbaa" fill-opacity="0.533333" stroke="#aabbaa" stroke-width="1.3" stroke-opacity="0.533333" points="527.31,-48.63 527.33,-38.04 520.71,-46.31 527.31,-48.63"/>
</g>
<!-- /lib/character_definitions.dart -->
<g id="node12" class="node">
<title>/lib/character_definitions.dart</title>
<path fill="Lavender" stroke="black" stroke-width="1.3" d="M428,-252C428,-252 298,-252 298,-252 292,-252 286,-246 286,-240 286,-240 286,-228 286,-228 286,-222 292,-216 298,-216 298,-216 428,-216 428,-216 434,-216 440,-222 440,-228 440,-228 440,-240 440,-240 440,-246 434,-252 428,-252"/>
<text text-anchor="middle" x="363" y="-228.75" font-family="Arial" font-size="15.00">character_definitions</text>
</g>
<!-- /lib/textify.dart&#45;&gt;/lib/character_definitions.dart -->
<g id="edge18" class="edge">
<title>/lib/textify.dart&#45;&gt;/lib/character_definitions.dart</title>
<path fill="none" stroke="#aabbaa" stroke-width="1.3" stroke-opacity="0.533333" d="M402.15,-287.7C396.29,-279.81 389.23,-270.3 382.72,-261.55"/>
<polygon fill="#aabbaa" fill-opacity="0.533333" stroke="#aabbaa" stroke-width="1.3" stroke-opacity="0.533333" points="385.65,-259.62 376.88,-253.68 380.03,-263.8 385.65,-259.62"/>
</g>
<!-- /lib/textify.dart&#45;&gt;/lib/correction.dart -->
<g id="edge19" class="edge">
<title>/lib/textify.dart&#45;&gt;/lib/correction.dart</title>
<path fill="none" stroke="#aabbaa" stroke-width="1.3" stroke-opacity="0.533333" d="M386.69,-299.27C328.78,-287.56 196.01,-260.7 121.75,-245.67"/>
<polygon fill="#aabbaa" fill-opacity="0.533333" stroke="#aabbaa" stroke-width="1.3" stroke-opacity="0.533333" points="122.78,-242.31 112.28,-243.76 121.39,-249.17 122.78,-242.31"/>
</g>
<!-- /lib/textify.dart&#45;&gt;/lib/bands.dart -->
<g id="edge17" class="edge">
<title>/lib/textify.dart&#45;&gt;/lib/bands.dart</title>
<path fill="none" stroke="#aabbaa" stroke-width="1.3" stroke-opacity="0.533333" d="M443.03,-291.83C466.11,-280.99 499.12,-265.48 524.82,-253.41"/>
<polygon fill="#aabbaa" fill-opacity="0.533333" stroke="#aabbaa" stroke-width="1.3" stroke-opacity="0.533333" points="526,-256.72 533.56,-249.3 523.02,-250.39 526,-256.72"/>
</g>
<!-- /lib/character_definitions.dart&#45;&gt;/lib/character_definition.dart -->
<g id="edge22" class="edge">
<title>/lib/character_definitions.dart&#45;&gt;/lib/character_definition.dart</title>
<path fill="none" stroke="#aabbaa" stroke-width="1.3" stroke-opacity="0.533333" d="M348.43,-215.7C343.93,-208.24 339.24,-199.32 335.36,-190.97"/>
<polygon fill="#aabbaa" fill-opacity="0.533333" stroke="#aabbaa" stroke-width="1.3" stroke-opacity="0.533333" points="338.62,-189.7 331.44,-181.91 332.2,-192.48 338.62,-189.7"/>
</g>
<!-- /lib/character_definitions.dart&#45;&gt;/lib/character_definition.dart -->
<g id="edge24" class="edge">
<title>/lib/character_definitions.dart&#45;&gt;/lib/character_definition.dart</title>
<path fill="none" stroke="#aabbaa" stroke-width="1.3" stroke-dasharray="5,2" stroke-opacity="0.533333" d="M360.26,-215.7C357.24,-208.07 352.89,-198.92 348.3,-190.4"/>
<polygon fill="#aabbaa" fill-opacity="0.533333" stroke="#aabbaa" stroke-width="1.3" stroke-opacity="0.533333" points="351.41,-188.77 343.42,-181.81 345.32,-192.24 351.41,-188.77"/>
</g>
<!-- /lib/character_definitions.dart&#45;&gt;/lib/matrix.dart -->
<g id="edge23" class="edge">
<title>/lib/character_definitions.dart&#45;&gt;/lib/matrix.dart</title>
<path fill="none" stroke="#aabbaa" stroke-width="1.3" stroke-opacity="0.533333" d="M381.22,-215.61C390.72,-205.82 402,-192.98 410,-180 437.1,-136.01 420.31,-112.01 453,-72 464.21,-58.28 479.92,-46.88 494.53,-38.2"/>
<polygon fill="#aabbaa" fill-opacity="0.533333" stroke="#aabbaa" stroke-width="1.3" stroke-opacity="0.533333" points="496.17,-41.29 503.17,-33.34 492.74,-35.19 496.17,-41.29"/>
</g>
<!-- /lib/english_words.dart -->
<g id="node14" class="node">
<title>/lib/english_words.dart</title>
<path fill="Lavender" stroke="black" stroke-width="1.3" d="M126.25,-180C126.25,-180 39.75,-180 39.75,-180 33.75,-180 27.75,-174 27.75,-168 27.75,-168 27.75,-156 27.75,-156 27.75,-150 33.75,-144 39.75,-144 39.75,-144 126.25,-144 126.25,-144 132.25,-144 138.25,-150 138.25,-156 138.25,-156 138.25,-168 138.25,-168 138.25,-174 132.25,-180 126.25,-180"/>
<text text-anchor="middle" x="83" y="-156.75" font-family="Arial" font-size="15.00">english_words</text>
</g>
<!-- /lib/correction.dart&#45;&gt;/lib/english_words.dart -->
<g id="edge25" class="edge">
<title>/lib/correction.dart&#45;&gt;/lib/english_words.dart</title>
<path fill="none" stroke="#aabbaa" stroke-width="1.3" stroke-opacity="0.533333" d="M72.46,-215.7C73.9,-208.49 75.61,-199.93 77.24,-191.82"/>
<polygon fill="#aabbaa" fill-opacity="0.533333" stroke="#aabbaa" stroke-width="1.3" stroke-opacity="0.533333" points="80.66,-192.53 79.19,-182.03 73.8,-191.15 80.66,-192.53"/>
</g>
<!-- /lib/bands.dart&#45;&gt;/lib/band.dart -->
<g id="edge26" class="edge">
<title>/lib/bands.dart&#45;&gt;/lib/band.dart</title>
<path fill="none" stroke="#aabbaa" stroke-width="1.3" stroke-opacity="0.533333" d="M558.08,-215.7C557.34,-208.49 557.09,-199.93 557.34,-191.82"/>
<polygon fill="#aabbaa" fill-opacity="0.533333" stroke="#aabbaa" stroke-width="1.3" stroke-opacity="0.533333" points="560.82,-192.27 557.98,-182.07 553.84,-191.82 560.82,-192.27"/>
</g>
<!-- /lib/bands.dart&#45;&gt;/lib/band.dart -->
<g id="edge28" class="edge">
<title>/lib/bands.dart&#45;&gt;/lib/band.dart</title>
<path fill="none" stroke="#aabbaa" stroke-width="1.3" stroke-dasharray="5,2" stroke-opacity="0.533333" d="M569.92,-215.7C570.66,-208.49 570.91,-199.93 570.66,-191.82"/>
<polygon fill="#aabbaa" fill-opacity="0.533333" stroke="#aabbaa" stroke-width="1.3" stroke-opacity="0.533333" points="574.16,-191.82 570.02,-182.07 567.18,-192.27 574.16,-191.82"/>
</g>
<!-- /lib/bands.dart&#45;&gt;/lib/matrix.dart -->
<g id="edge27" class="edge">
<title>/lib/bands.dart&#45;&gt;/lib/matrix.dart</title>
<path fill="none" stroke="#aabbaa" stroke-width="1.3" stroke-opacity="0.533333" d="M579.32,-215.68C587,-205.91 595.58,-193.07 600,-180 615.39,-134.5 625.38,-115.01 604,-72 597.2,-58.32 585,-47.23 572.66,-38.8"/>
<polygon fill="#aabbaa" fill-opacity="0.533333" stroke="#aabbaa" stroke-width="1.3" stroke-opacity="0.533333" points="574.83,-36.03 564.51,-33.66 571.1,-41.95 574.83,-36.03"/>
</g>
</g>
</svg>
