<?xml version="1.0" encoding="UTF-8" standalone="no"?>
<!DOCTYPE svg PUBLIC "-//W3C//DTD SVG 1.1//EN"
 "http://www.w3.org/Graphics/SVG/1.1/DTD/svg11.dtd">
<!-- Generated by graphviz version 12.2.1 (20241206.2353)
 -->
<!-- Pages: 1 -->
<svg width="1102pt" height="476pt"
 viewBox="0.00 0.00 1101.88 476.00" xmlns="http://www.w3.org/2000/svg" xmlns:xlink="http://www.w3.org/1999/xlink">
<g id="graph0" class="graph" transform="scale(1 1) rotate(0) translate(4 472)">
<polygon fill="white" stroke="none" points="-4,4 -4,-472 1097.88,-472 1097.88,4 -4,4"/>
<!-- /test/int_offset_test.dart -->
<g id="node1" class="node">
<title>/test/int_offset_test.dart</title>
<path fill="Lavender" stroke="black" stroke-width="1.3" d="M97.75,-108C97.75,-108 12,-108 12,-108 6,-108 0,-102 0,-96 0,-96 0,-84 0,-84 0,-78 6,-72 12,-72 12,-72 97.75,-72 97.75,-72 103.75,-72 109.75,-78 109.75,-84 109.75,-84 109.75,-96 109.75,-96 109.75,-102 103.75,-108 97.75,-108"/>
<text text-anchor="middle" x="54.88" y="-84.75" font-family="Arial" font-size="15.00">int_offset_test</text>
</g>
<!-- /lib/int_offset.dart -->
<g id="node17" class="node">
<title>/lib/int_offset.dart</title>
<path fill="Lavender" stroke="black" stroke-width="1.3" d="M405.25,-36C405.25,-36 352.5,-36 352.5,-36 346.5,-36 340.5,-30 340.5,-24 340.5,-24 340.5,-12 340.5,-12 340.5,-6 346.5,0 352.5,0 352.5,0 405.25,0 405.25,0 411.25,0 417.25,-6 417.25,-12 417.25,-12 417.25,-24 417.25,-24 417.25,-30 411.25,-36 405.25,-36"/>
<text text-anchor="middle" x="378.88" y="-12.75" font-family="Arial" font-size="15.00">int_offset</text>
</g>
<!-- /test/int_offset_test.dart&#45;&gt;/lib/int_offset.dart -->
<g id="edge1" class="edge">
<title>/test/int_offset_test.dart&#45;&gt;/lib/int_offset.dart</title>
<path fill="none" stroke="#aabbaa" stroke-width="1.3" stroke-opacity="0.533333" d="M110.19,-75.18C114.82,-74.08 119.42,-73.01 123.88,-72 194.85,-55.89 277.38,-39.08 328.88,-28.83"/>
<polygon fill="#aabbaa" fill-opacity="0.533333" stroke="#aabbaa" stroke-width="1.3" stroke-opacity="0.533333" points="329.27,-32.32 338.4,-26.94 327.91,-25.45 329.27,-32.32"/>
</g>
<!-- /test/int_rect_test.dart -->
<g id="node2" class="node">
<title>/test/int_rect_test.dart</title>
<path fill="Lavender" stroke="black" stroke-width="1.3" d="M603.12,-180C603.12,-180 528.62,-180 528.62,-180 522.62,-180 516.62,-174 516.62,-168 516.62,-168 516.62,-156 516.62,-156 516.62,-150 522.62,-144 528.62,-144 528.62,-144 603.12,-144 603.12,-144 609.12,-144 615.12,-150 615.12,-156 615.12,-156 615.12,-168 615.12,-168 615.12,-174 609.12,-180 603.12,-180"/>
<text text-anchor="middle" x="565.88" y="-156.75" font-family="Arial" font-size="15.00">int_rect_test</text>
</g>
<!-- /lib/int_rect.dart -->
<g id="node12" class="node">
<title>/lib/int_rect.dart</title>
<path fill="Lavender" stroke="black" stroke-width="1.3" d="M775.62,-108C775.62,-108 734.12,-108 734.12,-108 728.12,-108 722.12,-102 722.12,-96 722.12,-96 722.12,-84 722.12,-84 722.12,-78 728.12,-72 734.12,-72 734.12,-72 775.62,-72 775.62,-72 781.62,-72 787.62,-78 787.62,-84 787.62,-84 787.62,-96 787.62,-96 787.62,-102 781.62,-108 775.62,-108"/>
<text text-anchor="middle" x="754.88" y="-84.75" font-family="Arial" font-size="15.00">int_rect</text>
</g>
<!-- /test/int_rect_test.dart&#45;&gt;/lib/int_rect.dart -->
<g id="edge2" class="edge">
<title>/test/int_rect_test.dart&#45;&gt;/lib/int_rect.dart</title>
<path fill="none" stroke="#aabbaa" stroke-width="1.3" stroke-opacity="0.533333" d="M613.08,-143.52C643,-132.43 681.45,-118.19 710.76,-107.34"/>
<polygon fill="#aabbaa" fill-opacity="0.533333" stroke="#aabbaa" stroke-width="1.3" stroke-opacity="0.533333" points="711.9,-110.65 720.06,-103.89 709.47,-104.09 711.9,-110.65"/>
</g>
<!-- /test/textify_test.dart -->
<g id="node3" class="node">
<title>/test/textify_test.dart</title>
<path fill="Lavender" stroke="black" stroke-width="1.3" d="M325.25,-468C325.25,-468 260.5,-468 260.5,-468 254.5,-468 248.5,-462 248.5,-456 248.5,-456 248.5,-444 248.5,-444 248.5,-438 254.5,-432 260.5,-432 260.5,-432 325.25,-432 325.25,-432 331.25,-432 337.25,-438 337.25,-444 337.25,-444 337.25,-456 337.25,-456 337.25,-462 331.25,-468 325.25,-468"/>
<text text-anchor="middle" x="292.88" y="-444.75" font-family="Arial" font-size="15.00">textify_test</text>
</g>
<!-- /lib/artifact.dart -->
<g id="node9" class="node">
<title>/lib/artifact.dart</title>
<path fill="Lavender" stroke="black" stroke-width="1.3" d="M682.75,-180C682.75,-180 645,-180 645,-180 639,-180 633,-174 633,-168 633,-168 633,-156 633,-156 633,-150 639,-144 645,-144 645,-144 682.75,-144 682.75,-144 688.75,-144 694.75,-150 694.75,-156 694.75,-156 694.75,-168 694.75,-168 694.75,-174 688.75,-180 682.75,-180"/>
<text text-anchor="middle" x="663.88" y="-156.75" font-family="Arial" font-size="15.00">artifact</text>
</g>
<!-- /test/textify_test.dart&#45;&gt;/lib/artifact.dart -->
<g id="edge3" class="edge">
<title>/test/textify_test.dart&#45;&gt;/lib/artifact.dart</title>
<path fill="none" stroke="#aabbaa" stroke-width="1.3" stroke-opacity="0.533333" d="M279.11,-431.55C247.29,-388.99 175.59,-278.8 232.88,-216 289.38,-154.05 520.21,-197.61 621.11,-179.8"/>
<polygon fill="#aabbaa" fill-opacity="0.533333" stroke="#aabbaa" stroke-width="1.3" stroke-opacity="0.533333" points="621.78,-183.23 630.83,-177.72 620.32,-176.39 621.78,-183.23"/>
</g>
<!-- /lib/character_definition.dart -->
<g id="node11" class="node">
<title>/lib/character_definition.dart</title>
<path fill="Lavender" stroke="black" stroke-width="1.3" d="M505.12,-252C505.12,-252 382.62,-252 382.62,-252 376.62,-252 370.62,-246 370.62,-240 370.62,-240 370.62,-228 370.62,-228 370.62,-222 376.62,-216 382.62,-216 382.62,-216 505.12,-216 505.12,-216 511.12,-216 517.12,-222 517.12,-228 517.12,-228 517.12,-240 517.12,-240 517.12,-246 511.12,-252 505.12,-252"/>
<text text-anchor="middle" x="443.88" y="-228.75" font-family="Arial" font-size="15.00">character_definition</text>
</g>
<!-- /test/textify_test.dart&#45;&gt;/lib/character_definition.dart -->
<g id="edge4" class="edge">
<title>/test/textify_test.dart&#45;&gt;/lib/character_definition.dart</title>
<path fill="none" stroke="#aabbaa" stroke-width="1.3" stroke-opacity="0.533333" d="M286.73,-431.55C276.73,-399.72 260.96,-331.52 291.88,-288 300.59,-275.73 328.89,-264.4 358.75,-255.39"/>
<polygon fill="#aabbaa" fill-opacity="0.533333" stroke="#aabbaa" stroke-width="1.3" stroke-opacity="0.533333" points="359.72,-258.75 368.34,-252.6 357.76,-252.03 359.72,-258.75"/>
</g>
<!-- /lib/textify.dart -->
<g id="node13" class="node">
<title>/lib/textify.dart</title>
<path fill="Lavender" stroke="black" stroke-width="1.3" d="M648.75,-396C648.75,-396 617,-396 617,-396 611,-396 605,-390 605,-384 605,-384 605,-372 605,-372 605,-366 611,-360 617,-360 617,-360 648.75,-360 648.75,-360 654.75,-360 660.75,-366 660.75,-372 660.75,-372 660.75,-384 660.75,-384 660.75,-390 654.75,-396 648.75,-396"/>
<text text-anchor="middle" x="632.88" y="-372.75" font-family="Arial" font-size="15.00">textify</text>
</g>
<!-- /test/textify_test.dart&#45;&gt;/lib/textify.dart -->
<g id="edge6" class="edge">
<title>/test/textify_test.dart&#45;&gt;/lib/textify.dart</title>
<path fill="none" stroke="#aabbaa" stroke-width="1.3" stroke-opacity="0.533333" d="M337.67,-439.78C404.59,-426 529.58,-400.27 593.31,-387.15"/>
<polygon fill="#aabbaa" fill-opacity="0.533333" stroke="#aabbaa" stroke-width="1.3" stroke-opacity="0.533333" points="593.82,-390.61 602.91,-385.17 592.41,-383.76 593.82,-390.61"/>
</g>
<!-- /lib/correction.dart -->
<g id="node15" class="node">
<title>/lib/correction.dart</title>
<path fill="Lavender" stroke="black" stroke-width="1.3" d="M370.88,-324C370.88,-324 312.88,-324 312.88,-324 306.88,-324 300.88,-318 300.88,-312 300.88,-312 300.88,-300 300.88,-300 300.88,-294 306.88,-288 312.88,-288 312.88,-288 370.88,-288 370.88,-288 376.88,-288 382.88,-294 382.88,-300 382.88,-300 382.88,-312 382.88,-312 382.88,-318 376.88,-324 370.88,-324"/>
<text text-anchor="middle" x="341.88" y="-300.75" font-family="Arial" font-size="15.00">correction</text>
</g>
<!-- /test/textify_test.dart&#45;&gt;/lib/correction.dart -->
<g id="edge5" class="edge">
<title>/test/textify_test.dart&#45;&gt;/lib/correction.dart</title>
<path fill="none" stroke="#aabbaa" stroke-width="1.3" stroke-opacity="0.533333" d="M298.88,-431.59C307.16,-407.61 322.16,-364.14 332.07,-335.42"/>
<polygon fill="#aabbaa" fill-opacity="0.533333" stroke="#aabbaa" stroke-width="1.3" stroke-opacity="0.533333" points="335.38,-336.57 335.33,-325.97 328.76,-334.28 335.38,-336.57"/>
</g>
<!-- /test/bands_test.dart -->
<g id="node4" class="node">
<title>/test/bands_test.dart</title>
<path fill="Lavender" stroke="black" stroke-width="1.3" d="M173.62,-396C173.62,-396 108.12,-396 108.12,-396 102.12,-396 96.12,-390 96.12,-384 96.12,-384 96.12,-372 96.12,-372 96.12,-366 102.12,-360 108.12,-360 108.12,-360 173.62,-360 173.62,-360 179.62,-360 185.62,-366 185.62,-372 185.62,-372 185.62,-384 185.62,-384 185.62,-390 179.62,-396 173.62,-396"/>
<text text-anchor="middle" x="140.88" y="-372.75" font-family="Arial" font-size="15.00">bands_test</text>
</g>
<!-- /test/bands_test.dart&#45;&gt;/lib/artifact.dart -->
<g id="edge7" class="edge">
<title>/test/bands_test.dart&#45;&gt;/lib/artifact.dart</title>
<path fill="none" stroke="#aabbaa" stroke-width="1.3" stroke-opacity="0.533333" d="M144.78,-359.57C153.63,-321.73 176.27,-234.02 199.88,-216 272.32,-160.69 513.76,-199.72 621.25,-179.83"/>
<polygon fill="#aabbaa" fill-opacity="0.533333" stroke="#aabbaa" stroke-width="1.3" stroke-opacity="0.533333" points="621.8,-183.29 630.83,-177.75 620.32,-176.45 621.8,-183.29"/>
</g>
<!-- /test/bands_test.dart&#45;&gt;/lib/int_offset.dart -->
<g id="edge9" class="edge">
<title>/test/bands_test.dart&#45;&gt;/lib/int_offset.dart</title>
<path fill="none" stroke="#aabbaa" stroke-width="1.3" stroke-opacity="0.533333" d="M140.27,-359.51C139.39,-332.72 137.88,-279.88 137.88,-235 137.88,-235 137.88,-235 137.88,-161 137.88,-73.32 257.76,-38.68 328.42,-25.88"/>
<polygon fill="#aabbaa" fill-opacity="0.533333" stroke="#aabbaa" stroke-width="1.3" stroke-opacity="0.533333" points="328.95,-29.34 338.21,-24.21 327.77,-22.44 328.95,-29.34"/>
</g>
<!-- /lib/bands.dart -->
<g id="node18" class="node">
<title>/lib/bands.dart</title>
<path fill="Lavender" stroke="black" stroke-width="1.3" d="M756.12,-324C756.12,-324 723.62,-324 723.62,-324 717.62,-324 711.62,-318 711.62,-312 711.62,-312 711.62,-300 711.62,-300 711.62,-294 717.62,-288 723.62,-288 723.62,-288 756.12,-288 756.12,-288 762.12,-288 768.12,-294 768.12,-300 768.12,-300 768.12,-312 768.12,-312 768.12,-318 762.12,-324 756.12,-324"/>
<text text-anchor="middle" x="739.88" y="-300.75" font-family="Arial" font-size="15.00">bands</text>
</g>
<!-- /test/bands_test.dart&#45;&gt;/lib/bands.dart -->
<g id="edge8" class="edge">
<title>/test/bands_test.dart&#45;&gt;/lib/bands.dart</title>
<path fill="none" stroke="#aabbaa" stroke-width="1.3" stroke-opacity="0.533333" d="M185.9,-371.74C298.68,-358.56 591.96,-324.29 699.55,-311.71"/>
<polygon fill="#aabbaa" fill-opacity="0.533333" stroke="#aabbaa" stroke-width="1.3" stroke-opacity="0.533333" points="699.66,-315.22 709.18,-310.59 698.84,-308.27 699.66,-315.22"/>
</g>
<!-- /test/histogram_test.dart -->
<g id="node5" class="node">
<title>/test/histogram_test.dart</title>
<path fill="Lavender" stroke="black" stroke-width="1.3" d="M752.38,-252C752.38,-252 661.38,-252 661.38,-252 655.38,-252 649.38,-246 649.38,-240 649.38,-240 649.38,-228 649.38,-228 649.38,-222 655.38,-216 661.38,-216 661.38,-216 752.38,-216 752.38,-216 758.38,-216 764.38,-222 764.38,-228 764.38,-228 764.38,-240 764.38,-240 764.38,-246 758.38,-252 752.38,-252"/>
<text text-anchor="middle" x="706.88" y="-228.75" font-family="Arial" font-size="15.00">histogram_test</text>
</g>
<!-- /test/histogram_test.dart&#45;&gt;/lib/artifact.dart -->
<g id="edge10" class="edge">
<title>/test/histogram_test.dart&#45;&gt;/lib/artifact.dart</title>
<path fill="none" stroke="#aabbaa" stroke-width="1.3" stroke-opacity="0.533333" d="M696.25,-215.7C691.51,-207.98 685.81,-198.71 680.53,-190.11"/>
<polygon fill="#aabbaa" fill-opacity="0.533333" stroke="#aabbaa" stroke-width="1.3" stroke-opacity="0.533333" points="683.63,-188.47 675.41,-181.78 677.66,-192.13 683.63,-188.47"/>
</g>
<!-- /test/regions_test.dart -->
<g id="node6" class="node">
<title>/test/regions_test.dart</title>
<path fill="Lavender" stroke="black" stroke-width="1.3" d="M867.75,-252C867.75,-252 794,-252 794,-252 788,-252 782,-246 782,-240 782,-240 782,-228 782,-228 782,-222 788,-216 794,-216 794,-216 867.75,-216 867.75,-216 873.75,-216 879.75,-222 879.75,-228 879.75,-228 879.75,-240 879.75,-240 879.75,-246 873.75,-252 867.75,-252"/>
<text text-anchor="middle" x="830.88" y="-228.75" font-family="Arial" font-size="15.00">regions_test</text>
</g>
<!-- /test/regions_test.dart&#45;&gt;/lib/artifact.dart -->
<g id="edge11" class="edge">
<title>/test/regions_test.dart&#45;&gt;/lib/artifact.dart</title>
<path fill="none" stroke="#aabbaa" stroke-width="1.3" stroke-opacity="0.533333" d="M789.16,-215.52C763.75,-204.86 731.37,-191.29 705.9,-180.62"/>
<polygon fill="#aabbaa" fill-opacity="0.533333" stroke="#aabbaa" stroke-width="1.3" stroke-opacity="0.533333" points="707.48,-177.48 696.91,-176.85 704.78,-183.94 707.48,-177.48"/>
</g>
<!-- /test/steps_test.dart -->
<g id="node7" class="node">
<title>/test/steps_test.dart</title>
<path fill="Lavender" stroke="black" stroke-width="1.3" d="M1007.38,-468C1007.38,-468 946.38,-468 946.38,-468 940.38,-468 934.38,-462 934.38,-456 934.38,-456 934.38,-444 934.38,-444 934.38,-438 940.38,-432 946.38,-432 946.38,-432 1007.38,-432 1007.38,-432 1013.38,-432 1019.38,-438 1019.38,-444 1019.38,-444 1019.38,-456 1019.38,-456 1019.38,-462 1013.38,-468 1007.38,-468"/>
<text text-anchor="middle" x="976.88" y="-444.75" font-family="Arial" font-size="15.00">steps_test</text>
</g>
<!-- /test/steps_test.dart&#45;&gt;/lib/artifact.dart -->
<g id="edge12" class="edge">
<title>/test/steps_test.dart&#45;&gt;/lib/artifact.dart</title>
<path fill="none" stroke="#aabbaa" stroke-width="1.3" stroke-opacity="0.533333" d="M982,-431.68C993.48,-388.97 1016.12,-277.56 960.88,-216 927.7,-179.03 780.62,-167.75 706.65,-164.38"/>
<polygon fill="#aabbaa" fill-opacity="0.533333" stroke="#aabbaa" stroke-width="1.3" stroke-opacity="0.533333" points="707.12,-160.9 696.98,-163.98 706.82,-167.89 707.12,-160.9"/>
</g>
<!-- /test/steps_test.dart&#45;&gt;/lib/int_rect.dart -->
<g id="edge14" class="edge">
<title>/test/steps_test.dart&#45;&gt;/lib/int_rect.dart</title>
<path fill="none" stroke="#aabbaa" stroke-width="1.3" stroke-opacity="0.533333" d="M1005.5,-431.53C1040.13,-407.94 1093.88,-362.42 1093.88,-307 1093.88,-307 1093.88,-307 1093.88,-233 1093.88,-106.9 891.85,-90.87 799.71,-90.11"/>
<polygon fill="#aabbaa" fill-opacity="0.533333" stroke="#aabbaa" stroke-width="1.3" stroke-opacity="0.533333" points="799.97,-86.61 789.96,-90.1 799.96,-93.61 799.97,-86.61"/>
</g>
<!-- /test/steps_test.dart&#45;&gt;/lib/textify.dart -->
<g id="edge15" class="edge">
<title>/test/steps_test.dart&#45;&gt;/lib/textify.dart</title>
<path fill="none" stroke="#aabbaa" stroke-width="1.3" stroke-opacity="0.533333" d="M934,-440.28C866.69,-426.58 737.2,-400.23 672.17,-387"/>
<polygon fill="#aabbaa" fill-opacity="0.533333" stroke="#aabbaa" stroke-width="1.3" stroke-opacity="0.533333" points="673.23,-383.64 662.73,-385.08 671.83,-390.5 673.23,-383.64"/>
</g>
<!-- /test/steps_test.dart&#45;&gt;/lib/bands.dart -->
<g id="edge13" class="edge">
<title>/test/steps_test.dart&#45;&gt;/lib/bands.dart</title>
<path fill="none" stroke="#aabbaa" stroke-width="1.3" stroke-opacity="0.533333" d="M947.81,-431.59C905.3,-406.11 826.05,-358.63 778.62,-330.21"/>
<polygon fill="#aabbaa" fill-opacity="0.533333" stroke="#aabbaa" stroke-width="1.3" stroke-opacity="0.533333" points="780.5,-327.26 770.12,-325.12 776.9,-333.26 780.5,-327.26"/>
</g>
<!-- /lib/band.dart -->
<g id="node8" class="node">
<title>/lib/band.dart</title>
<path fill="Lavender" stroke="black" stroke-width="1.3" d="M939.88,-252C939.88,-252 909.88,-252 909.88,-252 903.88,-252 897.88,-246 897.88,-240 897.88,-240 897.88,-228 897.88,-228 897.88,-222 903.88,-216 909.88,-216 909.88,-216 939.88,-216 939.88,-216 945.88,-216 951.88,-222 951.88,-228 951.88,-228 951.88,-240 951.88,-240 951.88,-246 945.88,-252 939.88,-252"/>
<text text-anchor="middle" x="924.88" y="-228.75" font-family="Arial" font-size="15.00">band</text>
</g>
<!-- /lib/band.dart&#45;&gt;/lib/artifact.dart -->
<g id="edge16" class="edge">
<title>/lib/band.dart&#45;&gt;/lib/artifact.dart</title>
<path fill="none" stroke="#aabbaa" stroke-width="1.3" stroke-opacity="0.533333" d="M897.61,-219.4C894.69,-218.16 891.75,-217 888.88,-216 826.97,-194.36 752.43,-178.75 706.6,-170.29"/>
<polygon fill="#aabbaa" fill-opacity="0.533333" stroke="#aabbaa" stroke-width="1.3" stroke-opacity="0.533333" points="707.43,-166.89 696.97,-168.55 706.18,-173.78 707.43,-166.89"/>
</g>
<!-- /lib/band.dart&#45;&gt;/lib/int_rect.dart -->
<g id="edge17" class="edge">
<title>/lib/band.dart&#45;&gt;/lib/int_rect.dart</title>
<path fill="none" stroke="#aabbaa" stroke-width="1.3" stroke-opacity="0.533333" d="M904.03,-215.59C874.12,-190.61 818.89,-144.47 784.68,-115.89"/>
<polygon fill="#aabbaa" fill-opacity="0.533333" stroke="#aabbaa" stroke-width="1.3" stroke-opacity="0.533333" points="787.05,-113.32 777.13,-109.59 782.57,-118.69 787.05,-113.32"/>
</g>
<!-- /lib/artifact.dart&#45;&gt;/lib/int_rect.dart -->
<g id="edge18" class="edge">
<title>/lib/artifact.dart&#45;&gt;/lib/int_rect.dart</title>
<path fill="none" stroke="#aabbaa" stroke-width="1.3" stroke-opacity="0.533333" d="M686.37,-143.7C697.42,-135.2 710.92,-124.81 723.01,-115.51"/>
<polygon fill="#aabbaa" fill-opacity="0.533333" stroke="#aabbaa" stroke-width="1.3" stroke-opacity="0.533333" points="724.97,-118.42 730.76,-109.55 720.7,-112.87 724.97,-118.42"/>
</g>
<!-- /lib/score_match.dart -->
<g id="node10" class="node">
<title>/lib/score_match.dart</title>
<path fill="Lavender" stroke="black" stroke-width="1.3" d="M876,-324C876,-324 797.75,-324 797.75,-324 791.75,-324 785.75,-318 785.75,-312 785.75,-312 785.75,-300 785.75,-300 785.75,-294 791.75,-288 797.75,-288 797.75,-288 876,-288 876,-288 882,-288 888,-294 888,-300 888,-300 888,-312 888,-312 888,-318 882,-324 876,-324"/>
<text text-anchor="middle" x="836.88" y="-300.75" font-family="Arial" font-size="15.00">score_match</text>
</g>
<!-- /lib/character_definition.dart&#45;&gt;/lib/artifact.dart -->
<g id="edge19" class="edge">
<title>/lib/character_definition.dart&#45;&gt;/lib/artifact.dart</title>
<path fill="none" stroke="#aabbaa" stroke-width="1.3" stroke-opacity="0.533333" d="M509.87,-215.54C541.36,-206.75 579.71,-195.4 621.33,-180.72"/>
<polygon fill="#aabbaa" fill-opacity="0.533333" stroke="#aabbaa" stroke-width="1.3" stroke-opacity="0.533333" points="622.48,-184.03 630.71,-177.37 620.12,-177.44 622.48,-184.03"/>
</g>
<!-- /lib/int_rect.dart&#45;&gt;/lib/int_offset.dart -->
<g id="edge20" class="edge">
<title>/lib/int_rect.dart&#45;&gt;/lib/int_offset.dart</title>
<path fill="none" stroke="#aabbaa" stroke-width="1.3" stroke-opacity="0.533333" d="M721.86,-83.57C655.77,-71.91 507.33,-44.34 429.12,-29.27"/>
<polygon fill="#aabbaa" fill-opacity="0.533333" stroke="#aabbaa" stroke-width="1.3" stroke-opacity="0.533333" points="430.07,-25.89 419.58,-27.43 428.74,-32.77 430.07,-25.89"/>
</g>
<!-- /lib/int_rect.dart&#45;&gt;/lib/int_offset.dart -->
<g id="edge21" class="edge">
<title>/lib/int_rect.dart&#45;&gt;/lib/int_offset.dart</title>
<path fill="none" stroke="#aabbaa" stroke-width="1.3" stroke-dasharray="5,2" stroke-opacity="0.533333" d="M721.69,-82.03C655.48,-69.11 507.07,-41.46 428.97,-27.47"/>
<polygon fill="#aabbaa" fill-opacity="0.533333" stroke="#aabbaa" stroke-width="1.3" stroke-opacity="0.533333" points="429.91,-24.08 419.45,-25.78 428.68,-30.98 429.91,-24.08"/>
</g>
<!-- /lib/textify.dart&#45;&gt;/lib/artifact.dart -->
<g id="edge22" class="edge">
<title>/lib/textify.dart&#45;&gt;/lib/artifact.dart</title>
<path fill="none" stroke="#aabbaa" stroke-width="1.3" stroke-opacity="0.533333" d="M629.47,-359.65C624.28,-329.67 616.43,-266.53 630.88,-216 633.44,-207.01 638.03,-198.07 642.97,-190.16"/>
<polygon fill="#aabbaa" fill-opacity="0.533333" stroke="#aabbaa" stroke-width="1.3" stroke-opacity="0.533333" points="645.74,-192.31 648.45,-182.06 639.94,-188.39 645.74,-192.31"/>
</g>
<!-- /lib/textify.dart&#45;&gt;/lib/score_match.dart -->
<g id="edge27" class="edge">
<title>/lib/textify.dart&#45;&gt;/lib/score_match.dart</title>
<path fill="none" stroke="#aabbaa" stroke-width="1.3" stroke-opacity="0.533333" d="M661.24,-367.27C690.54,-357.21 737.18,-341.21 775.04,-328.22"/>
<polygon fill="#aabbaa" fill-opacity="0.533333" stroke="#aabbaa" stroke-width="1.3" stroke-opacity="0.533333" points="775.79,-331.66 784.11,-325.11 773.52,-325.04 775.79,-331.66"/>
</g>
<!-- /lib/textify.dart&#45;&gt;/lib/int_rect.dart -->
<g id="edge26" class="edge">
<title>/lib/textify.dart&#45;&gt;/lib/int_rect.dart</title>
<path fill="none" stroke="#aabbaa" stroke-width="1.3" stroke-opacity="0.533333" d="M660.94,-375.98C710.84,-373.2 817.24,-362.8 896.88,-324 941.08,-302.46 960.33,-296.67 980.88,-252 1002.4,-205.21 979.51,-175.64 938.88,-144 898.47,-112.53 840.05,-99.75 799.94,-94.55"/>
<polygon fill="#aabbaa" fill-opacity="0.533333" stroke="#aabbaa" stroke-width="1.3" stroke-opacity="0.533333" points="800.42,-91.08 790.08,-93.4 799.6,-98.04 800.42,-91.08"/>
</g>
<!-- /lib/character_definitions.dart -->
<g id="node14" class="node">
<title>/lib/character_definitions.dart</title>
<path fill="Lavender" stroke="black" stroke-width="1.3" d="M542.88,-324C542.88,-324 412.88,-324 412.88,-324 406.88,-324 400.88,-318 400.88,-312 400.88,-312 400.88,-300 400.88,-300 400.88,-294 406.88,-288 412.88,-288 412.88,-288 542.88,-288 542.88,-288 548.88,-288 554.88,-294 554.88,-300 554.88,-300 554.88,-312 554.88,-312 554.88,-318 548.88,-324 542.88,-324"/>
<text text-anchor="middle" x="477.88" y="-300.75" font-family="Arial" font-size="15.00">character_definitions</text>
</g>
<!-- /lib/textify.dart&#45;&gt;/lib/character_definitions.dart -->
<g id="edge24" class="edge">
<title>/lib/textify.dart&#45;&gt;/lib/character_definitions.dart</title>
<path fill="none" stroke="#aabbaa" stroke-width="1.3" stroke-opacity="0.533333" d="M604.81,-364.32C583.2,-354.57 552.81,-340.84 527.17,-329.26"/>
<polygon fill="#aabbaa" fill-opacity="0.533333" stroke="#aabbaa" stroke-width="1.3" stroke-opacity="0.533333" points="528.87,-326.19 518.31,-325.26 525.99,-332.57 528.87,-326.19"/>
</g>
<!-- /lib/textify.dart&#45;&gt;/lib/correction.dart -->
<g id="edge25" class="edge">
<title>/lib/textify.dart&#45;&gt;/lib/correction.dart</title>
<path fill="none" stroke="#aabbaa" stroke-width="1.3" stroke-opacity="0.533333" d="M604.79,-371.88C561.61,-363.78 476.14,-346.85 394.7,-324.63"/>
<polygon fill="#aabbaa" fill-opacity="0.533333" stroke="#aabbaa" stroke-width="1.3" stroke-opacity="0.533333" points="395.7,-321.28 385.13,-321.98 393.84,-328.02 395.7,-321.28"/>
</g>
<!-- /lib/textify.dart&#45;&gt;/lib/bands.dart -->
<g id="edge23" class="edge">
<title>/lib/textify.dart&#45;&gt;/lib/bands.dart</title>
<path fill="none" stroke="#aabbaa" stroke-width="1.3" stroke-opacity="0.533333" d="M659.6,-359.52C672.98,-350.76 689.37,-340.04 703.84,-330.58"/>
<polygon fill="#aabbaa" fill-opacity="0.533333" stroke="#aabbaa" stroke-width="1.3" stroke-opacity="0.533333" points="705.39,-333.74 711.84,-325.34 701.56,-327.88 705.39,-333.74"/>
</g>
<!-- /lib/character_definitions.dart&#45;&gt;/lib/artifact.dart -->
<g id="edge28" class="edge">
<title>/lib/character_definitions.dart&#45;&gt;/lib/artifact.dart</title>
<path fill="none" stroke="#aabbaa" stroke-width="1.3" stroke-opacity="0.533333" d="M493.12,-287.53C510.3,-268.49 539.66,-237.82 568.88,-216 585.41,-203.64 605.15,-192.18 622.34,-183.09"/>
<polygon fill="#aabbaa" fill-opacity="0.533333" stroke="#aabbaa" stroke-width="1.3" stroke-opacity="0.533333" points="623.63,-186.36 630.91,-178.66 620.42,-180.14 623.63,-186.36"/>
</g>
<!-- /lib/character_definitions.dart&#45;&gt;/lib/character_definition.dart -->
<g id="edge29" class="edge">
<title>/lib/character_definitions.dart&#45;&gt;/lib/character_definition.dart</title>
<path fill="none" stroke="#aabbaa" stroke-width="1.3" stroke-opacity="0.533333" d="M463.55,-287.7C459.16,-280.24 454.59,-271.32 450.83,-262.97"/>
<polygon fill="#aabbaa" fill-opacity="0.533333" stroke="#aabbaa" stroke-width="1.3" stroke-opacity="0.533333" points="454.13,-261.79 447.05,-253.92 447.68,-264.5 454.13,-261.79"/>
</g>
<!-- /lib/character_definitions.dart&#45;&gt;/lib/character_definition.dart -->
<g id="edge30" class="edge">
<title>/lib/character_definitions.dart&#45;&gt;/lib/character_definition.dart</title>
<path fill="none" stroke="#aabbaa" stroke-width="1.3" stroke-dasharray="5,2" stroke-opacity="0.533333" d="M475.39,-287.7C472.47,-280.07 468.25,-270.92 463.79,-262.4"/>
<polygon fill="#aabbaa" fill-opacity="0.533333" stroke="#aabbaa" stroke-width="1.3" stroke-opacity="0.533333" points="466.94,-260.87 459.03,-253.82 460.82,-264.27 466.94,-260.87"/>
</g>
<!-- /lib/english_words.dart -->
<g id="node16" class="node">
<title>/lib/english_words.dart</title>
<path fill="Lavender" stroke="black" stroke-width="1.3" d="M340.12,-252C340.12,-252 253.62,-252 253.62,-252 247.62,-252 241.62,-246 241.62,-240 241.62,-240 241.62,-228 241.62,-228 241.62,-222 247.62,-216 253.62,-216 253.62,-216 340.12,-216 340.12,-216 346.12,-216 352.12,-222 352.12,-228 352.12,-228 352.12,-240 352.12,-240 352.12,-246 346.12,-252 340.12,-252"/>
<text text-anchor="middle" x="296.88" y="-228.75" font-family="Arial" font-size="15.00">english_words</text>
</g>
<!-- /lib/correction.dart&#45;&gt;/lib/english_words.dart -->
<g id="edge31" class="edge">
<title>/lib/correction.dart&#45;&gt;/lib/english_words.dart</title>
<path fill="none" stroke="#aabbaa" stroke-width="1.3" stroke-opacity="0.533333" d="M330.75,-287.7C325.79,-279.98 319.83,-270.71 314.3,-262.11"/>
<polygon fill="#aabbaa" fill-opacity="0.533333" stroke="#aabbaa" stroke-width="1.3" stroke-opacity="0.533333" points="317.29,-260.28 308.93,-253.76 311.4,-264.06 317.29,-260.28"/>
</g>
<!-- /lib/bands.dart&#45;&gt;/lib/band.dart -->
<g id="edge33" class="edge">
<title>/lib/bands.dart&#45;&gt;/lib/band.dart</title>
<path fill="none" stroke="#aabbaa" stroke-width="1.3" stroke-opacity="0.533333" d="M768.44,-287.78C816.72,-269.07 831.43,-271.13 879.88,-252 882.08,-251.13 884.35,-250.18 886.64,-249.2"/>
<polygon fill="#aabbaa" fill-opacity="0.533333" stroke="#aabbaa" stroke-width="1.3" stroke-opacity="0.533333" points="887.84,-252.49 895.59,-245.26 885.02,-246.09 887.84,-252.49"/>
</g>
<!-- /lib/bands.dart&#45;&gt;/lib/band.dart -->
<g id="edge35" class="edge">
<title>/lib/bands.dart&#45;&gt;/lib/band.dart</title>
<path fill="none" stroke="#aabbaa" stroke-width="1.3" stroke-dasharray="5,2" stroke-opacity="0.533333" d="M768.32,-295.38C774.17,-292.84 780.21,-290.2 785.88,-288 830.62,-270.6 846.62,-270.99 886.58,-256.31"/>
<polygon fill="#aabbaa" fill-opacity="0.533333" stroke="#aabbaa" stroke-width="1.3" stroke-opacity="0.533333" points="887.65,-259.65 895.75,-252.81 885.16,-253.1 887.65,-259.65"/>
</g>
<!-- /lib/bands.dart&#45;&gt;/lib/artifact.dart -->
<g id="edge32" class="edge">
<title>/lib/bands.dart&#45;&gt;/lib/artifact.dart</title>
<path fill="none" stroke="#aabbaa" stroke-width="1.3" stroke-opacity="0.533333" d="M711.21,-298.31C687.73,-291.16 656,-277.25 640.88,-252 629.62,-233.2 637.05,-208.97 646.36,-190.54"/>
<polygon fill="#aabbaa" fill-opacity="0.533333" stroke="#aabbaa" stroke-width="1.3" stroke-opacity="0.533333" points="649.36,-192.35 651.14,-181.9 643.24,-188.96 649.36,-192.35"/>
</g>
<!-- /lib/bands.dart&#45;&gt;/lib/int_rect.dart -->
<g id="edge34" class="edge">
<title>/lib/bands.dart&#45;&gt;/lib/int_rect.dart</title>
<path fill="none" stroke="#aabbaa" stroke-width="1.3" stroke-opacity="0.533333" d="M768.29,-291.13C771.15,-289.98 774.05,-288.91 776.88,-288 856.18,-262.43 907.91,-316.33 960.88,-252 1015.9,-185.17 874.62,-128.56 798.97,-104.03"/>
<polygon fill="#aabbaa" fill-opacity="0.533333" stroke="#aabbaa" stroke-width="1.3" stroke-opacity="0.533333" points="800.35,-100.8 789.76,-101.11 798.23,-107.47 800.35,-100.8"/>
</g>
</g>
</svg>
