<?xml version="1.0" encoding="UTF-8" standalone="no"?>
<!DOCTYPE svg PUBLIC "-//W3C//DTD SVG 1.1//EN"
 "http://www.w3.org/Graphics/SVG/1.1/DTD/svg11.dtd">
<!-- Generated by graphviz version 12.2.1 (20241206.2353)
 -->
<!-- Pages: 1 -->
<svg width="1013pt" height="476pt"
 viewBox="0.00 0.00 1012.55 476.00" xmlns="http://www.w3.org/2000/svg" xmlns:xlink="http://www.w3.org/1999/xlink">
<g id="graph0" class="graph" transform="scale(1 1) rotate(0) translate(4 472)">
<polygon fill="white" stroke="none" points="-4,4 -4,-472 1008.55,-472 1008.55,4 -4,4"/>
<!-- /test/textify_test.dart -->
<g id="node1" class="node">
<title>/test/textify_test.dart</title>
<path fill="Lavender" stroke="black" stroke-width="1.3" d="M151.92,-468C151.92,-468 87.17,-468 87.17,-468 81.17,-468 75.17,-462 75.17,-456 75.17,-456 75.17,-444 75.17,-444 75.17,-438 81.17,-432 87.17,-432 87.17,-432 151.92,-432 151.92,-432 157.92,-432 163.92,-438 163.92,-444 163.92,-444 163.92,-456 163.92,-456 163.92,-462 157.92,-468 151.92,-468"/>
<text text-anchor="middle" x="119.55" y="-444.75" font-family="Arial" font-size="15.00">textify_test</text>
</g>
<!-- /lib/artifact.dart -->
<g id="node7" class="node">
<title>/lib/artifact.dart</title>
<path fill="Lavender" stroke="black" stroke-width="1.3" d="M632.42,-180C632.42,-180 594.67,-180 594.67,-180 588.67,-180 582.67,-174 582.67,-168 582.67,-168 582.67,-156 582.67,-156 582.67,-150 588.67,-144 594.67,-144 594.67,-144 632.42,-144 632.42,-144 638.42,-144 644.42,-150 644.42,-156 644.42,-156 644.42,-168 644.42,-168 644.42,-174 638.42,-180 632.42,-180"/>
<text text-anchor="middle" x="613.55" y="-156.75" font-family="Arial" font-size="15.00">artifact</text>
</g>
<!-- /test/textify_test.dart&#45;&gt;/lib/artifact.dart -->
<g id="edge1" class="edge">
<title>/test/textify_test.dart&#45;&gt;/lib/artifact.dart</title>
<path fill="none" stroke="#aabbaa" stroke-width="1.3" stroke-opacity="0.533333" d="M100.71,-431.65C57.45,-389.81 -40.77,-281.93 19.55,-216 56.61,-175.48 440.2,-165.72 570.51,-163.57"/>
<polygon fill="#aabbaa" fill-opacity="0.533333" stroke="#aabbaa" stroke-width="1.3" stroke-opacity="0.533333" points="570.4,-167.07 580.34,-163.41 570.29,-160.07 570.4,-167.07"/>
</g>
<!-- /lib/character_definition.dart -->
<g id="node9" class="node">
<title>/lib/character_definition.dart</title>
<path fill="Lavender" stroke="black" stroke-width="1.3" d="M297.8,-252C297.8,-252 175.3,-252 175.3,-252 169.3,-252 163.3,-246 163.3,-240 163.3,-240 163.3,-228 163.3,-228 163.3,-222 169.3,-216 175.3,-216 175.3,-216 297.8,-216 297.8,-216 303.8,-216 309.8,-222 309.8,-228 309.8,-228 309.8,-240 309.8,-240 309.8,-246 303.8,-252 297.8,-252"/>
<text text-anchor="middle" x="236.55" y="-228.75" font-family="Arial" font-size="15.00">character_definition</text>
</g>
<!-- /test/textify_test.dart&#45;&gt;/lib/character_definition.dart -->
<g id="edge2" class="edge">
<title>/test/textify_test.dart&#45;&gt;/lib/character_definition.dart</title>
<path fill="none" stroke="#aabbaa" stroke-width="1.3" stroke-opacity="0.533333" d="M119.61,-431.85C120.53,-400.52 126.31,-333.09 157.55,-288 165.63,-276.33 177.19,-266.53 188.98,-258.65"/>
<polygon fill="#aabbaa" fill-opacity="0.533333" stroke="#aabbaa" stroke-width="1.3" stroke-opacity="0.533333" points="190.56,-261.78 197.2,-253.52 186.86,-255.84 190.56,-261.78"/>
</g>
<!-- /lib/textify.dart -->
<g id="node11" class="node">
<title>/lib/textify.dart</title>
<path fill="Lavender" stroke="black" stroke-width="1.3" d="M444.42,-396C444.42,-396 412.67,-396 412.67,-396 406.67,-396 400.67,-390 400.67,-384 400.67,-384 400.67,-372 400.67,-372 400.67,-366 406.67,-360 412.67,-360 412.67,-360 444.42,-360 444.42,-360 450.42,-360 456.42,-366 456.42,-372 456.42,-372 456.42,-384 456.42,-384 456.42,-390 450.42,-396 444.42,-396"/>
<text text-anchor="middle" x="428.55" y="-372.75" font-family="Arial" font-size="15.00">textify</text>
</g>
<!-- /test/textify_test.dart&#45;&gt;/lib/textify.dart -->
<g id="edge4" class="edge">
<title>/test/textify_test.dart&#45;&gt;/lib/textify.dart</title>
<path fill="none" stroke="#aabbaa" stroke-width="1.3" stroke-opacity="0.533333" d="M164.15,-438.9C224.53,-425.22 331.36,-401.02 389.01,-387.96"/>
<polygon fill="#aabbaa" fill-opacity="0.533333" stroke="#aabbaa" stroke-width="1.3" stroke-opacity="0.533333" points="389.63,-391.4 398.61,-385.78 388.08,-384.58 389.63,-391.4"/>
</g>
<!-- /lib/correction.dart -->
<g id="node13" class="node">
<title>/lib/correction.dart</title>
<path fill="Lavender" stroke="black" stroke-width="1.3" d="M98.55,-324C98.55,-324 40.55,-324 40.55,-324 34.55,-324 28.55,-318 28.55,-312 28.55,-312 28.55,-300 28.55,-300 28.55,-294 34.55,-288 40.55,-288 40.55,-288 98.55,-288 98.55,-288 104.55,-288 110.55,-294 110.55,-300 110.55,-300 110.55,-312 110.55,-312 110.55,-318 104.55,-324 98.55,-324"/>
<text text-anchor="middle" x="69.55" y="-300.75" font-family="Arial" font-size="15.00">correction</text>
</g>
<!-- /test/textify_test.dart&#45;&gt;/lib/correction.dart -->
<g id="edge3" class="edge">
<title>/test/textify_test.dart&#45;&gt;/lib/correction.dart</title>
<path fill="none" stroke="#aabbaa" stroke-width="1.3" stroke-opacity="0.533333" d="M113.42,-431.59C104.94,-407.5 89.53,-363.75 79.42,-335.03"/>
<polygon fill="#aabbaa" fill-opacity="0.533333" stroke="#aabbaa" stroke-width="1.3" stroke-opacity="0.533333" points="82.85,-334.24 76.23,-325.97 76.25,-336.56 82.85,-334.24"/>
</g>
<!-- /test/bands_test.dart -->
<g id="node2" class="node">
<title>/test/bands_test.dart</title>
<path fill="Lavender" stroke="black" stroke-width="1.3" d="M958.3,-396C958.3,-396 892.8,-396 892.8,-396 886.8,-396 880.8,-390 880.8,-384 880.8,-384 880.8,-372 880.8,-372 880.8,-366 886.8,-360 892.8,-360 892.8,-360 958.3,-360 958.3,-360 964.3,-360 970.3,-366 970.3,-372 970.3,-372 970.3,-384 970.3,-384 970.3,-390 964.3,-396 958.3,-396"/>
<text text-anchor="middle" x="925.55" y="-372.75" font-family="Arial" font-size="15.00">bands_test</text>
</g>
<!-- /test/bands_test.dart&#45;&gt;/lib/artifact.dart -->
<g id="edge5" class="edge">
<title>/test/bands_test.dart&#45;&gt;/lib/artifact.dart</title>
<path fill="none" stroke="#aabbaa" stroke-width="1.3" stroke-opacity="0.533333" d="M900.28,-359.67C844.78,-321.6 712.16,-230.64 648.63,-187.06"/>
<polygon fill="#aabbaa" fill-opacity="0.533333" stroke="#aabbaa" stroke-width="1.3" stroke-opacity="0.533333" points="650.9,-184.38 640.67,-181.61 646.94,-190.15 650.9,-184.38"/>
</g>
<!-- /lib/int_offset.dart -->
<g id="node15" class="node">
<title>/lib/int_offset.dart</title>
<path fill="Lavender" stroke="black" stroke-width="1.3" d="M954.92,-36C954.92,-36 902.17,-36 902.17,-36 896.17,-36 890.17,-30 890.17,-24 890.17,-24 890.17,-12 890.17,-12 890.17,-6 896.17,0 902.17,0 902.17,0 954.92,0 954.92,0 960.92,0 966.92,-6 966.92,-12 966.92,-12 966.92,-24 966.92,-24 966.92,-30 960.92,-36 954.92,-36"/>
<text text-anchor="middle" x="928.55" y="-12.75" font-family="Arial" font-size="15.00">int_offset</text>
</g>
<!-- /test/bands_test.dart&#45;&gt;/lib/int_offset.dart -->
<g id="edge7" class="edge">
<title>/test/bands_test.dart&#45;&gt;/lib/int_offset.dart</title>
<path fill="none" stroke="#aabbaa" stroke-width="1.3" stroke-opacity="0.533333" d="M942.69,-359.89C965.92,-334.8 1004.55,-285.5 1004.55,-235 1004.55,-235 1004.55,-235 1004.55,-161 1004.55,-116.23 974.81,-71.91 952.54,-44.99"/>
<polygon fill="#aabbaa" fill-opacity="0.533333" stroke="#aabbaa" stroke-width="1.3" stroke-opacity="0.533333" points="955.48,-43.04 946.32,-37.72 950.16,-47.59 955.48,-43.04"/>
</g>
<!-- /lib/bands.dart -->
<g id="node16" class="node">
<title>/lib/bands.dart</title>
<path fill="Lavender" stroke="black" stroke-width="1.3" d="M905.8,-324C905.8,-324 873.3,-324 873.3,-324 867.3,-324 861.3,-318 861.3,-312 861.3,-312 861.3,-300 861.3,-300 861.3,-294 867.3,-288 873.3,-288 873.3,-288 905.8,-288 905.8,-288 911.8,-288 917.8,-294 917.8,-300 917.8,-300 917.8,-312 917.8,-312 917.8,-318 911.8,-324 905.8,-324"/>
<text text-anchor="middle" x="889.55" y="-300.75" font-family="Arial" font-size="15.00">bands</text>
</g>
<!-- /test/bands_test.dart&#45;&gt;/lib/bands.dart -->
<g id="edge6" class="edge">
<title>/test/bands_test.dart&#45;&gt;/lib/bands.dart</title>
<path fill="none" stroke="#aabbaa" stroke-width="1.3" stroke-opacity="0.533333" d="M916.65,-359.7C912.77,-352.15 908.12,-343.12 903.78,-334.68"/>
<polygon fill="#aabbaa" fill-opacity="0.533333" stroke="#aabbaa" stroke-width="1.3" stroke-opacity="0.533333" points="906.93,-333.15 899.24,-325.85 900.7,-336.35 906.93,-333.15"/>
</g>
<!-- /test/histogram_test.dart -->
<g id="node3" class="node">
<title>/test/histogram_test.dart</title>
<path fill="Lavender" stroke="black" stroke-width="1.3" d="M507.05,-252C507.05,-252 416.05,-252 416.05,-252 410.05,-252 404.05,-246 404.05,-240 404.05,-240 404.05,-228 404.05,-228 404.05,-222 410.05,-216 416.05,-216 416.05,-216 507.05,-216 507.05,-216 513.05,-216 519.05,-222 519.05,-228 519.05,-228 519.05,-240 519.05,-240 519.05,-246 513.05,-252 507.05,-252"/>
<text text-anchor="middle" x="461.55" y="-228.75" font-family="Arial" font-size="15.00">histogram_test</text>
</g>
<!-- /test/histogram_test.dart&#45;&gt;/lib/artifact.dart -->
<g id="edge8" class="edge">
<title>/test/histogram_test.dart&#45;&gt;/lib/artifact.dart</title>
<path fill="none" stroke="#aabbaa" stroke-width="1.3" stroke-opacity="0.533333" d="M499.51,-215.52C521.43,-205.42 549.02,-192.71 571.58,-182.33"/>
<polygon fill="#aabbaa" fill-opacity="0.533333" stroke="#aabbaa" stroke-width="1.3" stroke-opacity="0.533333" points="572.8,-185.62 580.42,-178.26 569.87,-179.26 572.8,-185.62"/>
</g>
<!-- /test/regions_test.dart -->
<g id="node4" class="node">
<title>/test/regions_test.dart</title>
<path fill="Lavender" stroke="black" stroke-width="1.3" d="M622.42,-252C622.42,-252 548.67,-252 548.67,-252 542.67,-252 536.67,-246 536.67,-240 536.67,-240 536.67,-228 536.67,-228 536.67,-222 542.67,-216 548.67,-216 548.67,-216 622.42,-216 622.42,-216 628.42,-216 634.42,-222 634.42,-228 634.42,-228 634.42,-240 634.42,-240 634.42,-246 628.42,-252 622.42,-252"/>
<text text-anchor="middle" x="585.55" y="-228.75" font-family="Arial" font-size="15.00">regions_test</text>
</g>
<!-- /test/regions_test.dart&#45;&gt;/lib/artifact.dart -->
<g id="edge9" class="edge">
<title>/test/regions_test.dart&#45;&gt;/lib/artifact.dart</title>
<path fill="none" stroke="#aabbaa" stroke-width="1.3" stroke-opacity="0.533333" d="M592.47,-215.7C595.45,-208.24 599.02,-199.32 602.36,-190.97"/>
<polygon fill="#aabbaa" fill-opacity="0.533333" stroke="#aabbaa" stroke-width="1.3" stroke-opacity="0.533333" points="605.51,-192.52 605.97,-181.93 599.01,-189.92 605.51,-192.52"/>
</g>
<!-- /test/steps_test.dart -->
<g id="node5" class="node">
<title>/test/steps_test.dart</title>
<path fill="Lavender" stroke="black" stroke-width="1.3" d="M788.05,-468C788.05,-468 727.05,-468 727.05,-468 721.05,-468 715.05,-462 715.05,-456 715.05,-456 715.05,-444 715.05,-444 715.05,-438 721.05,-432 727.05,-432 727.05,-432 788.05,-432 788.05,-432 794.05,-432 800.05,-438 800.05,-444 800.05,-444 800.05,-456 800.05,-456 800.05,-462 794.05,-468 788.05,-468"/>
<text text-anchor="middle" x="757.55" y="-444.75" font-family="Arial" font-size="15.00">steps_test</text>
</g>
<!-- /test/steps_test.dart&#45;&gt;/lib/artifact.dart -->
<g id="edge10" class="edge">
<title>/test/steps_test.dart&#45;&gt;/lib/artifact.dart</title>
<path fill="none" stroke="#aabbaa" stroke-width="1.3" stroke-opacity="0.533333" d="M749.46,-431.58C731.27,-392.58 685.44,-295.48 643.55,-216 639.09,-207.55 634.04,-198.45 629.37,-190.23"/>
<polygon fill="#aabbaa" fill-opacity="0.533333" stroke="#aabbaa" stroke-width="1.3" stroke-opacity="0.533333" points="632.52,-188.69 624.52,-181.75 626.45,-192.17 632.52,-188.69"/>
</g>
<!-- /lib/int_rect.dart -->
<g id="node10" class="node">
<title>/lib/int_rect.dart</title>
<path fill="Lavender" stroke="black" stroke-width="1.3" d="M854.3,-108C854.3,-108 812.8,-108 812.8,-108 806.8,-108 800.8,-102 800.8,-96 800.8,-96 800.8,-84 800.8,-84 800.8,-78 806.8,-72 812.8,-72 812.8,-72 854.3,-72 854.3,-72 860.3,-72 866.3,-78 866.3,-84 866.3,-84 866.3,-96 866.3,-96 866.3,-102 860.3,-108 854.3,-108"/>
<text text-anchor="middle" x="833.55" y="-84.75" font-family="Arial" font-size="15.00">int_rect</text>
</g>
<!-- /test/steps_test.dart&#45;&gt;/lib/int_rect.dart -->
<g id="edge12" class="edge">
<title>/test/steps_test.dart&#45;&gt;/lib/int_rect.dart</title>
<path fill="none" stroke="#aabbaa" stroke-width="1.3" stroke-opacity="0.533333" d="M769.64,-431.53C786.37,-405.59 814.55,-354.82 814.55,-307 814.55,-307 814.55,-307 814.55,-233 814.55,-193.57 821.83,-148.52 827.38,-119.93"/>
<polygon fill="#aabbaa" fill-opacity="0.533333" stroke="#aabbaa" stroke-width="1.3" stroke-opacity="0.533333" points="830.77,-120.81 829.31,-110.32 823.91,-119.43 830.77,-120.81"/>
</g>
<!-- /test/steps_test.dart&#45;&gt;/lib/textify.dart -->
<g id="edge13" class="edge">
<title>/test/steps_test.dart&#45;&gt;/lib/textify.dart</title>
<path fill="none" stroke="#aabbaa" stroke-width="1.3" stroke-opacity="0.533333" d="M714.87,-439.92C650.81,-426.29 530.68,-400.73 468.35,-387.47"/>
<polygon fill="#aabbaa" fill-opacity="0.533333" stroke="#aabbaa" stroke-width="1.3" stroke-opacity="0.533333" points="469.12,-384.05 458.61,-385.4 467.66,-390.9 469.12,-384.05"/>
</g>
<!-- /test/steps_test.dart&#45;&gt;/lib/bands.dart -->
<g id="edge11" class="edge">
<title>/test/steps_test.dart&#45;&gt;/lib/bands.dart</title>
<path fill="none" stroke="#aabbaa" stroke-width="1.3" stroke-opacity="0.533333" d="M785.2,-431.53C799.09,-422 815.65,-409.42 828.55,-396 846.44,-377.36 862.76,-352.97 874.01,-334.44"/>
<polygon fill="#aabbaa" fill-opacity="0.533333" stroke="#aabbaa" stroke-width="1.3" stroke-opacity="0.533333" points="876.93,-336.37 879.02,-325.99 870.91,-332.81 876.93,-336.37"/>
</g>
<!-- /lib/band.dart -->
<g id="node6" class="node">
<title>/lib/band.dart</title>
<path fill="Lavender" stroke="black" stroke-width="1.3" d="M922.55,-252C922.55,-252 892.55,-252 892.55,-252 886.55,-252 880.55,-246 880.55,-240 880.55,-240 880.55,-228 880.55,-228 880.55,-222 886.55,-216 892.55,-216 892.55,-216 922.55,-216 922.55,-216 928.55,-216 934.55,-222 934.55,-228 934.55,-228 934.55,-240 934.55,-240 934.55,-246 928.55,-252 922.55,-252"/>
<text text-anchor="middle" x="907.55" y="-228.75" font-family="Arial" font-size="15.00">band</text>
</g>
<!-- /lib/band.dart&#45;&gt;/lib/artifact.dart -->
<g id="edge14" class="edge">
<title>/lib/band.dart&#45;&gt;/lib/artifact.dart</title>
<path fill="none" stroke="#aabbaa" stroke-width="1.3" stroke-opacity="0.533333" d="M880.15,-226.48C828.7,-214.23 717.3,-187.7 656.04,-173.12"/>
<polygon fill="#aabbaa" fill-opacity="0.533333" stroke="#aabbaa" stroke-width="1.3" stroke-opacity="0.533333" points="656.94,-169.73 646.4,-170.82 655.32,-176.54 656.94,-169.73"/>
</g>
<!-- /lib/band.dart&#45;&gt;/lib/int_rect.dart -->
<g id="edge16" class="edge">
<title>/lib/band.dart&#45;&gt;/lib/int_rect.dart</title>
<path fill="none" stroke="#aabbaa" stroke-width="1.3" stroke-opacity="0.533333" d="M900.31,-215.63C892.57,-197.46 879.62,-168.26 866.55,-144 861.97,-135.51 856.59,-126.51 851.51,-118.39"/>
<polygon fill="#aabbaa" fill-opacity="0.533333" stroke="#aabbaa" stroke-width="1.3" stroke-opacity="0.533333" points="854.49,-116.56 846.17,-110 848.59,-120.31 854.49,-116.56"/>
</g>
<!-- /lib/band.dart&#45;&gt;/lib/int_offset.dart -->
<g id="edge15" class="edge">
<title>/lib/band.dart&#45;&gt;/lib/int_offset.dart</title>
<path fill="none" stroke="#aabbaa" stroke-width="1.3" stroke-opacity="0.533333" d="M909.23,-215.85C912.82,-179.3 921.25,-93.4 925.69,-48.11"/>
<polygon fill="#aabbaa" fill-opacity="0.533333" stroke="#aabbaa" stroke-width="1.3" stroke-opacity="0.533333" points="929.17,-48.48 926.66,-38.19 922.2,-47.8 929.17,-48.48"/>
</g>
<!-- /lib/artifact.dart&#45;&gt;/lib/int_rect.dart -->
<g id="edge18" class="edge">
<title>/lib/artifact.dart&#45;&gt;/lib/int_rect.dart</title>
<path fill="none" stroke="#aabbaa" stroke-width="1.3" stroke-opacity="0.533333" d="M644.6,-151.12C682.36,-139.11 746.34,-118.75 789.26,-105.09"/>
<polygon fill="#aabbaa" fill-opacity="0.533333" stroke="#aabbaa" stroke-width="1.3" stroke-opacity="0.533333" points="790.15,-108.48 798.62,-102.11 788.03,-101.81 790.15,-108.48"/>
</g>
<!-- /lib/artifact.dart&#45;&gt;/lib/int_offset.dart -->
<g id="edge17" class="edge">
<title>/lib/artifact.dart&#45;&gt;/lib/int_offset.dart</title>
<path fill="none" stroke="#aabbaa" stroke-width="1.3" stroke-opacity="0.533333" d="M644.63,-144.34C679.82,-125.73 739.09,-95.2 791.55,-72 819.99,-59.42 852.43,-46.8 878.59,-37.03"/>
<polygon fill="#aabbaa" fill-opacity="0.533333" stroke="#aabbaa" stroke-width="1.3" stroke-opacity="0.533333" points="879.76,-40.33 887.92,-33.57 877.33,-33.77 879.76,-40.33"/>
</g>
<!-- /lib/score_match.dart -->
<g id="node8" class="node">
<title>/lib/score_match.dart</title>
<path fill="Lavender" stroke="black" stroke-width="1.3" d="M428.67,-324C428.67,-324 350.42,-324 350.42,-324 344.42,-324 338.42,-318 338.42,-312 338.42,-312 338.42,-300 338.42,-300 338.42,-294 344.42,-288 350.42,-288 350.42,-288 428.67,-288 428.67,-288 434.67,-288 440.67,-294 440.67,-300 440.67,-300 440.67,-312 440.67,-312 440.67,-318 434.67,-324 428.67,-324"/>
<text text-anchor="middle" x="389.55" y="-300.75" font-family="Arial" font-size="15.00">score_match</text>
</g>
<!-- /lib/character_definition.dart&#45;&gt;/lib/artifact.dart -->
<g id="edge19" class="edge">
<title>/lib/character_definition.dart&#45;&gt;/lib/artifact.dart</title>
<path fill="none" stroke="#aabbaa" stroke-width="1.3" stroke-opacity="0.533333" d="M310.11,-218.56C314.65,-217.69 319.16,-216.83 323.55,-216 411.16,-199.43 513.83,-180.87 570.49,-170.7"/>
<polygon fill="#aabbaa" fill-opacity="0.533333" stroke="#aabbaa" stroke-width="1.3" stroke-opacity="0.533333" points="571.04,-174.16 580.26,-168.95 569.8,-167.27 571.04,-174.16"/>
</g>
<!-- /lib/int_rect.dart&#45;&gt;/lib/int_offset.dart -->
<g id="edge20" class="edge">
<title>/lib/int_rect.dart&#45;&gt;/lib/int_offset.dart</title>
<path fill="none" stroke="#aabbaa" stroke-width="1.3" stroke-opacity="0.533333" d="M857.03,-71.7C868.68,-63.11 882.94,-52.61 895.65,-43.24"/>
<polygon fill="#aabbaa" fill-opacity="0.533333" stroke="#aabbaa" stroke-width="1.3" stroke-opacity="0.533333" points="897.45,-46.26 903.42,-37.51 893.29,-40.63 897.45,-46.26"/>
</g>
<!-- /lib/textify.dart&#45;&gt;/lib/artifact.dart -->
<g id="edge21" class="edge">
<title>/lib/textify.dart&#45;&gt;/lib/artifact.dart</title>
<path fill="none" stroke="#aabbaa" stroke-width="1.3" stroke-opacity="0.533333" d="M439.53,-359.65C449.83,-340.99 461.93,-310.9 449.55,-288 435.65,-262.3 408.44,-277.7 394.55,-252 386.94,-237.93 384.65,-228.57 394.55,-216 416.06,-188.66 513.38,-173.73 570.79,-167.16"/>
<polygon fill="#aabbaa" fill-opacity="0.533333" stroke="#aabbaa" stroke-width="1.3" stroke-opacity="0.533333" points="570.89,-170.67 580.44,-166.1 570.12,-163.71 570.89,-170.67"/>
</g>
<!-- /lib/textify.dart&#45;&gt;/lib/score_match.dart -->
<g id="edge26" class="edge">
<title>/lib/textify.dart&#45;&gt;/lib/score_match.dart</title>
<path fill="none" stroke="#aabbaa" stroke-width="1.3" stroke-opacity="0.533333" d="M418.91,-359.7C414.66,-352.07 409.56,-342.92 404.81,-334.4"/>
<polygon fill="#aabbaa" fill-opacity="0.533333" stroke="#aabbaa" stroke-width="1.3" stroke-opacity="0.533333" points="407.96,-332.86 400.03,-325.82 401.84,-336.26 407.96,-332.86"/>
</g>
<!-- /lib/textify.dart&#45;&gt;/lib/int_rect.dart -->
<g id="edge25" class="edge">
<title>/lib/textify.dart&#45;&gt;/lib/int_rect.dart</title>
<path fill="none" stroke="#aabbaa" stroke-width="1.3" stroke-opacity="0.533333" d="M456.66,-362.71C498.66,-340.9 579.71,-297.08 643.55,-252 705.25,-208.43 771.22,-149.35 806.9,-116.22"/>
<polygon fill="#aabbaa" fill-opacity="0.533333" stroke="#aabbaa" stroke-width="1.3" stroke-opacity="0.533333" points="808.93,-119.11 813.86,-109.72 804.16,-113.99 808.93,-119.11"/>
</g>
<!-- /lib/character_definitions.dart -->
<g id="node12" class="node">
<title>/lib/character_definitions.dart</title>
<path fill="Lavender" stroke="black" stroke-width="1.3" d="M308.55,-324C308.55,-324 178.55,-324 178.55,-324 172.55,-324 166.55,-318 166.55,-312 166.55,-312 166.55,-300 166.55,-300 166.55,-294 172.55,-288 178.55,-288 178.55,-288 308.55,-288 308.55,-288 314.55,-288 320.55,-294 320.55,-300 320.55,-300 320.55,-312 320.55,-312 320.55,-318 314.55,-324 308.55,-324"/>
<text text-anchor="middle" x="243.55" y="-300.75" font-family="Arial" font-size="15.00">character_definitions</text>
</g>
<!-- /lib/textify.dart&#45;&gt;/lib/character_definitions.dart -->
<g id="edge23" class="edge">
<title>/lib/textify.dart&#45;&gt;/lib/character_definitions.dart</title>
<path fill="none" stroke="#aabbaa" stroke-width="1.3" stroke-opacity="0.533333" d="M400.45,-366.37C374.02,-356.37 333.67,-341.1 300.51,-328.55"/>
<polygon fill="#aabbaa" fill-opacity="0.533333" stroke="#aabbaa" stroke-width="1.3" stroke-opacity="0.533333" points="302,-325.38 291.41,-325.11 299.52,-331.92 302,-325.38"/>
</g>
<!-- /lib/textify.dart&#45;&gt;/lib/correction.dart -->
<g id="edge24" class="edge">
<title>/lib/textify.dart&#45;&gt;/lib/correction.dart</title>
<path fill="none" stroke="#aabbaa" stroke-width="1.3" stroke-opacity="0.533333" d="M400.38,-371.51C340.4,-359.81 199.26,-332.29 122.13,-317.25"/>
<polygon fill="#aabbaa" fill-opacity="0.533333" stroke="#aabbaa" stroke-width="1.3" stroke-opacity="0.533333" points="123.19,-313.89 112.71,-315.42 121.85,-320.77 123.19,-313.89"/>
</g>
<!-- /lib/textify.dart&#45;&gt;/lib/bands.dart -->
<g id="edge22" class="edge">
<title>/lib/textify.dart&#45;&gt;/lib/bands.dart</title>
<path fill="none" stroke="#aabbaa" stroke-width="1.3" stroke-opacity="0.533333" d="M456.69,-372.73C535.28,-360.79 757.32,-327.08 849.09,-313.14"/>
<polygon fill="#aabbaa" fill-opacity="0.533333" stroke="#aabbaa" stroke-width="1.3" stroke-opacity="0.533333" points="849.58,-316.61 858.95,-311.65 848.53,-309.69 849.58,-316.61"/>
</g>
<!-- /lib/character_definitions.dart&#45;&gt;/lib/artifact.dart -->
<g id="edge27" class="edge">
<title>/lib/character_definitions.dart&#45;&gt;/lib/artifact.dart</title>
<path fill="none" stroke="#aabbaa" stroke-width="1.3" stroke-opacity="0.533333" d="M269.26,-287.6C283.92,-277.49 302.5,-264.35 318.55,-252 338.3,-236.8 339.13,-226.89 361.55,-216 430.05,-182.73 518.97,-170.27 570.8,-165.65"/>
<polygon fill="#aabbaa" fill-opacity="0.533333" stroke="#aabbaa" stroke-width="1.3" stroke-opacity="0.533333" points="570.88,-169.16 580.56,-164.85 570.3,-162.18 570.88,-169.16"/>
</g>
<!-- /lib/character_definitions.dart&#45;&gt;/lib/character_definition.dart -->
<g id="edge28" class="edge">
<title>/lib/character_definitions.dart&#45;&gt;/lib/character_definition.dart</title>
<path fill="none" stroke="#aabbaa" stroke-width="1.3" stroke-opacity="0.533333" d="M235.9,-287.7C234.44,-280.49 233.33,-271.93 232.77,-263.82"/>
<polygon fill="#aabbaa" fill-opacity="0.533333" stroke="#aabbaa" stroke-width="1.3" stroke-opacity="0.533333" points="236.28,-263.94 232.43,-254.07 229.28,-264.19 236.28,-263.94"/>
</g>
<!-- /lib/character_definitions.dart&#45;&gt;/lib/character_definition.dart -->
<g id="edge29" class="edge">
<title>/lib/character_definitions.dart&#45;&gt;/lib/character_definition.dart</title>
<path fill="none" stroke="#aabbaa" stroke-width="1.3" stroke-dasharray="5,2" stroke-opacity="0.533333" d="M247.73,-287.7C247.76,-280.49 247.15,-271.93 246.09,-263.82"/>
<polygon fill="#aabbaa" fill-opacity="0.533333" stroke="#aabbaa" stroke-width="1.3" stroke-opacity="0.533333" points="249.55,-263.34 244.47,-254.05 242.65,-264.48 249.55,-263.34"/>
</g>
<!-- /lib/english_words.dart -->
<g id="node14" class="node">
<title>/lib/english_words.dart</title>
<path fill="Lavender" stroke="black" stroke-width="1.3" d="M126.8,-252C126.8,-252 40.3,-252 40.3,-252 34.3,-252 28.3,-246 28.3,-240 28.3,-240 28.3,-228 28.3,-228 28.3,-222 34.3,-216 40.3,-216 40.3,-216 126.8,-216 126.8,-216 132.8,-216 138.8,-222 138.8,-228 138.8,-228 138.8,-240 138.8,-240 138.8,-246 132.8,-252 126.8,-252"/>
<text text-anchor="middle" x="83.55" y="-228.75" font-family="Arial" font-size="15.00">english_words</text>
</g>
<!-- /lib/correction.dart&#45;&gt;/lib/english_words.dart -->
<g id="edge30" class="edge">
<title>/lib/correction.dart&#45;&gt;/lib/english_words.dart</title>
<path fill="none" stroke="#aabbaa" stroke-width="1.3" stroke-opacity="0.533333" d="M73.01,-287.7C74.45,-280.49 76.16,-271.93 77.78,-263.82"/>
<polygon fill="#aabbaa" fill-opacity="0.533333" stroke="#aabbaa" stroke-width="1.3" stroke-opacity="0.533333" points="81.21,-264.53 79.74,-254.03 74.35,-263.15 81.21,-264.53"/>
</g>
<!-- /lib/bands.dart&#45;&gt;/lib/band.dart -->
<g id="edge32" class="edge">
<title>/lib/bands.dart&#45;&gt;/lib/band.dart</title>
<path fill="none" stroke="#aabbaa" stroke-width="1.3" stroke-opacity="0.533333" d="M888.08,-287.7C889.22,-280.32 891.24,-271.52 893.65,-263.25"/>
<polygon fill="#aabbaa" fill-opacity="0.533333" stroke="#aabbaa" stroke-width="1.3" stroke-opacity="0.533333" points="896.9,-264.57 896.65,-253.98 890.24,-262.41 896.9,-264.57"/>
</g>
<!-- /lib/bands.dart&#45;&gt;/lib/band.dart -->
<g id="edge35" class="edge">
<title>/lib/bands.dart&#45;&gt;/lib/band.dart</title>
<path fill="none" stroke="#aabbaa" stroke-width="1.3" stroke-dasharray="5,2" stroke-opacity="0.533333" d="M899.91,-287.7C902.51,-280.49 904.96,-271.93 906.79,-263.82"/>
<polygon fill="#aabbaa" fill-opacity="0.533333" stroke="#aabbaa" stroke-width="1.3" stroke-opacity="0.533333" points="910.22,-264.52 908.67,-254.04 903.35,-263.2 910.22,-264.52"/>
</g>
<!-- /lib/bands.dart&#45;&gt;/lib/artifact.dart -->
<g id="edge31" class="edge">
<title>/lib/bands.dart&#45;&gt;/lib/artifact.dart</title>
<path fill="none" stroke="#aabbaa" stroke-width="1.3" stroke-opacity="0.533333" d="M866.22,-287.64C839.66,-268.42 794.52,-237.33 752.55,-216 721.18,-200.06 683.84,-186.08 655.76,-176.48"/>
<polygon fill="#aabbaa" fill-opacity="0.533333" stroke="#aabbaa" stroke-width="1.3" stroke-opacity="0.533333" points="657.18,-173.27 646.58,-173.4 654.95,-179.9 657.18,-173.27"/>
</g>
<!-- /lib/bands.dart&#45;&gt;/lib/int_rect.dart -->
<g id="edge34" class="edge">
<title>/lib/bands.dart&#45;&gt;/lib/int_rect.dart</title>
<path fill="none" stroke="#aabbaa" stroke-width="1.3" stroke-opacity="0.533333" d="M883.29,-287.95C879.62,-277.62 875.03,-264.14 871.55,-252 858.39,-206.19 846.32,-152.11 839.46,-119.73"/>
<polygon fill="#aabbaa" fill-opacity="0.533333" stroke="#aabbaa" stroke-width="1.3" stroke-opacity="0.533333" points="842.89,-119.05 837.42,-109.98 836.04,-120.49 842.89,-119.05"/>
</g>
<!-- /lib/bands.dart&#45;&gt;/lib/int_offset.dart -->
<g id="edge33" class="edge">
<title>/lib/bands.dart&#45;&gt;/lib/int_offset.dart</title>
<path fill="none" stroke="#aabbaa" stroke-width="1.3" stroke-opacity="0.533333" d="M914.76,-287.63C925.81,-278.46 937.6,-266.17 943.55,-252 972.43,-183.18 952.01,-92.83 938.26,-47.52"/>
<polygon fill="#aabbaa" fill-opacity="0.533333" stroke="#aabbaa" stroke-width="1.3" stroke-opacity="0.533333" points="941.64,-46.59 935.29,-38.12 934.97,-48.71 941.64,-46.59"/>
</g>
</g>
</svg>
