<?xml version="1.0" encoding="UTF-8" standalone="no"?>
<!DOCTYPE svg PUBLIC "-//W3C//DTD SVG 1.1//EN"
 "http://www.w3.org/Graphics/SVG/1.1/DTD/svg11.dtd">
<!-- Generated by graphviz version 12.2.1 (20241206.2353)
 -->
<!-- Pages: 1 -->
<svg width="855pt" height="332pt"
 viewBox="0.00 0.00 855.44 332.00" xmlns="http://www.w3.org/2000/svg" xmlns:xlink="http://www.w3.org/1999/xlink">
<g id="graph0" class="graph" transform="scale(1 1) rotate(0) translate(4 328)">
<polygon fill="white" stroke="none" points="-4,4 -4,-328 851.44,-328 851.44,4 -4,4"/>
<!-- /test/textify_test.dart -->
<g id="node1" class="node">
<title>/test/textify_test.dart</title>
<path fill="Lavender" stroke="black" stroke-width="1.3" d="M768.33,-324C768.33,-324 703.58,-324 703.58,-324 697.58,-324 691.58,-318 691.58,-312 691.58,-312 691.58,-300 691.58,-300 691.58,-294 697.58,-288 703.58,-288 703.58,-288 768.33,-288 768.33,-288 774.33,-288 780.33,-294 780.33,-300 780.33,-300 780.33,-312 780.33,-312 780.33,-318 774.33,-324 768.33,-324"/>
<text text-anchor="middle" x="735.95" y="-300.75" font-family="Arial" font-size="15.00">textify_test</text>
</g>
<!-- /lib/artifact.dart -->
<g id="node7" class="node">
<title>/lib/artifact.dart</title>
<path fill="Lavender" stroke="black" stroke-width="1.3" d="M368.83,-36C368.83,-36 331.08,-36 331.08,-36 325.08,-36 319.08,-30 319.08,-24 319.08,-24 319.08,-12 319.08,-12 319.08,-6 325.08,0 331.08,0 331.08,0 368.83,0 368.83,0 374.83,0 380.83,-6 380.83,-12 380.83,-12 380.83,-24 380.83,-24 380.83,-30 374.83,-36 368.83,-36"/>
<text text-anchor="middle" x="349.95" y="-12.75" font-family="Arial" font-size="15.00">artifact</text>
</g>
<!-- /test/textify_test.dart&#45;&gt;/lib/artifact.dart -->
<g id="edge1" class="edge">
<title>/test/textify_test.dart&#45;&gt;/lib/artifact.dart</title>
<path fill="none" stroke="#aabbaa" stroke-width="1.3" stroke-opacity="0.533333" d="M753.72,-287.63C794.49,-245.75 886.84,-137.78 827.95,-72 799.17,-39.85 505.11,-25.06 393.03,-20.56"/>
<polygon fill="#aabbaa" fill-opacity="0.533333" stroke="#aabbaa" stroke-width="1.3" stroke-opacity="0.533333" points="393.31,-17.07 383.18,-20.17 393.03,-24.06 393.31,-17.07"/>
</g>
<!-- /lib/character_definition.dart -->
<g id="node9" class="node">
<title>/lib/character_definition.dart</title>
<path fill="Lavender" stroke="black" stroke-width="1.3" d="M665.2,-108C665.2,-108 542.7,-108 542.7,-108 536.7,-108 530.7,-102 530.7,-96 530.7,-96 530.7,-84 530.7,-84 530.7,-78 536.7,-72 542.7,-72 542.7,-72 665.2,-72 665.2,-72 671.2,-72 677.2,-78 677.2,-84 677.2,-84 677.2,-96 677.2,-96 677.2,-102 671.2,-108 665.2,-108"/>
<text text-anchor="middle" x="603.95" y="-84.75" font-family="Arial" font-size="15.00">character_definition</text>
</g>
<!-- /test/textify_test.dart&#45;&gt;/lib/character_definition.dart -->
<g id="edge2" class="edge">
<title>/test/textify_test.dart&#45;&gt;/lib/character_definition.dart</title>
<path fill="none" stroke="#aabbaa" stroke-width="1.3" stroke-opacity="0.533333" d="M735.05,-287.69C732.59,-256.09 723.49,-188.26 689.95,-144 680.85,-131.98 668.15,-122.05 655.31,-114.17"/>
<polygon fill="#aabbaa" fill-opacity="0.533333" stroke="#aabbaa" stroke-width="1.3" stroke-opacity="0.533333" points="657.16,-111.2 646.75,-109.26 653.68,-117.27 657.16,-111.2"/>
</g>
<!-- /lib/textify.dart -->
<g id="node10" class="node">
<title>/lib/textify.dart</title>
<path fill="Lavender" stroke="black" stroke-width="1.3" d="M473.83,-252C473.83,-252 442.08,-252 442.08,-252 436.08,-252 430.08,-246 430.08,-240 430.08,-240 430.08,-228 430.08,-228 430.08,-222 436.08,-216 442.08,-216 442.08,-216 473.83,-216 473.83,-216 479.83,-216 485.83,-222 485.83,-228 485.83,-228 485.83,-240 485.83,-240 485.83,-246 479.83,-252 473.83,-252"/>
<text text-anchor="middle" x="457.95" y="-228.75" font-family="Arial" font-size="15.00">textify</text>
</g>
<!-- /test/textify_test.dart&#45;&gt;/lib/textify.dart -->
<g id="edge4" class="edge">
<title>/test/textify_test.dart&#45;&gt;/lib/textify.dart</title>
<path fill="none" stroke="#aabbaa" stroke-width="1.3" stroke-opacity="0.533333" d="M691.29,-293.75C637.72,-280.26 548.76,-257.86 497.55,-244.97"/>
<polygon fill="#aabbaa" fill-opacity="0.533333" stroke="#aabbaa" stroke-width="1.3" stroke-opacity="0.533333" points="498.46,-241.59 487.91,-242.54 496.75,-248.38 498.46,-241.59"/>
</g>
<!-- /lib/correction.dart -->
<g id="node12" class="node">
<title>/lib/correction.dart</title>
<path fill="Lavender" stroke="black" stroke-width="1.3" d="M806.95,-180C806.95,-180 748.95,-180 748.95,-180 742.95,-180 736.95,-174 736.95,-168 736.95,-168 736.95,-156 736.95,-156 736.95,-150 742.95,-144 748.95,-144 748.95,-144 806.95,-144 806.95,-144 812.95,-144 818.95,-150 818.95,-156 818.95,-156 818.95,-168 818.95,-168 818.95,-174 812.95,-180 806.95,-180"/>
<text text-anchor="middle" x="777.95" y="-156.75" font-family="Arial" font-size="15.00">correction</text>
</g>
<!-- /test/textify_test.dart&#45;&gt;/lib/correction.dart -->
<g id="edge3" class="edge">
<title>/test/textify_test.dart&#45;&gt;/lib/correction.dart</title>
<path fill="none" stroke="#aabbaa" stroke-width="1.3" stroke-opacity="0.533333" d="M741.1,-287.59C748.2,-263.61 761.05,-220.14 769.55,-191.42"/>
<polygon fill="#aabbaa" fill-opacity="0.533333" stroke="#aabbaa" stroke-width="1.3" stroke-opacity="0.533333" points="772.86,-192.58 772.34,-182 766.14,-190.59 772.86,-192.58"/>
</g>
<!-- /test/bands_test.dart -->
<g id="node2" class="node">
<title>/test/bands_test.dart</title>
<path fill="Lavender" stroke="black" stroke-width="1.3" d="M184.7,-252C184.7,-252 119.2,-252 119.2,-252 113.2,-252 107.2,-246 107.2,-240 107.2,-240 107.2,-228 107.2,-228 107.2,-222 113.2,-216 119.2,-216 119.2,-216 184.7,-216 184.7,-216 190.7,-216 196.7,-222 196.7,-228 196.7,-228 196.7,-240 196.7,-240 196.7,-246 190.7,-252 184.7,-252"/>
<text text-anchor="middle" x="151.95" y="-228.75" font-family="Arial" font-size="15.00">bands_test</text>
</g>
<!-- /test/bands_test.dart&#45;&gt;/lib/artifact.dart -->
<g id="edge5" class="edge">
<title>/test/bands_test.dart&#45;&gt;/lib/artifact.dart</title>
<path fill="none" stroke="#aabbaa" stroke-width="1.3" stroke-opacity="0.533333" d="M123.67,-215.61C77.8,-185.3 -3.7,-121.32 37.95,-72 71.9,-31.81 229.65,-22.09 306.99,-19.74"/>
<polygon fill="#aabbaa" fill-opacity="0.533333" stroke="#aabbaa" stroke-width="1.3" stroke-opacity="0.533333" points="306.81,-23.25 316.71,-19.48 306.62,-16.25 306.81,-23.25"/>
</g>
<!-- /lib/bands.dart -->
<g id="node14" class="node">
<title>/lib/bands.dart</title>
<path fill="Lavender" stroke="black" stroke-width="1.3" d="M339.2,-180C339.2,-180 306.7,-180 306.7,-180 300.7,-180 294.7,-174 294.7,-168 294.7,-168 294.7,-156 294.7,-156 294.7,-150 300.7,-144 306.7,-144 306.7,-144 339.2,-144 339.2,-144 345.2,-144 351.2,-150 351.2,-156 351.2,-156 351.2,-168 351.2,-168 351.2,-174 345.2,-180 339.2,-180"/>
<text text-anchor="middle" x="322.95" y="-156.75" font-family="Arial" font-size="15.00">bands</text>
</g>
<!-- /test/bands_test.dart&#45;&gt;/lib/bands.dart -->
<g id="edge6" class="edge">
<title>/test/bands_test.dart&#45;&gt;/lib/bands.dart</title>
<path fill="none" stroke="#aabbaa" stroke-width="1.3" stroke-opacity="0.533333" d="M194.66,-215.52C221.93,-204.36 257.02,-189.99 283.61,-179.11"/>
<polygon fill="#aabbaa" fill-opacity="0.533333" stroke="#aabbaa" stroke-width="1.3" stroke-opacity="0.533333" points="284.68,-182.45 292.61,-175.42 282.03,-175.97 284.68,-182.45"/>
</g>
<!-- /test/histogram_test.dart -->
<g id="node3" class="node">
<title>/test/histogram_test.dart</title>
<path fill="Lavender" stroke="black" stroke-width="1.3" d="M150.45,-108C150.45,-108 59.45,-108 59.45,-108 53.45,-108 47.45,-102 47.45,-96 47.45,-96 47.45,-84 47.45,-84 47.45,-78 53.45,-72 59.45,-72 59.45,-72 150.45,-72 150.45,-72 156.45,-72 162.45,-78 162.45,-84 162.45,-84 162.45,-96 162.45,-96 162.45,-102 156.45,-108 150.45,-108"/>
<text text-anchor="middle" x="104.95" y="-84.75" font-family="Arial" font-size="15.00">histogram_test</text>
</g>
<!-- /test/histogram_test.dart&#45;&gt;/lib/artifact.dart -->
<g id="edge7" class="edge">
<title>/test/histogram_test.dart&#45;&gt;/lib/artifact.dart</title>
<path fill="none" stroke="#aabbaa" stroke-width="1.3" stroke-opacity="0.533333" d="M162.71,-72.5C207.03,-59.83 267.23,-42.63 307.28,-31.19"/>
<polygon fill="#aabbaa" fill-opacity="0.533333" stroke="#aabbaa" stroke-width="1.3" stroke-opacity="0.533333" points="308.22,-34.56 316.87,-28.45 306.3,-27.83 308.22,-34.56"/>
</g>
<!-- /test/regions_test.dart -->
<g id="node4" class="node">
<title>/test/regions_test.dart</title>
<path fill="Lavender" stroke="black" stroke-width="1.3" d="M265.83,-108C265.83,-108 192.08,-108 192.08,-108 186.08,-108 180.08,-102 180.08,-96 180.08,-96 180.08,-84 180.08,-84 180.08,-78 186.08,-72 192.08,-72 192.08,-72 265.83,-72 265.83,-72 271.83,-72 277.83,-78 277.83,-84 277.83,-84 277.83,-96 277.83,-96 277.83,-102 271.83,-108 265.83,-108"/>
<text text-anchor="middle" x="228.95" y="-84.75" font-family="Arial" font-size="15.00">regions_test</text>
</g>
<!-- /test/regions_test.dart&#45;&gt;/lib/artifact.dart -->
<g id="edge8" class="edge">
<title>/test/regions_test.dart&#45;&gt;/lib/artifact.dart</title>
<path fill="none" stroke="#aabbaa" stroke-width="1.3" stroke-opacity="0.533333" d="M259.18,-71.52C274.6,-62.6 293.55,-51.63 310.14,-42.03"/>
<polygon fill="#aabbaa" fill-opacity="0.533333" stroke="#aabbaa" stroke-width="1.3" stroke-opacity="0.533333" points="311.51,-45.28 318.42,-37.25 308.01,-39.22 311.51,-45.28"/>
</g>
<!-- /test/steps_test.dart -->
<g id="node5" class="node">
<title>/test/steps_test.dart</title>
<path fill="Lavender" stroke="black" stroke-width="1.3" d="M353.45,-324C353.45,-324 292.45,-324 292.45,-324 286.45,-324 280.45,-318 280.45,-312 280.45,-312 280.45,-300 280.45,-300 280.45,-294 286.45,-288 292.45,-288 292.45,-288 353.45,-288 353.45,-288 359.45,-288 365.45,-294 365.45,-300 365.45,-300 365.45,-312 365.45,-312 365.45,-318 359.45,-324 353.45,-324"/>
<text text-anchor="middle" x="322.95" y="-300.75" font-family="Arial" font-size="15.00">steps_test</text>
</g>
<!-- /test/steps_test.dart&#45;&gt;/lib/artifact.dart -->
<g id="edge9" class="edge">
<title>/test/steps_test.dart&#45;&gt;/lib/artifact.dart</title>
<path fill="none" stroke="#aabbaa" stroke-width="1.3" stroke-opacity="0.533333" d="M279.98,-303.12C232.2,-299.25 154.33,-287.5 97.95,-252 24.62,-205.82 -33.21,-138 22.95,-72 58.98,-29.66 227.08,-21.04 307.23,-19.36"/>
<polygon fill="#aabbaa" fill-opacity="0.533333" stroke="#aabbaa" stroke-width="1.3" stroke-opacity="0.533333" points="306.95,-22.87 316.88,-19.19 306.82,-15.87 306.95,-22.87"/>
</g>
<!-- /test/steps_test.dart&#45;&gt;/lib/textify.dart -->
<g id="edge11" class="edge">
<title>/test/steps_test.dart&#45;&gt;/lib/textify.dart</title>
<path fill="none" stroke="#aabbaa" stroke-width="1.3" stroke-opacity="0.533333" d="M356.67,-287.52C375.65,-277.68 399.43,-265.35 419.18,-255.11"/>
<polygon fill="#aabbaa" fill-opacity="0.533333" stroke="#aabbaa" stroke-width="1.3" stroke-opacity="0.533333" points="420.66,-258.28 427.93,-250.57 417.44,-252.07 420.66,-258.28"/>
</g>
<!-- /test/steps_test.dart&#45;&gt;/lib/bands.dart -->
<g id="edge10" class="edge">
<title>/test/steps_test.dart&#45;&gt;/lib/bands.dart</title>
<path fill="none" stroke="#aabbaa" stroke-width="1.3" stroke-opacity="0.533333" d="M322.95,-287.59C322.95,-263.72 322.95,-220.53 322.95,-191.8"/>
<polygon fill="#aabbaa" fill-opacity="0.533333" stroke="#aabbaa" stroke-width="1.3" stroke-opacity="0.533333" points="326.46,-192.08 322.95,-182.08 319.46,-192.08 326.46,-192.08"/>
</g>
<!-- /lib/band.dart -->
<g id="node6" class="node">
<title>/lib/band.dart</title>
<path fill="Lavender" stroke="black" stroke-width="1.3" d="M337.95,-108C337.95,-108 307.95,-108 307.95,-108 301.95,-108 295.95,-102 295.95,-96 295.95,-96 295.95,-84 295.95,-84 295.95,-78 301.95,-72 307.95,-72 307.95,-72 337.95,-72 337.95,-72 343.95,-72 349.95,-78 349.95,-84 349.95,-84 349.95,-96 349.95,-96 349.95,-102 343.95,-108 337.95,-108"/>
<text text-anchor="middle" x="322.95" y="-84.75" font-family="Arial" font-size="15.00">band</text>
</g>
<!-- /lib/band.dart&#45;&gt;/lib/artifact.dart -->
<g id="edge12" class="edge">
<title>/lib/band.dart&#45;&gt;/lib/artifact.dart</title>
<path fill="none" stroke="#aabbaa" stroke-width="1.3" stroke-opacity="0.533333" d="M329.63,-71.7C332.47,-64.32 335.87,-55.52 339.06,-47.25"/>
<polygon fill="#aabbaa" fill-opacity="0.533333" stroke="#aabbaa" stroke-width="1.3" stroke-opacity="0.533333" points="342.32,-48.53 342.65,-37.94 335.79,-46.01 342.32,-48.53"/>
</g>
<!-- /lib/score_match.dart -->
<g id="node8" class="node">
<title>/lib/score_match.dart</title>
<path fill="Lavender" stroke="black" stroke-width="1.3" d="M497.08,-180C497.08,-180 418.83,-180 418.83,-180 412.83,-180 406.83,-174 406.83,-168 406.83,-168 406.83,-156 406.83,-156 406.83,-150 412.83,-144 418.83,-144 418.83,-144 497.08,-144 497.08,-144 503.08,-144 509.08,-150 509.08,-156 509.08,-156 509.08,-168 509.08,-168 509.08,-174 503.08,-180 497.08,-180"/>
<text text-anchor="middle" x="457.95" y="-156.75" font-family="Arial" font-size="15.00">score_match</text>
</g>
<!-- /lib/character_definition.dart&#45;&gt;/lib/artifact.dart -->
<g id="edge13" class="edge">
<title>/lib/character_definition.dart&#45;&gt;/lib/artifact.dart</title>
<path fill="none" stroke="#aabbaa" stroke-width="1.3" stroke-opacity="0.533333" d="M540.52,-71.52C494.24,-58.76 432.8,-41.83 392.36,-30.69"/>
<polygon fill="#aabbaa" fill-opacity="0.533333" stroke="#aabbaa" stroke-width="1.3" stroke-opacity="0.533333" points="393.49,-27.37 382.92,-28.09 391.63,-34.12 393.49,-27.37"/>
</g>
<!-- /lib/textify.dart&#45;&gt;/lib/artifact.dart -->
<g id="edge14" class="edge">
<title>/lib/textify.dart&#45;&gt;/lib/artifact.dart</title>
<path fill="none" stroke="#aabbaa" stroke-width="1.3" stroke-opacity="0.533333" d="M431.35,-215.51C419.39,-206.32 406.16,-194.04 397.95,-180 373.21,-137.62 390.64,-118.5 374.95,-72 372.13,-63.61 368.33,-54.81 364.56,-46.83"/>
<polygon fill="#aabbaa" fill-opacity="0.533333" stroke="#aabbaa" stroke-width="1.3" stroke-opacity="0.533333" points="367.77,-45.43 360.2,-38.01 361.49,-48.53 367.77,-45.43"/>
</g>
<!-- /lib/textify.dart&#45;&gt;/lib/score_match.dart -->
<g id="edge18" class="edge">
<title>/lib/textify.dart&#45;&gt;/lib/score_match.dart</title>
<path fill="none" stroke="#aabbaa" stroke-width="1.3" stroke-opacity="0.533333" d="M457.95,-215.7C457.95,-208.49 457.95,-199.93 457.95,-191.82"/>
<polygon fill="#aabbaa" fill-opacity="0.533333" stroke="#aabbaa" stroke-width="1.3" stroke-opacity="0.533333" points="461.46,-192.07 457.95,-182.07 454.46,-192.07 461.46,-192.07"/>
</g>
<!-- /lib/character_definitions.dart -->
<g id="node11" class="node">
<title>/lib/character_definitions.dart</title>
<path fill="Lavender" stroke="black" stroke-width="1.3" d="M668.95,-180C668.95,-180 538.95,-180 538.95,-180 532.95,-180 526.95,-174 526.95,-168 526.95,-168 526.95,-156 526.95,-156 526.95,-150 532.95,-144 538.95,-144 538.95,-144 668.95,-144 668.95,-144 674.95,-144 680.95,-150 680.95,-156 680.95,-156 680.95,-168 680.95,-168 680.95,-174 674.95,-180 668.95,-180"/>
<text text-anchor="middle" x="603.95" y="-156.75" font-family="Arial" font-size="15.00">character_definitions</text>
</g>
<!-- /lib/textify.dart&#45;&gt;/lib/character_definitions.dart -->
<g id="edge16" class="edge">
<title>/lib/textify.dart&#45;&gt;/lib/character_definitions.dart</title>
<path fill="none" stroke="#aabbaa" stroke-width="1.3" stroke-opacity="0.533333" d="M486.11,-219.5C506.13,-209.9 533.52,-196.77 556.85,-185.58"/>
<polygon fill="#aabbaa" fill-opacity="0.533333" stroke="#aabbaa" stroke-width="1.3" stroke-opacity="0.533333" points="558.31,-188.77 565.81,-181.29 555.28,-182.46 558.31,-188.77"/>
</g>
<!-- /lib/textify.dart&#45;&gt;/lib/correction.dart -->
<g id="edge17" class="edge">
<title>/lib/textify.dart&#45;&gt;/lib/correction.dart</title>
<path fill="none" stroke="#aabbaa" stroke-width="1.3" stroke-opacity="0.533333" d="M486.07,-226.85C539.56,-215.15 656.72,-189.52 725.23,-174.53"/>
<polygon fill="#aabbaa" fill-opacity="0.533333" stroke="#aabbaa" stroke-width="1.3" stroke-opacity="0.533333" points="725.67,-178.02 734.69,-172.46 724.17,-171.18 725.67,-178.02"/>
</g>
<!-- /lib/textify.dart&#45;&gt;/lib/bands.dart -->
<g id="edge15" class="edge">
<title>/lib/textify.dart&#45;&gt;/lib/bands.dart</title>
<path fill="none" stroke="#aabbaa" stroke-width="1.3" stroke-opacity="0.533333" d="M429.65,-218.33C410.08,-208.17 383.77,-194.53 362.17,-183.33"/>
<polygon fill="#aabbaa" fill-opacity="0.533333" stroke="#aabbaa" stroke-width="1.3" stroke-opacity="0.533333" points="363.92,-180.3 353.43,-178.8 360.7,-186.51 363.92,-180.3"/>
</g>
<!-- /lib/character_definitions.dart&#45;&gt;/lib/artifact.dart -->
<g id="edge19" class="edge">
<title>/lib/character_definitions.dart&#45;&gt;/lib/artifact.dart</title>
<path fill="none" stroke="#aabbaa" stroke-width="1.3" stroke-opacity="0.533333" d="M572.81,-143.59C527.17,-118.08 442.06,-70.49 391.25,-42.09"/>
<polygon fill="#aabbaa" fill-opacity="0.533333" stroke="#aabbaa" stroke-width="1.3" stroke-opacity="0.533333" points="393.11,-39.12 382.67,-37.29 389.7,-45.23 393.11,-39.12"/>
</g>
<!-- /lib/character_definitions.dart&#45;&gt;/lib/character_definition.dart -->
<g id="edge20" class="edge">
<title>/lib/character_definitions.dart&#45;&gt;/lib/character_definition.dart</title>
<path fill="none" stroke="#aabbaa" stroke-width="1.3" stroke-opacity="0.533333" d="M598.04,-143.7C597.3,-136.49 597.05,-127.93 597.3,-119.82"/>
<polygon fill="#aabbaa" fill-opacity="0.533333" stroke="#aabbaa" stroke-width="1.3" stroke-opacity="0.533333" points="600.78,-120.27 597.93,-110.07 593.79,-119.82 600.78,-120.27"/>
</g>
<!-- /lib/character_definitions.dart&#45;&gt;/lib/character_definition.dart -->
<g id="edge21" class="edge">
<title>/lib/character_definitions.dart&#45;&gt;/lib/character_definition.dart</title>
<path fill="none" stroke="#aabbaa" stroke-width="1.3" stroke-dasharray="5,2" stroke-opacity="0.533333" d="M609.87,-143.7C610.61,-136.49 610.86,-127.93 610.61,-119.82"/>
<polygon fill="#aabbaa" fill-opacity="0.533333" stroke="#aabbaa" stroke-width="1.3" stroke-opacity="0.533333" points="614.12,-119.82 609.98,-110.07 607.13,-120.27 614.12,-119.82"/>
</g>
<!-- /lib/english_words.dart -->
<g id="node13" class="node">
<title>/lib/english_words.dart</title>
<path fill="Lavender" stroke="black" stroke-width="1.3" d="M807.2,-108C807.2,-108 720.7,-108 720.7,-108 714.7,-108 708.7,-102 708.7,-96 708.7,-96 708.7,-84 708.7,-84 708.7,-78 714.7,-72 720.7,-72 720.7,-72 807.2,-72 807.2,-72 813.2,-72 819.2,-78 819.2,-84 819.2,-84 819.2,-96 819.2,-96 819.2,-102 813.2,-108 807.2,-108"/>
<text text-anchor="middle" x="763.95" y="-84.75" font-family="Arial" font-size="15.00">english_words</text>
</g>
<!-- /lib/correction.dart&#45;&gt;/lib/english_words.dart -->
<g id="edge22" class="edge">
<title>/lib/correction.dart&#45;&gt;/lib/english_words.dart</title>
<path fill="none" stroke="#aabbaa" stroke-width="1.3" stroke-opacity="0.533333" d="M774.49,-143.7C773.05,-136.49 771.34,-127.93 769.72,-119.82"/>
<polygon fill="#aabbaa" fill-opacity="0.533333" stroke="#aabbaa" stroke-width="1.3" stroke-opacity="0.533333" points="773.15,-119.15 767.76,-110.03 766.29,-120.53 773.15,-119.15"/>
</g>
<!-- /lib/bands.dart&#45;&gt;/lib/band.dart -->
<g id="edge24" class="edge">
<title>/lib/bands.dart&#45;&gt;/lib/band.dart</title>
<path fill="none" stroke="#aabbaa" stroke-width="1.3" stroke-opacity="0.533333" d="M317.04,-143.7C316.3,-136.49 316.05,-127.93 316.3,-119.82"/>
<polygon fill="#aabbaa" fill-opacity="0.533333" stroke="#aabbaa" stroke-width="1.3" stroke-opacity="0.533333" points="319.78,-120.27 316.93,-110.07 312.79,-119.82 319.78,-120.27"/>
</g>
<!-- /lib/bands.dart&#45;&gt;/lib/band.dart -->
<g id="edge25" class="edge">
<title>/lib/bands.dart&#45;&gt;/lib/band.dart</title>
<path fill="none" stroke="#aabbaa" stroke-width="1.3" stroke-dasharray="5,2" stroke-opacity="0.533333" d="M328.87,-143.7C329.61,-136.49 329.86,-127.93 329.61,-119.82"/>
<polygon fill="#aabbaa" fill-opacity="0.533333" stroke="#aabbaa" stroke-width="1.3" stroke-opacity="0.533333" points="333.12,-119.82 328.98,-110.07 326.13,-120.27 333.12,-119.82"/>
</g>
<!-- /lib/bands.dart&#45;&gt;/lib/artifact.dart -->
<g id="edge23" class="edge">
<title>/lib/bands.dart&#45;&gt;/lib/artifact.dart</title>
<path fill="none" stroke="#aabbaa" stroke-width="1.3" stroke-opacity="0.533333" d="M338.56,-143.77C346.33,-134.03 354.9,-121.18 358.95,-108 364.93,-88.56 362.44,-65.71 358.57,-48.03"/>
<polygon fill="#aabbaa" fill-opacity="0.533333" stroke="#aabbaa" stroke-width="1.3" stroke-opacity="0.533333" points="361.98,-47.23 356.17,-38.37 355.19,-48.92 361.98,-47.23"/>
</g>
</g>
</svg>
