<?xml version="1.0" encoding="UTF-8" standalone="no"?>
<!DOCTYPE svg PUBLIC "-//W3C//DTD SVG 1.1//EN"
 "http://www.w3.org/Graphics/SVG/1.1/DTD/svg11.dtd">
<!-- Generated by graphviz version 12.2.1 (20241206.2353)
 -->
<!-- Pages: 1 -->
<svg width="963pt" height="404pt"
 viewBox="0.00 0.00 962.59 404.00" xmlns="http://www.w3.org/2000/svg" xmlns:xlink="http://www.w3.org/1999/xlink">
<g id="graph0" class="graph" transform="scale(1 1) rotate(0) translate(4 400)">
<polygon fill="white" stroke="none" points="-4,4 -4,-400 958.59,-400 958.59,4 -4,4"/>
<!-- /test/textify_test.dart -->
<g id="node1" class="node">
<title>/test/textify_test.dart</title>
<path fill="Lavender" stroke="black" stroke-width="1.3" d="M150.38,-396C150.38,-396 85.62,-396 85.62,-396 79.62,-396 73.62,-390 73.62,-384 73.62,-384 73.62,-372 73.62,-372 73.62,-366 79.62,-360 85.62,-360 85.62,-360 150.38,-360 150.38,-360 156.38,-360 162.38,-366 162.38,-372 162.38,-372 162.38,-384 162.38,-384 162.38,-390 156.38,-396 150.38,-396"/>
<text text-anchor="middle" x="118" y="-372.75" font-family="Arial" font-size="15.00">textify_test</text>
</g>
<!-- /lib/character_definition.dart -->
<g id="node9" class="node">
<title>/lib/character_definition.dart</title>
<path fill="Lavender" stroke="black" stroke-width="1.3" d="M291.25,-180C291.25,-180 168.75,-180 168.75,-180 162.75,-180 156.75,-174 156.75,-168 156.75,-168 156.75,-156 156.75,-156 156.75,-150 162.75,-144 168.75,-144 168.75,-144 291.25,-144 291.25,-144 297.25,-144 303.25,-150 303.25,-156 303.25,-156 303.25,-168 303.25,-168 303.25,-174 297.25,-180 291.25,-180"/>
<text text-anchor="middle" x="230" y="-156.75" font-family="Arial" font-size="15.00">character_definition</text>
</g>
<!-- /test/textify_test.dart&#45;&gt;/lib/character_definition.dart -->
<g id="edge1" class="edge">
<title>/test/textify_test.dart&#45;&gt;/lib/character_definition.dart</title>
<path fill="none" stroke="#aabbaa" stroke-width="1.3" stroke-opacity="0.533333" d="M119.5,-359.59C122.91,-328.41 133.44,-262.01 164,-216 171.15,-205.24 181.17,-195.62 191.25,-187.62"/>
<polygon fill="#aabbaa" fill-opacity="0.533333" stroke="#aabbaa" stroke-width="1.3" stroke-opacity="0.533333" points="193.33,-190.43 199.26,-181.65 189.15,-184.82 193.33,-190.43"/>
</g>
<!-- /lib/textify.dart -->
<g id="node10" class="node">
<title>/lib/textify.dart</title>
<path fill="Lavender" stroke="black" stroke-width="1.3" d="M409.88,-324C409.88,-324 378.12,-324 378.12,-324 372.12,-324 366.12,-318 366.12,-312 366.12,-312 366.12,-300 366.12,-300 366.12,-294 372.12,-288 378.12,-288 378.12,-288 409.88,-288 409.88,-288 415.88,-288 421.88,-294 421.88,-300 421.88,-300 421.88,-312 421.88,-312 421.88,-318 415.88,-324 409.88,-324"/>
<text text-anchor="middle" x="394" y="-300.75" font-family="Arial" font-size="15.00">textify</text>
</g>
<!-- /test/textify_test.dart&#45;&gt;/lib/textify.dart -->
<g id="edge4" class="edge">
<title>/test/textify_test.dart&#45;&gt;/lib/textify.dart</title>
<path fill="none" stroke="#aabbaa" stroke-width="1.3" stroke-opacity="0.533333" d="M162.65,-365.68C215.76,-352.21 303.59,-329.93 354.38,-317.05"/>
<polygon fill="#aabbaa" fill-opacity="0.533333" stroke="#aabbaa" stroke-width="1.3" stroke-opacity="0.533333" points="355.1,-320.48 363.94,-314.62 353.38,-313.69 355.1,-320.48"/>
</g>
<!-- /lib/matrix.dart -->
<g id="node11" class="node">
<title>/lib/matrix.dart</title>
<path fill="Lavender" stroke="black" stroke-width="1.3" d="M613.62,-36C613.62,-36 580.38,-36 580.38,-36 574.38,-36 568.38,-30 568.38,-24 568.38,-24 568.38,-12 568.38,-12 568.38,-6 574.38,0 580.38,0 580.38,0 613.62,0 613.62,0 619.62,0 625.62,-6 625.62,-12 625.62,-12 625.62,-24 625.62,-24 625.62,-30 619.62,-36 613.62,-36"/>
<text text-anchor="middle" x="597" y="-12.75" font-family="Arial" font-size="15.00">matrix</text>
</g>
<!-- /test/textify_test.dart&#45;&gt;/lib/matrix.dart -->
<g id="edge3" class="edge">
<title>/test/textify_test.dart&#45;&gt;/lib/matrix.dart</title>
<path fill="none" stroke="#aabbaa" stroke-width="1.3" stroke-opacity="0.533333" d="M89.13,-359.59C54.2,-336.07 0,-290.61 0,-235 0,-235 0,-235 0,-161 0,-46.32 422.18,-24.1 556.49,-19.93"/>
<polygon fill="#aabbaa" fill-opacity="0.533333" stroke="#aabbaa" stroke-width="1.3" stroke-opacity="0.533333" points="556.34,-23.44 566.24,-19.65 556.14,-16.44 556.34,-23.44"/>
</g>
<!-- /lib/correction.dart -->
<g id="node13" class="node">
<title>/lib/correction.dart</title>
<path fill="Lavender" stroke="black" stroke-width="1.3" d="M105,-252C105,-252 47,-252 47,-252 41,-252 35,-246 35,-240 35,-240 35,-228 35,-228 35,-222 41,-216 47,-216 47,-216 105,-216 105,-216 111,-216 117,-222 117,-228 117,-228 117,-240 117,-240 117,-246 111,-252 105,-252"/>
<text text-anchor="middle" x="76" y="-228.75" font-family="Arial" font-size="15.00">correction</text>
</g>
<!-- /test/textify_test.dart&#45;&gt;/lib/correction.dart -->
<g id="edge2" class="edge">
<title>/test/textify_test.dart&#45;&gt;/lib/correction.dart</title>
<path fill="none" stroke="#aabbaa" stroke-width="1.3" stroke-opacity="0.533333" d="M112.85,-359.59C105.76,-335.61 92.9,-292.14 84.41,-263.42"/>
<polygon fill="#aabbaa" fill-opacity="0.533333" stroke="#aabbaa" stroke-width="1.3" stroke-opacity="0.533333" points="87.81,-262.59 81.62,-254 81.1,-264.58 87.81,-262.59"/>
</g>
<!-- /test/bands_test.dart -->
<g id="node2" class="node">
<title>/test/bands_test.dart</title>
<path fill="Lavender" stroke="black" stroke-width="1.3" d="M593.75,-324C593.75,-324 528.25,-324 528.25,-324 522.25,-324 516.25,-318 516.25,-312 516.25,-312 516.25,-300 516.25,-300 516.25,-294 522.25,-288 528.25,-288 528.25,-288 593.75,-288 593.75,-288 599.75,-288 605.75,-294 605.75,-300 605.75,-300 605.75,-312 605.75,-312 605.75,-318 599.75,-324 593.75,-324"/>
<text text-anchor="middle" x="561" y="-300.75" font-family="Arial" font-size="15.00">bands_test</text>
</g>
<!-- /lib/artifact.dart -->
<g id="node7" class="node">
<title>/lib/artifact.dart</title>
<path fill="Lavender" stroke="black" stroke-width="1.3" d="M586.88,-108C586.88,-108 549.12,-108 549.12,-108 543.12,-108 537.12,-102 537.12,-96 537.12,-96 537.12,-84 537.12,-84 537.12,-78 543.12,-72 549.12,-72 549.12,-72 586.88,-72 586.88,-72 592.88,-72 598.88,-78 598.88,-84 598.88,-84 598.88,-96 598.88,-96 598.88,-102 592.88,-108 586.88,-108"/>
<text text-anchor="middle" x="568" y="-84.75" font-family="Arial" font-size="15.00">artifact</text>
</g>
<!-- /test/bands_test.dart&#45;&gt;/lib/artifact.dart -->
<g id="edge5" class="edge">
<title>/test/bands_test.dart&#45;&gt;/lib/artifact.dart</title>
<path fill="none" stroke="#aabbaa" stroke-width="1.3" stroke-opacity="0.533333" d="M561.56,-287.85C562.76,-251.3 565.57,-165.4 567.05,-120.11"/>
<polygon fill="#aabbaa" fill-opacity="0.533333" stroke="#aabbaa" stroke-width="1.3" stroke-opacity="0.533333" points="570.54,-120.31 567.37,-110.2 563.55,-120.08 570.54,-120.31"/>
</g>
<!-- /lib/bands.dart -->
<g id="node15" class="node">
<title>/lib/bands.dart</title>
<path fill="Lavender" stroke="black" stroke-width="1.3" d="M655.25,-252C655.25,-252 622.75,-252 622.75,-252 616.75,-252 610.75,-246 610.75,-240 610.75,-240 610.75,-228 610.75,-228 610.75,-222 616.75,-216 622.75,-216 622.75,-216 655.25,-216 655.25,-216 661.25,-216 667.25,-222 667.25,-228 667.25,-228 667.25,-240 667.25,-240 667.25,-246 661.25,-252 655.25,-252"/>
<text text-anchor="middle" x="639" y="-228.75" font-family="Arial" font-size="15.00">bands</text>
</g>
<!-- /test/bands_test.dart&#45;&gt;/lib/bands.dart -->
<g id="edge6" class="edge">
<title>/test/bands_test.dart&#45;&gt;/lib/bands.dart</title>
<path fill="none" stroke="#aabbaa" stroke-width="1.3" stroke-opacity="0.533333" d="M580.28,-287.7C589.56,-279.37 600.87,-269.22 611.07,-260.07"/>
<polygon fill="#aabbaa" fill-opacity="0.533333" stroke="#aabbaa" stroke-width="1.3" stroke-opacity="0.533333" points="613.1,-262.95 618.21,-253.66 608.43,-257.74 613.1,-262.95"/>
</g>
<!-- /test/histogram_test.dart -->
<g id="node3" class="node">
<title>/test/histogram_test.dart</title>
<path fill="Lavender" stroke="black" stroke-width="1.3" d="M796.5,-108C796.5,-108 705.5,-108 705.5,-108 699.5,-108 693.5,-102 693.5,-96 693.5,-96 693.5,-84 693.5,-84 693.5,-78 699.5,-72 705.5,-72 705.5,-72 796.5,-72 796.5,-72 802.5,-72 808.5,-78 808.5,-84 808.5,-84 808.5,-96 808.5,-96 808.5,-102 802.5,-108 796.5,-108"/>
<text text-anchor="middle" x="751" y="-84.75" font-family="Arial" font-size="15.00">histogram_test</text>
</g>
<!-- /test/histogram_test.dart&#45;&gt;/lib/matrix.dart -->
<g id="edge7" class="edge">
<title>/test/histogram_test.dart&#45;&gt;/lib/matrix.dart</title>
<path fill="none" stroke="#aabbaa" stroke-width="1.3" stroke-opacity="0.533333" d="M712.54,-71.52C689.31,-60.96 659.78,-47.54 636.39,-36.9"/>
<polygon fill="#aabbaa" fill-opacity="0.533333" stroke="#aabbaa" stroke-width="1.3" stroke-opacity="0.533333" points="638.13,-33.85 627.58,-32.9 635.23,-40.22 638.13,-33.85"/>
</g>
<!-- /test/regions_test.dart -->
<g id="node4" class="node">
<title>/test/regions_test.dart</title>
<path fill="Lavender" stroke="black" stroke-width="1.3" d="M911.88,-108C911.88,-108 838.12,-108 838.12,-108 832.12,-108 826.12,-102 826.12,-96 826.12,-96 826.12,-84 826.12,-84 826.12,-78 832.12,-72 838.12,-72 838.12,-72 911.88,-72 911.88,-72 917.88,-72 923.88,-78 923.88,-84 923.88,-84 923.88,-96 923.88,-96 923.88,-102 917.88,-108 911.88,-108"/>
<text text-anchor="middle" x="875" y="-84.75" font-family="Arial" font-size="15.00">regions_test</text>
</g>
<!-- /test/regions_test.dart&#45;&gt;/lib/matrix.dart -->
<g id="edge8" class="edge">
<title>/test/regions_test.dart&#45;&gt;/lib/matrix.dart</title>
<path fill="none" stroke="#aabbaa" stroke-width="1.3" stroke-opacity="0.533333" d="M825.92,-74.18C823.25,-73.43 820.59,-72.7 818,-72 755.35,-55.16 682.01,-38.09 637.56,-28.03"/>
<polygon fill="#aabbaa" fill-opacity="0.533333" stroke="#aabbaa" stroke-width="1.3" stroke-opacity="0.533333" points="638.53,-24.66 628.01,-25.88 636.99,-31.49 638.53,-24.66"/>
</g>
<!-- /test/steps_test.dart -->
<g id="node5" class="node">
<title>/test/steps_test.dart</title>
<path fill="Lavender" stroke="black" stroke-width="1.3" d="M669.5,-396C669.5,-396 608.5,-396 608.5,-396 602.5,-396 596.5,-390 596.5,-384 596.5,-384 596.5,-372 596.5,-372 596.5,-366 602.5,-360 608.5,-360 608.5,-360 669.5,-360 669.5,-360 675.5,-360 681.5,-366 681.5,-372 681.5,-372 681.5,-384 681.5,-384 681.5,-390 675.5,-396 669.5,-396"/>
<text text-anchor="middle" x="639" y="-372.75" font-family="Arial" font-size="15.00">steps_test</text>
</g>
<!-- /test/steps_test.dart&#45;&gt;/lib/textify.dart -->
<g id="edge11" class="edge">
<title>/test/steps_test.dart&#45;&gt;/lib/textify.dart</title>
<path fill="none" stroke="#aabbaa" stroke-width="1.3" stroke-opacity="0.533333" d="M596.04,-364.73C550.19,-351.63 478.13,-331.04 433.6,-318.32"/>
<polygon fill="#aabbaa" fill-opacity="0.533333" stroke="#aabbaa" stroke-width="1.3" stroke-opacity="0.533333" points="434.83,-315.03 424.26,-315.64 432.91,-321.76 434.83,-315.03"/>
</g>
<!-- /test/steps_test.dart&#45;&gt;/lib/matrix.dart -->
<g id="edge10" class="edge">
<title>/test/steps_test.dart&#45;&gt;/lib/matrix.dart</title>
<path fill="none" stroke="#aabbaa" stroke-width="1.3" stroke-opacity="0.533333" d="M681.87,-376.56C767.59,-373.17 952,-352.25 952,-235 952,-235 952,-235 952,-161 952,-120.55 962.36,-99.82 933,-72 891.1,-32.3 717.3,-22.33 637.45,-19.83"/>
<polygon fill="#aabbaa" fill-opacity="0.533333" stroke="#aabbaa" stroke-width="1.3" stroke-opacity="0.533333" points="637.99,-16.34 627.89,-19.56 637.79,-23.34 637.99,-16.34"/>
</g>
<!-- /test/steps_test.dart&#45;&gt;/lib/bands.dart -->
<g id="edge9" class="edge">
<title>/test/steps_test.dart&#45;&gt;/lib/bands.dart</title>
<path fill="none" stroke="#aabbaa" stroke-width="1.3" stroke-opacity="0.533333" d="M639,-359.59C639,-335.72 639,-292.53 639,-263.8"/>
<polygon fill="#aabbaa" fill-opacity="0.533333" stroke="#aabbaa" stroke-width="1.3" stroke-opacity="0.533333" points="642.5,-264.08 639,-254.08 635.5,-264.08 642.5,-264.08"/>
</g>
<!-- /lib/band.dart -->
<g id="node6" class="node">
<title>/lib/band.dart</title>
<path fill="Lavender" stroke="black" stroke-width="1.3" d="M659,-180C659,-180 629,-180 629,-180 623,-180 617,-174 617,-168 617,-168 617,-156 617,-156 617,-150 623,-144 629,-144 629,-144 659,-144 659,-144 665,-144 671,-150 671,-156 671,-156 671,-168 671,-168 671,-174 665,-180 659,-180"/>
<text text-anchor="middle" x="644" y="-156.75" font-family="Arial" font-size="15.00">band</text>
</g>
<!-- /lib/band.dart&#45;&gt;/lib/artifact.dart -->
<g id="edge12" class="edge">
<title>/lib/band.dart&#45;&gt;/lib/artifact.dart</title>
<path fill="none" stroke="#aabbaa" stroke-width="1.3" stroke-opacity="0.533333" d="M625.21,-143.7C616.26,-135.45 605.38,-125.43 595.52,-116.35"/>
<polygon fill="#aabbaa" fill-opacity="0.533333" stroke="#aabbaa" stroke-width="1.3" stroke-opacity="0.533333" points="598.01,-113.88 588.28,-109.68 593.27,-119.03 598.01,-113.88"/>
</g>
<!-- /lib/band.dart&#45;&gt;/lib/matrix.dart -->
<g id="edge13" class="edge">
<title>/lib/band.dart&#45;&gt;/lib/matrix.dart</title>
<path fill="none" stroke="#aabbaa" stroke-width="1.3" stroke-opacity="0.533333" d="M638.24,-143.59C630.3,-119.61 615.91,-76.14 606.41,-47.42"/>
<polygon fill="#aabbaa" fill-opacity="0.533333" stroke="#aabbaa" stroke-width="1.3" stroke-opacity="0.533333" points="609.75,-46.37 603.28,-37.98 603.1,-48.57 609.75,-46.37"/>
</g>
<!-- /lib/artifact.dart&#45;&gt;/lib/matrix.dart -->
<g id="edge14" class="edge">
<title>/lib/artifact.dart&#45;&gt;/lib/matrix.dart</title>
<path fill="none" stroke="#aabbaa" stroke-width="1.3" stroke-opacity="0.533333" d="M575.17,-71.7C578.26,-64.24 581.95,-55.32 585.41,-46.97"/>
<polygon fill="#aabbaa" fill-opacity="0.533333" stroke="#aabbaa" stroke-width="1.3" stroke-opacity="0.533333" points="588.57,-48.5 589.16,-37.92 582.1,-45.82 588.57,-48.5"/>
</g>
<!-- /lib/score_match.dart -->
<g id="node8" class="node">
<title>/lib/score_match.dart</title>
<path fill="Lavender" stroke="black" stroke-width="1.3" d="M473.12,-252C473.12,-252 394.88,-252 394.88,-252 388.88,-252 382.88,-246 382.88,-240 382.88,-240 382.88,-228 382.88,-228 382.88,-222 388.88,-216 394.88,-216 394.88,-216 473.12,-216 473.12,-216 479.12,-216 485.12,-222 485.12,-228 485.12,-228 485.12,-240 485.12,-240 485.12,-246 479.12,-252 473.12,-252"/>
<text text-anchor="middle" x="434" y="-228.75" font-family="Arial" font-size="15.00">score_match</text>
</g>
<!-- /lib/character_definition.dart&#45;&gt;/lib/matrix.dart -->
<g id="edge15" class="edge">
<title>/lib/character_definition.dart&#45;&gt;/lib/matrix.dart</title>
<path fill="none" stroke="#aabbaa" stroke-width="1.3" stroke-opacity="0.533333" d="M241.63,-143.85C256.56,-123.3 284.43,-89.45 317,-72 394.6,-30.42 499.6,-21.04 556.42,-19.18"/>
<polygon fill="#aabbaa" fill-opacity="0.533333" stroke="#aabbaa" stroke-width="1.3" stroke-opacity="0.533333" points="556.25,-22.69 566.16,-18.93 556.07,-15.69 556.25,-22.69"/>
</g>
<!-- /lib/textify.dart&#45;&gt;/lib/artifact.dart -->
<g id="edge16" class="edge">
<title>/lib/textify.dart&#45;&gt;/lib/artifact.dart</title>
<path fill="none" stroke="#aabbaa" stroke-width="1.3" stroke-opacity="0.533333" d="M422.16,-295.77C444.13,-287.35 474.16,-272.99 494,-252 530.19,-213.7 551.08,-154.57 560.95,-119.63"/>
<polygon fill="#aabbaa" fill-opacity="0.533333" stroke="#aabbaa" stroke-width="1.3" stroke-opacity="0.533333" points="564.25,-120.82 563.47,-110.26 557.49,-119 564.25,-120.82"/>
</g>
<!-- /lib/textify.dart&#45;&gt;/lib/score_match.dart -->
<g id="edge21" class="edge">
<title>/lib/textify.dart&#45;&gt;/lib/score_match.dart</title>
<path fill="none" stroke="#aabbaa" stroke-width="1.3" stroke-opacity="0.533333" d="M403.89,-287.7C408.25,-280.07 413.48,-270.92 418.35,-262.4"/>
<polygon fill="#aabbaa" fill-opacity="0.533333" stroke="#aabbaa" stroke-width="1.3" stroke-opacity="0.533333" points="421.33,-264.23 423.25,-253.81 415.25,-260.76 421.33,-264.23"/>
</g>
<!-- /lib/textify.dart&#45;&gt;/lib/matrix.dart -->
<g id="edge20" class="edge">
<title>/lib/textify.dart&#45;&gt;/lib/matrix.dart</title>
<path fill="none" stroke="#aabbaa" stroke-width="1.3" stroke-opacity="0.533333" d="M383.93,-287.67C374.64,-269.29 363.72,-239.68 374,-216 410.63,-131.59 504.25,-69.27 557.82,-39.17"/>
<polygon fill="#aabbaa" fill-opacity="0.533333" stroke="#aabbaa" stroke-width="1.3" stroke-opacity="0.533333" points="559.17,-42.41 566.24,-34.53 555.8,-36.28 559.17,-42.41"/>
</g>
<!-- /lib/character_definitions.dart -->
<g id="node12" class="node">
<title>/lib/character_definitions.dart</title>
<path fill="Lavender" stroke="black" stroke-width="1.3" d="M315,-252C315,-252 185,-252 185,-252 179,-252 173,-246 173,-240 173,-240 173,-228 173,-228 173,-222 179,-216 185,-216 185,-216 315,-216 315,-216 321,-216 327,-222 327,-228 327,-228 327,-240 327,-240 327,-246 321,-252 315,-252"/>
<text text-anchor="middle" x="250" y="-228.75" font-family="Arial" font-size="15.00">character_definitions</text>
</g>
<!-- /lib/textify.dart&#45;&gt;/lib/character_definitions.dart -->
<g id="edge18" class="edge">
<title>/lib/textify.dart&#45;&gt;/lib/character_definitions.dart</title>
<path fill="none" stroke="#aabbaa" stroke-width="1.3" stroke-opacity="0.533333" d="M365.89,-291.34C346.18,-281.75 319.37,-268.72 296.5,-257.6"/>
<polygon fill="#aabbaa" fill-opacity="0.533333" stroke="#aabbaa" stroke-width="1.3" stroke-opacity="0.533333" points="298.26,-254.57 287.74,-253.35 295.2,-260.87 298.26,-254.57"/>
</g>
<!-- /lib/textify.dart&#45;&gt;/lib/correction.dart -->
<g id="edge19" class="edge">
<title>/lib/textify.dart&#45;&gt;/lib/correction.dart</title>
<path fill="none" stroke="#aabbaa" stroke-width="1.3" stroke-opacity="0.533333" d="M365.78,-298.79C312.54,-287.07 196.54,-261.53 128.56,-246.57"/>
<polygon fill="#aabbaa" fill-opacity="0.533333" stroke="#aabbaa" stroke-width="1.3" stroke-opacity="0.533333" points="129.7,-243.24 119.18,-244.51 128.2,-250.07 129.7,-243.24"/>
</g>
<!-- /lib/textify.dart&#45;&gt;/lib/bands.dart -->
<g id="edge17" class="edge">
<title>/lib/textify.dart&#45;&gt;/lib/bands.dart</title>
<path fill="none" stroke="#aabbaa" stroke-width="1.3" stroke-opacity="0.533333" d="M422.1,-296.97C465.62,-284.54 549.47,-260.58 599.2,-246.37"/>
<polygon fill="#aabbaa" fill-opacity="0.533333" stroke="#aabbaa" stroke-width="1.3" stroke-opacity="0.533333" points="599.92,-249.81 608.58,-243.69 598,-243.07 599.92,-249.81"/>
</g>
<!-- /lib/character_definitions.dart&#45;&gt;/lib/character_definition.dart -->
<g id="edge22" class="edge">
<title>/lib/character_definitions.dart&#45;&gt;/lib/character_definition.dart</title>
<path fill="none" stroke="#aabbaa" stroke-width="1.3" stroke-opacity="0.533333" d="M239.14,-215.7C236.31,-208.41 233.58,-199.73 231.51,-191.54"/>
<polygon fill="#aabbaa" fill-opacity="0.533333" stroke="#aabbaa" stroke-width="1.3" stroke-opacity="0.533333" points="234.98,-191.04 229.41,-182.03 228.14,-192.54 234.98,-191.04"/>
</g>
<!-- /lib/character_definitions.dart&#45;&gt;/lib/character_definition.dart -->
<g id="edge24" class="edge">
<title>/lib/character_definitions.dart&#45;&gt;/lib/character_definition.dart</title>
<path fill="none" stroke="#aabbaa" stroke-width="1.3" stroke-dasharray="5,2" stroke-opacity="0.533333" d="M250.97,-215.7C249.63,-208.32 247.35,-199.52 244.71,-191.25"/>
<polygon fill="#aabbaa" fill-opacity="0.533333" stroke="#aabbaa" stroke-width="1.3" stroke-opacity="0.533333" points="248.06,-190.23 241.44,-181.96 241.46,-192.55 248.06,-190.23"/>
</g>
<!-- /lib/character_definitions.dart&#45;&gt;/lib/matrix.dart -->
<g id="edge23" class="edge">
<title>/lib/character_definitions.dart&#45;&gt;/lib/matrix.dart</title>
<path fill="none" stroke="#aabbaa" stroke-width="1.3" stroke-opacity="0.533333" d="M275.53,-215.72C287.87,-206.33 302.11,-193.82 312,-180 342.07,-137.99 315.61,-105.43 355,-72 384.99,-46.55 495.65,-30.41 556.41,-23.27"/>
<polygon fill="#aabbaa" fill-opacity="0.533333" stroke="#aabbaa" stroke-width="1.3" stroke-opacity="0.533333" points="556.72,-26.76 566.26,-22.15 555.92,-19.8 556.72,-26.76"/>
</g>
<!-- /lib/english_words.dart -->
<g id="node14" class="node">
<title>/lib/english_words.dart</title>
<path fill="Lavender" stroke="black" stroke-width="1.3" d="M126.25,-180C126.25,-180 39.75,-180 39.75,-180 33.75,-180 27.75,-174 27.75,-168 27.75,-168 27.75,-156 27.75,-156 27.75,-150 33.75,-144 39.75,-144 39.75,-144 126.25,-144 126.25,-144 132.25,-144 138.25,-150 138.25,-156 138.25,-156 138.25,-168 138.25,-168 138.25,-174 132.25,-180 126.25,-180"/>
<text text-anchor="middle" x="83" y="-156.75" font-family="Arial" font-size="15.00">english_words</text>
</g>
<!-- /lib/correction.dart&#45;&gt;/lib/english_words.dart -->
<g id="edge25" class="edge">
<title>/lib/correction.dart&#45;&gt;/lib/english_words.dart</title>
<path fill="none" stroke="#aabbaa" stroke-width="1.3" stroke-opacity="0.533333" d="M77.73,-215.7C78.45,-208.49 79.31,-199.93 80.12,-191.82"/>
<polygon fill="#aabbaa" fill-opacity="0.533333" stroke="#aabbaa" stroke-width="1.3" stroke-opacity="0.533333" points="83.58,-192.36 81.09,-182.06 76.62,-191.66 83.58,-192.36"/>
</g>
<!-- /lib/bands.dart&#45;&gt;/lib/band.dart -->
<g id="edge27" class="edge">
<title>/lib/bands.dart&#45;&gt;/lib/band.dart</title>
<path fill="none" stroke="#aabbaa" stroke-width="1.3" stroke-opacity="0.533333" d="M634.32,-215.7C634.09,-208.49 634.46,-199.93 635.29,-191.82"/>
<polygon fill="#aabbaa" fill-opacity="0.533333" stroke="#aabbaa" stroke-width="1.3" stroke-opacity="0.533333" points="638.73,-192.44 636.62,-182.05 631.8,-191.49 638.73,-192.44"/>
</g>
<!-- /lib/bands.dart&#45;&gt;/lib/band.dart -->
<g id="edge29" class="edge">
<title>/lib/bands.dart&#45;&gt;/lib/band.dart</title>
<path fill="none" stroke="#aabbaa" stroke-width="1.3" stroke-dasharray="5,2" stroke-opacity="0.533333" d="M646.15,-215.7C647.41,-208.49 648.27,-199.93 648.6,-191.82"/>
<polygon fill="#aabbaa" fill-opacity="0.533333" stroke="#aabbaa" stroke-width="1.3" stroke-opacity="0.533333" points="652.1,-192.09 648.66,-182.07 645.1,-192.05 652.1,-192.09"/>
</g>
<!-- /lib/bands.dart&#45;&gt;/lib/artifact.dart -->
<g id="edge26" class="edge">
<title>/lib/bands.dart&#45;&gt;/lib/artifact.dart</title>
<path fill="none" stroke="#aabbaa" stroke-width="1.3" stroke-opacity="0.533333" d="M628.19,-215.6C622,-205.38 614.25,-192.13 608,-180 597.74,-160.08 587.4,-136.99 579.81,-119.32"/>
<polygon fill="#aabbaa" fill-opacity="0.533333" stroke="#aabbaa" stroke-width="1.3" stroke-opacity="0.533333" points="583.04,-117.96 575.9,-110.13 576.59,-120.7 583.04,-117.96"/>
</g>
<!-- /lib/bands.dart&#45;&gt;/lib/matrix.dart -->
<g id="edge28" class="edge">
<title>/lib/bands.dart&#45;&gt;/lib/matrix.dart</title>
<path fill="none" stroke="#aabbaa" stroke-width="1.3" stroke-opacity="0.533333" d="M657.17,-215.68C665.88,-206.1 675.41,-193.43 680,-180 685.17,-164.86 684.41,-159.38 680,-144 669.03,-105.76 641.61,-68.65 621.27,-44.94"/>
<polygon fill="#aabbaa" fill-opacity="0.533333" stroke="#aabbaa" stroke-width="1.3" stroke-opacity="0.533333" points="624.14,-42.9 614.9,-37.71 618.88,-47.53 624.14,-42.9"/>
</g>
</g>
</svg>
